<svg xmlns="http://www.w3.org/2000/svg" width="50" height="50" viewBox="0 0 50 50"><g fill="none" fill-rule="evenodd"><path fill="#E6EAEE" d="M47.2406207,50 C48.7642132,50 50,48.7643649 50,47.2404921 L50,2.7596525 C50,1.23534599 48.7642132,0 47.2406207,0 L2.7595239,0 C1.23520858,0 0,1.23534599 0,2.7596525 L0,47.2404921 C0,48.7643649 1.23520858,50 2.7595239,50 L47.2406207,50 Z"/><path fill="#8A95B3" d="M34.2797957,50 L34.2797957,30.8419723 L40.7662446,30.8419723 L41.7372932,23.3755376 L34.2797957,23.3755376 L34.2797957,18.6085932 C34.2797957,16.4468842 34.8851322,14.9737069 38.0119347,14.9737069 L42,14.9719906 L42,8.29406336 C41.3101241,8.20338429 38.9428776,8 36.1888562,8 C30.439025,8 26.5028951,11.479416 26.5028951,17.86943 L26.5028951,23.3755376 L20,23.3755376 L20,30.8419723 L26.5028951,30.8419723 L26.5028951,50 L34.2797957,50 Z"/></g></svg>