<svg width="50" height="50" xmlns="http://www.w3.org/2000/svg">
  <g fill="none" fill-rule="evenodd">
    <rect fill="#F3F4F6" width="50" height="50" rx="2"/>
    <path d="M41.132 35.43a21.062 21.062 0 0 1-2.083 3.744c-1.095 1.562-1.992 2.643-2.683 3.243-1.071.985-2.219 1.49-3.448 1.518-.883 0-1.947-.25-3.185-.76-1.243-.507-2.385-.758-3.43-.758-1.095 0-2.27.25-3.526.758-1.258.51-2.272.775-3.047.8-1.178.051-2.353-.468-3.526-1.558-.748-.653-1.685-1.772-2.806-3.358-1.203-1.693-2.193-3.656-2.968-5.894-.83-2.418-1.246-4.759-1.246-7.025 0-2.597.561-4.836 1.685-6.712a9.883 9.883 0 0 1 3.528-3.57 9.492 9.492 0 0 1 4.77-1.345c.937 0 2.164.29 3.69.858 1.521.571 2.498.861 2.926.861.32 0 1.406-.339 3.245-1.014 1.74-.626 3.208-.885 4.411-.783 3.26.263 5.708 1.548 7.337 3.863-2.915 1.766-4.357 4.24-4.329 7.413.027 2.472.923 4.53 2.686 6.162a8.825 8.825 0 0 0 2.683 1.76 28.997 28.997 0 0 1-.684 1.796zM33.657 6.013c0 1.937-.708 3.746-2.119 5.42-1.703 1.991-3.762 3.142-5.995 2.96a6.031 6.031 0 0 1-.045-.734c0-1.86.81-3.85 2.247-5.478.718-.824 1.631-1.51 2.738-2.056 1.105-.538 2.15-.836 3.133-.887.029.259.04.518.04.775z" fill="#000" fill-rule="nonzero"/>
  </g>
</svg>
