<svg width="50" height="50" xmlns="http://www.w3.org/2000/svg">
  <g fill="none" fill-rule="evenodd">
    <rect fill="#F3F4F6" width="50" height="50" rx="2"/>
    <g fill="#B3B3B3" fill-rule="nonzero">
      <path d="M35.176 25.858c-.043-4.727 3.86-6.996 4.037-7.106-2.197-3.213-5.614-3.653-6.833-3.705-2.907-.294-5.675 1.711-7.149 1.711-1.473 0-3.752-1.669-6.162-1.622-3.173.047-6.094 1.843-7.727 4.682-3.293 5.712-.84 14.179 2.365 18.816 1.57 2.267 3.439 4.82 5.896 4.726 2.368-.094 3.263-1.53 6.12-1.53 2.858 0 3.663 1.53 6.165 1.486 2.544-.05 4.159-2.317 5.717-4.59 1.798-2.632 2.542-5.179 2.584-5.313-.056-.023-4.961-1.904-5.013-7.555M30.475 11.98c1.304-1.58 2.185-3.776 1.942-5.965-1.878.075-4.152 1.252-5.5 2.832-1.208 1.395-2.267 3.631-1.98 5.776 2.095.162 4.234-1.067 5.538-2.644"/>
    </g>
  </g>
</svg>
