<svg xmlns="http://www.w3.org/2000/svg" xmlns:xlink="http://www.w3.org/1999/xlink" width="50" height="50" version="1.1" viewBox="0 0 50 50"><title>tiktok-app-icon-seeklogo.com</title><g id="Page-1" fill="none" fill-rule="evenodd" stroke="none" stroke-width="1"><g id="tiktok-app-icon-seeklogo.com" fill-rule="nonzero"><path id="Path" fill="#000" d="M37.5873288,49.8458904 L12.2568493,49.8458904 C5.4880137,49.8458904 0,44.3578767 0,37.5873288 L0,12.2568493 C0,5.4880137 5.4880137,0 12.2568493,0 L37.5873288,0 C44.3561644,0 49.8441785,5.4880137 49.8441785,12.2568493 L49.8441785,37.5873288 C49.8458904,44.3578767 44.3578767,49.8458904 37.5873288,49.8458904 Z"/><g id="Group" fill="#25F4EE" transform="translate(7.363014, 5.993151)"><path id="Path" d="M13.3493151,15.2208904 L13.3493151,13.7140411 C12.8263884,13.6313194 12.2982138,13.5861127 11.7688356,13.5787433 C6.64383562,13.5684932 2.10787671,16.8886986 0.568493151,21.7756849 C-0.970890411,26.6626712 0.845890411,31.984589 5.05136986,34.9109589 C0.63869863,30.1883562 0.890410959,22.7825342 5.6130137,18.369863 C7.71736531,16.4054501 10.471266,15.2845065 13.3493151,15.2208904 L13.3493151,15.2208904 Z"/><path id="Shape" d="M13.6335616,32.2825342 C16.4982877,32.2791096 18.8527397,30.0222603 18.9794521,27.1592466 L18.9794521,1.61643836 L23.6455479,1.61643836 C23.5501081,1.08302813 23.5048192,0.541853737 23.510274,1.21668277e-15 L17.1284247,1.21668277e-15 L17.1284247,25.5171233 C17.0222603,28.3938356 14.6609589,30.6729452 11.7825342,30.6780822 C10.9229452,30.6712329 10.0753425,30.4589041 9.31335616,30.0616438 C10.3155705,31.4500252 11.9212573,32.2754615 13.6335616,32.2825342 Z M32.359589,10.2825342 L32.359589,8.8630137 C30.6421233,8.8630137 28.9623288,8.35616438 27.5325342,7.40582192 C28.7858812,8.86416777 30.4805364,9.8741077 32.359589,10.2825342 L32.359589,10.2825342 Z"/></g><path id="Shape" fill="#FE2C55" d="M34.8972603,13.4006849 C33.4877483,11.796234 32.7110092,9.73324901 32.7123288,7.59760274 L31.0085616,7.59760274 C31.4519476,9.98428502 32.8584088,12.0831387 34.8972603,13.4006849 L34.8972603,13.4006849 Z M19.1318493,25.9554795 C16.1729452,25.9708904 13.7859589,28.3818493 13.8012957,31.3407534 C13.8113336,33.3199466 14.9114914,35.1324747 16.6626712,36.0547945 C14.9315068,33.6643836 15.4657534,30.3219178 17.8561644,28.5890411 C18.7695109,27.927505 19.8688212,27.5720573 20.9965753,27.5736301 C21.5325342,27.5804795 22.0650685,27.6643836 22.5770548,27.8219178 L22.5770548,21.3270548 C22.0547945,21.2482877 21.5256849,21.2071918 20.9965753,21.2037671 L20.7123288,21.2037671 L20.7123288,26.1421233 C20.1969178,26.0017123 19.6643836,25.9400685 19.1318493,25.9554795 L19.1318493,25.9554795 Z"/><path id="Path" fill="#FE2C55" d="M39.7226027,16.2756849 L39.7226027,21.2140411 C36.543447,21.2079389 33.4468334,20.2014945 30.8715753,18.3373288 L30.8715753,31.3116438 C30.8578767,37.7859589 25.6061644,43.0273973 19.1318493,43.0273973 C16.7274289,43.0319782 14.3808728,42.2900787 12.4160959,40.9041096 C16.8219178,45.6421233 24.234589,45.9126712 28.9743151,41.5068493 C31.3577934,39.2912988 32.7120172,36.1839661 32.7123288,32.9297945 L32.7123288,19.9914384 C35.2965196,21.8424645 38.396614,22.8355009 41.5753425,22.8304795 L41.5753425,16.4743151 C40.9520548,16.4708904 40.3321918,16.4058219 39.7226027,16.2756849 L39.7226027,16.2756849 Z"/><path id="Path" fill="#FFF" d="M30.8715753,18.3390411 C33.4550244,20.1915424 36.5556072,21.1847353 39.734589,21.1780822 L39.734589,16.239726 C37.8565688,15.8426946 36.1583391,14.8463518 34.8955479,13.4006849 C32.8577112,12.0821072 31.4515752,9.98373867 31.0068493,7.59760274 L26.3407534,7.59760274 L26.3407534,33.1523973 C26.2191781,36.109589 23.7260274,38.4075342 20.7688356,38.2876712 C19.1297318,38.2211686 17.6115039,37.4071561 16.6489726,36.0787671 C14.0308219,34.7003425 13.0256849,31.4606164 14.4041096,28.8424658 C15.325884,27.0907727 17.1387541,25.9904073 19.1181507,25.9811644 C19.6541096,25.9863014 20.1866438,26.0684932 20.6986301,26.2277397 L20.6986301,21.2157534 C14.2363014,21.3253425 9.08561644,26.7277397 9.19520548,33.1900685 C9.24477897,36.1165874 10.3890561,38.9183252 12.4023973,41.0428082 C14.386478,42.3830486 16.7362591,43.0773973 19.130137,43.0308219 C25.6061644,43.0291096 30.8578767,37.7876712 30.8715753,31.3133562 L30.8715753,18.3390411 Z"/></g></g></svg>