<svg xmlns="http://www.w3.org/2000/svg" width="50" height="50" viewBox="0 0 50 50"><g fill="none" fill-rule="evenodd"><rect width="50" height="50" fill="#F3F4F6" rx="2"/><path fill="#8A95B3" d="M20,23.3488614 L19.990016,18.0124779 L12.3123003,18 L12.3123003,24.3242175 C12.3123003,25.2662993 11.0443291,25.6094416 10,25.9650619 L10,30.2491421 C11.0443291,30.6172403 12.3083067,30.7628158 12.3083067,31.958615 L12.3083067,37.9376105 L19.9860224,38 L19.9860224,33.4247686 C19.9920128,30.3052927 19.2292332,28.8370594 17.264377,28.017677 C19.1413738,27.4790475 20,25.9920973 20,23.3488614"/><polygon fill="#8A95B3" points="12 16.988 20 17 20 11.01 12 11"/><path fill="#8A95B3" d="M29.4807885,18.5406864 C29.4827115,17.4759721 30.1288654,16.8151864 31.2461731,16.8151864 C32.6500192,16.8172579 33.2654038,18.0953293 33.2654038,19.3734007 L33.2654038,20.235115 L40.6865577,20.2475436 L40.6865577,18.698115 C40.6923269,13.9462579 37.5634808,10.1555436 31.2519423,10.1555436 C24.2307885,10.1451864 21.4000192,14.2735436 21.4000192,19.0378293 C21.4000192,27.8517579 32.7461731,27.340115 32.7461731,30.486615 C32.74425,31.5950364 32.0904038,32.2494007 30.7596346,32.2494007 C29.3173269,32.2473293 28.5654038,31.1807507 28.5654038,29.6249007 L28.5654038,29.0034721 L21.1404038,29.0034721 L21.1404038,30.4534721 C21.1404038,35.2134079 24.3084808,38.9776079 30.9384808,39.0001864 C37.8530962,39.0055721 40.8154038,34.7179221 40.8154038,29.9563293 C40.8269423,21.1444721 29.4807885,22.0206864 29.4807885,18.5406864"/></g></svg>