<svg xmlns="http://www.w3.org/2000/svg" xmlns:xlink="http://www.w3.org/1999/xlink" width="50" height="50" viewBox="0 0 50 50"><defs><polygon id="-google-a" points=".091 14.216 27.066 14.216 27.066 .08 .091 .08"/></defs><g fill="none" fill-rule="evenodd"><rect width="50" height="50" fill="#F3F4F6" rx="2"/><g><path fill="#3E82F1" d="M33.6751782,14.2790588 L17.3421238,14.2790588 L17.3421238,21.0297451 L26.6751725,21.0297451 C26.4880264,22.0459216 26.1208458,22.9883725 25.5985708,23.8318039 C24.9995278,24.7993529 24.1959003,25.6361176 23.2147713,26.2971961 L28.8193158,30.6760196 C30.7755335,28.8635686 32.2376309,26.5399412 33.0993215,23.8318039 C33.6820951,22.0003333 33.9904332,19.9930784 33.9904332,17.8487647 C33.9904332,16.6113137 33.8801524,15.4213137 33.6751782,14.2790588" transform="translate(7.999 8.09)"/><g transform="translate(7.999 8.09) translate(1.754 20.689)"><mask id="-google-b" fill="#fff"><use xlink:href="#-google-a"/></mask><path fill="#32A753" d="M21.4611897,5.60866667 C19.9081983,6.65582353 17.9217799,7.27454902 15.5885421,7.27454902 C15.5652585,7.27454902 15.5424619,7.27327451 15.5192756,7.27317647 C12.2477742,7.25023529 9.34705788,5.61739216 7.48943037,3.14337255 C6.84050774,2.27915686 6.31940172,1.31278431 5.95397479,0.276117647 C5.93088596,0.210529412 5.90662808,0.145529412 5.88480573,0.0795490196 L1.9590235,3.14337255 L0.091069341,4.60121569 C1.44327564,7.3042549 3.47226705,9.60415686 5.95397479,11.2765098 C8.69112092,13.1208235 11.979184,14.2012157 15.5192756,14.2150392 C15.5423645,14.2151373 15.5653559,14.2157255 15.5885421,14.2157255 C20.2708,14.2157255 24.1964848,12.6529804 27.0657341,9.9874902 L21.4611897,5.60866667 Z" mask="url(#-google-b)"/></g><path fill="#F9BB00" d="M7.63841662,14.1362157 L3.71253696,11.0724902 L1.84458281,9.61464706 C1.60843381,10.0882745 1.39371748,10.5750392 1.19975186,11.0724902 C0.428760458,13.0490588 9.74212034e-06,15.2021961 9.74212034e-06,17.452098 C9.74212034e-06,19.702 0.428760458,21.8552353 1.19965444,23.831902 C1.39371748,24.3292549 1.60843381,24.8161176 1.84458281,25.2897451 L3.71263438,23.831902 L7.63841662,20.7680784 C7.29149971,19.7209216 7.09441662,18.6023922 7.09441662,17.452098 C7.09441662,16.301902 7.29149971,15.1833725 7.63841662,14.1362157" transform="translate(7.999 8.09)"/><path fill="#E74133" d="M17.3420946,3.92156863e-05 C17.3190057,3.92156863e-05 17.2959169,0.000529411765 17.2728281,0.00062745098 C10.523,0.0271960784 4.6883467,3.93033333 1.84462178,9.61464706 L3.71257593,11.0723922 L7.63845559,14.1362157 C7.66018052,14.0701373 7.6844384,14.0051373 7.70752722,13.939549 C8.07295415,12.9029804 8.59406017,11.9366078 9.24288539,11.0723922 C11.1007077,8.59847059 14.0012292,6.96552941 17.2728281,6.94268627 C17.2960143,6.9424902 17.3189083,6.94121569 17.3420946,6.94121569 C19.8881977,6.94121569 22.1741862,7.82180392 23.97151,9.55111765 L28.9078424,4.58337255 L28.945447,4.54552941 C25.9421461,1.72945098 22.0165587,3.92156863e-05 17.3420946,3.92156863e-05" transform="translate(7.999 8.09)"/></g></g></svg>