<svg xmlns="http://www.w3.org/2000/svg" width="93.48" height="93.45" viewBox="0 0 93.48 93.45">
  <defs>
    <style>
      .\34 f95967b-f104-429e-af5f-be9cae557800 {
        fill: #E6EAEE;
      }
      .\38 c0d91ba-0900-46a6-91fa-23a704dd915e {
        fill: #E6EAEE;
      }
      .fe0c8653-82c7-461b-b748-ae86abf0ff60 {
        fill: #E6EAEE;
      }
      .ca17c33c-3e53-4f22-858f-5c500016c2ee {
        fill: #E6EAEE;
      }
    </style>
  </defs>
  <title>tencent-color</title>
  <g id="50e8595f-519d-4dd7-81ce-3a7d1a806bb0" data-name="Ebene 2">
    <g id="5b53d0cd-80df-4664-92e8-72df069ce27e" data-name="Ebene 1"><path class="4f95967b-f104-429e-af5f-be9cae557800" d="M51.57,76.33V93.42A47,47,0,0,0,93.48,51.06H76.42A30,30,0,0,1,51.57,76.33Z"/><path class="8c0d91ba-0900-46a6-91fa-23a704dd915e" d="M76.32,41.72H93.41A47,47,0,0,0,51.57,0V17.12A30,30,0,0,1,76.32,41.72Z"/><path class="fe0c8653-82c7-461b-b748-ae86abf0ff60" d="M42.24,17.06V0A47,47,0,0,0,.06,41.72h17.1A30,30,0,0,1,42.24,17.06Z"/><path class="ca17c33c-3e53-4f22-858f-5c500016c2ee" d="M17.05,51.06H0A46.63,46.63,0,0,0,8.32,73.68L1.07,92.06l18.29-7.21a46.7,46.7,0,0,0,22.88,8.6V76.39A30,30,0,0,1,17.05,51.06Z"/></g>
  </g>
</svg>
