<svg xmlns="http://www.w3.org/2000/svg" xmlns:xlink="http://www.w3.org/1999/xlink" id="Ebene_1" x="0" y="0" version="1.1" viewBox="0 0 50 50" xml:space="preserve" style="enable-background:new 0 0 50 50"><style type="text/css">.st0{fill:#fff}.st1{fill-rule:evenodd;clip-rule:evenodd;fill:#1c1c40}</style><rect width="37.9" height="36.3" x="5.5" y="6.5" class="st0"/><path d="M2,0h46c1.1,0,2,0.9,2,2v46c0,1.1-0.9,2-2,2H2c-1.1,0-2-0.9-2-2V2C0,0.9,0.9,0,2,0z M20,23.3l0-5.3l-7.7,0v6.3	c0,0.9-1.3,1.3-2.3,1.6v4.3c1,0.4,2.3,0.5,2.3,1.7v6L20,38v-4.6c0-3.1-0.8-4.6-2.7-5.4C19.1,27.5,20,26,20,23.3z M12,17l8,0v-6l-8,0	V17z M29.5,18.5c0-1.1,0.6-1.7,1.8-1.7c1.4,0,2,1.3,2,2.6v0.9l7.4,0v-1.5c0-4.8-3.1-8.5-9.4-8.5c-7,0-9.9,4.1-9.9,8.9	c0,8.8,11.3,8.3,11.3,11.4c0,1.1-0.7,1.8-2,1.8c-1.4,0-2.2-1.1-2.2-2.6V29h-7.4v1.5c0,4.8,3.2,8.5,9.8,8.5c6.9,0,9.9-4.3,9.9-9	C40.8,21.1,29.5,22,29.5,18.5z" class="st1"/></svg>