<?xml version="1.0" encoding="UTF-8"?>
<svg version="1.1" viewBox="0 0 50 50" xmlns="http://www.w3.org/2000/svg">
<g fill="none" fill-rule="evenodd">
<rect width="50" height="50" rx="2" fill="#0599C5"/>
<g transform="translate(4 6)" fill="#fff" fill-rule="nonzero">
<path d="m38.922 26.943c-2.7559 0-4.9976 2.1967-4.9976 4.8974s2.2416 4.8974 4.9976 4.8974c2.7559 0 4.9976-2.1967 4.9976-4.8974s-2.2416-4.8974-4.9976-4.8974zm2.9551 4.8974c0 1.5965-1.3259 2.8959-2.9551 2.8959s-2.9551-1.2994-2.9551-2.8959 1.3259-2.8959 2.9551-2.8959 2.9551 1.2994 2.9551 2.8959z"/>
<path d="m5.0778 26.943c-2.7559 0-4.9976 2.1967-4.9976 4.8974s2.2416 4.8974 4.9976 4.8974c2.7559 0 4.9976-2.1967 4.9976-4.8974 0.00297-2.7007-2.2416-4.8974-4.9976-4.8974zm2.9581 4.8974c0 1.5965-1.3259 2.8959-2.9551 2.8959s-2.9551-1.2994-2.9551-2.8959 1.3259-2.8959 2.9551-2.8959 2.9551 1.2994 2.9551 2.8959z"/>
<path d="m22 0.11362c-2.7559 0-4.9976 2.1967-4.9976 4.8974s2.2416 4.8974 4.9976 4.8974 4.9976-2.1967 4.9976-4.8974-2.2416-4.8974-4.9976-4.8974zm2.9551 4.8974c0 1.5965-1.3259 2.8959-2.9551 2.8959s-2.9551-1.2994-2.9551-2.8959c0-1.5965 1.3259-2.8959 2.9551-2.8959s2.9551 1.2994 2.9551 2.8959z"/>
<path d="m37.073 27.488-11.036-19.476-0.10703-0.18937-0.13676 0.16898c-0.38054 0.46323-0.84432 0.83906-1.3735 1.1158l-0.13378 0.069921 0.074324 0.12819 9.7692 17.241c-3.41-0.74874-7.6495-1.1595-11.984-1.1595-4.7865 0-9.0408 0.39913-12.338 1.1508l9.7662-17.236 0.074324-0.12819-0.13378-0.069921c-0.53216-0.27969-0.99297-0.65551-1.3735-1.1158l-0.13676-0.16898-0.10703 0.18937-11.036 19.476-0.086216 0.1515 0.16649 0.058268c0.54108 0.18646 1.0376 0.84488 1.4746 1.2236l0.074324 0.064094 0.089189-0.040787 0.035676-0.0058268c3.523-0.95559 8.1995-1.4625 13.533-1.4625 4.7984 0 9.4541 0.51567 13.117 1.4538l0.074324 0.13984 0.1427-0.11362 0.02973-0.023307c0.44595-0.38457 0.94243-1.0459 1.4865-1.2324l0.16649-0.055354-0.092162-0.15441z"/>
</g>
</g>
</svg>
