<svg xmlns="http://www.w3.org/2000/svg" xmlns:xlink="http://www.w3.org/1999/xlink" width="50" height="50" version="1.1" viewBox="0 0 50 50"><title>Artboard</title><g id="Artboard" fill="none" fill-rule="evenodd" stroke="none" stroke-width="1"><g id="5e6614e8a8442c8e40ccd240_adikteev-logo" fill="#1D3D5F" fill-rule="nonzero" transform="translate(4.000000, 1.000000)"><circle id="Oval" cx="21.421" cy="4.4" r="4.4"/><circle id="Oval" cx="38.149" cy="34.042" r="4.4"/><path id="Path" d="M42.5430237,14.3808553 C42.5402502,16.2703891 41.3323734,17.9475796 39.5411206,18.5490435 C37.7498678,19.1505074 35.7745577,18.542162 34.6320395,17.0371711 L25.41875,22.5174342 C26.0090146,23.8013013 25.9473059,25.2904436 25.2528429,26.5210728 C24.55838,27.751702 23.3155327,28.5743096 21.9113816,28.7326974 L21.9113816,39.935 C24.2333876,40.1917203 25.9500454,42.218208 25.8214905,44.5508226 C25.6929355,46.8834373 23.7639834,48.7090084 21.4278289,48.7090084 C19.0916745,48.7090084 17.1627224,46.8834373 17.0341674,44.5508226 C16.9056125,42.218208 18.6222703,40.1917203 20.9442763,39.935 L20.9442763,28.7326974 C18.7132095,28.4860323 17.0254169,26.5995942 17.0275,24.3549342 C17.0243686,23.7367785 17.1552453,23.1252871 17.4111184,22.5625658 L7.93671053,17.0081579 C6.64660438,18.7424013 4.28853818,19.2839189 2.37106914,18.2862784 C0.453600105,17.2886379 -0.456322406,15.0468175 0.2234185,12.995007 C0.903159407,10.9431965 2.97158073,9.68806675 5.10542365,10.0325787 C7.23926657,10.3770906 8.80760519,12.2193803 8.80710526,14.3808553 C8.80862145,14.9988432 8.6778175,15.6099944 8.42348684,16.1732237 L17.8978947,21.7276316 C18.7252376,20.6186284 20.0257061,19.9629619 21.409307,19.9572576 C22.792908,19.9515534 24.0987385,20.5964747 24.9351974,21.6986184 L34.1484868,16.2183553 C33.3847119,14.5804124 33.6992718,12.6420935 34.9418339,11.3297488 C36.1843959,10.0174041 38.1026545,9.59750884 39.7798465,10.2707368 C41.4570385,10.9439649 42.5526056,12.5736154 42.5430237,14.3808553 Z"/><circle id="Oval" cx="4.404" cy="34.042" r="4.4"/></g></g></svg>