<svg xmlns="http://www.w3.org/2000/svg" width="50" height="50" viewBox="0 0 50 50"><g fill="none" fill-rule="evenodd"><rect width="50" height="50" fill="#F3F4F6" rx="2"/><path fill="#8A95B3" d="M25.7216739,40.999611 C25.6311948,40.999611 25.5429776,40.999611 25.4540065,40.9919795 C25.395949,40.9980847 25.3371376,41.0011373 25.2790801,40.999611 C23.2056,40.999611 21.8748028,40.0533032 20.5877371,39.1451529 C19.7975527,38.4796848 18.8701416,38.0027151 17.8733632,37.7485856 C17.4021177,37.6707442 16.9248403,37.629534 16.4475628,37.6264814 C15.7825412,37.6318234 15.1197816,37.7089017 14.4713478,37.8546637 C14.2293161,37.9096106 13.9827605,37.9454787 13.7354508,37.962268 C13.4971891,37.9920309 13.2747613,37.8340586 13.2234898,37.5951922 C13.1413045,37.3135892 13.0824931,37.0388547 13.0251897,36.7793832 C12.8781611,36.1001783 12.7733561,35.6873134 12.4913628,35.6415243 C9.20244632,35.1309759 8.26146335,34.4357449 8.05109937,33.9404596 C8.02244764,33.8748285 8.00510581,33.8046186 8.00058185,33.7336455 C7.99002595,33.5428576 8.12423666,33.3757275 8.31047288,33.3452014 C13.3667484,32.5049716 15.6340046,27.3163045 15.7274997,27.0942274 C15.7305157,27.0896485 15.7327777,27.0850695 15.7357937,27.0797275 C16.0321128,26.5920737 16.0984642,25.9960523 15.9167519,25.4542148 C15.5699153,24.6300111 14.4381721,24.2713299 13.6887033,24.034753 C13.5054831,23.9737008 13.3320647,23.9202802 13.194838,23.8668596 C11.7004244,23.2716014 11.5760156,22.6610802 11.634073,22.3481881 C11.8580089,21.7849823 12.4091776,21.4278274 13.0078478,21.4553009 C13.1488445,21.4491956 13.2890871,21.4781954 13.4172659,21.5392475 C13.9774825,21.8246662 14.5919866,21.9856912 15.2185546,22.0124015 C15.6076149,22.0436907 15.9936592,21.9200601 16.2945023,21.6682201 C16.2764065,21.3248019 16.2537867,20.9668839 16.2304129,20.5921765 C16.0796144,18.1958807 15.8933782,15.2119583 16.6496329,13.5101305 C18.1380146,10.1225009 21.4789566,7.95820323 25.1418535,8.00857123 L25.7638975,8.00093971 L25.8475907,8.00093971 C29.5150115,7.94828226 32.8604774,10.1125799 34.3548911,13.5032621 C35.1088839,15.20509 34.9241556,18.1966439 34.7733571,20.5929396 L34.7673251,20.6997809 C34.7462133,21.0355675 34.7266095,21.3560912 34.7085137,21.6689833 C34.9837211,21.9002182 35.3328197,22.0223224 35.6894583,22.0124015 C36.2790806,21.9643229 36.8558851,21.8040611 37.38745,21.5392475 C37.5533284,21.4636955 37.7335327,21.4278274 37.914491,21.4324063 C38.121839,21.4301169 38.326171,21.4698007 38.5184392,21.546879 L38.5297491,21.5545105 C38.9693268,21.6529571 39.3048536,22.0124015 39.3772369,22.4618977 C39.3840229,22.8129474 39.1163554,23.3479166 37.804408,23.8660965 C37.6686893,23.9195171 37.495271,23.9729377 37.3112967,24.034753 C36.557304,24.2713299 35.4263148,24.629248 35.0832481,25.4534516 C34.9015359,25.9960523 34.9671332,26.5913105 35.2634524,27.0797275 C35.2664684,27.0843064 35.2694843,27.0888853 35.2717463,27.0942274 C35.3659954,27.3155413 37.6317437,32.5049716 42.6887732,33.3444382 C42.8757634,33.3749643 43.0099741,33.5428576 42.9994182,33.7336455 C42.9948942,33.8046186 42.9775524,33.8748285 42.9481467,33.9396964 C42.7392907,34.4349817 41.7983077,35.1302128 38.5078833,35.6415243 C38.2394618,35.6796819 38.1308869,36.0299684 37.9740564,36.7709885 C37.9167529,37.0380916 37.8579415,37.2967999 37.7765103,37.5806923 C37.7297627,37.8012431 37.5276927,37.9515839 37.3060188,37.9309788 L37.2645492,37.9309788 C37.0172396,37.9225842 36.7706839,37.8920581 36.5286522,37.8394006 C35.8779565,37.7027965 35.2159508,37.6310603 34.5524372,37.6257182 C34.0744058,37.629534 33.5978824,37.669981 33.1258829,37.7478225 C32.1306124,38.0019519 31.2039553,38.475869 30.4115089,39.1367582 C29.1267052,40.0533032 27.795154,40.999611 25.7216739,40.999611"/></g></svg>