<?xml version="1.0" encoding="UTF-8"?>
<svg version="1.1" viewBox="0 0 50 50" xmlns="http://www.w3.org/2000/svg">
<g fill="none" fill-rule="evenodd">
<rect width="50" height="50" rx="2" fill="#F3F4F6"/>
<g transform="translate(4 6)" fill="#8A95B3" fill-rule="nonzero">
<path d="m38.038 26.331c-2.6933 0-4.884 2.1468-4.884 4.7861s2.1907 4.7861 4.884 4.7861 4.884-2.1468 4.884-4.7861-2.1907-4.7861-4.884-4.7861zm2.888 4.7861c0 1.5603-1.2958 2.8301-2.888 2.8301-1.5922 0-2.888-1.2698-2.888-2.8301s1.2958-2.8301 2.888-2.8301c1.5922 0 2.888 1.2698 2.888 2.8301z"/>
<path d="m4.9624 26.331c-2.6933 0-4.884 2.1468-4.884 4.7861s2.1907 4.7861 4.884 4.7861 4.884-2.1468 4.884-4.7861c0.0029025-2.6393-2.1907-4.7861-4.884-4.7861zm2.8909 4.7861c0 1.5603-1.2958 2.8301-2.888 2.8301s-2.888-1.2698-2.888-2.8301 1.2958-2.8301 2.888-2.8301 2.888 1.2698 2.888 2.8301z"/>
<path d="m21.5 0.11104c-2.6933 0-4.884 2.1468-4.884 4.7861s2.1907 4.7861 4.884 4.7861 4.884-2.1468 4.884-4.7861-2.1907-4.7861-4.884-4.7861zm2.888 4.7861c0 1.5603-1.2958 2.8301-2.888 2.8301s-2.888-1.2698-2.888-2.8301 1.2958-2.8301 2.888-2.8301 2.888 1.2698 2.888 2.8301z"/>
<path d="m36.23 26.863-10.785-19.033-0.10459-0.18507-0.13365 0.16514c-0.37189 0.4527-0.82514 0.81999-1.3423 1.0905l-0.13074 0.068332 0.072635 0.12528 9.5472 16.85c-3.3325-0.73172-7.4756-1.1332-11.712-1.1332-4.6777 0-8.8353 0.39006-12.057 1.1246l9.5443-16.844 0.072635-0.12528-0.13074-0.068332c-0.52007-0.27333-0.97041-0.64061-1.3423-1.0905l-0.13365-0.16514-0.10459 0.18507-10.785 19.033-0.084257 0.14805 0.1627 0.056943c0.52878 0.18222 1.014 0.82568 1.4411 1.1958l0.072635 0.062638 0.087162-0.03986 0.034865-0.0056943c3.4429-0.93387 8.0131-1.4293 13.225-1.4293 4.6893 0 9.2392 0.50395 12.819 1.4207l0.072635 0.13666 0.13946-0.11104 0.029054-0.022777c0.43581-0.37583 0.92101-1.0221 1.4527-1.2044l0.1627-0.054096-0.090068-0.1509z"/>
</g>
</g>
</svg>
