<svg xmlns="http://www.w3.org/2000/svg" width="50" height="50" viewBox="0 0 50 50">
  <g fill="none" fill-rule="evenodd">
    <rect width="50" height="50" fill="#FFFC00" rx="2"/>
    <path fill="#FFF" d="M25.7216739,40.999611 C25.6311948,40.999611 25.5429776,40.999611 25.4540065,40.9919795 C25.395949,40.9980847 25.3371376,41.0011373 25.2790801,40.999611 C23.2056,40.999611 21.8748028,40.0533032 20.5877371,39.1451529 C19.7975527,38.4796848 18.8701416,38.0027151 17.8733632,37.7485856 C17.4021177,37.6707442 16.9248403,37.629534 16.4475628,37.6264814 C15.7825412,37.6318234 15.1197816,37.7089017 14.4713478,37.8546637 C14.2293161,37.9096106 13.9827605,37.9454787 13.7354508,37.962268 C13.4971891,37.9920309 13.2747613,37.8340586 13.2234898,37.5951922 C13.1413045,37.3135892 13.0824931,37.0388547 13.0251897,36.7793832 C12.8781611,36.1001783 12.7733561,35.6873134 12.4913628,35.6415243 C9.20244632,35.1309759 8.26146335,34.4357449 8.05109937,33.9404596 C8.02244764,33.8748285 8.00510581,33.8046186 8.00058185,33.7336455 C7.99002595,33.5428576 8.12423666,33.3757275 8.31047288,33.3452014 C13.3667484,32.5049716 15.6340046,27.3163045 15.7274997,27.0942274 C15.7305157,27.0896485 15.7327777,27.0850695 15.7357937,27.0797275 C16.0321128,26.5920737 16.0984642,25.9960523 15.9167519,25.4542148 C15.5699153,24.6300111 14.4381721,24.2713299 13.6887033,24.034753 C13.5054831,23.9737008 13.3320647,23.9202802 13.194838,23.8668596 C11.7004244,23.2716014 11.5760156,22.6610802 11.634073,22.3481881 C11.8580089,21.7849823 12.4091776,21.4278274 13.0078478,21.4553009 C13.1488445,21.4491956 13.2890871,21.4781954 13.4172659,21.5392475 C13.9774825,21.8246662 14.5919866,21.9856912 15.2185546,22.0124015 C15.6076149,22.0436907 15.9936592,21.9200601 16.2945023,21.6682201 C16.2764065,21.3248019 16.2537867,20.9668839 16.2304129,20.5921765 C16.0796144,18.1958807 15.8933782,15.2119583 16.6496329,13.5101305 C18.1380146,10.1225009 21.4789566,7.95820323 25.1418535,8.00857123 L25.7638975,8.00093971 L25.8475907,8.00093971 C29.5150115,7.94828226 32.8604774,10.1125799 34.3548911,13.5032621 C35.1088839,15.20509 34.9241556,18.1966439 34.7733571,20.5929396 L34.7673251,20.6997809 C34.7462133,21.0355675 34.7266095,21.3560912 34.7085137,21.6689833 C34.9837211,21.9002182 35.3328197,22.0223224 35.6894583,22.0124015 C36.2790806,21.9643229 36.8558851,21.8040611 37.38745,21.5392475 C37.5533284,21.4636955 37.7335327,21.4278274 37.914491,21.4324063 C38.121839,21.4301169 38.326171,21.4698007 38.5184392,21.546879 L38.5297491,21.5545105 C38.9693268,21.6529571 39.3048536,22.0124015 39.3772369,22.4618977 C39.3840229,22.8129474 39.1163554,23.3479166 37.804408,23.8660965 C37.6686893,23.9195171 37.495271,23.9729377 37.3112967,24.034753 C36.557304,24.2713299 35.4263148,24.629248 35.0832481,25.4534516 C34.9015359,25.9960523 34.9671332,26.5913105 35.2634524,27.0797275 C35.2664684,27.0843064 35.2694843,27.0888853 35.2717463,27.0942274 C35.3659954,27.3155413 37.6317437,32.5049716 42.6887732,33.3444382 C42.8757634,33.3749643 43.0099741,33.5428576 42.9994182,33.7336455 C42.9948942,33.8046186 42.9775524,33.8748285 42.9481467,33.9396964 C42.7392907,34.4349817 41.7983077,35.1302128 38.5078833,35.6415243 C38.2394618,35.6796819 38.1308869,36.0299684 37.9740564,36.7709885 C37.9167529,37.0380916 37.8579415,37.2967999 37.7765103,37.5806923 C37.7297627,37.8012431 37.5276927,37.9515839 37.3060188,37.9309788 L37.2645492,37.9309788 C37.0172396,37.9225842 36.7706839,37.8920581 36.5286522,37.8394006 C35.8779565,37.7027965 35.2159508,37.6310603 34.5524372,37.6257182 C34.0744058,37.629534 33.5978824,37.669981 33.1258829,37.7478225 C32.1306124,38.0019519 31.2039553,38.475869 30.4115089,39.1367582 C29.1267052,40.0533032 27.795154,40.999611 25.7216739,40.999611"/>
    <path fill="#000" d="M25.4405828,8.00093118 L24.7248202,8.00093118 C20.8671881,7.94898682 17.3510138,10.2032189 15.7873361,13.7300876 C14.9852542,15.5175845 15.176226,18.5578568 15.3290035,20.994658 C15.346573,21.2849353 15.366434,21.5828514 15.3824757,21.8731287 C15.1647677,21.9831285 14.9226154,22.0358367 14.6789353,22.0259062 C14.0991446,21.9968785 13.5323401,21.8463926 13.0151882,21.5828514 C12.8349108,21.5034071 12.6393556,21.4644489 12.4422726,21.4682683 C11.6577601,21.4400045 10.945053,21.9258369 10.6853313,22.6675717 C10.5860259,23.1870153 10.8190116,23.9432639 12.4949808,24.5994433 C12.6477583,24.6613182 12.8272719,24.7140264 13.0197715,24.7751374 C13.7118537,24.9974287 14.7583796,25.3259003 15.0417818,25.9897186 C15.1792816,26.4320095 15.1158789,26.9124947 14.8676155,27.304369 C14.8622683,27.3196468 14.8561572,27.3265218 14.8515738,27.3417995 C14.7591435,27.555688 12.5446335,32.5667902 7.62825337,33.376511 C7.25165682,33.4338026 6.98047675,33.7676214 7.00110171,34.1480374 C7.0079767,34.2641483 7.03547665,34.3779676 7.0813099,34.483384 C7.45026758,35.3404658 9.00707036,35.9660897 11.8410931,36.4091445 C11.9625512,36.6795607 12.0481066,36.9652546 12.0947038,37.2570597 C12.1535231,37.5244203 12.2146341,37.8070587 12.3017173,38.0973359 C12.3979671,38.4968491 12.7692164,38.7687931 13.179424,38.7390015 C13.4551874,38.7252515 13.7278953,38.6862932 13.9967837,38.6236544 C14.6300465,38.4853908 15.2762953,38.4105298 15.9248358,38.4028909 C16.3877517,38.4036548 16.8499036,38.4418492 17.3067084,38.5174741 C18.2577483,38.7642097 19.1423301,39.2179589 19.8978149,39.8466384 C21.1864931,40.7556645 22.64781,41.7792738 24.8630838,41.7792738 C24.9241948,41.7808016 24.9853058,41.777746 25.0456529,41.7716349 C25.1220417,41.7792738 25.2114165,41.7792738 25.3107219,41.7792738 C27.5298152,41.7792738 28.9896042,40.7556645 30.2759908,39.8466384 C31.0299478,39.2156673 31.9160574,38.7611542 32.8686251,38.5174741 C33.3254298,38.4418492 33.7875818,38.4036548 34.2504976,38.4028909 C34.8990382,38.4059465 35.545287,38.4746964 36.1785498,38.6091406 C36.4474382,38.6641405 36.7216738,38.6969876 36.9959094,38.708446 L37.0371593,38.708446 C37.4320892,38.7313626 37.786533,38.4670575 37.8774356,38.0820582 C37.9637549,37.7986559 38.024102,37.5244203 38.0844492,37.2501847 C38.1318102,36.9576157 38.2173656,36.6726857 38.3372959,36.4015056 C41.1720825,35.9668536 42.7281214,35.3404658 43.0963152,34.4841479 C43.1436763,34.3779676 43.1711762,34.2641483 43.1772873,34.1480374 C43.1963845,33.7676214 42.9267322,33.4322748 42.5501356,33.3688721 C37.6322277,32.5675541 35.4192456,27.5564519 35.3275791,27.3417995 C35.3229957,27.3265218 35.3168846,27.3196468 35.3107735,27.304369 C35.063274,26.9124947 34.9998713,26.4320095 35.1366072,25.9897186 C35.4207733,25.3251364 36.4672993,24.9974287 37.1586175,24.7751374 C37.3526449,24.7140264 37.5344501,24.6529154 37.6841721,24.5994433 C38.9063921,24.118958 39.525141,23.5223619 39.5121549,22.8432659 C39.4434051,22.2359753 39.0034058,21.7363928 38.4106291,21.5904903 C38.1715323,21.4911849 37.9148661,21.4415322 37.6559082,21.4453517 C37.4183392,21.4415322 37.1815341,21.4881294 36.9630623,21.5828514 C36.4764659,21.8295871 35.9470918,21.9793091 35.4039678,22.0259062 C35.1931349,22.0213229 34.9853574,21.9686146 34.7966772,21.8731287 C34.8104272,21.6210458 34.8264688,21.3689629 34.8432744,21.1016023 L34.8501494,21.0022969 C35.0029269,18.5578568 35.1977182,15.5175845 34.3918168,13.7300876 C32.8227919,10.2009273 29.3012703,7.94745905 25.4398189,8.00093118 L25.4405828,8.00093118 Z M25.4405828,8.74113819 C29.0079375,8.69072162 32.2613345,10.7738429 33.7081375,14.0348788 C34.4361223,15.6550842 34.2497338,18.5960512 34.1000118,20.9556998 C34.0763313,21.3307686 34.0534147,21.6890318 34.0343175,22.0404201 L34.0259147,22.1855587 L34.1267479,22.3001418 C34.472025,22.6110441 34.9227187,22.7775715 35.3871623,22.7661132 L35.4154261,22.7661132 C36.0639666,22.7210439 36.6979933,22.5468775 37.2800756,22.2543086 C37.3984782,22.2061837 37.5260474,22.1825032 37.6543805,22.1855587 C37.8163246,22.1847948 37.9775049,22.2161142 38.1272269,22.2772252 L38.1486157,22.2848641 C38.4434763,22.3459751 38.6802814,22.5667386 38.7604896,22.8577797 C38.7604896,22.9800017 38.6711148,23.4077787 37.406117,23.9043056 C37.2823672,23.9501389 37.1188953,24.003611 36.9302151,24.064722 C36.1067443,24.3244438 34.8631354,24.7140264 34.4437612,25.6994413 C34.2145949,26.340343 34.2848726,27.0492306 34.635497,27.6328407 C34.7882745,27.983465 37.1364647,33.2397751 42.4271498,34.109843 C42.4248581,34.1388708 42.4179831,34.1671346 42.404997,34.1946345 C42.3156222,34.4001203 41.7449982,35.1258134 38.1990323,35.6681736 C37.6452138,35.7522012 37.5115335,36.3709501 37.3503532,37.0890044 C37.2945894,37.3479623 37.2357701,37.6084479 37.1555619,37.8758085 C37.1326453,37.9598362 37.1272981,37.9598362 37.0402149,37.9598362 L36.9982011,37.9598362 C36.7720904,37.9514334 36.5459797,37.9224057 36.3244523,37.8758085 C35.6423007,37.7344894 34.9486908,37.6634478 34.2527893,37.66192 C33.7486235,37.66192 33.2459855,37.7024061 32.7479309,37.784142 C31.6830717,38.0453916 30.6900179,38.5442101 29.8459222,39.2431672 C28.5900911,40.1216379 27.29301,41.030664 25.3130136,41.030664 C25.2274582,41.030664 25.1426666,41.030664 25.0578751,41.0230252 L25.0357224,41.0230252 L25.0128058,41.030664 L24.8676671,41.030664 C22.8884345,41.030664 21.5905896,40.1216379 20.3355224,39.2431672 C19.4906628,38.5442101 18.4983729,38.0453916 17.4327498,37.784142 C16.935459,37.7024061 16.4320571,37.66192 15.9278914,37.66192 C15.2312259,37.6672673 14.5368522,37.743656 13.8554645,37.8910863 C13.6339371,37.9422668 13.4093542,37.9751139 13.1824796,37.9896278 C13.0541465,37.9896278 13.0518548,37.9827528 13.0243549,37.8910863 C12.9479661,37.6237257 12.8868551,37.3556011 12.8303274,37.0958794 C12.6722027,36.378589 12.5354669,35.7590762 11.9808845,35.6758125 C8.4349186,35.1334523 7.8650585,34.4001203 7.77491978,34.1946345 C7.76269757,34.1671346 7.75582259,34.1388708 7.75353092,34.109843 C13.0434521,33.2397751 15.3924062,27.983465 15.5451837,27.6328407 C15.8958081,27.0492306 15.9668496,26.340343 15.7369195,25.6994413 C15.3183091,24.7140264 14.0739363,24.3252077 13.2504656,24.064722 C13.0617854,24.003611 12.8990773,23.9501389 12.7753275,23.9043056 C11.705885,23.4849314 11.3774134,23.0640294 11.4270661,22.8043076 C11.6249129,22.4261833 12.0221344,22.1947254 12.4483837,22.2092392 C12.5354669,22.2061837 12.62255,22.2214614 12.7035221,22.2550725 C13.3184516,22.5675025 13.9952559,22.7424327 14.6850464,22.7668771 C15.1876844,22.8043076 15.6842113,22.6362523 16.0600439,22.3009057 L16.1593493,22.1863226 L16.1517104,22.041184 C16.1326132,21.6897957 16.1096966,21.3307686 16.0860161,20.9564637 C15.9332386,18.5960512 15.7499056,15.6550842 16.4778904,14.0356427 C17.92011,10.779954 21.1673959,8.69912438 24.7278757,8.74954096 L25.3611385,8.74190208 L25.4405828,8.74190208 L25.4405828,8.74113819 Z"/>
  </g>
</svg>
