<svg xmlns="http://www.w3.org/2000/svg" width="50" height="50" viewBox="0 0 50 50"><g fill="none" fill-rule="evenodd"><rect width="50" height="50" fill="#E6EAEE" rx="2"/><path fill="#8A95B3" d="M19.1499674,38.229626 C31.3295585,38.229626 37.9897888,28.1393912 37.9897888,19.389885 C37.9897888,19.1029593 37.9840004,18.8175611 37.9708158,18.5338511 C39.2635493,17.5991919 40.3876164,16.4328377 41.2742,15.1052937 C40.0877472,15.6323559 38.8110122,15.9874556 37.4716503,16.1476806 C38.8385069,15.3279847 39.8882097,14.0310708 40.3831143,12.484775 C39.1035655,13.2432108 37.6869451,13.794954 36.1786757,14.0920093 C34.970597,12.8050642 33.2496053,12 31.3453961,12 C27.6885201,12 24.7227902,14.9654887 24.7227902,18.6211588 C24.7227902,19.1407444 24.7809953,19.6461807 24.8947527,20.1309557 C19.391551,19.85424 14.5115626,17.2192505 11.2462852,13.2125808 C10.6769358,14.1910546 10.3494111,15.3279847 10.3494111,16.540887 C10.3494111,18.8381419 11.5184988,20.8659969 13.2960073,22.0524497 C12.2100469,22.0190862 11.1895271,21.7205034 10.2971551,21.2240712 C10.295708,21.2516463 10.295708,21.279543 10.295708,21.3086456 C10.295708,24.5157983 12.5783312,27.193075 15.6079742,27.8002095 C15.0518094,27.9515107 14.4665421,28.0331105 13.8623821,28.0331105 C13.4358122,28.0331105 13.0210603,27.9908234 12.6176438,27.9137256 C13.4604128,30.5443739 15.9048688,32.4587931 18.8035502,32.5128178 C16.5366842,34.2887184 13.6818979,35.3471038 10.5796592,35.3471038 C10.0451203,35.3471038 9.51829929,35.3164737 9,35.2555351 C11.9305978,37.1334556 15.4098837,38.229626 19.1499674,38.229626"/></g></svg>