<svg xmlns="http://www.w3.org/2000/svg" xmlns:xlink="http://www.w3.org/1999/xlink" width="50" height="50" viewBox="0 0 50 50">
  <defs>
    <path id="-google-monochrome-a" d="M11.1508739,32.2065829 L9.84323782,33.2206402 C9.60708883,32.7499984 9.39237249,32.2662047 9.19830946,31.7719869 C8.42741547,29.8077806 7.99866476,27.6681187 7.99866476,25.4323995 C7.99866476,23.1966803 8.42741547,21.0571159 9.19840688,19.093007 C9.39237249,18.5986918 9.60708883,18.1149955 9.84323782,17.6443537 L11.711192,19.093007 L15.6370716,22.1374196 C15.2901547,23.1779755 15.0930716,24.289454 15.0930716,25.4323995 C15.0930716,26.5754425 15.2901547,27.686921 15.6370716,28.7274769 L11.7112894,31.7719869 L11.1508739,32.2065829 L11.7112602,31.7719869 L15.6370424,28.7274769 C15.6588648,28.7930414 15.6831226,28.8576316 15.7062115,28.9228064 C16.0716384,29.9529382 16.5927444,30.913219 17.241667,31.7719869 C19.0992946,34.230411 22.0000109,35.8529611 25.2715123,35.8757577 C25.2946986,35.8758551 25.3174951,35.8771216 25.3407788,35.8771216 C27.6740166,35.8771216 29.660435,35.2622964 31.2134264,34.2217405 L36.8179708,38.5729611 C33.9487215,41.2216488 30.0230367,42.7745428 25.3407788,42.7745428 C25.3175926,42.7745428 25.2946011,42.7739583 25.2715123,42.7738609 C21.7314206,42.7601245 18.4433576,41.6865428 15.7062115,39.8538551 C13.2245037,38.1920442 11.1955123,35.9066402 9.84330602,33.2206402 L11.1508739,32.2065829 Z M41.6738332,22.2793623 C41.8788075,23.4144167 41.9890883,24.5969153 41.9890883,25.8265657 C41.9890883,27.9573623 41.6807501,29.951964 41.0979765,31.7718895 C40.236286,34.4629554 38.7741885,36.7719354 36.8179708,38.5729611 L31.2134264,34.2217405 C32.1945553,33.5648293 32.9981828,32.7333394 33.5972258,31.7718895 C34.1195009,30.9337749 34.4866814,29.9972649 34.6738275,28.9874941 L25.3407788,28.9874941 L25.3407788,22.2793623 L41.6738332,22.2793623 Z M25.3407496,8.0903537 C30.0152138,8.0903537 33.9408011,9.80886373 36.944102,12.6071904 L36.9064974,12.644795 L31.970165,17.5812248 C30.1728413,15.8628121 27.8868527,14.9877749 25.3407496,14.9877749 C25.3175633,14.9877749 25.2946693,14.9890414 25.2714831,14.9892362 C21.9998842,15.0119354 19.0993628,16.6345829 17.2415404,19.0929096 C16.5927152,19.9516775 16.0716092,20.9119583 15.7061822,21.9419927 C15.6830934,22.0071675 15.6588355,22.0717577 15.6371106,22.1374196 L11.7112309,19.0929096 L9.84327679,17.6443537 C12.6870017,11.9958723 18.521655,8.11733937 25.2714831,8.09093822 C25.2945719,8.0908408 25.3176607,8.0903537 25.3407496,8.0903537 Z"/>
  </defs>
  <g fill="none" fill-rule="evenodd">
    <rect width="50" height="50" fill="#E6EAEE" rx="2"/>
    <use fill="#8A95B3" xlink:href="#-google-monochrome-a"/>
  </g>
</svg>
