<svg xmlns="http://www.w3.org/2000/svg" xmlns:xlink="http://www.w3.org/1999/xlink" preserveAspectRatio="xMidYMid" width="151" height="177" viewBox="0 0 151 177">
  <defs>
    <style>
      .cls-1 {
        fill: #93a2b6;
        fill-rule: evenodd;
      }
    </style>
  </defs>
  <path d="M139.631,59.973 C139.269,61.164 138.014,61.837 136.840,61.474 L136.812,61.466 L128.661,58.958 L128.124,59.837 C126.573,62.381 124.695,64.689 122.543,66.697 L121.793,67.397 L125.807,75.007 C126.387,76.104 125.975,77.474 124.888,78.058 L121.411,79.928 L115.991,82.843 C114.904,83.429 113.548,83.013 112.967,81.914 L108.951,74.304 L107.956,74.542 C105.109,75.224 102.182,75.511 99.203,75.393 L98.181,75.352 L95.687,83.608 C95.514,84.185 95.128,84.658 94.601,84.941 C94.075,85.225 93.473,85.286 92.899,85.109 L83.257,82.142 C82.079,81.780 81.411,80.516 81.770,79.326 L84.264,71.070 L83.393,70.528 C80.870,68.961 78.585,67.065 76.597,64.894 L75.904,64.135 L68.364,68.191 C67.838,68.473 67.235,68.534 66.662,68.358 C66.091,68.182 65.622,67.792 65.342,67.260 L62.406,61.699 L60.601,58.279 C60.321,57.748 60.262,57.137 60.436,56.562 C60.610,55.985 60.996,55.511 61.522,55.228 L64.522,53.615 L69.061,51.174 L68.825,50.170 C68.148,47.294 67.864,44.321 67.983,41.333 L68.023,40.301 L59.844,37.785 C58.665,37.422 57.999,36.159 58.358,34.969 L61.296,25.236 C61.655,24.048 62.904,23.374 64.086,23.735 L72.265,26.253 L72.801,25.374 C74.356,22.825 76.234,20.517 78.383,18.514 L79.134,17.813 L75.118,10.203 C74.539,9.105 74.952,7.735 76.038,7.151 L84.936,2.366 C85.463,2.083 86.071,2.025 86.636,2.199 C87.209,2.374 87.679,2.764 87.958,3.296 L91.974,10.906 L92.969,10.667 C95.818,9.984 98.766,9.701 101.723,9.817 L102.746,9.858 L105.239,1.601 C105.597,0.411 106.852,-0.258 108.026,0.101 L117.670,3.068 C118.848,3.431 119.514,4.694 119.155,5.883 L116.661,14.140 L117.532,14.681 C120.054,16.249 122.341,18.144 124.329,20.316 L125.022,21.074 L132.561,17.019 C133.089,16.735 133.694,16.676 134.262,16.852 C134.835,17.028 135.302,17.417 135.583,17.949 L140.324,26.931 C140.605,27.462 140.664,28.072 140.490,28.649 C140.316,29.224 139.929,29.698 139.403,29.981 L131.864,34.037 L132.100,35.041 C132.778,37.919 133.061,40.891 132.944,43.877 L132.902,44.909 L141.082,47.424 C142.260,47.787 142.926,49.051 142.567,50.240 L139.631,59.973 ZM110.755,37.069 C109.291,34.295 106.843,32.260 103.864,31.344 C100.884,30.428 97.733,30.735 94.979,32.215 C92.229,33.694 90.215,36.165 89.307,39.172 C88.400,42.181 88.705,45.366 90.170,48.142 C90.721,49.185 91.413,50.103 92.200,50.900 C94.407,53.137 97.406,54.375 100.482,54.375 C102.330,54.375 104.205,53.931 105.946,52.995 C108.342,51.706 110.101,49.685 111.118,47.352 C112.510,44.159 112.502,40.380 110.755,37.069 ZM104.700,50.634 C101.354,52.433 97.393,51.868 94.660,49.546 L104.872,43.921 L108.754,46.053 C107.984,47.944 106.622,49.600 104.700,50.634 ZM60.276,52.868 C59.125,53.487 58.282,54.522 57.901,55.782 C57.521,57.041 57.649,58.375 58.263,59.537 L60.071,62.965 L51.910,67.391 C51.507,67.401 51.101,67.448 50.699,67.579 L42.741,70.184 C41.654,70.540 40.769,71.301 40.250,72.329 C39.988,72.847 39.836,73.400 39.793,73.962 L24.181,82.429 L-0.009,68.840 L46.115,43.501 L61.735,52.083 L60.276,52.868 ZM0.658,101.007 L17.485,91.729 L17.479,91.732 L24.828,87.680 L25.399,87.365 L27.408,88.461 L49.518,100.534 L49.518,100.534 L51.854,101.809 L51.854,101.809 L64.569,108.751 L64.569,108.751 L66.915,110.032 L66.915,110.032 L72.004,112.810 L72.004,112.810 L72.004,112.811 L47.315,126.283 L36.264,120.296 L34.147,119.149 L24.334,113.833 L0.658,101.007 L17.479,91.732 L0.658,101.007 ZM22.929,118.131 L26.302,119.960 L26.302,119.960 L26.302,119.960 L28.308,121.048 L28.308,121.048 L31.555,122.809 L37.646,126.112 L37.647,126.113 L40.416,127.614 L47.368,131.385 L73.300,116.851 L73.300,127.439 L73.300,132.615 L73.300,137.295 L73.300,140.150 L73.300,176.990 L73.300,176.990 L22.325,151.368 L22.325,117.803 L22.325,117.803 L22.929,118.131 L22.929,118.131 ZM68.111,106.628 C68.168,106.273 68.203,105.914 68.221,105.551 C68.224,105.500 68.225,105.449 68.227,105.397 C68.238,105.089 68.233,104.780 68.215,104.468 C68.210,104.384 68.207,104.301 68.200,104.217 C68.176,103.930 68.137,103.642 68.087,103.354 C68.071,103.263 68.061,103.172 68.043,103.081 C67.969,102.712 67.879,102.344 67.761,101.978 C66.076,96.733 60.476,93.851 55.286,95.552 C54.947,95.663 54.618,95.793 54.300,95.937 C54.255,95.957 54.213,95.982 54.169,96.003 C53.891,96.133 53.621,96.273 53.360,96.426 C53.341,96.437 53.323,96.450 53.304,96.462 C52.720,96.810 52.183,97.215 51.692,97.666 L29.014,85.284 L29.042,85.229 C29.451,84.420 30.437,84.100 31.233,84.511 L37.709,87.847 L38.389,87.076 C40.010,85.240 41.861,83.643 43.891,82.330 L44.752,81.774 L42.511,74.799 C42.377,74.381 42.412,73.936 42.610,73.545 C42.807,73.154 43.145,72.865 43.559,72.729 L51.517,70.123 C52.370,69.845 53.291,70.318 53.569,71.181 L55.808,78.155 L56.829,78.096 C59.238,77.958 61.663,78.154 64.042,78.680 L65.041,78.902 L68.345,72.365 C68.542,71.973 68.880,71.683 69.294,71.548 C69.709,71.411 70.150,71.447 70.537,71.647 L77.988,75.485 C78.788,75.898 79.107,76.890 78.699,77.698 L75.395,84.234 L76.158,84.921 C77.976,86.557 79.558,88.426 80.860,90.475 L81.412,91.343 L88.320,89.083 C88.734,88.948 89.174,88.984 89.562,89.182 C89.949,89.382 90.237,89.722 90.370,90.140 L92.950,98.173 C93.085,98.591 93.050,99.037 92.852,99.427 C92.655,99.819 92.317,100.109 91.903,100.244 L84.994,102.506 L85.053,103.537 C85.095,104.261 85.097,104.987 85.079,105.712 L77.884,109.676 L75.796,110.826 L73.685,109.674 L68.111,106.630 C68.111,106.629 68.111,106.628 68.111,106.628 ZM91.032,124.071 L103.807,131.238 L128.709,117.754 L128.709,151.222 L77.735,176.832 L77.735,127.346 L77.735,123.638 L77.735,116.610 L88.715,122.771 L91.032,124.071 ZM103.862,126.288 L90.645,118.951 L79.576,112.807 L84.619,110.029 L84.619,110.029 L87.519,108.431 L125.758,87.366 L150.542,100.981 L150.542,100.981 L150.542,100.981 L103.862,126.288 ZM125.084,67.947 C126.863,66.187 128.454,64.231 129.830,62.114 L136.067,64.033 C137.546,64.489 139.066,64.179 140.252,63.356 L150.998,69.258 L126.798,82.848 L124.218,81.449 L126.133,80.419 C128.511,79.140 129.413,76.148 128.147,73.749 L125.084,67.947 Z" class="cls-1"/>
</svg>
