<svg xmlns="http://www.w3.org/2000/svg" xmlns:xlink="http://www.w3.org/1999/xlink" x="0" y="0" version="1.1" viewBox="0 0 565.6 329.4" xml:space="preserve" style="enable-background:new 0 0 565.6 329.4"><style type="text/css">.st0{fill:url(#SVGID_1_)}.st22{fill:#ef7622}.st31{display:none}.st32{fill:#757575}.st32,.st33{display:inline}.st34{fill:#757575}</style><g id="color"><g><radialGradient id="SVGID_1_" cx="276.778" cy="-726.564" r="888.763" gradientTransform="matrix(1 0 0 -1 0 -751.8801)" gradientUnits="userSpaceOnUse"><stop offset="0" style="stop-color:#f3f2f2"/><stop offset=".202" style="stop-color:#eeedee"/><stop offset=".371" style="stop-color:#e6e6e6"/><stop offset=".553" style="stop-color:#d8d8d8"/><stop offset=".766" style="stop-color:#cfcfce"/><stop offset="1" style="stop-color:#cccccb"/></radialGradient><path d="M527.6,329.4H38c-20.9,0-38-17.1-38-38V38C0,17.1,17.1,0,38,0h489.6c20.9,0,38,17.1,38,38v253.4 C565.6,312.3,548.5,329.4,527.6,329.4z" class="st0"/><path d="M527.6,329.4c20.9,0,38-17.1,38-38V160.9c0,0-146.5,123.4-425.2,168.5H527.6z" class="st22"/><path d="M70,100.7H48.8v74.2H70c11.4,0,19.7-3,26.5-8.3c8.3-6.8,13.6-17.4,13.6-28.8C110.1,115.9,94.2,100.7,70,100.7z M87.4,156.7c-4.5,3.8-10.6,6.1-19.7,6.1h-4.5v-49.2H67c9.1,0,15.1,1.5,19.7,6.1C92,124.2,95,131,95,138.6 C95.8,145.4,92.7,152.2,87.4,156.7z"/><rect width="14.4" height="74.2" x="117" y="100.7"/><path d="M166.9,129.5c-9.1-3-11.4-5.3-11.4-9.1c0-4.5,4.5-8.3,10.6-8.3c4.5,0,7.6,1.5,11.4,6.1l7.6-9.8c-6.1-5.3-13.6-8.3-22-8.3 c-12.9,0-23.5,9.1-23.5,21.2c0,10.6,4.5,15.9,18.2,20.4c6.1,2.3,8.3,3,9.8,4.5c3,2.3,4.5,4.5,4.5,7.6c0,6.1-4.5,10.6-11.4,10.6 s-12.9-3.8-15.9-9.8l-9.1,9.1c6.8,9.8,14.4,14.4,25.7,14.4c15.1,0,25.7-9.8,25.7-24.2C188.9,140.8,183.6,135.5,166.9,129.5z"/><path d="M193.4,137.8c0,22,17.4,38.6,39.4,38.6c6.1,0,11.4-1.5,18.2-4.5v-17.4c-6.1,6.1-10.6,8.3-17.4,8.3 c-14.4,0-25-10.6-25-25.7c0-14.4,10.6-25.7,24.2-25.7c6.8,0,12.1,2.3,18.2,8.3v-17.4c-6.1-3-11.4-4.5-18.2-4.5 C210.9,99.2,193.4,116.6,193.4,137.8z"/><polygon points="366.1 150.7 346.4 100.7 330.5 100.7 362.3 177.2 369.9 177.2 401.7 100.7 386.5 100.7"/><polygon points="408.5 175.7 450.2 175.7 450.2 162.8 422.9 162.8 422.9 142.4 448.6 142.4 448.6 130.2 422.9 130.2 422.9 113.6 450.2 113.6 450.2 100.7 408.5 100.7"/><path d="M507.7,122.7c0-13.6-9.8-22-26.5-22H460v74.2h14.4v-30.3h2.3l20.4,30.3h18.2l-25-31C501.6,141.6,507.7,134,507.7,122.7z M478.2,134.8h-4.5v-22.7h4.5c9.1,0,13.6,3.8,13.6,11.4C492.6,131,487.3,134.8,478.2,134.8z"/><circle cx="294.9" cy="137.8" r="39.4" class="st22"/><g><path d="M515.3,102.2c0-1.5-0.8-2.3-2.3-2.3h-2.3v6.8h1.5v-2.3l1.5,2.3h2.3l-2.3-3C514.5,103.7,515.3,103,515.3,102.2z M512.2,103L512.2,103v-1.5l0,0c0.8,0,1.5,0,1.5,0.8C513.8,103,513,103,512.2,103z"/><path d="M513,97.7c-3,0-6.1,2.3-6.1,6.1c0,3,2.3,6.1,6.1,6.1c3,0,5.3-2.3,5.3-6.1C518.3,100.7,516,97.7,513,97.7z M513,108.3 c-2.3,0-4.5-2.3-4.5-4.5s2.3-4.5,4.5-4.5c2.3,0,4.5,2.3,4.5,4.5S515.3,108.3,513,108.3z"/></g></g></g><g id="grey_with_frame" class="st31"><path d="M512.2,101.5v1.5c0.8,0,1.5,0,1.5-0.8S513,101.5,512.2,101.5z" class="st32"/><path d="M513,99.2c-2.3,0-4.5,2.3-4.5,4.5s2.3,4.5,4.5,4.5s4.5-2.3,4.5-4.5S515.3,99.2,513,99.2z M513.8,106.8 l-1.5-2.3v2.3h-1.5V100h2.3c1.5,0,2.3,0.8,2.3,2.3c0,0.8-0.8,1.5-1.5,1.5l2.3,3H513.8z" class="st32"/><path d="M491.8,123.4c0-7.6-4.5-11.4-13.6-11.4h-4.5v22.7h4.5C487.3,134.8,492.6,131,491.8,123.4z" class="st32"/><path d="M86.7,119.6c-4.5-4.5-10.6-6.1-19.7-6.1h-3.8v49.2h4.5c9.1,0,15.1-2.3,19.7-6.1c5.3-4.5,8.3-11.4,7.6-18.2 C95,131,92,124.2,86.7,119.6z" class="st32"/><path d="M527.6,0H38C17.1,0,0,17.1,0,38v253.4c0,20.9,17.1,38,38,38h102.4h387.2c20.9,0,38-17.1,38-38V160.9V38 C565.6,17.1,548.5,0,527.6,0z M515.3,174.9h-18.2l-20.4-30.3h-2.3v30.3H460v-74.2h21.2c16.7,0,26.5,8.3,26.5,22 c0,11.4-6.1,18.9-17.4,21.2L515.3,174.9z M513,109.8c-3.8,0-6.1-3-6.1-6.1c0-3.8,3-6.1,6.1-6.1c3,0,5.3,3,5.3,6.1 C518.3,107.5,516,109.8,513,109.8z M448.6,130.2v12.1h-25.7v20.4h27.3v12.9h-41.6v-75h41.6v12.9h-27.3v16.7H448.6z M330.5,100.7 h15.9l19.7,50l20.4-50h15.1l-31.8,76.5h-7.6L330.5,100.7z M334.3,137.8c0,21.7-17.6,39.4-39.4,39.4s-39.4-17.6-39.4-39.4 s17.6-39.4,39.4-39.4S334.3,116.1,334.3,137.8z M233.6,162.8c6.8,0,11.4-2.3,17.4-8.3v17.4c-6.8,3-12.1,4.5-18.2,4.5 c-22,0-39.4-16.7-39.4-38.6c0-21.2,17.4-38.6,39.4-40.1c6.8,0,12.1,1.5,18.2,4.5v17.4c-6.1-6.1-11.4-8.3-18.2-8.3 c-13.6,0-24.2,11.4-24.2,25.7C208.6,152.2,219.2,162.8,233.6,162.8z M48.8,174.9v-74.2H70c24.2,0,40.1,15.1,40.1,37.1 c0,11.4-5.3,22-13.6,28.8c-6.8,5.3-15.1,8.3-26.5,8.3H48.8z M117,174.9v-74.2h14.4v74.2H117z M135.9,163.6l9.1-9.1 c3,6.1,9.1,9.8,15.9,9.8c6.8,0,11.4-4.5,11.4-10.6c0-3-1.5-5.3-4.5-7.6c-1.5-1.5-3.8-2.3-9.8-4.5c-13.6-4.5-18.2-9.8-18.2-20.4 c0-12.1,10.6-21.2,23.5-21.2c8.3,0,15.9,3,22,8.3l-7.6,9.8c-3.8-4.5-6.8-6.1-11.4-6.1c-6.1,0-10.6,3.8-10.6,8.3 c0,3.8,2.3,6.1,11.4,9.1c16.7,6.1,22,11.4,20.4,24.2c0,14.4-10.6,24.2-25.7,24.2C150.3,178,142.7,173.4,135.9,163.6z M558.6,291.4 c0,17.1-13.9,31-31,31h-348c219.6-43,348.6-132.9,379-156V291.4z" class="st32"/></g><g id="grey_no_frame_copy" class="st31"><path d="M527.6,329.4c20.9,0,38-17.1,38-38V160.9c0,0-146.5,123.4-425.2,168.5H527.6z" class="st32"/><path d="M70,100.7H48.8v74.2H70c11.4,0,19.7-3,26.5-8.3c8.3-6.8,13.6-17.4,13.6-28.8C110.1,115.9,94.2,100.7,70,100.7 z M87.4,156.7c-4.5,3.8-10.6,6.1-19.7,6.1h-4.5v-49.2H67c9.1,0,15.1,1.5,19.7,6.1C92,124.2,95,131,95,138.6 C95.8,145.4,92.7,152.2,87.4,156.7z" class="st32"/><rect width="14.4" height="74.2" x="117" y="100.7" class="st32"/><path d="M166.9,129.5c-9.1-3-11.4-5.3-11.4-9.1c0-4.5,4.5-8.3,10.6-8.3c4.5,0,7.6,1.5,11.4,6.1l7.6-9.8 c-6.1-5.3-13.6-8.3-22-8.3c-12.9,0-23.5,9.1-23.5,21.2c0,10.6,4.5,15.9,18.2,20.4c6.1,2.3,8.3,3,9.8,4.5c3,2.3,4.5,4.5,4.5,7.6 c0,6.1-4.5,10.6-11.4,10.6s-12.9-3.8-15.9-9.8l-9.1,9.1c6.8,9.8,14.4,14.4,25.7,14.4c15.1,0,25.7-9.8,25.7-24.2 C188.9,140.8,183.6,135.5,166.9,129.5z" class="st32"/><path d="M193.4,137.8c0,22,17.4,38.6,39.4,38.6c6.1,0,11.4-1.5,18.2-4.5v-17.4c-6.1,6.1-10.6,8.3-17.4,8.3 c-14.4,0-25-10.6-25-25.7c0-14.4,10.6-25.7,24.2-25.7c6.8,0,12.1,2.3,18.2,8.3v-17.4c-6.1-3-11.4-4.5-18.2-4.5 C210.9,99.2,193.4,116.6,193.4,137.8z" class="st32"/><polygon points="366.1 150.7 346.4 100.7 330.5 100.7 362.3 177.2 369.9 177.2 401.7 100.7 386.5 100.7" class="st32"/><polygon points="408.5 175.7 450.2 175.7 450.2 162.8 422.9 162.8 422.9 142.4 448.6 142.4 448.6 130.2 422.9 130.2 422.9 113.6 450.2 113.6 450.2 100.7 408.5 100.7" class="st32"/><path d="M507.7,122.7c0-13.6-9.8-22-26.5-22H460v74.2h14.4v-30.3h2.3l20.4,30.3h18.2l-25-31 C501.6,141.6,507.7,134,507.7,122.7z M478.2,134.8h-4.5v-22.7h4.5c9.1,0,13.6,3.8,13.6,11.4C492.6,131,487.3,134.8,478.2,134.8z" class="st32"/><circle cx="294.9" cy="137.8" r="39.4" class="st32"/><g class="st33"><path d="M515.3,102.2c0-1.5-0.8-2.3-2.3-2.3h-2.3v6.8h1.5v-2.3l1.5,2.3h2.3l-2.3-3 C514.5,103.7,515.3,103,515.3,102.2z M512.2,103L512.2,103v-1.5l0,0c0.8,0,1.5,0,1.5,0.8C513.8,103,513,103,512.2,103z" class="st34"/><path d="M513,97.7c-3,0-6.1,2.3-6.1,6.1c0,3,2.3,6.1,6.1,6.1c3,0,5.3-2.3,5.3-6.1C518.3,100.7,516,97.7,513,97.7z M513,108.3c-2.3,0-4.5-2.3-4.5-4.5s2.3-4.5,4.5-4.5c2.3,0,4.5,2.3,4.5,4.5S515.3,108.3,513,108.3z" class="st34"/></g></g></svg>