<?xml version="1.0" encoding="utf-8"?>
<!-- Generator: Adobe Illustrator 19.2.1, SVG Export Plug-In . SVG Version: 6.00 Build 0)  -->
<svg version="1.1" xmlns="http://www.w3.org/2000/svg" xmlns:xlink="http://www.w3.org/1999/xlink" x="0px" y="0px"
	 viewBox="0 0 565.6 329.4" style="enable-background:new 0 0 565.6 329.4;" xml:space="preserve">
<style type="text/css">
	.st0{fill:url(#SVGID_1_);}
	.st1{fill:url(#SVGID_2_);}
	.st2{fill:#EE8414;}
	.st3{fill:#E20020;}
	.st4{fill:#1E306D;}
	.st5{fill:#FFFFFF;}
	.st6{fill:url(#SVGID_3_);}
	.st7{fill:url(#SVGID_4_);}
	.st8{fill:url(#SVGID_5_);}
	.st9{fill:url(#SVGID_6_);}
	.st10{fill:url(#SVGID_7_);}
	.st11{fill:url(#SVGID_8_);}
	.st12{fill:url(#SVGID_9_);}
	.st13{fill:url(#SVGID_10_);}
	.st14{fill:url(#SVGID_11_);}
	.st15{fill:url(#SVGID_12_);}
	.st16{fill:url(#SVGID_13_);}
	.st17{fill:url(#SVGID_14_);}
	.st18{fill:url(#SVGID_15_);}
	.st19{fill:#005197;}
	.st20{fill:#F6A800;}
	.st21{fill:url(#SVGID_16_);}
	.st22{fill:#EF7622;}
	.st23{fill-rule:evenodd;clip-rule:evenodd;fill:#D72745;}
	.st24{fill-rule:evenodd;clip-rule:evenodd;fill:#64AE48;}
	.st25{fill-rule:evenodd;clip-rule:evenodd;fill:none;stroke:#231F20;stroke-width:0.3605;stroke-miterlimit:22.9256;}
	.st26{fill-rule:evenodd;clip-rule:evenodd;fill:url(#SVGID_17_);}
	.st27{fill-rule:evenodd;clip-rule:evenodd;fill:#223F83;}
	.st28{fill-rule:evenodd;clip-rule:evenodd;fill:#FFFFFF;}
	.st29{fill-rule:evenodd;clip-rule:evenodd;fill:#231F20;}
	.st30{fill:#231F20;}
	.st31{display:none;}
	.st32{display:inline;fill:#757575;}
	.st33{display:inline;}
	.st34{fill:#757575;}
	
		.st35{display:inline;fill-rule:evenodd;clip-rule:evenodd;fill:none;stroke:#231F20;stroke-width:0.3605;stroke-miterlimit:22.9256;}
	.st36{fill-rule:evenodd;clip-rule:evenodd;fill:#757575;}
	.st37{display:inline;fill-rule:evenodd;clip-rule:evenodd;fill:#757575;}
</style>
<g id="color">
	
		<radialGradient id="SVGID_1_" cx="276.7776" cy="354.5962" r="888.763" gradientTransform="matrix(1 0 0 -1 0 329.28)" gradientUnits="userSpaceOnUse">
		<stop  offset="0" style="stop-color:#F3F2F2"/>
		<stop  offset="0.2024" style="stop-color:#EEEDEE"/>
		<stop  offset="0.3708" style="stop-color:#E6E6E6"/>
		<stop  offset="0.5528" style="stop-color:#D8D8D8"/>
		<stop  offset="0.7659" style="stop-color:#CFCFCE"/>
		<stop  offset="1" style="stop-color:#CCCCCB"/>
	</radialGradient>
	<path class="st0" d="M527.6,329.4H38c-20.9,0-38-17.1-38-38V38C0,17.1,17.1,0,38,0h489.6c20.9,0,38,17.1,38,38v253.4
		C565.6,312.3,548.5,329.4,527.6,329.4z"/>
	<g>
		<polygon class="st19" points="203,240.2 227.2,89.9 266,89.8 241.9,240.2 		"/>
		<path class="st19" d="M382.6,93.4c-7.7-3-19.8-6.4-34.9-6.4c-38.4,0-65.4,20.5-65.5,49.8c-0.3,21.6,19.4,33.6,34.1,40.7
			c15,7.3,20.2,12.1,20.2,18.7c-0.2,10.1-12.1,14.7-23.3,14.7c-15.5,0-23.8-2.4-36.5-8l-5.1-2.4l-5.4,33.7c9.1,4.1,25.9,7.8,43.3,8
			c40.8,0,67.3-20.2,67.6-51.4c0.1-17.1-10.3-30.2-32.7-40.9c-13.6-6.9-21.9-11.5-21.9-18.5c0.2-6.4,7-13,22.4-13
			c12.6-0.3,21.9,2.7,29,5.7l3.5,1.6L382.6,93.4L382.6,93.4z"/>
		<path class="st19" d="M434.4,186.7c3.2-8.6,15.5-42.1,15.5-42.1c-0.2,0.3,3.2-8.8,5.1-14.4l2.7,12.9c0,0,7.4,36,9,43.5
			C460.6,186.7,442,186.7,434.4,186.7L434.4,186.7z M482.3,89.6h-30.1c-9.3,0-16.3,2.7-20.3,12.5L374.3,240h40.8
			c0,0,6.7-18.6,8.1-22.6c4.5,0,44.1,0,49.9,0c1.1,5.3,4.7,22.5,4.7,22.5h36L482.3,89.6L482.3,89.6z"/>
		<path class="st19" d="M170.4,89.9l-38,102.5l-4.2-20.8c-7.1-24-29.1-50-53.8-63l35,131.4h41.1l61-150.2L170.4,89.9L170.4,89.9z"/>
		<path class="st20" d="M97,90H34.5l-0.6,3c48.8,12.4,81.1,42.5,94.4,78.6l-13.7-69.1C112.4,93,105.5,90.3,97,90L97,90z"/>
	</g>
</g>
<g id="grey_with_frame" class="st31">
	<g class="st33">
		<path class="st34" d="M455,130.2c-1.9,5.6-5.3,14.7-5.1,14.4c0,0-12.3,33.5-15.5,42.1c7.6,0,26.2,0,32.3-0.1
			c-1.6-7.5-9-43.5-9-43.5L455,130.2z"/>
		<path class="st34" d="M527.6,0H38C17.1,0,0,17.1,0,38v253.4c0,20.9,17.1,38,38,38h489.6c20.9,0,38-17.1,38-38V38
			C565.6,17.1,548.5,0,527.6,0z M109.4,240L74.6,109.4C62.7,102.4,49.1,96.9,33.9,93l0.6-3H97c8.5,0.3,15.4,3,17.6,12.5l13.7,69.1
			c-0.2-0.5-0.4-0.9-0.5-1.4c0.1,0.5,0.3,0.9,0.4,1.4l4.2,20.8l38-102.5l41.1-0.1l-61,150.2H109.4z M241.9,240.2H203l24.2-150.3
			l38.8-0.1L241.9,240.2z M309.5,242.2c-17.4-0.2-34.2-3.9-43.3-8l5.4-33.7l5.1,2.4c12.7,5.6,21,8,36.5,8c11.2,0,23.1-4.6,23.3-14.7
			c0-6.6-5.2-11.4-20.2-18.7c-14.7-7.1-34.4-19.1-34.1-40.7c0.1-29.3,27.1-49.8,65.5-49.8c15.1,0,27.2,3.4,34.9,6.4l-5.2,32.3
			l-3.5-1.6c-7.1-3-16.4-6-29-5.7c-15.4,0-22.2,6.6-22.4,13c0,7,8.3,11.6,21.9,18.5c22.4,10.7,32.8,23.8,32.7,40.9
			C376.8,222,350.3,242.2,309.5,242.2z M477.8,239.9c0,0-3.6-17.2-4.7-22.5c-5.8,0-45.4,0-49.9,0c-1.4,4-8.1,22.6-8.1,22.6h-40.8
			l57.6-137.9c4-9.8,11-12.5,20.3-12.5h30.1l31.5,150.3H477.8z"/>
	</g>
</g>
<g id="grey_no_frame_copy" class="st31">
	<g class="st33">
		<polygon class="st34" points="203,240.2 227.2,89.9 266,89.8 241.9,240.2 		"/>
		<path class="st34" d="M382.6,93.4c-7.7-3-19.8-6.4-34.9-6.4c-38.4,0-65.4,20.5-65.5,49.8c-0.3,21.6,19.4,33.6,34.1,40.7
			c15,7.3,20.2,12.1,20.2,18.7c-0.2,10.1-12.1,14.7-23.3,14.7c-15.5,0-23.8-2.4-36.5-8l-5.1-2.4l-5.4,33.7c9.1,4.1,25.9,7.8,43.3,8
			c40.8,0,67.3-20.2,67.6-51.4c0.1-17.1-10.3-30.2-32.7-40.9c-13.6-6.9-21.9-11.5-21.9-18.5c0.2-6.4,7-13,22.4-13
			c12.6-0.3,21.9,2.7,29,5.7l3.5,1.6L382.6,93.4L382.6,93.4z"/>
		<path class="st34" d="M434.4,186.7c3.2-8.6,15.5-42.1,15.5-42.1c-0.2,0.3,3.2-8.8,5.1-14.4l2.7,12.9c0,0,7.4,36,9,43.5
			C460.6,186.7,442,186.7,434.4,186.7L434.4,186.7z M482.3,89.6h-30.1c-9.3,0-16.3,2.7-20.3,12.5L374.3,240h40.8
			c0,0,6.7-18.6,8.1-22.6c4.5,0,44.1,0,49.9,0c1.1,5.3,4.7,22.5,4.7,22.5h36L482.3,89.6L482.3,89.6z"/>
		<path class="st34" d="M170.4,89.9l-38,102.5l-4.2-20.8c-7.1-24-29.1-50-53.8-63l35,131.4h41.1l61-150.2L170.4,89.9L170.4,89.9z"/>
		<path class="st34" d="M97,90H34.5l-0.6,3c48.8,12.4,81.1,42.5,94.4,78.6l-13.7-69.1C112.4,93,105.5,90.3,97,90L97,90z"/>
	</g>
</g>
</svg>
