<svg xmlns="http://www.w3.org/2000/svg" xmlns:xlink="http://www.w3.org/1999/xlink" x="0" y="0" version="1.1" viewBox="0 0 565.6 329.4" xml:space="preserve" style="enable-background:new 0 0 565.6 329.4"><style type="text/css">.st0{fill:url(#SVGID_1_)}.st1{fill:url(#SVGID_2_)}.st5{fill:#fff}.st6{fill:url(#SVGID_3_)}.st7{fill:url(#SVGID_4_)}.st8{fill:url(#SVGID_5_)}.st9{fill:url(#SVGID_6_)}.st10{fill:url(#SVGID_7_)}.st11{fill:url(#SVGID_8_)}.st12{fill:url(#SVGID_9_)}.st13{fill:url(#SVGID_10_)}.st14{fill:url(#SVGID_11_)}.st31{display:none}.st32{fill:#757575}.st32,.st33{display:inline}.st34{fill:#757575}</style><g id="color"><g><radialGradient id="SVGID_1_" cx="276.778" cy="354.596" r="888.763" gradientTransform="matrix(1 0 0 -1 0 329.28)" gradientUnits="userSpaceOnUse"><stop offset="0" style="stop-color:#9ad7f3"/><stop offset=".063" style="stop-color:#93d4f1"/><stop offset=".146" style="stop-color:#7ecbee"/><stop offset=".242" style="stop-color:#55bce7"/><stop offset=".345" style="stop-color:#00a9df"/><stop offset=".371" style="stop-color:#00a4dd"/><stop offset=".466" style="stop-color:#0098d4"/><stop offset=".591" style="stop-color:#008aca"/><stop offset=".72" style="stop-color:#0081c2"/><stop offset=".853" style="stop-color:#007bbd"/><stop offset="1" style="stop-color:#0079bc"/></radialGradient><path d="M527.6,329.4H38c-20.9,0-38-17.1-38-38V38C0,17.1,17.1,0,38,0h489.6c20.9,0,38,17.1,38,38v253.4 C565.6,312.3,548.5,329.4,527.6,329.4z" class="st0"/><g><g><path d="M25.8,155.4h41.4l5.2-12.6h11.7l5.2,12.6h45.5v-9.6l4.1,9.7h23.6l4-9.8v9.8h113.1l-0.1-20.7h2.2 c1.5,0,2,0.2,2,2.7v17.9h58.5v-4.8c4.7,2.5,12.1,4.8,21.7,4.8h24.6l5.3-12.6h11.7l5.2,12.6h47.4v-12l7.2,12h38v-79h-37.6v9.4 l-5.2-9.4h-38.6v9.4l-4.8-9.4H365c-8.7,0-16.4,1.2-22.6,4.6v-4.6h-35.9V81c-4-3.5-9.4-4.6-15.3-4.6H159.6l-8.9,20.4l-9-20.4 h-41.4v9.4l-4.6-9.4H60.5L25.8,155.4z M491.3,144.3h-19.2l-25.7-42.5v42.5h-27.6l-5.3-12.6h-28.2l-5.1,12.6h-15.9 c-6.6,0-14.9-1.5-19.6-6.2c-4.8-4.8-7.2-11.3-7.2-21.7c0-8.4,1.5-16.1,7.3-22.1c4.4-4.5,11.2-6.6,20.6-6.6h13.1v12.1h-12.8 c-4.9,0-7.8,0.8-10.5,3.4c-2.3,2.4-3.9,6.9-3.9,12.8c0,6.1,1.2,10.4,3.7,13.3c2,2.2,5.8,2.9,9.4,2.9h6.1l19.1-44.6h20.3 l22.9,53.6V87.6h20.7l23.8,39.5V87.6h13.8v56.7H491.3z M331.1,144.3h-13.8V87.6h13.8V144.3z M309.4,102.9c0,9-6,13.7-9.5,15.1 c3,1.2,5.5,3.1,6.7,4.8c1.9,2.8,2.3,5.3,2.3,10.3v11.1h-13.7l-0.1-7.1c0-3.4,0.3-8.3-2.2-11c-2-2-5-2.4-9.8-2.4h-14.6v20.6H255 V87.6h31.2c6.9,0,12,0.2,16.4,2.8C306.8,92.9,309.4,96.6,309.4,102.9z M245.6,144.3h-45.2V87.6h45.2v11.8h-31.7v10.2h30.9v11.6 l-30.9-0.1v11.3h31.7V144.3z M190.3,144.3h-13.9l-0.1-44.3l-19.6,44.3h-11.9l-19.7-44.4v44.4H97.6l-5.2-12.6H64.2L59,144.3H44.2 l24.2-56.6h20.1l23,53.7V87.6h22.1l17.7,38.5l16.3-38.5h22.5v56.7H190.3z M409,119.8l-9.4-22.5l-9.3,22.5H409z M291.7,110.9 c-1.8,1-4.1,1.2-6.7,1.2h-16.5V99.5h16.7c2.4,0,4.8,0.1,6.5,1s2.8,2.6,2.8,5S293.4,109.9,291.7,110.9z M87.5,119.8l-9.3-22.5 L69,119.8H87.5z" class="st5"/><g><polygon points="165.6 196.9 165.6 207.2 195.3 207.2 195.3 218.7 165.6 218.7 165.6 230 198.9 230 214.3 213.4 199.5 196.9" class="st5"/><polygon points="252.5 236.7 252.5 191.2 231.8 213.6" class="st5"/><path d="M349.6,197.9c-1.6-0.9-4-1-6.4-1h-16.7v12.7H343c2.6,0,4.9-0.1,6.7-1.2c1.8-1.1,2.8-3,2.8-5.5 C352.4,200.5,351.4,198.8,349.6,197.9z" class="st5"/><path d="M283.7,196.9H266v14.4h17.5c5.2,0,8.4-2.5,8.4-7.4C292,198.8,288.6,196.9,283.7,196.9z" class="st5"/><path d="M539.8,223.9c0-6.2-1.2-11.3-3.9-15.5h1.1v-34.5h-36.3c-7.6,0-13.1,1.8-17,4.6v-4.6h-37.1 c-5.9,0-12.8,1.5-16.2,4.6v-4.6h-66.2v4.6c-5.3-3.8-14.1-4.6-18.3-4.6h-43.6v4.6c-4.2-4-13.4-4.6-19.1-4.6h-48.9l-11,12.1 l-10.5-12.1h-73V253h71.6l11.5-12.3l10.9,12.3h44.1v-18.6h4.4c5.8,0.1,12.8-0.1,18.8-2.8v21.3h36.4v-20.6h1.8 c2.3,0,2.5,0.1,2.5,2.3v18.3h110.6c7,0,14.3-1.8,18.4-5.1v5.1H506c0.1,0,8,0,13.8-1.5c4.3-1.1,8.1-3.6,9-4.2 C538.7,240.1,539.8,228.5,539.8,223.9z M282.9,222.8H266v19h-26.3L223,223.1l-17.3,18.7h-53.6v-56.7h54.5l16.6,18.6l17.2-18.6 h43.3c10.7,0,22.8,3,22.8,18.7S294.8,222.8,282.9,222.8z M364.4,220.2c1.9,2.8,2.2,5.3,2.3,10.4v11.2h-13.6v-7.1 c0-3.4,0.3-8.4-2.2-11.1c-2-2.1-5-2.5-9.9-2.5h-14.5v20.7h-13.6v-56.7h31.2c6.9,0,11.9,0.3,16.3,2.7c4.3,2.5,6.9,6.1,6.9,12.6 c0,9-6,13.6-9.6,15C360.8,216.6,363.3,218.6,364.4,220.2z M420.1,196.9h-31.7v10.3h30.9v11.6h-30.9V230l31.7,0.1v11.8h-45.2 v-56.7h45.2V196.9z M454.6,241.8h-26.4v-12.2h26.3c2.6,0,4.4-0.3,5.5-1.4c0.9-0.8,1.6-2.1,1.6-3.7c0-1.7-0.7-3-1.7-3.7 c-1-0.9-2.4-1.3-4.8-1.3c-12.7-0.4-28.5,0.4-28.5-17.5c0-8.2,5.2-16.9,19.3-16.9h27.2v12.1h-24.8c-2.5,0-4.1,0.1-5.5,1 c-1.5,0.9-2,2.3-2,4.1c0,2.1,1.3,3.6,3,4.2c1.4,0.5,2.9,0.6,5.2,0.7l7.3,0.2c7.4,0.2,12.4,1.5,15.4,4.5c2.7,2.8,4.1,6.2,4.1,12 C475.9,236.1,468.2,241.8,454.6,241.8z M516.4,240.7L516.4,240.7c-0.6,0.2-1.3,0.3-1.9,0.5c-0.1,0-0.2,0-0.3,0.1 c-1.3,0.2-2.7,0.4-4.1,0.5c-0.2,0-0.3,0-0.5,0c-0.7,0-1.4,0.1-2.1,0.1h-26.2v-12.2h26.1c2.6,0,4.4-0.3,5.5-1.4 c0.9-0.8,1.6-2.1,1.6-3.7c0-1.7-0.7-3-1.7-3.7c-1-0.9-2.4-1.3-4.8-1.3c-12.7-0.4-28.6,0.4-28.6-17.5c0-8.2,5.2-16.9,19.4-16.9 h17.6l0,0h9.4v12.1l0,0l0,0h-24.7c-2.5,0-4.1,0.1-5.5,1s-2,2.3-2,4.1c0,2.1,1.2,3.6,3,4.2c1.4,0.5,2.9,0.6,5.2,0.7l7.3,0.2 c1.1,0,2.1,0.1,3,0.2l0,0c5.7,0.5,9.7,1.8,12.3,4.4c2.7,2.8,4.1,6.2,4.1,12C528.6,233.1,524.3,238.5,516.4,240.7z" class="st5"/></g></g><g><radialGradient id="SVGID_2_" cx="258.149" cy="314.553" r="483.529" gradientTransform="matrix(1 0 0 -1 0 329.28)" gradientUnits="userSpaceOnUse"><stop offset="0" style="stop-color:#9ad7f3"/><stop offset=".063" style="stop-color:#93d4f1"/><stop offset=".146" style="stop-color:#7ecbee"/><stop offset=".242" style="stop-color:#55bce7"/><stop offset=".345" style="stop-color:#00a9df"/><stop offset=".371" style="stop-color:#00a4dd"/><stop offset=".466" style="stop-color:#0098d4"/><stop offset=".591" style="stop-color:#008aca"/><stop offset=".72" style="stop-color:#0081c2"/><stop offset=".853" style="stop-color:#007bbd"/><stop offset="1" style="stop-color:#0079bc"/></radialGradient><rect width="13.8" height="56.6" x="317.2" y="87.6" class="st1"/><radialGradient id="SVGID_3_" cx="258.149" cy="314.553" r="483.529" gradientTransform="matrix(1 0 0 -1 0 329.28)" gradientUnits="userSpaceOnUse"><stop offset="0" style="stop-color:#9ad7f3"/><stop offset=".063" style="stop-color:#93d4f1"/><stop offset=".146" style="stop-color:#7ecbee"/><stop offset=".242" style="stop-color:#55bce7"/><stop offset=".345" style="stop-color:#00a9df"/><stop offset=".371" style="stop-color:#00a4dd"/><stop offset=".466" style="stop-color:#0098d4"/><stop offset=".591" style="stop-color:#008aca"/><stop offset=".72" style="stop-color:#0081c2"/><stop offset=".853" style="stop-color:#007bbd"/><stop offset="1" style="stop-color:#0079bc"/></radialGradient><polygon points="245.6 132.5 213.9 132.5 213.9 121.2 244.8 121.3 244.8 109.6 213.9 109.6 213.9 99.5 245.6 99.5 245.6 87.6 200.4 87.6 200.4 144.3 245.6 144.3" class="st6"/><radialGradient id="SVGID_4_" cx="258.149" cy="314.553" r="483.529" gradientTransform="matrix(1 0 0 -1 0 329.28)" gradientUnits="userSpaceOnUse"><stop offset="0" style="stop-color:#9ad7f3"/><stop offset=".063" style="stop-color:#93d4f1"/><stop offset=".146" style="stop-color:#7ecbee"/><stop offset=".242" style="stop-color:#55bce7"/><stop offset=".345" style="stop-color:#00a9df"/><stop offset=".371" style="stop-color:#00a4dd"/><stop offset=".466" style="stop-color:#0098d4"/><stop offset=".591" style="stop-color:#008aca"/><stop offset=".72" style="stop-color:#0081c2"/><stop offset=".853" style="stop-color:#007bbd"/><stop offset="1" style="stop-color:#0079bc"/></radialGradient><polygon points="374.9 241.8 420.1 241.8 420.1 230 388.4 230 388.4 218.7 419.3 218.7 419.3 207.2 388.4 207.2 388.4 196.9 420.1 196.9 420.1 185.1 374.9 185.1" class="st7"/><radialGradient id="SVGID_5_" cx="258.149" cy="314.553" r="483.529" gradientTransform="matrix(1 0 0 -1 0 329.28)" gradientUnits="userSpaceOnUse"><stop offset="0" style="stop-color:#9ad7f3"/><stop offset=".063" style="stop-color:#93d4f1"/><stop offset=".146" style="stop-color:#7ecbee"/><stop offset=".242" style="stop-color:#55bce7"/><stop offset=".345" style="stop-color:#00a9df"/><stop offset=".371" style="stop-color:#00a4dd"/><stop offset=".466" style="stop-color:#0098d4"/><stop offset=".591" style="stop-color:#008aca"/><stop offset=".72" style="stop-color:#0081c2"/><stop offset=".853" style="stop-color:#007bbd"/><stop offset="1" style="stop-color:#0079bc"/></radialGradient><path d="M456.3,207.4l-7.3-0.2c-2.3,0-3.8-0.2-5.2-0.7c-1.7-0.6-3-2.1-3-4.2c0-1.8,0.6-3.2,2-4.1c1.4-0.9,3-1,5.5-1 h24.8v-12.1H446c-14.2,0-19.3,8.7-19.3,16.9c0,17.9,15.9,17.1,28.5,17.5c2.4,0,3.8,0.4,4.8,1.3c1,0.8,1.7,2.1,1.7,3.7 c0,1.6-0.7,2.8-1.6,3.7c-1.2,1.1-2.9,1.4-5.5,1.4h-26.3v12.2h26.4c13.6,0,21.3-5.7,21.3-17.9c0-5.8-1.4-9.3-4.1-12 C468.7,208.8,463.7,207.6,456.3,207.4z" class="st8"/><radialGradient id="SVGID_6_" cx="258.149" cy="314.553" r="483.529" gradientTransform="matrix(1 0 0 -1 0 329.28)" gradientUnits="userSpaceOnUse"><stop offset="0" style="stop-color:#9ad7f3"/><stop offset=".063" style="stop-color:#93d4f1"/><stop offset=".146" style="stop-color:#7ecbee"/><stop offset=".242" style="stop-color:#55bce7"/><stop offset=".345" style="stop-color:#00a9df"/><stop offset=".371" style="stop-color:#00a4dd"/><stop offset=".466" style="stop-color:#0098d4"/><stop offset=".591" style="stop-color:#008aca"/><stop offset=".72" style="stop-color:#0081c2"/><stop offset=".853" style="stop-color:#007bbd"/><stop offset="1" style="stop-color:#0079bc"/></radialGradient><path d="M524.5,211.9c-2.6-2.6-6.6-3.9-12.3-4.4l0,0c-1-0.1-2-0.1-3-0.2l-7.3-0.2c-2.3,0-3.8-0.2-5.2-0.7 c-1.8-0.6-3-2.1-3-4.2c0-1.8,0.6-3.2,2-4.1c1.3-0.9,3-1,5.5-1h24.7l0,0l0,0V185h-9.4l0,0h-17.6c-14.2,0-19.4,8.7-19.4,16.9 c0,17.9,15.9,17.1,28.6,17.5c2.3,0,3.7,0.4,4.8,1.3c0.9,0.8,1.7,2.1,1.7,3.7c0,1.6-0.7,2.8-1.6,3.7c-1.1,1.1-2.9,1.4-5.5,1.4 h-26.1v12.2h26.2c0.7,0,1.4,0,2.1-0.1c0.2,0,0.3,0,0.5,0c1.5-0.1,2.8-0.3,4.1-0.5c0.1,0,0.2,0,0.3-0.1c0.7-0.1,1.3-0.3,1.9-0.4 l0,0c7.9-2.2,12.2-7.7,12.2-16.8C528.6,218.1,527.2,214.7,524.5,211.9z" class="st9"/><radialGradient id="SVGID_7_" cx="258.149" cy="314.553" r="483.529" gradientTransform="matrix(1 0 0 -1 0 329.28)" gradientUnits="userSpaceOnUse"><stop offset="0" style="stop-color:#9ad7f3"/><stop offset=".063" style="stop-color:#93d4f1"/><stop offset=".146" style="stop-color:#7ecbee"/><stop offset=".242" style="stop-color:#55bce7"/><stop offset=".345" style="stop-color:#00a9df"/><stop offset=".371" style="stop-color:#00a4dd"/><stop offset=".466" style="stop-color:#0098d4"/><stop offset=".591" style="stop-color:#008aca"/><stop offset=".72" style="stop-color:#0081c2"/><stop offset=".853" style="stop-color:#007bbd"/><stop offset="1" style="stop-color:#0079bc"/></radialGradient><path d="M283.7,185.1h-43.3l-17.2,18.6l-16.6-18.6h-54.5v56.7h53.6l17.3-18.7l16.7,18.7H266v-19h16.9 c11.9,0,23.6-3.3,23.6-19S294.5,185.1,283.7,185.1z M198.9,230h-33.3v-11.3h29.7v-11.6h-29.7v-10.3h33.9l14.8,16.5L198.9,230z M252.5,236.7l-20.8-23.1l20.8-22.3V236.7z M283.6,211.3H266v-14.4h17.7c4.9,0,8.3,2,8.3,6.9S288.8,211.3,283.6,211.3z" class="st10"/><radialGradient id="SVGID_8_" cx="258.149" cy="314.553" r="483.529" gradientTransform="matrix(1 0 0 -1 0 329.28)" gradientUnits="userSpaceOnUse"><stop offset="0" style="stop-color:#9ad7f3"/><stop offset=".063" style="stop-color:#93d4f1"/><stop offset=".146" style="stop-color:#7ecbee"/><stop offset=".242" style="stop-color:#55bce7"/><stop offset=".345" style="stop-color:#00a9df"/><stop offset=".371" style="stop-color:#00a4dd"/><stop offset=".466" style="stop-color:#0098d4"/><stop offset=".591" style="stop-color:#008aca"/><stop offset=".72" style="stop-color:#0081c2"/><stop offset=".853" style="stop-color:#007bbd"/><stop offset="1" style="stop-color:#0079bc"/></radialGradient><path d="M367.4,200.4c0-6.4-2.7-10-6.9-12.6c-4.4-2.4-9.4-2.7-16.3-2.7H313v56.7h13.6v-20.7H341 c4.9,0,7.9,0.5,9.9,2.5c2.5,2.6,2.2,7.7,2.2,11.1v7.1h13.6v-11.2c0-5-0.3-7.6-2.3-10.4c-1.2-1.7-3.6-3.7-6.6-4.8 C361.4,214,367.4,209.4,367.4,200.4z M349.6,208.4c-1.8,1-4,1.2-6.7,1.2h-16.5v-12.7h16.7c2.4,0,4.8,0.1,6.4,1 c1.8,0.9,2.8,2.7,2.8,5.1C352.4,205.4,351.4,207.4,349.6,208.4z" class="st11"/><radialGradient id="SVGID_9_" cx="258.149" cy="314.553" r="483.529" gradientTransform="matrix(1 0 0 -1 0 329.28)" gradientUnits="userSpaceOnUse"><stop offset="0" style="stop-color:#9ad7f3"/><stop offset=".063" style="stop-color:#93d4f1"/><stop offset=".146" style="stop-color:#7ecbee"/><stop offset=".242" style="stop-color:#55bce7"/><stop offset=".345" style="stop-color:#00a9df"/><stop offset=".371" style="stop-color:#00a4dd"/><stop offset=".466" style="stop-color:#0098d4"/><stop offset=".591" style="stop-color:#008aca"/><stop offset=".72" style="stop-color:#0081c2"/><stop offset=".853" style="stop-color:#007bbd"/><stop offset="1" style="stop-color:#0079bc"/></radialGradient><path d="M364.5,144.3h15.9l5.1-12.6h28.2l5.3,12.6h27.6v-42.5l25.7,42.5h19.2V87.6h-13.8v39.5l-23.8-39.5H433v53.6 l-22.9-53.6h-20.3l-19.1,44.6h-6.1c-3.6,0-7.4-0.7-9.4-2.9c-2.6-2.9-3.7-7.2-3.7-13.3c0-5.9,1.6-10.5,3.9-12.8 c2.7-2.6,5.5-3.4,10.5-3.4h12.8V87.6h-13.1c-9.3,0-16.2,2.1-20.6,6.6c-5.8,6.1-7.3,13.7-7.3,22.1c0,10.3,2.4,16.8,7.2,21.7 C349.6,142.8,357.9,144.3,364.5,144.3z M399.6,97.3l9.4,22.5h-18.7L399.6,97.3z" class="st12"/><radialGradient id="SVGID_10_" cx="258.149" cy="314.553" r="483.529" gradientTransform="matrix(1 0 0 -1 0 329.28)" gradientUnits="userSpaceOnUse"><stop offset="0" style="stop-color:#9ad7f3"/><stop offset=".063" style="stop-color:#93d4f1"/><stop offset=".146" style="stop-color:#7ecbee"/><stop offset=".242" style="stop-color:#55bce7"/><stop offset=".345" style="stop-color:#00a9df"/><stop offset=".371" style="stop-color:#00a4dd"/><stop offset=".466" style="stop-color:#0098d4"/><stop offset=".591" style="stop-color:#008aca"/><stop offset=".72" style="stop-color:#0081c2"/><stop offset=".853" style="stop-color:#007bbd"/><stop offset="1" style="stop-color:#0079bc"/></radialGradient><path d="M309.4,102.9c0-6.3-2.6-10-6.9-12.6c-4.4-2.5-9.5-2.8-16.4-2.8H255v56.6h13.5v-20.6h14.6 c4.9,0,7.9,0.4,9.8,2.4c2.5,2.7,2.2,7.6,2.2,11l0.1,7.1h13.7v-11.1c0-5-0.4-7.6-2.3-10.3c-1.2-1.7-3.7-3.6-6.7-4.8 C303.3,116.6,309.4,111.9,309.4,102.9z M291.7,110.9c-1.8,1-4.1,1.2-6.7,1.2h-16.5V99.5h16.7c2.4,0,4.8,0.1,6.5,1s2.8,2.6,2.8,5 S293.4,109.9,291.7,110.9z" class="st13"/><radialGradient id="SVGID_11_" cx="258.149" cy="314.553" r="483.529" gradientTransform="matrix(1 0 0 -1 0 329.28)" gradientUnits="userSpaceOnUse"><stop offset="0" style="stop-color:#9ad7f3"/><stop offset=".063" style="stop-color:#93d4f1"/><stop offset=".146" style="stop-color:#7ecbee"/><stop offset=".242" style="stop-color:#55bce7"/><stop offset=".345" style="stop-color:#00a9df"/><stop offset=".371" style="stop-color:#00a4dd"/><stop offset=".466" style="stop-color:#0098d4"/><stop offset=".591" style="stop-color:#008aca"/><stop offset=".72" style="stop-color:#0081c2"/><stop offset=".853" style="stop-color:#007bbd"/><stop offset="1" style="stop-color:#0079bc"/></radialGradient><path d="M176.3,100l0.1,44.3h13.9V87.6h-22.5l-16.3,38.5l-17.7-38.5h-22.1v53.7l-23-53.7H68.4l-24.2,56.6H59 l5.2-12.6h28.2l5.2,12.6h27.5V99.9l19.7,44.4h11.9L176.3,100z M69,119.8l9.2-22.5l9.3,22.5H69z" class="st14"/></g></g></g></g><g id="grey_with_frame" class="st31"><g class="st33"><path d="M268.5,123.7h14.6c4.8,0,7.8,0.4,9.8,2.4c2.5,2.7,2.2,7.6,2.2,11l0.1,7.1h13.7v-11.1c0-5-0.4-7.5-2.3-10.3 c-1.2-1.7-3.7-3.6-6.7-4.8c3.5-1.4,9.5-6.1,9.5-15.1c0-6.3-2.6-10-6.8-12.5c-4.4-2.6-9.5-2.8-16.4-2.8H255v56.7h13.5V123.7z M268.5,99.5h16.7c2.4,0,4.8,0.1,6.5,1s2.8,2.6,2.8,5s-1.1,4.4-2.8,5.4c-1.8,1-4.1,1.2-6.7,1.2h-16.5V99.5z" class="st34"/><path d="M283.7,185.1h-43.3l-17.2,18.6l-16.6-18.6h-54.5v56.7h53.6l17.3-18.7l16.7,18.7H266v-19h16.9 c11.9,0,23.6-3.3,23.6-19C306.5,188.1,294.4,185.1,283.7,185.1z M198.9,230h-33.3v-11.3h29.7v-11.5h-29.7v-10.3h33.9l14.8,16.5 L198.9,230z M252.5,236.7l-20.7-23.1l20.7-22.4V236.7z M283.5,211.3H266v-14.4h17.7c4.9,0,8.3,1.9,8.2,7 C291.9,208.8,288.7,211.3,283.5,211.3z" class="st34"/><path d="M176.4,144.3h13.7V87.6h-22.5l-16.3,38.5l-17.7-38.5h-22.1v53.8l-23-53.7H68.4l-24.2,56.6H59l5.2-12.6h28.2 l5.2,12.6h27.5V99.9l19.7,44.4h11.9l19.6-44.3L176.4,144.3z M69,119.8l9.2-22.5l9.3,22.5H69z" class="st34"/><polygon points="245.6 132.4 213.9 132.4 213.9 121.1 244.8 121.2 244.8 109.6 213.9 109.6 213.9 99.4 245.6 99.4 245.6 87.6 200.4 87.6 200.4 144.3 245.6 144.3" class="st34"/><path d="M364.3,144.3h15.9l5.1-12.6h28.2l5.3,12.6h27.6v-42.5l25.7,42.5h19V87.6h-13.8v39.5l-23.8-39.5h-20.7v53.6 l-22.9-53.6h-20.3l-19.1,44.6h-6.1c-3.6,0-7.4-0.7-9.4-2.9c-2.5-2.9-3.7-7.2-3.7-13.3c0-5.9,1.6-10.4,3.9-12.8 c2.7-2.6,5.6-3.4,10.5-3.4h12.8V87.7h-13.1c-9.4,0-16.2,2.1-20.6,6.6c-5.8,6-7.3,13.7-7.3,22.1c0,10.4,2.4,16.9,7.2,21.7 C349.4,142.8,357.7,144.3,364.3,144.3z M399.6,97.3l9.4,22.5h-18.7L399.6,97.3z" class="st34"/><rect width="13.8" height="56.7" x="317.3" y="87.6" class="st34"/><path d="M512.1,207.7c-0.9-0.1-1.9-0.2-3-0.2l-7.3-0.2c-2.3-0.1-3.8-0.2-5.2-0.7c-1.8-0.6-3-2.1-3-4.2 c0-1.8,0.6-3.2,2-4.1c1.4-0.9,3-1,5.5-1h24.7v-12.1h-9.4h-17.6c-14.2,0-19.4,8.7-19.4,16.9c0,17.9,15.9,17.1,28.6,17.5 c2.4,0,3.8,0.4,4.8,1.3c1,0.7,1.7,2,1.7,3.7c0,1.6-0.7,2.9-1.6,3.7c-1.1,1.1-2.9,1.4-5.5,1.4h-26.1v12.2h26.2 c0.7,0,1.4-0.1,2.1-0.1c0.2,0,0.3,0,0.5,0c1.4-0.1,2.8-0.3,4.1-0.5c0.1-0.1,0.2-0.1,0.3-0.1c0.6-0.2,1.3-0.3,1.9-0.5 c7.9-2.2,12.2-7.6,12.1-16.6c0-5.8-1.4-9.2-4.1-12C521.8,209.5,517.8,208.2,512.1,207.7z" class="st34"/><path d="M367.3,200.4c0-6.5-2.6-10.1-6.9-12.6c-4.4-2.4-9.4-2.7-16.3-2.7h-31.2v56.7h13.6v-20.7H341 c4.9,0,7.9,0.4,9.9,2.5c2.5,2.7,2.2,7.7,2.2,11.1v7.1h13.6v-11.2c-0.1-5.1-0.4-7.6-2.3-10.4c-1.1-1.6-3.6-3.6-6.7-4.8 C361.3,214,367.3,209.4,367.3,200.4z M349.7,208.4c-1.8,1.1-4.1,1.2-6.7,1.2h-16.5v-12.7h16.7c2.4,0,4.8,0.1,6.4,1 c1.8,0.9,2.8,2.6,2.9,5C352.5,205.4,351.5,207.3,349.7,208.4z" class="st34"/><polygon points="374.9 241.9 420.1 241.9 420.1 230.1 388.4 230 388.4 218.8 419.3 218.8 419.3 207.2 388.4 207.2 388.4 196.9 420.1 196.9 420.1 185.2 374.9 185.2" class="st34"/><path d="M527.6,0H38C17.1,0,0,17.1,0,38v253.4c0,20.9,17.1,38,38,38h489.6c20.9,0,38-17.1,38-38V38 C565.6,17.1,548.5,0,527.6,0z M134.8,145.8v9.6H89.3l-5.2-12.6H72.4l-5.2,12.6H25.8l34.7-79h35.2l4.6,9.4v-9.4h41.4l9,20.4 l8.9-20.4h131.6c5.9,0,11.3,1.1,15.3,4.6v-4.6h35.9V81c6.2-3.4,13.9-4.6,22.6-4.6h52.1l4.8,9.4v-9.4h38.6l5.2,9.4v-9.4h37.6v79 h-38l-7.2-12v12h-47.4l-5.2-12.6h-11.7l-5.3,12.6h-24.6c-9.6,0-17-2.3-21.7-4.8v4.8h-58.5v-17.9c0-2.5-0.5-2.7-2-2.7h-2.2 l0.1,20.7H166.5v-9.8l-4,9.8h-23.6L134.8,145.8z M528.8,247.2c-0.9,0.6-4.7,3.1-9,4.2c-5.8,1.5-13.7,1.5-13.8,1.5h-35.2v-5.1 c-4.1,3.3-11.4,5.1-18.4,5.1H341.8v-18.3c0-2.2-0.2-2.3-2.5-2.3h-1.8v20.6h-36.4v-21.3c-6,2.7-13,2.9-18.8,2.8h-4.4V253h-44.1 l-10.9-12.3L211.4,253h-71.6v-79.1h73l10.5,12.1l11-12.1h48.9c5.7,0,14.9,0.6,19.1,4.6v-4.6h43.6c4.2,0,13,0.8,18.3,4.6v-4.6h66.2 v4.6c3.4-3.1,10.3-4.6,16.2-4.6h37.1v4.6c3.9-2.8,9.4-4.6,17-4.6H537v34.5h-1.1c2.7,4.2,3.9,9.3,3.9,15.5 C539.8,228.5,538.7,240.1,528.8,247.2z" class="st34"/><path d="M456.3,207.4l-7.3-0.2c-2.3-0.1-3.8-0.2-5.2-0.7c-1.7-0.6-3-2.1-3-4.2c0-1.8,0.5-3.2,2-4.1 c1.4-0.9,3-1,5.5-1h24.8v-12.1h-27.2c-14.1,0-19.3,8.7-19.3,16.9c0,17.9,15.8,17.1,28.5,17.5c2.4,0,3.8,0.4,4.8,1.3 c1,0.7,1.7,2,1.7,3.7c0,1.6-0.7,2.9-1.6,3.7c-1.1,1.1-2.9,1.4-5.5,1.4h-26.3v12.2h26.4c13.6,0,21.3-5.7,21.2-17.9 c0-5.8-1.4-9.2-4.1-12C468.7,208.9,463.7,207.6,456.3,207.4z" class="st34"/></g></g><g id="grey_no_frame_copy" class="st31"><path d="M25.8,155.4h41.4l5.2-12.6h11.7l5.2,12.6h45.5v-9.6l4.1,9.7h23.6l4-9.8v9.8h113.1l-0.1-20.7h2.2 c1.5,0,2,0.2,2,2.7v17.9h58.5v-4.8c4.7,2.5,12.1,4.8,21.7,4.8h24.6l5.3-12.6h11.7l5.2,12.6h47.4v-12l7.2,12h38v-79h-37.6v9.4 l-5.2-9.4h-38.6v9.4l-4.8-9.4H365c-8.7,0-16.4,1.2-22.6,4.6v-4.6h-35.9V81c-4-3.5-9.4-4.6-15.3-4.6H159.6l-8.9,20.4l-9-20.4h-41.4 v9.4l-4.6-9.4H60.5L25.8,155.4z M491.3,144.3h-19.2l-25.7-42.5v42.5h-27.6l-5.3-12.6h-28.2l-5.1,12.6h-15.9 c-6.6,0-14.9-1.5-19.6-6.2c-4.8-4.8-7.2-11.3-7.2-21.7c0-8.4,1.5-16.1,7.3-22.1c4.4-4.5,11.2-6.6,20.6-6.6h13.1v12.1h-12.8 c-4.9,0-7.8,0.8-10.5,3.4c-2.3,2.4-3.9,6.9-3.9,12.8c0,6.1,1.2,10.4,3.7,13.3c2,2.2,5.8,2.9,9.4,2.9h6.1l19.1-44.6h20.3l22.9,53.6 V87.6h20.7l23.8,39.5V87.6h13.8v56.7H491.3z M331.1,144.3h-13.8V87.6h13.8V144.3z M309.4,102.9c0,9-6,13.7-9.5,15.1 c3,1.2,5.5,3.1,6.7,4.8c1.9,2.8,2.3,5.3,2.3,10.3v11.1h-13.7l-0.1-7.1c0-3.4,0.3-8.3-2.2-11c-2-2-5-2.4-9.8-2.4h-14.6v20.6H255 V87.6h31.2c6.9,0,12,0.2,16.4,2.8C306.8,92.9,309.4,96.6,309.4,102.9z M245.6,144.3h-45.2V87.6h45.2v11.8h-31.7v10.2h30.9v11.6 l-30.9-0.1v11.3h31.7V144.3z M190.3,144.3h-13.9l-0.1-44.3l-19.6,44.3h-11.9l-19.7-44.4v44.4H97.6l-5.2-12.6H64.2L59,144.3H44.2 l24.2-56.6h20.1l23,53.7V87.6h22.1l17.7,38.5l16.3-38.5h22.5v56.7H190.3z M409,119.8l-9.4-22.5l-9.3,22.5H409z M291.7,110.9 c-1.8,1-4.1,1.2-6.7,1.2h-16.5V99.5h16.7c2.4,0,4.8,0.1,6.5,1s2.8,2.6,2.8,5S293.4,109.9,291.7,110.9z M87.5,119.8l-9.3-22.5 L69,119.8H87.5z" class="st32"/><g class="st33"><polygon points="165.6 196.9 165.6 207.2 195.3 207.2 195.3 218.7 165.6 218.7 165.6 230 198.9 230 214.3 213.4 199.5 196.9" class="st34"/><polygon points="252.5 236.7 252.5 191.2 231.8 213.6" class="st34"/><path d="M349.6,197.9c-1.6-0.9-4-1-6.4-1h-16.7v12.7H343c2.6,0,4.9-0.1,6.7-1.2c1.8-1.1,2.8-3,2.8-5.5 C352.4,200.5,351.4,198.8,349.6,197.9z" class="st34"/><path d="M283.7,196.9H266v14.4h17.5c5.2,0,8.4-2.5,8.4-7.4C292,198.8,288.6,196.9,283.7,196.9z" class="st34"/><path d="M539.8,223.9c0-6.2-1.2-11.3-3.9-15.5h1.1v-34.5h-36.3c-7.6,0-13.1,1.8-17,4.6v-4.6h-37.1 c-5.9,0-12.8,1.5-16.2,4.6v-4.6h-66.2v4.6c-5.3-3.8-14.1-4.6-18.3-4.6h-43.6v4.6c-4.2-4-13.4-4.6-19.1-4.6h-48.9l-11,12.1 l-10.5-12.1h-73V253h71.6l11.5-12.3l10.9,12.3h44.1v-18.6h4.4c5.8,0.1,12.8-0.1,18.8-2.8v21.3h36.4v-20.6h1.8 c2.3,0,2.5,0.1,2.5,2.3v18.3h110.6c7,0,14.3-1.8,18.4-5.1v5.1H506c0.1,0,8,0,13.8-1.5c4.3-1.1,8.1-3.6,9-4.2 C538.7,240.1,539.8,228.5,539.8,223.9z M282.9,222.8H266v19h-26.3L223,223.1l-17.3,18.7h-53.6v-56.7h54.5l16.6,18.6l17.2-18.6 h43.3c10.7,0,22.8,3,22.8,18.7S294.8,222.8,282.9,222.8z M364.4,220.2c1.9,2.8,2.2,5.3,2.3,10.4v11.2h-13.6v-7.1 c0-3.4,0.3-8.4-2.2-11.1c-2-2.1-5-2.5-9.9-2.5h-14.5v20.7h-13.6v-56.7h31.2c6.9,0,11.9,0.3,16.3,2.7c4.3,2.5,6.9,6.1,6.9,12.6 c0,9-6,13.6-9.6,15C360.8,216.6,363.3,218.6,364.4,220.2z M420.1,196.9h-31.7v10.3h30.9v11.6h-30.9V230l31.7,0.1v11.8h-45.2v-56.7 h45.2V196.9z M454.6,241.8h-26.4v-12.2h26.3c2.6,0,4.4-0.3,5.5-1.4c0.9-0.8,1.6-2.1,1.6-3.7c0-1.7-0.7-3-1.7-3.7 c-1-0.9-2.4-1.3-4.8-1.3c-12.7-0.4-28.5,0.4-28.5-17.5c0-8.2,5.2-16.9,19.3-16.9h27.2v12.1h-24.8c-2.5,0-4.1,0.1-5.5,1 c-1.5,0.9-2,2.3-2,4.1c0,2.1,1.3,3.6,3,4.2c1.4,0.5,2.9,0.6,5.2,0.7l7.3,0.2c7.4,0.2,12.4,1.5,15.4,4.5c2.7,2.8,4.1,6.2,4.1,12 C475.9,236.1,468.2,241.8,454.6,241.8z M516.4,240.7L516.4,240.7c-0.6,0.2-1.3,0.3-1.9,0.5c-0.1,0-0.2,0-0.3,0.1 c-1.3,0.2-2.7,0.4-4.1,0.5c-0.2,0-0.3,0-0.5,0c-0.7,0-1.4,0.1-2.1,0.1h-26.2v-12.2h26.1c2.6,0,4.4-0.3,5.5-1.4 c0.9-0.8,1.6-2.1,1.6-3.7c0-1.7-0.7-3-1.7-3.7c-1-0.9-2.4-1.3-4.8-1.3c-12.7-0.4-28.6,0.4-28.6-17.5c0-8.2,5.2-16.9,19.4-16.9 h17.6l0,0h9.4v12.1l0,0l0,0h-24.7c-2.5,0-4.1,0.1-5.5,1s-2,2.3-2,4.1c0,2.1,1.2,3.6,3,4.2c1.4,0.5,2.9,0.6,5.2,0.7l7.3,0.2 c1.1,0,2.1,0.1,3,0.2l0,0c5.7,0.5,9.7,1.8,12.3,4.4c2.7,2.8,4.1,6.2,4.1,12C528.6,233.1,524.3,238.5,516.4,240.7z" class="st34"/></g><g class="st33"><rect width="13.8" height="56.6" x="317.2" y="87.6" class="st5"/><polygon points="245.6 132.5 213.9 132.5 213.9 121.2 244.8 121.3 244.8 109.6 213.9 109.6 213.9 99.5 245.6 99.5 245.6 87.6 200.4 87.6 200.4 144.3 245.6 144.3" class="st5"/><polygon points="374.9 241.8 420.1 241.8 420.1 230 388.4 230 388.4 218.7 419.3 218.7 419.3 207.2 388.4 207.2 388.4 196.9 420.1 196.9 420.1 185.1 374.9 185.1" class="st5"/><path d="M456.3,207.4l-7.3-0.2c-2.3,0-3.8-0.2-5.2-0.7c-1.7-0.6-3-2.1-3-4.2c0-1.8,0.6-3.2,2-4.1c1.4-0.9,3-1,5.5-1 h24.8v-12.1H446c-14.2,0-19.3,8.7-19.3,16.9c0,17.9,15.9,17.1,28.5,17.5c2.4,0,3.8,0.4,4.8,1.3c1,0.8,1.7,2.1,1.7,3.7 c0,1.6-0.7,2.8-1.6,3.7c-1.2,1.1-2.9,1.4-5.5,1.4h-26.3v12.2h26.4c13.6,0,21.3-5.7,21.3-17.9c0-5.8-1.4-9.3-4.1-12 C468.7,208.8,463.7,207.6,456.3,207.4z" class="st5"/><path d="M524.5,211.9c-2.6-2.6-6.6-3.9-12.3-4.4l0,0c-1-0.1-2-0.1-3-0.2l-7.3-0.2c-2.3,0-3.8-0.2-5.2-0.7 c-1.8-0.6-3-2.1-3-4.2c0-1.8,0.6-3.2,2-4.1c1.3-0.9,3-1,5.5-1h24.7l0,0l0,0V185h-9.4l0,0h-17.6c-14.2,0-19.4,8.7-19.4,16.9 c0,17.9,15.9,17.1,28.6,17.5c2.3,0,3.7,0.4,4.8,1.3c0.9,0.8,1.7,2.1,1.7,3.7c0,1.6-0.7,2.8-1.6,3.7c-1.1,1.1-2.9,1.4-5.5,1.4 h-26.1v12.2h26.2c0.7,0,1.4,0,2.1-0.1c0.2,0,0.3,0,0.5,0c1.5-0.1,2.8-0.3,4.1-0.5c0.1,0,0.2,0,0.3-0.1c0.7-0.1,1.3-0.3,1.9-0.4 l0,0c7.9-2.2,12.2-7.7,12.2-16.8C528.6,218.1,527.2,214.7,524.5,211.9z" class="st5"/><path d="M283.7,185.1h-43.3l-17.2,18.6l-16.6-18.6h-54.5v56.7h53.6l17.3-18.7l16.7,18.7H266v-19h16.9 c11.9,0,23.6-3.3,23.6-19S294.5,185.1,283.7,185.1z M198.9,230h-33.3v-11.3h29.7v-11.6h-29.7v-10.3h33.9l14.8,16.5L198.9,230z M252.5,236.7l-20.8-23.1l20.8-22.3V236.7z M283.6,211.3H266v-14.4h17.7c4.9,0,8.3,2,8.3,6.9S288.8,211.3,283.6,211.3z" class="st5"/><path d="M367.4,200.4c0-6.4-2.7-10-6.9-12.6c-4.4-2.4-9.4-2.7-16.3-2.7H313v56.7h13.6v-20.7H341 c4.9,0,7.9,0.5,9.9,2.5c2.5,2.6,2.2,7.7,2.2,11.1v7.1h13.6v-11.2c0-5-0.3-7.6-2.3-10.4c-1.2-1.7-3.6-3.7-6.6-4.8 C361.4,214,367.4,209.4,367.4,200.4z M349.6,208.4c-1.8,1-4,1.2-6.7,1.2h-16.5v-12.7h16.7c2.4,0,4.8,0.1,6.4,1 c1.8,0.9,2.8,2.7,2.8,5.1C352.4,205.4,351.4,207.4,349.6,208.4z" class="st5"/><path d="M364.5,144.3h15.9l5.1-12.6h28.2l5.3,12.6h27.6v-42.5l25.7,42.5h19.2V87.6h-13.8v39.5l-23.8-39.5H433v53.6 l-22.9-53.6h-20.3l-19.1,44.6h-6.1c-3.6,0-7.4-0.7-9.4-2.9c-2.6-2.9-3.7-7.2-3.7-13.3c0-5.9,1.6-10.5,3.9-12.8 c2.7-2.6,5.5-3.4,10.5-3.4h12.8V87.6h-13.1c-9.3,0-16.2,2.1-20.6,6.6c-5.8,6.1-7.3,13.7-7.3,22.1c0,10.3,2.4,16.8,7.2,21.7 C349.6,142.8,357.9,144.3,364.5,144.3z M399.6,97.3l9.4,22.5h-18.7L399.6,97.3z" class="st5"/><path d="M309.4,102.9c0-6.3-2.6-10-6.9-12.6c-4.4-2.5-9.5-2.8-16.4-2.8H255v56.6h13.5v-20.6h14.6 c4.9,0,7.9,0.4,9.8,2.4c2.5,2.7,2.2,7.6,2.2,11l0.1,7.1h13.7v-11.1c0-5-0.4-7.6-2.3-10.3c-1.2-1.7-3.7-3.6-6.7-4.8 C303.3,116.6,309.4,111.9,309.4,102.9z M291.7,110.9c-1.8,1-4.1,1.2-6.7,1.2h-16.5V99.5h16.7c2.4,0,4.8,0.1,6.5,1s2.8,2.6,2.8,5 S293.4,109.9,291.7,110.9z" class="st5"/><path d="M176.3,100l0.1,44.3h13.9V87.6h-22.5l-16.3,38.5l-17.7-38.5h-22.1v53.7l-23-53.7H68.4l-24.2,56.6H59l5.2-12.6 h28.2l5.2,12.6h27.5V99.9l19.7,44.4h11.9L176.3,100z M69,119.8l9.2-22.5l9.3,22.5H69z" class="st5"/></g></g></svg>