<svg xmlns="http://www.w3.org/2000/svg" xmlns:xlink="http://www.w3.org/1999/xlink" x="0" y="0" version="1.1" viewBox="0 0 565.6 329.4" xml:space="preserve" style="enable-background:new 0 0 565.6 329.4"><style type="text/css">.st0{fill:url(#SVGID_1_)}.st2{fill:#ee8414}.st3{fill:#e20020}.st4{fill:#1e306d}.st5{fill:#fff}.st31{display:none}.st32{fill:#757575}.st32,.st33{display:inline}.st34{fill:#757575}</style><g id="color"><g><radialGradient id="SVGID_1_" cx="276.778" cy="354.596" r="888.763" gradientTransform="matrix(1 0 0 -1 0 329.28)" gradientUnits="userSpaceOnUse"><stop offset="0" style="stop-color:#9ad7f3"/><stop offset=".063" style="stop-color:#93d4f1"/><stop offset=".146" style="stop-color:#7ecbee"/><stop offset=".242" style="stop-color:#55bce7"/><stop offset=".345" style="stop-color:#00a9df"/><stop offset=".371" style="stop-color:#00a4dd"/><stop offset=".422" style="stop-color:#0091c8"/><stop offset=".498" style="stop-color:#0077ae"/><stop offset=".577" style="stop-color:#006097"/><stop offset=".656" style="stop-color:#0e4e86"/><stop offset=".737" style="stop-color:#19407a"/><stop offset=".82" style="stop-color:#1d3772"/><stop offset=".906" style="stop-color:#1e316e"/><stop offset="1" style="stop-color:#1e306d"/></radialGradient><path d="M527.6,329.4H38c-20.9,0-38-17.1-38-38V38C0,17.1,17.1,0,38,0h489.6c20.9,0,38,17.1,38,38v253.4 C565.6,312.3,548.5,329.4,527.6,329.4z" class="st0"/><g><path d="M239.3,164.7c0-72.5,58.7-131.2,131.2-131.2s131.2,58.7,131.2,131.2c0,72.4-58.7,131.2-131.2,131.2 C298.1,295.9,239.3,237.1,239.3,164.7L239.3,164.7z" class="st2"/><path d="M282.7,67c0.1,0-6.9,6-11.5,11.9h23.3c0,0,8,8.6,10.9,15.1h-45.6c0,0-4.4,6.9-7.4,12.8h60.3 c0,0,5.5,10.3,6.7,15.8H246c0,0-2.5,7.2-3.6,12.4l80.3-0.1c2.2,10.1,7.6,39.4-3.5,71.8l-73,0.1c1.2,3.9,3.2,9.1,5,13h62.7 c-2.5,5.3-6.2,11.9-8.3,15.2h-45.9c2.4,3.7,6.3,9.5,8.8,12.1h28.3c-5.3,7.3-14.3,14.9-14.3,14.9h-0.2l0.3,0.1 c-23.2,20.9-54,33.7-87.7,33.7c-72.5,0-131.2-58.7-131.2-131.2S122.4,33.4,194.9,33.4C228.7,33.5,259.4,46.2,282.7,67L282.7,67z" class="st3"/><path d="M217.9,146.1l-2.1,11.8l-11.5-0.3c0,0-5.8,1.5-5.8,3.9s4.2,5.5,10.6,8.2c6.4,2.7,6.7,10.3,6.1,15.4 c-0.6,5.1-1.5,15.8-20,16.3c-10.6,0.3-16.3-1.8-16.3-1.8l2.4-12.1c0,0,13.6,3.6,16.7,1.5c3-2.1,6.7-5.8,0.9-8.2 s-15.1-6.4-15.1-16c0-9.7,3.9-15.1,10-17.9C199.8,144.3,210.4,144.5,217.9,146.1L217.9,146.1z" class="st4"/><polygon points="127 200.1 113.6 200.1 121.4 154.1 104.9 199.8 95.6 199.8 93.4 152.2 85.3 200.1 72.7 200.1 84.6 129.9 99.9 129.9 105.3 170.3 123.2 129.9 138.9 129.9" class="st4"/><path d="M229.9,201c-4.4,0-7.5-1-9.3-2.8c-1.9-2-2.8-4.9-2.8-8.7c0-1,0.1-2,0.2-2.8c0.1-1,0.3-2.1,0.4-3.4l8-44.9 H239l-1.8,8.8h11.7l-2,11.1h-11.7l-3.2,19.1c-0.2,1.3-0.4,2.5-0.6,3.9c-0.2,1.3-0.3,2.5-0.3,3.4c0,2,0.3,3.2,1.1,3.9 c0.7,0.7,2,1.1,3.6,1.1c0.6,0,1.4-0.1,2.5-0.4c1-0.4,2-0.7,2.6-1.1h1l-2,11.3c-1.4,0.6-2.9,0.8-4.4,1.1 C234,200.9,232.1,201,229.9,201L229.9,201z" class="st4"/><path d="M319.9,162c-2.7-2.1-8.8-1.7-10.1,2.7l-6,35.4h-12.5l9-52.9h12.5l-0.3,4.3c2.4-2.4,5.1-4.4,11.8-4.2 C324.8,147.2,320.3,155.1,319.9,162L319.9,162z" class="st4"/><path d="M343.6,201.5c-6.9,0-12.4-2.4-16.2-7c-3.9-4.6-5.7-11.4-5.7-20.1c0-6.9,0.8-13.1,2.5-18.7 c1.7-5.6,4-10.4,7-14.5c2.9-3.9,6.3-7,10.4-9.3c3.9-2.3,8.2-3.4,12.7-3.4c3.5,0,6.8,0.6,10,1.5c1.5,0.5,4.4,1.9,4.4,1.9 l-2.9,16.7c-1.5-1.9-2.9-3.3-4.4-4.4c-2.2-1.4-4.8-2.2-7.7-2.2c-5.2,0-9.4,2.8-12.8,8.4c-3.4,5.6-5.1,12.8-5.1,21.5 c0,5.6,0.9,9.7,2.8,12.2c1.9,2.4,4.6,3.7,8.1,3.7c3.2,0,6.2-0.8,9-2.5c1.3-0.9,2.6-1.8,3.9-2.8l-2.9,15.9c0,0-1.5,0.7-2.2,1 c-1.8,0.7-3.3,1.1-4.7,1.6C348.3,201.2,346.2,201.5,343.6,201.5L343.6,201.5z" class="st4"/><path d="M157.9,198.2c-0.5,0.4-1,0.7-1.4,1c-1.4,0.7-2.5,1.3-3.6,1.7c-1.1,0.3-2.7,0.6-4.8,0.6 c-3.2,0-5.9-1.3-7.9-3.7c-2.1-2.5-3.1-5.8-3.1-9.7c0-4.2,0.7-7.7,2.2-10.7c1.4-2.8,3.6-5.2,6.5-6.9c2.7-1.7,5.9-2.8,9.5-3.5 l2.6-0.4c3-0.6,6.1-1,9.5-1.1c0-0.3,0-0.6,0.1-1s0.1-0.8,0.1-1.4c0-2.2-0.7-3.8-2.3-4.8c-1.6-0.8-3.8-1.3-6.8-1.3h-0.6 c-1.9,0.1-3.9,0.6-6.2,1.4c-2.5,1-4.4,1.7-5.6,2.4H145l1.9-12.5c1.5-0.6,3.7-1.1,6.7-1.7c1.5-0.4,2.9-0.6,4.4-0.7 c1.6-0.3,3.2-0.3,4.8-0.3c6.1,0,10.6,1.1,13.5,3.2c2.9,2.1,4.3,5.5,4.3,10.1c0,0.6,0,1.4-0.1,2.4s-0.2,1.8-0.3,2.7l-6.1,36h-12.4 l0.9-5.6c-0.7,0.7-1.8,1.6-2.8,2.5C158.9,197.4,158.4,197.8,157.9,198.2L157.9,198.2z M157.9,176.3c-1.4,0.3-2.5,0.7-3.4,1.1 c-1.5,0.7-2.5,1.7-3.2,3c-0.8,1.3-1.2,3-1.2,5.1c0,1.8,0.5,3.1,1.5,3.8s2.4,1.1,4.4,1.1c0.6,0,1.2-0.1,2-0.4 c0.6-0.1,1.2-0.4,2-0.7c1.3-0.8,2.7-1.8,3.9-3l1.9-11.3c-2.2,0.3-4.4,0.6-6.2,1C158.9,176,158.4,176.1,157.9,176.3L157.9,176.3z" class="st4"/><path d="M266.4,156.3c-1.7,0.3-3.2,1.1-4.5,2.5c-1.8,2-3.1,4.5-4,7.9h8.5h8.4c0-0.6,0.1-1,0.1-1.5 c0-0.4,0.1-1,0.1-1.4c0-2.5-0.6-4.4-1.8-5.8c-1.1-1.2-2.7-2-4.9-2C267.7,156,267,156.2,266.4,156.3L266.4,156.3z M266.4,189.5 h1.9c2.7,0,5.3-0.6,7.8-1.8c2.4-1.3,4.6-2.7,6.3-4.2h1.5l-2.4,13.7c-2.4,1.4-5,2.5-7.7,3.2c-2.3,0.7-4.8,1-7.4,1.1h-1.1 c-6.7,0-11.8-2-15.5-6.1c-3.6-3.9-5.4-9.4-5.4-16.5c0-4.8,0.6-9.3,1.8-13.2c1.1-4.1,2.9-7.6,5.1-10.7c2.2-3,4.8-5.2,8-7 c2.3-1.1,4.7-2,7.2-2.4c1.1-0.1,2.3-0.1,3.4-0.1c5.8,0,10.2,1.5,13.2,4.8c2.9,3.1,4.4,7.9,4.4,14.1c0,2.1-0.1,4.2-0.4,6.3 c-0.3,2-0.7,4.1-1.2,6h-19.3h-9.8v0.6v0.6c0,3.7,1,6.5,2.9,8.6C261.1,188.1,263.4,189.2,266.4,189.5L266.4,189.5z" class="st4"/><path d="M383.9,198.2c-0.5,0.4-1,0.7-1.6,1c-1.3,0.7-2.5,1.3-3.6,1.7c-1.1,0.3-2.7,0.6-4.7,0.6c-3.3,0-5.9-1.3-8-3.7 c-2.1-2.5-3-5.8-3-9.7c0-4.2,0.7-7.7,2.2-10.7c1.4-2.8,3.6-5.2,6.4-6.9c2.7-1.7,5.9-2.8,9.6-3.5c0.8-0.1,1.7-0.3,2.6-0.4 c2.9-0.6,6.1-1,9.4-1.1c0.1-0.3,0.1-0.6,0.2-1c0-0.4,0.1-0.8,0.1-1.4c0-2.2-0.8-3.8-2.3-4.8c-1.6-0.8-3.8-1.3-6.9-1.3h-0.6 c-2,0.1-4.1,0.6-6.2,1.4c-2.5,1-4.3,1.7-5.6,2.4h-1.1l1.8-12.5c1.5-0.6,3.7-1.1,6.8-1.7c1.5-0.4,2.9-0.6,4.4-0.7 c1.6-0.3,3.1-0.3,4.8-0.3c6.1,0,10.6,1.1,13.5,3.2c2.8,2.1,4.2,5.5,4.2,10.1c0,0.6,0,1.4-0.1,2.4s-0.2,1.8-0.3,2.7l-6.1,36h-12.4 l0.9-5.6c-0.8,0.7-1.8,1.6-2.9,2.5L383.9,198.2L383.9,198.2z M383.9,176.3c-1.4,0.3-2.5,0.7-3.5,1.1c-1.3,0.7-2.5,1.7-3.2,3 s-1.1,3-1.1,5.1c0,1.8,0.5,3.1,1.6,3.8c0.9,0.7,2.4,1.1,4.2,1.1c0.6,0,1.4-0.1,2.1-0.4c0.6-0.1,1.2-0.4,1.9-0.7 c1.4-0.8,2.7-1.8,3.9-3l2-11.3c-2.3,0.3-4.3,0.6-6.3,1C384.8,176,384.3,176.1,383.9,176.3L383.9,176.3z" class="st4"/><path d="M436.8,162c-2.7-2.1-8.8-1.7-10.1,2.7l-6,35.4h-12.5l9-52.9h12.5l-0.3,4.3c2.4-2.4,5.1-4.4,11.8-4.2 C441.6,147.2,437.1,155.1,436.8,162L436.8,162z" class="st4"/><path d="M461.5,158.4c-0.6,0.3-1.2,0.7-1.8,1.1c-1.6,1.1-3,2.8-4.1,4.8c-0.9,2-1.8,4.2-2.3,7.2 c-0.6,2.8-0.9,5.6-0.9,8.3c0,3.2,0.6,5.5,1.7,6.9c1.1,1.5,2.8,2.3,5,2.3c0.8,0,1.6-0.2,2.5-0.6c0.4-0.2,0.7-0.3,1.1-0.6 c1.3-0.7,2.4-1.4,3.5-2.4l4.5-26c-0.7-0.4-1.5-0.8-2.7-1.1c-1-0.4-2-0.6-2.8-0.6C463.7,157.7,462.6,158,461.5,158.4L461.5,158.4z M461.5,197.3c-0.9,0.8-2,1.7-3.1,2.4c-1,0.6-2.1,1.1-3,1.4c-1,0.3-2.3,0.4-3.6,0.4c-3.9,0-6.9-1.7-9.1-4.9 c-2.2-3.4-3.3-8.1-3.3-14.2c0-5.1,0.5-9.9,1.7-14.2c1.1-4.4,2.8-8.3,4.9-11.7s4.5-5.9,7.3-7.9c2.7-1.8,5.4-2.8,8.3-3h0.4 c2.2,0,4.1,0.3,5.6,0.8c1.6,0.6,3.2,1.5,4.9,2.8l2.8-18.5h12.5l-11.5,69.2h-12.5l0.9-5.5C463.4,195.6,462.4,196.4,461.5,197.3 L461.5,197.3z" class="st4"/><path d="M220.5,144.2l-2.1,11.8l-11.5-0.3c0,0-5.7,1.5-5.7,3.9s4.2,5.4,10.6,8.2c6.4,2.7,6.7,10.3,6.1,15.4 c-0.6,5.1-1.5,15.8-20,16.4c-10.6,0.3-16.3-1.8-16.3-1.8l2.4-12.1c0,0,13.6,3.6,16.7,1.5c3-2.1,6.7-5.8,0.9-8.2 c-5.7-2.4-15.1-6.4-15.1-16c0-9.7,3.9-15.1,10-17.9C202.3,142.4,212.9,142.6,220.5,144.2L220.5,144.2z" class="st5"/><polygon points="129.5 198.2 116.2 198.2 123.9 152.2 107.4 197.9 98.2 197.9 95.9 150.3 87.8 198.2 75.2 198.2 87.1 128 102.5 128 107.8 168.4 125.7 128 141.5 128" class="st5"/><path d="M232.4,199.2c-4.3,0-7.5-1-9.3-2.8c-1.9-2-2.8-4.9-2.8-8.7c0-1,0.1-2,0.2-2.8c0.1-1,0.3-2.1,0.4-3.4l8-44.9 h12.6l-1.8,8.8h11.7l-2,11.1h-11.7l-3.2,19.1c-0.2,1.2-0.4,2.5-0.6,3.9c-0.2,1.3-0.3,2.5-0.3,3.4c0,2,0.3,3.2,1.1,3.9 c0.7,0.7,2,1.1,3.6,1.1c0.6,0,1.5-0.2,2.5-0.4c1-0.4,2-0.7,2.6-1.1h1l-2,11.3c-1.4,0.6-2.9,0.8-4.4,1.1 C236.5,199,234.6,199.2,232.4,199.2L232.4,199.2z" class="st5"/><path d="M322.5,160.1c-2.7-2.1-8.8-1.7-10.1,2.7l-6,35.5h-12.5l9-52.9h12.5l-0.3,4.3c2.4-2.4,5-4.4,11.8-4.2 C327.3,145.4,322.8,153.2,322.5,160.1L322.5,160.1z" class="st5"/><path d="M346.2,199.6c-7,0-12.4-2.4-16.2-7c-3.8-4.6-5.7-11.4-5.7-20.1c0-6.9,0.8-13.1,2.5-18.7 c1.7-5.6,4.1-10.4,6.9-14.5c2.9-3.9,6.3-7,10.4-9.3c3.9-2.3,8.2-3.4,12.6-3.4c3.5,0,6.9,0.6,10,1.6c1.5,0.5,4.4,1.9,4.4,1.9 l-2.9,16.7c-1.5-1.9-2.9-3.3-4.4-4.4c-2.2-1.4-4.8-2.3-7.7-2.3c-5.2,0-9.4,2.8-12.8,8.4c-3.4,5.6-5.1,12.8-5.1,21.5 c0,5.6,0.9,9.7,2.8,12.2c1.9,2.4,4.6,3.7,8.1,3.7c3.2,0,6.2-0.9,9-2.5c1.3-0.9,2.6-1.8,3.9-2.8l-2.9,15.9c0,0-1.5,0.7-2.2,1 c-1.8,0.7-3.3,1.1-4.7,1.5C350.8,199.3,348.8,199.6,346.2,199.6L346.2,199.6z" class="st5"/><path d="M160.4,196.3c-0.5,0.4-1,0.7-1.4,1c-1.4,0.7-2.5,1.3-3.6,1.7c-1.1,0.3-2.7,0.6-4.8,0.6 c-3.2,0-5.9-1.3-7.9-3.7c-2.1-2.5-3.1-5.8-3.1-9.7c0-4.2,0.7-7.7,2.2-10.7c1.5-2.8,3.6-5.2,6.5-6.9c2.7-1.7,5.9-2.8,9.5-3.5 l2.6-0.4c3-0.6,6.1-1,9.5-1.1c0-0.3,0-0.6,0.1-1s0.1-0.8,0.1-1.4c0-2.2-0.7-3.8-2.3-4.8c-1.6-0.8-3.8-1.3-6.8-1.3h-0.6 c-1.9,0.1-3.9,0.6-6.2,1.4c-2.5,1-4.4,1.7-5.6,2.4h-1.1l1.9-12.5c1.5-0.6,3.7-1.1,6.7-1.7c1.4-0.4,2.9-0.6,4.4-0.7 c1.6-0.3,3.2-0.3,4.8-0.3c6.1,0,10.6,1.1,13.5,3.2c2.9,2.1,4.2,5.5,4.2,10.1c0,0.6,0,1.4-0.1,2.4s-0.2,1.8-0.3,2.7l-6.1,36H164 l0.9-5.6c-0.7,0.7-1.8,1.6-2.8,2.5C161.4,195.5,160.9,195.9,160.4,196.3L160.4,196.3z M160.4,174.4c-1.4,0.3-2.5,0.7-3.4,1.1 c-1.4,0.7-2.5,1.7-3.2,2.9c-0.8,1.3-1.1,3-1.1,5.1c0,1.8,0.5,3.1,1.4,3.8c1,0.7,2.4,1.1,4.4,1.1c0.6,0,1.2-0.1,2-0.4 c0.6-0.1,1.2-0.4,2-0.7c1.3-0.8,2.7-1.8,3.9-3l1.9-11.3c-2.2,0.3-4.4,0.6-6.2,1C161.4,174.1,160.9,174.3,160.4,174.4L160.4,174.4 z" class="st5"/><path d="M268.9,154.4c-1.7,0.3-3.2,1.1-4.4,2.5c-1.8,2-3.1,4.5-4.1,7.9h8.5h8.4c0-0.6,0.1-1,0.1-1.5 c0-0.4,0.1-1,0.1-1.4c0-2.5-0.6-4.4-1.8-5.8c-1.1-1.3-2.7-2-4.9-2C270.2,154.1,269.5,154.3,268.9,154.4L268.9,154.4z M268.9,187.6h1.9c2.7,0,5.3-0.6,7.8-1.8c2.4-1.3,4.6-2.7,6.3-4.2h1.4l-2.4,13.6c-2.4,1.4-5,2.5-7.7,3.2c-2.3,0.7-4.8,1-7.4,1.1 h-1.1c-6.7,0-11.8-2-15.5-6.1c-3.6-3.9-5.4-9.4-5.4-16.5c0-4.8,0.6-9.3,1.8-13.2c1.1-4.1,2.9-7.6,5.1-10.7c2.2-2.9,4.8-5.2,8-7 c2.3-1.1,4.7-2,7.1-2.4c1.1-0.1,2.3-0.1,3.4-0.1c5.8,0,10.2,1.5,13.2,4.8c2.9,3.1,4.4,7.9,4.4,14.1c0,2.1-0.1,4.2-0.4,6.3 c-0.3,2-0.7,4.1-1.3,6h-19.3h-9.7v0.6v0.6c0,3.7,1,6.5,2.9,8.6C263.6,186.2,265.9,187.3,268.9,187.6L268.9,187.6z" class="st5"/><path d="M386.4,196.3c-0.5,0.4-1,0.7-1.5,1c-1.2,0.7-2.5,1.3-3.6,1.7c-1.1,0.3-2.7,0.6-4.7,0.6c-3.3,0-5.9-1.3-8-3.7 c-2.1-2.5-3-5.8-3-9.7c0-4.2,0.7-7.7,2.2-10.7c1.4-2.8,3.6-5.2,6.4-6.9c2.7-1.7,5.9-2.8,9.6-3.5c0.8-0.2,1.7-0.3,2.6-0.4 c2.9-0.6,6.1-1,9.5-1.1c0.1-0.3,0.1-0.6,0.2-1c0-0.4,0.1-0.8,0.1-1.4c0-2.2-0.8-3.8-2.3-4.8c-1.5-0.8-3.8-1.3-6.8-1.3h-0.6 c-2,0.1-4,0.6-6.2,1.4c-2.5,1-4.4,1.7-5.6,2.4h-1.1l1.8-12.5c1.5-0.6,3.7-1.1,6.8-1.7c1.5-0.4,2.9-0.6,4.3-0.7 c1.6-0.3,3.1-0.3,4.8-0.3c6.1,0,10.6,1.1,13.5,3.2c2.8,2.1,4.2,5.5,4.2,10.1c0,0.6,0,1.4-0.1,2.4s-0.2,1.8-0.3,2.7l-6.1,36H390 l1-5.6c-0.8,0.7-1.8,1.6-2.9,2.5L386.4,196.3L386.4,196.3z M386.4,174.4c-1.3,0.3-2.5,0.7-3.5,1.1c-1.3,0.7-2.5,1.7-3.2,2.9 c-0.7,1.3-1.2,3-1.2,5.1c0,1.8,0.5,3.1,1.6,3.8c0.9,0.7,2.4,1.1,4.2,1.1c0.6,0,1.4-0.1,2.1-0.4c0.6-0.1,1.3-0.4,1.9-0.7 c1.4-0.8,2.7-1.8,3.9-3l2-11.3c-2.3,0.3-4.4,0.6-6.3,1C387.3,174.1,386.8,174.3,386.4,174.4L386.4,174.4z" class="st5"/><path d="M439.3,160.1c-2.7-2.1-8.8-1.7-10.1,2.7l-6,35.5h-12.5l9-52.9h12.5l-0.3,4.3c2.4-2.4,5-4.4,11.8-4.2 C444.2,145.4,439.7,153.2,439.3,160.1L439.3,160.1z" class="st5"/><path d="M464,156.5c-0.6,0.3-1.2,0.7-1.8,1.1c-1.7,1.1-3,2.8-4.1,4.8c-0.9,2-1.8,4.2-2.3,7.2 c-0.6,2.8-0.9,5.6-0.9,8.3c0,3.2,0.6,5.5,1.6,6.9c1.2,1.5,2.8,2.3,5,2.3c0.8,0,1.7-0.2,2.5-0.6c0.4-0.1,0.7-0.3,1.1-0.6 c1.2-0.7,2.4-1.4,3.5-2.4l4.5-26c-0.7-0.4-1.5-0.9-2.7-1.1c-1-0.4-2-0.6-2.8-0.6C466.3,155.8,465.1,156.1,464,156.5L464,156.5z M464,195.4c-0.9,0.8-2,1.7-3.1,2.4c-1,0.6-2.1,1.1-3,1.4c-1.1,0.3-2.3,0.4-3.6,0.4c-3.9,0-6.9-1.7-9.1-4.9 c-2.2-3.4-3.3-8.2-3.3-14.2c0-5.1,0.5-9.9,1.8-14.2c1.1-4.3,2.8-8.3,4.9-11.7s4.5-5.9,7.2-7.9c2.7-1.8,5.4-2.8,8.3-3h0.4 c2.2,0,4.1,0.3,5.6,0.8c1.5,0.6,3.2,1.5,4.9,2.8l2.8-18.4h12.5l-11.5,69.2h-12.5l0.9-5.5C465.9,193.7,464.9,194.5,464,195.4 L464,195.4z" class="st5"/></g></g></g><g id="grey_with_frame" class="st31"><g class="st33"><path d="M527.6,0H38C17.1,0,0,17.1,0,38v253.4c0,20.9,17.1,38,38,38h489.6c20.9,0,38-17.1,38-38V38 C565.6,17.1,548.5,0,527.6,0z M370.5,295.9c-33.8,0-64.7-12.8-88-33.9c0,0,0,0,0,0h-0.2l0.3,0.1c-23.2,20.9-54,33.7-87.7,33.7 c-72.5,0-131.2-58.7-131.2-131.2S122.4,33.4,194.9,33.4c33.2,0.1,63.4,12.3,86.5,32.5l0,0l1.4,1.2c23.2-20.9,54-33.6,87.7-33.6 c72.5,0,131.2,58.7,131.2,131.2C501.7,237.1,443,295.9,370.5,295.9z" class="st34"/><path d="M206.9,155.7l11.5,0.3l2.1-11.8c-7.6-1.6-18.2-1.8-24,0.9c-6.1,2.8-10,8.2-10,17.9c0,9.6,9.4,13.6,15.1,16 c5.8,2.4,2.1,6.1-0.9,8.2c-3.1,2.1-16.7-1.5-16.7-1.5l-2.4,12.1c0,0,5.7,2.1,16.3,1.8c18.5-0.6,19.4-11.3,20-16.4 c0.6-5.1,0.3-12.7-6.1-15.4c-6.4-2.8-10.6-5.8-10.6-8.2C201.2,157.2,206.9,155.7,206.9,155.7z" class="st34"/><polygon points="125.7 128 107.8 168.4 102.5 128 87.1 128 75.2 198.2 87.8 198.2 95.9 150.3 98.2 197.9 107.4 197.9 123.9 152.2 116.2 198.2 129.5 198.2 141.5 128" class="st34"/><path d="M240.8,187.5c-1,0.2-1.9,0.4-2.5,0.4c-1.6,0-2.9-0.4-3.6-1.1c-0.8-0.7-1.1-1.9-1.1-3.9 c0-0.9,0.1-2.1,0.3-3.4c0.2-1.4,0.4-2.7,0.6-3.9l3.2-19.1h11.7l2-11.1h-11.7l1.8-8.8h-12.6l-8,44.9c-0.1,1.3-0.3,2.4-0.4,3.4 c-0.1,0.8-0.2,1.8-0.2,2.8c0,3.8,0.9,6.7,2.8,8.7c1.8,1.8,5,2.8,9.3,2.8c2.2,0,4.1-0.2,5.6-0.4c1.5-0.3,3-0.5,4.4-1.1l2-11.3h-1 C242.8,186.8,241.8,187.1,240.8,187.5z" class="st34"/><path d="M326.9,145.5c-6.8-0.2-9.4,1.8-11.8,4.2l0.3-4.3h-12.5l-9,52.9h12.5l6-35.5c1.3-4.4,7.4-4.8,10.1-2.7 C322.8,153.2,327.3,145.4,326.9,145.5z" class="st34"/><path d="M356.1,140.1c2.9,0,5.5,0.9,7.7,2.3c1.5,1.1,2.9,2.5,4.4,4.4l2.9-16.7c0,0-2.9-1.4-4.4-1.9 c-3.1-1-6.5-1.6-10-1.6c-4.4,0-8.7,1.1-12.6,3.4c-4.1,2.3-7.5,5.4-10.4,9.3c-2.8,4.1-5.2,8.9-6.9,14.5c-1.7,5.6-2.5,11.8-2.5,18.7 c0,8.7,1.9,15.5,5.7,20.1c3.8,4.6,9.2,7,16.2,7c2.6,0,4.6-0.3,6-0.6c1.4-0.4,2.9-0.8,4.7-1.5c0.7-0.3,2.2-1,2.2-1l2.9-15.9 c-1.3,1-2.6,1.9-3.9,2.8c-2.8,1.6-5.8,2.5-9,2.5c-3.5,0-6.2-1.3-8.1-3.7c-1.9-2.5-2.8-6.6-2.8-12.2c0-8.7,1.7-15.9,5.1-21.5 S350.9,140.1,356.1,140.1z" class="st34"/><path d="M182.9,159.4c0.1-1,0.1-1.8,0.1-2.4c0-4.6-1.3-8-4.2-10.1c-2.9-2.1-7.4-3.2-13.5-3.2c-1.6,0-3.2,0-4.8,0.3 c-1.5,0.1-3,0.3-4.4,0.7c-3,0.6-5.2,1.1-6.7,1.7l-1.9,12.5h1.1c1.2-0.7,3.1-1.4,5.6-2.4c2.3-0.8,4.3-1.3,6.2-1.4h0.6 c3,0,5.2,0.5,6.8,1.3c1.6,1,2.3,2.6,2.3,4.8c0,0.6,0,1-0.1,1.4c-0.1,0.4-0.1,0.7-0.1,1c-3.4,0.1-6.5,0.5-9.5,1.1l-2.6,0.4 c-3.6,0.7-6.8,1.8-9.5,3.5c-2.9,1.7-5,4.1-6.5,6.9c-1.5,3-2.2,6.5-2.2,10.7c0,3.9,1,7.2,3.1,9.7c2,2.4,4.7,3.7,7.9,3.7 c2.1,0,3.7-0.3,4.8-0.6c1.1-0.4,2.2-1,3.6-1.7c0.4-0.3,0.9-0.6,1.4-1c0.5-0.4,1-0.8,1.7-1.3c1-0.9,2.1-1.8,2.8-2.5l-0.9,5.6h12.5 l6.1-36C182.7,161.2,182.8,160.4,182.9,159.4z M166.4,184.3c-1.2,1.2-2.6,2.2-3.9,3c-0.8,0.3-1.4,0.6-2,0.7 c-0.8,0.3-1.4,0.4-2,0.4c-2,0-3.4-0.4-4.4-1.1c-0.9-0.7-1.4-2-1.4-3.8c0-2.1,0.3-3.8,1.1-5.1c0.7-1.2,1.8-2.2,3.2-2.9 c0.9-0.4,2-0.8,3.4-1.1c0.5-0.1,1-0.3,1.7-0.4c1.8-0.4,4-0.7,6.2-1L166.4,184.3z" class="st34"/><path d="M272.2,143.5c-1.1,0-2.3,0-3.4,0.1c-2.4,0.4-4.8,1.3-7.1,2.4c-3.2,1.8-5.8,4.1-8,7c-2.2,3.1-4,6.6-5.1,10.7 c-1.2,3.9-1.8,8.4-1.8,13.2c0,7.1,1.8,12.6,5.4,16.5c3.7,4.1,8.8,6.1,15.5,6.1h1.1c2.6-0.1,5.1-0.4,7.4-1.1 c2.7-0.7,5.3-1.8,7.7-3.2l2.4-13.6h-1.4c-1.7,1.5-3.9,2.9-6.3,4.2c-2.5,1.2-5.1,1.8-7.8,1.8h-1.9c-3-0.3-5.3-1.4-6.9-3.1 c-1.9-2.1-2.9-4.9-2.9-8.6v-0.6v-0.6h9.7h19.3c0.6-1.9,1-4,1.3-6c0.3-2.1,0.4-4.2,0.4-6.3c0-6.2-1.5-11-4.4-14.1 C282.4,145,278,143.5,272.2,143.5z M277.4,163.3c0,0.5-0.1,0.9-0.1,1.5h-8.4h-8.5c1-3.4,2.3-5.9,4.1-7.9c1.2-1.4,2.7-2.2,4.4-2.5 c0.6-0.1,1.3-0.3,1.9-0.3c2.2,0,3.8,0.7,4.9,2c1.2,1.4,1.8,3.3,1.8,5.8C277.5,162.3,277.4,162.9,277.4,163.3z" class="st34"/><path d="M404.8,146.9c-2.9-2.1-7.4-3.2-13.5-3.2c-1.7,0-3.2,0-4.8,0.3c-1.4,0.1-2.8,0.3-4.3,0.7 c-3.1,0.6-5.3,1.1-6.8,1.7l-1.8,12.5h1.1c1.2-0.7,3.1-1.4,5.6-2.4c2.2-0.8,4.2-1.3,6.2-1.4h0.6c3,0,5.3,0.5,6.8,1.3 c1.5,1,2.3,2.6,2.3,4.8c0,0.6-0.1,1-0.1,1.4c-0.1,0.4-0.1,0.7-0.2,1c-3.4,0.1-6.6,0.5-9.5,1.1c-0.9,0.1-1.8,0.2-2.6,0.4 c-3.7,0.7-6.9,1.8-9.6,3.5c-2.8,1.7-5,4.1-6.4,6.9c-1.5,3-2.2,6.5-2.2,10.7c0,3.9,0.9,7.2,3,9.7c2.1,2.4,4.7,3.7,8,3.7 c2,0,3.6-0.3,4.7-0.6c1.1-0.4,2.4-1,3.6-1.7c0.5-0.3,1-0.6,1.5-1l1.7-1.3c1.1-0.9,2.1-1.8,2.9-2.5l-1,5.6h12.5l6.1-36 c0.1-0.9,0.2-1.7,0.3-2.7c0.1-1,0.1-1.8,0.1-2.4C409,152.4,407.6,149,404.8,146.9z M392.2,184.3c-1.2,1.2-2.5,2.2-3.9,3 c-0.6,0.3-1.3,0.6-1.9,0.7c-0.7,0.3-1.5,0.4-2.1,0.4c-1.8,0-3.3-0.4-4.2-1.1c-1.1-0.7-1.6-2-1.6-3.8c0-2.1,0.5-3.8,1.2-5.1 c0.7-1.2,1.9-2.2,3.2-2.9c1-0.4,2.2-0.8,3.5-1.1c0.4-0.1,0.9-0.3,1.5-0.4c1.9-0.4,4-0.7,6.3-1L392.2,184.3z" class="st34"/><path d="M443.7,145.5c-6.8-0.2-9.4,1.8-11.8,4.2l0.3-4.3h-12.5l-9,52.9h12.5l6-35.5c1.3-4.4,7.4-4.8,10.1-2.7 C439.7,153.2,444.2,145.4,443.7,145.5z" class="st34"/><path d="M448.6,154.6c-2.1,3.4-3.8,7.4-4.9,11.7c-1.3,4.3-1.8,9.1-1.8,14.2c0,6,1.1,10.8,3.3,14.2 c2.2,3.2,5.2,4.9,9.1,4.9c1.3,0,2.5-0.1,3.6-0.4c0.9-0.3,2-0.8,3-1.4c1.1-0.7,2.2-1.6,3.1-2.4c0.9-0.9,1.9-1.7,3.2-2.8l-0.9,5.5 h12.5l11.5-69.2h-12.5l-2.8,18.4c-1.7-1.3-3.4-2.2-4.9-2.8c-1.5-0.5-3.4-0.8-5.6-0.8h-0.4c-2.9,0.2-5.6,1.2-8.3,3 C453.1,148.7,450.7,151.2,448.6,154.6z M458.1,162.4c1.1-2,2.4-3.7,4.1-4.8c0.6-0.4,1.2-0.8,1.8-1.1c1.1-0.4,2.3-0.7,3.6-0.7 c0.8,0,1.8,0.2,2.8,0.6c1.2,0.2,2,0.7,2.7,1.1l-4.5,26c-1.1,1-2.3,1.7-3.5,2.4c-0.4,0.3-0.7,0.5-1.1,0.6c-0.8,0.4-1.7,0.6-2.5,0.6 c-2.2,0-3.8-0.8-5-2.3c-1-1.4-1.6-3.7-1.6-6.9c0-2.7,0.3-5.5,0.9-8.3C456.3,166.6,457.2,164.4,458.1,162.4z" class="st34"/></g></g><g id="grey_no_frame_copy" class="st31"><path d="M239.3,164.7c0-72.5,58.7-131.2,131.2-131.2s131.2,58.7,131.2,131.2c0,72.4-58.7,131.2-131.2,131.2 C298.1,295.9,239.3,237.1,239.3,164.7L239.3,164.7z" class="st32"/><path d="M282.7,67c0.1,0-6.9,6-11.5,11.9h23.3c0,0,8,8.6,10.9,15.1h-45.6c0,0-4.4,6.9-7.4,12.8h60.3 c0,0,5.5,10.3,6.7,15.8H246c0,0-2.5,7.2-3.6,12.4l80.3-0.1c2.2,10.1,7.6,39.4-3.5,71.8l-73,0.1c1.2,3.9,3.2,9.1,5,13h62.7 c-2.5,5.3-6.2,11.9-8.3,15.2h-45.9c2.4,3.7,6.3,9.5,8.8,12.1h28.3c-5.3,7.3-14.3,14.9-14.3,14.9h-0.2l0.3,0.1 c-23.2,20.9-54,33.7-87.7,33.7c-72.5,0-131.2-58.7-131.2-131.2S122.4,33.4,194.9,33.4C228.7,33.5,259.4,46.2,282.7,67L282.7,67z" class="st32"/><g class="st33"><path d="M220.5,144.2l-2.1,11.8l-11.5-0.3c0,0-5.7,1.5-5.7,3.9s4.2,5.4,10.6,8.2c6.4,2.7,6.7,10.3,6.1,15.4 c-0.6,5.1-1.5,15.8-20,16.4c-10.6,0.3-16.3-1.8-16.3-1.8l2.4-12.1c0,0,13.6,3.6,16.7,1.5c3-2.1,6.7-5.8,0.9-8.2 c-5.7-2.4-15.1-6.4-15.1-16c0-9.7,3.9-15.1,10-17.9C202.3,142.4,212.9,142.6,220.5,144.2L220.5,144.2z" class="st5"/><polygon points="129.5 198.2 116.2 198.2 123.9 152.2 107.4 197.9 98.2 197.9 95.9 150.3 87.8 198.2 75.2 198.2 87.1 128 102.5 128 107.8 168.4 125.7 128 141.5 128" class="st5"/><path d="M232.4,199.2c-4.3,0-7.5-1-9.3-2.8c-1.9-2-2.8-4.9-2.8-8.7c0-1,0.1-2,0.2-2.8c0.1-1,0.3-2.1,0.4-3.4l8-44.9 h12.6l-1.8,8.8h11.7l-2,11.1h-11.7l-3.2,19.1c-0.2,1.2-0.4,2.5-0.6,3.9c-0.2,1.3-0.3,2.5-0.3,3.4c0,2,0.3,3.2,1.1,3.9 c0.7,0.7,2,1.1,3.6,1.1c0.6,0,1.5-0.2,2.5-0.4c1-0.4,2-0.7,2.6-1.1h1l-2,11.3c-1.4,0.6-2.9,0.8-4.4,1.1 C236.5,199,234.6,199.2,232.4,199.2L232.4,199.2z" class="st5"/><path d="M322.5,160.1c-2.7-2.1-8.8-1.7-10.1,2.7l-6,35.5h-12.5l9-52.9h12.5l-0.3,4.3c2.4-2.4,5-4.4,11.8-4.2 C327.3,145.4,322.8,153.2,322.5,160.1L322.5,160.1z" class="st5"/><path d="M346.2,199.6c-7,0-12.4-2.4-16.2-7c-3.8-4.6-5.7-11.4-5.7-20.1c0-6.9,0.8-13.1,2.5-18.7 c1.7-5.6,4.1-10.4,6.9-14.5c2.9-3.9,6.3-7,10.4-9.3c3.9-2.3,8.2-3.4,12.6-3.4c3.5,0,6.9,0.6,10,1.6c1.5,0.5,4.4,1.9,4.4,1.9 l-2.9,16.7c-1.5-1.9-2.9-3.3-4.4-4.4c-2.2-1.4-4.8-2.3-7.7-2.3c-5.2,0-9.4,2.8-12.8,8.4c-3.4,5.6-5.1,12.8-5.1,21.5 c0,5.6,0.9,9.7,2.8,12.2c1.9,2.4,4.6,3.7,8.1,3.7c3.2,0,6.2-0.9,9-2.5c1.3-0.9,2.6-1.8,3.9-2.8l-2.9,15.9c0,0-1.5,0.7-2.2,1 c-1.8,0.7-3.3,1.1-4.7,1.5C350.8,199.3,348.8,199.6,346.2,199.6L346.2,199.6z" class="st5"/><path d="M160.4,196.3c-0.5,0.4-1,0.7-1.4,1c-1.4,0.7-2.5,1.3-3.6,1.7c-1.1,0.3-2.7,0.6-4.8,0.6 c-3.2,0-5.9-1.3-7.9-3.7c-2.1-2.5-3.1-5.8-3.1-9.7c0-4.2,0.7-7.7,2.2-10.7c1.5-2.8,3.6-5.2,6.5-6.9c2.7-1.7,5.9-2.8,9.5-3.5 l2.6-0.4c3-0.6,6.1-1,9.5-1.1c0-0.3,0-0.6,0.1-1s0.1-0.8,0.1-1.4c0-2.2-0.7-3.8-2.3-4.8c-1.6-0.8-3.8-1.3-6.8-1.3h-0.6 c-1.9,0.1-3.9,0.6-6.2,1.4c-2.5,1-4.4,1.7-5.6,2.4h-1.1l1.9-12.5c1.5-0.6,3.7-1.1,6.7-1.7c1.4-0.4,2.9-0.6,4.4-0.7 c1.6-0.3,3.2-0.3,4.8-0.3c6.1,0,10.6,1.1,13.5,3.2c2.9,2.1,4.2,5.5,4.2,10.1c0,0.6,0,1.4-0.1,2.4s-0.2,1.8-0.3,2.7l-6.1,36H164 l0.9-5.6c-0.7,0.7-1.8,1.6-2.8,2.5C161.4,195.5,160.9,195.9,160.4,196.3L160.4,196.3z M160.4,174.4c-1.4,0.3-2.5,0.7-3.4,1.1 c-1.4,0.7-2.5,1.7-3.2,2.9c-0.8,1.3-1.1,3-1.1,5.1c0,1.8,0.5,3.1,1.4,3.8c1,0.7,2.4,1.1,4.4,1.1c0.6,0,1.2-0.1,2-0.4 c0.6-0.1,1.2-0.4,2-0.7c1.3-0.8,2.7-1.8,3.9-3l1.9-11.3c-2.2,0.3-4.4,0.6-6.2,1C161.4,174.1,160.9,174.3,160.4,174.4L160.4,174.4z" class="st5"/><path d="M268.9,154.4c-1.7,0.3-3.2,1.1-4.4,2.5c-1.8,2-3.1,4.5-4.1,7.9h8.5h8.4c0-0.6,0.1-1,0.1-1.5 c0-0.4,0.1-1,0.1-1.4c0-2.5-0.6-4.4-1.8-5.8c-1.1-1.3-2.7-2-4.9-2C270.2,154.1,269.5,154.3,268.9,154.4L268.9,154.4z M268.9,187.6 h1.9c2.7,0,5.3-0.6,7.8-1.8c2.4-1.3,4.6-2.7,6.3-4.2h1.4l-2.4,13.6c-2.4,1.4-5,2.5-7.7,3.2c-2.3,0.7-4.8,1-7.4,1.1h-1.1 c-6.7,0-11.8-2-15.5-6.1c-3.6-3.9-5.4-9.4-5.4-16.5c0-4.8,0.6-9.3,1.8-13.2c1.1-4.1,2.9-7.6,5.1-10.7c2.2-2.9,4.8-5.2,8-7 c2.3-1.1,4.7-2,7.1-2.4c1.1-0.1,2.3-0.1,3.4-0.1c5.8,0,10.2,1.5,13.2,4.8c2.9,3.1,4.4,7.9,4.4,14.1c0,2.1-0.1,4.2-0.4,6.3 c-0.3,2-0.7,4.1-1.3,6h-19.3h-9.7v0.6v0.6c0,3.7,1,6.5,2.9,8.6C263.6,186.2,265.9,187.3,268.9,187.6L268.9,187.6z" class="st5"/><path d="M386.4,196.3c-0.5,0.4-1,0.7-1.5,1c-1.2,0.7-2.5,1.3-3.6,1.7c-1.1,0.3-2.7,0.6-4.7,0.6c-3.3,0-5.9-1.3-8-3.7 c-2.1-2.5-3-5.8-3-9.7c0-4.2,0.7-7.7,2.2-10.7c1.4-2.8,3.6-5.2,6.4-6.9c2.7-1.7,5.9-2.8,9.6-3.5c0.8-0.2,1.7-0.3,2.6-0.4 c2.9-0.6,6.1-1,9.5-1.1c0.1-0.3,0.1-0.6,0.2-1c0-0.4,0.1-0.8,0.1-1.4c0-2.2-0.8-3.8-2.3-4.8c-1.5-0.8-3.8-1.3-6.8-1.3h-0.6 c-2,0.1-4,0.6-6.2,1.4c-2.5,1-4.4,1.7-5.6,2.4h-1.1l1.8-12.5c1.5-0.6,3.7-1.1,6.8-1.7c1.5-0.4,2.9-0.6,4.3-0.7 c1.6-0.3,3.1-0.3,4.8-0.3c6.1,0,10.6,1.1,13.5,3.2c2.8,2.1,4.2,5.5,4.2,10.1c0,0.6,0,1.4-0.1,2.4s-0.2,1.8-0.3,2.7l-6.1,36H390 l1-5.6c-0.8,0.7-1.8,1.6-2.9,2.5L386.4,196.3L386.4,196.3z M386.4,174.4c-1.3,0.3-2.5,0.7-3.5,1.1c-1.3,0.7-2.5,1.7-3.2,2.9 c-0.7,1.3-1.2,3-1.2,5.1c0,1.8,0.5,3.1,1.6,3.8c0.9,0.7,2.4,1.1,4.2,1.1c0.6,0,1.4-0.1,2.1-0.4c0.6-0.1,1.3-0.4,1.9-0.7 c1.4-0.8,2.7-1.8,3.9-3l2-11.3c-2.3,0.3-4.4,0.6-6.3,1C387.3,174.1,386.8,174.3,386.4,174.4L386.4,174.4z" class="st5"/><path d="M439.3,160.1c-2.7-2.1-8.8-1.7-10.1,2.7l-6,35.5h-12.5l9-52.9h12.5l-0.3,4.3c2.4-2.4,5-4.4,11.8-4.2 C444.2,145.4,439.7,153.2,439.3,160.1L439.3,160.1z" class="st5"/><path d="M464,156.5c-0.6,0.3-1.2,0.7-1.8,1.1c-1.7,1.1-3,2.8-4.1,4.8c-0.9,2-1.8,4.2-2.3,7.2 c-0.6,2.8-0.9,5.6-0.9,8.3c0,3.2,0.6,5.5,1.6,6.9c1.2,1.5,2.8,2.3,5,2.3c0.8,0,1.7-0.2,2.5-0.6c0.4-0.1,0.7-0.3,1.1-0.6 c1.2-0.7,2.4-1.4,3.5-2.4l4.5-26c-0.7-0.4-1.5-0.9-2.7-1.1c-1-0.4-2-0.6-2.8-0.6C466.3,155.8,465.1,156.1,464,156.5L464,156.5z M464,195.4c-0.9,0.8-2,1.7-3.1,2.4c-1,0.6-2.1,1.1-3,1.4c-1.1,0.3-2.3,0.4-3.6,0.4c-3.9,0-6.9-1.7-9.1-4.9 c-2.2-3.4-3.3-8.2-3.3-14.2c0-5.1,0.5-9.9,1.8-14.2c1.1-4.3,2.8-8.3,4.9-11.7s4.5-5.9,7.2-7.9c2.7-1.8,5.4-2.8,8.3-3h0.4 c2.2,0,4.1,0.3,5.6,0.8c1.5,0.6,3.2,1.5,4.9,2.8l2.8-18.4h12.5l-11.5,69.2h-12.5l0.9-5.5C465.9,193.7,464.9,194.5,464,195.4 L464,195.4z" class="st5"/></g></g></svg>