<svg xmlns="http://www.w3.org/2000/svg" xmlns:xlink="http://www.w3.org/1999/xlink" width="500" height="500" preserveAspectRatio="xMidYMid" viewBox="0 0 500 500"><defs><style>.cls-1{fill:#fff;filter:url(#color-overlay-1);fill-rule:evenodd}</style><filter id="color-overlay-1" filterUnits="userSpaceOnUse"><feFlood flood-color="#8998b0"/><feComposite in2="SourceGraphic" operator="in"/><feBlend in2="SourceGraphic" result="solidFill"/></filter></defs><path d="M359.096,386.999 L156.892,386.999 C139.299,386.999 124.987,372.671 124.987,355.060 L124.987,255.054 C124.987,237.443 139.299,223.116 156.892,223.116 L359.096,223.116 C376.688,223.116 391.000,237.443 391.000,255.054 L391.000,355.060 C391.000,372.671 376.688,386.999 359.096,386.999 ZM388.002,255.054 C388.002,239.099 375.034,226.117 359.096,226.117 L156.892,226.117 C140.953,226.117 127.986,239.099 127.986,255.054 L127.986,355.060 C127.986,371.016 140.953,383.997 156.892,383.997 L359.096,383.997 C375.034,383.997 388.002,371.016 388.002,355.060 L388.002,255.054 ZM372.511,347.014 C370.509,346.629 368.506,346.244 366.464,345.851 C364.326,346.193 362.336,346.512 360.346,346.831 C360.922,344.846 361.497,342.862 362.066,340.901 C361.598,339.224 361.031,337.195 360.464,335.166 C362.434,335.547 364.403,335.927 367.076,336.444 C368.242,336.152 370.414,335.607 372.586,335.063 C372.118,337.032 371.651,339.001 371.042,341.569 C371.371,342.787 371.941,344.901 372.511,347.014 ZM353.754,313.748 L319.158,313.748 C310.648,313.748 303.724,306.817 303.724,298.298 L303.724,281.159 C303.724,272.640 310.648,265.709 319.158,265.709 L353.754,265.709 C362.264,265.709 369.188,272.640 369.188,281.159 L369.188,298.298 C369.188,306.817 362.264,313.748 353.754,313.748 ZM366.189,281.159 C366.189,274.295 360.610,268.711 353.754,268.711 L319.158,268.711 C312.301,268.711 306.723,274.295 306.723,281.159 L306.723,298.298 C306.723,305.162 312.301,310.746 319.158,310.746 L353.754,310.746 C360.610,310.746 366.189,305.162 366.189,298.298 L366.189,281.159 ZM287.717,347.014 C285.714,346.629 283.712,346.244 281.670,345.851 C279.532,346.193 277.542,346.512 275.552,346.831 C276.127,344.846 276.703,342.862 277.272,340.901 C276.803,339.224 276.237,337.195 275.670,335.166 C277.639,335.547 279.608,335.927 282.282,336.444 C283.448,336.152 285.620,335.607 287.791,335.063 C287.324,337.032 286.857,339.001 286.248,341.569 C286.577,342.787 287.147,344.901 287.717,347.014 ZM271.427,347.112 C269.441,346.668 267.455,346.224 264.816,345.634 C263.578,345.937 261.406,346.468 259.233,346.999 C259.749,345.011 260.265,343.024 260.830,340.852 C260.400,339.270 259.820,337.132 259.239,334.995 C261.255,335.446 263.270,335.897 265.536,336.404 C267.223,336.136 269.498,335.775 271.773,335.414 C271.161,337.269 270.549,339.123 269.876,341.161 C270.366,343.038 270.897,345.075 271.427,347.112 ZM256.582,347.080 C254.581,346.635 252.580,346.190 250.481,345.723 C248.509,346.198 246.619,346.653 244.729,347.109 C245.144,345.088 245.558,343.067 246.032,340.756 C245.718,339.169 245.286,336.985 244.853,334.801 C246.726,335.364 248.599,335.926 250.347,336.450 C252.427,336.115 254.719,335.745 257.010,335.375 C256.273,337.347 255.536,339.319 254.885,341.061 C255.411,342.927 255.996,345.004 256.582,347.080 ZM240.081,347.252 C238.074,346.612 236.067,345.972 234.306,345.410 C232.312,345.982 230.292,346.562 228.271,347.142 C228.732,345.021 229.192,342.901 229.678,340.663 C229.258,339.085 228.727,337.091 228.196,335.097 C230.196,335.491 232.195,335.885 235.077,336.454 C236.056,336.191 238.213,335.613 240.370,335.035 C239.929,337.050 239.488,339.065 238.960,341.475 C239.246,342.951 239.664,345.102 240.081,347.252 ZM202.922,347.014 C200.920,346.629 198.918,346.244 196.875,345.851 C194.737,346.193 192.747,346.512 190.757,346.831 C191.333,344.846 191.909,342.862 192.478,340.901 C192.009,339.224 191.442,337.195 190.876,335.166 C192.845,335.547 194.814,335.927 197.487,336.444 C198.653,336.152 200.825,335.607 202.997,335.063 C202.530,337.032 202.062,339.001 201.453,341.569 C201.782,342.787 202.352,344.901 202.922,347.014 ZM186.633,347.112 C184.647,346.668 182.661,346.224 180.021,345.634 C178.784,345.937 176.611,346.468 174.439,346.999 C174.955,345.011 175.471,343.024 176.035,340.852 C175.606,339.270 175.025,337.132 174.445,334.995 C176.461,335.446 178.476,335.897 180.742,336.404 C182.429,336.136 184.704,335.775 186.978,335.414 C186.366,337.269 185.754,339.123 185.082,341.161 C185.571,343.038 186.102,345.075 186.633,347.112 ZM171.788,347.080 C169.786,346.635 167.785,346.190 165.687,345.723 C163.715,346.198 161.825,346.653 159.935,347.109 C160.349,345.088 160.764,343.067 161.238,340.756 C160.924,339.169 160.491,336.985 160.059,334.801 C161.932,335.364 163.805,335.926 165.553,336.450 C167.633,336.115 169.925,335.745 172.216,335.375 C171.479,337.347 170.742,339.319 170.090,341.061 C170.617,342.927 171.202,345.004 171.788,347.080 ZM319.872,336.454 C320.851,336.191 323.008,335.613 325.165,335.035 C324.723,337.050 324.282,339.065 323.754,341.475 C324.041,342.951 324.458,345.102 324.875,347.252 C322.868,346.612 320.861,345.972 319.100,345.410 C317.106,345.982 315.086,346.562 313.066,347.142 C313.526,345.021 313.987,342.901 314.472,340.663 C314.052,339.085 313.522,337.091 312.991,335.097 C314.990,335.491 316.989,335.885 319.872,336.454 ZM329.647,334.801 C331.520,335.364 333.393,335.926 335.141,336.450 C337.222,336.115 339.513,335.745 341.805,335.375 C341.067,337.347 340.330,339.319 339.679,341.061 C340.205,342.927 340.791,345.004 341.376,347.080 C339.375,346.635 337.374,346.190 335.276,345.723 C333.303,346.198 331.414,346.653 329.524,347.109 C329.938,345.088 330.353,343.067 330.827,340.756 C330.512,339.169 330.080,336.985 329.647,334.801 ZM344.034,334.995 C346.049,335.446 348.065,335.897 350.330,336.404 C352.018,336.136 354.292,335.775 356.567,335.414 C355.955,337.269 355.343,339.123 354.671,341.161 C355.160,343.038 355.691,345.075 356.222,347.112 C354.236,346.668 352.249,346.224 349.610,345.634 C348.373,345.937 346.200,346.468 344.028,346.999 C344.544,345.011 345.060,343.024 345.624,340.852 C345.195,339.270 344.614,337.132 344.034,334.995 ZM155.287,347.252 C153.279,346.612 151.272,345.972 149.512,345.410 C147.517,345.982 145.497,346.562 143.477,347.142 C143.937,345.021 144.398,342.901 144.884,340.663 C144.464,339.085 143.933,337.091 143.402,335.097 C145.401,335.491 147.400,335.885 150.283,336.454 C151.262,336.191 153.419,335.613 155.576,335.035 C155.135,337.050 154.693,339.065 154.166,341.475 C154.452,342.951 154.869,345.102 155.287,347.252 ZM359.096,214.610 L179.170,214.610 L336.380,134.946 L370.810,203.035 C373.103,207.570 373.840,212.483 373.225,217.168 C368.824,215.518 364.065,214.610 359.096,214.610 ZM77.414,207.769 C78.475,200.656 82.186,195.389 88.493,192.128 C123.189,174.185 157.937,156.341 192.644,138.419 C224.542,121.946 256.442,105.476 288.279,88.886 C301.491,82.000 313.158,85.637 319.815,99.036 C321.293,102.011 322.843,104.950 324.791,108.743 C245.010,149.933 165.638,190.911 85.752,232.155 C82.261,223.897 75.999,217.255 77.414,207.769 ZM116.491,255.054 L116.491,291.232 L98.434,255.523 L117.564,245.829 C116.870,248.794 116.491,251.880 116.491,255.054 Z" class="cls-1"/></svg>