<svg xmlns="http://www.w3.org/2000/svg" xmlns:xlink="http://www.w3.org/1999/xlink" preserveAspectRatio="xMidYMid" width="500" height="500" viewBox="0 0 500 500">
  <defs>
    <style>
      .cls-1 {
        fill: #fff;
        filter: url(#color-overlay-1);
        fill-rule: evenodd;
      }
    </style>

    <filter id="color-overlay-1" filterUnits="userSpaceOnUse">
      <feFlood flood-color="#8998b0"/>
      <feComposite operator="in" in2="SourceGraphic"/>
      <feBlend in2="SourceGraphic" result="solidFill"/>
    </filter>
  </defs>
  <path d="M474.000,392.001 L27.000,392.001 L27.000,381.861 L474.000,381.861 L474.000,392.001 ZM53.546,107.998 L53.546,381.775 L212.688,381.775 L212.688,313.073 L247.579,313.073 L247.579,381.745 L253.421,381.745 L253.421,313.073 L288.313,313.073 L288.313,381.745 L447.455,381.745 L447.455,107.998 L53.546,107.998 ZM126.920,285.446 L73.864,285.446 L73.864,250.788 L126.920,250.788 L126.920,285.446 ZM126.920,227.649 L73.864,227.649 L73.864,192.991 L126.920,192.991 L126.920,227.649 ZM126.920,167.667 L73.864,167.667 L73.864,133.008 L126.920,133.008 L126.920,167.667 ZM202.214,285.446 L149.163,285.446 L149.163,250.788 L202.214,250.788 L202.214,285.446 ZM202.214,227.649 L149.163,227.649 L149.163,192.991 L202.214,192.991 L202.214,227.649 ZM202.214,167.667 L149.163,167.667 L149.163,133.008 L202.214,133.008 L202.214,167.667 ZM277.508,285.446 L224.457,285.446 L224.457,250.788 L277.508,250.788 L277.508,285.446 ZM277.508,227.649 L224.457,227.649 L224.457,192.991 L277.508,192.991 L277.508,227.649 ZM277.508,167.667 L224.457,167.667 L224.457,133.008 L277.508,133.008 L277.508,167.667 ZM352.807,285.446 L299.772,285.446 L299.772,250.788 L352.827,250.788 L352.827,285.446 L352.807,285.446 ZM352.807,227.649 L299.772,227.649 L299.772,192.991 L352.827,192.991 L352.827,227.649 L352.807,227.649 ZM352.807,167.667 L299.772,167.667 L299.772,133.008 L352.827,133.008 L352.827,167.667 L352.807,167.667 ZM428.101,285.446 L375.045,285.446 L375.045,250.788 L428.101,250.788 L428.101,285.446 ZM428.101,227.649 L375.045,227.649 L375.045,192.991 L428.101,192.991 L428.101,227.649 ZM428.101,167.667 L375.045,167.667 L375.045,133.008 L428.101,133.008 L428.101,167.667 Z" class="cls-1"/>
</svg>
