<svg xmlns="http://www.w3.org/2000/svg" xmlns:xlink="http://www.w3.org/1999/xlink" id="a9135270-f346-42b6-b781-03c2ea45ff94" width="10mm" height="10mm" data-name="Ebene 1" viewBox="0 0 28.35 28.35"><defs><style/><clipPath id="a9c0f358-73cd-475a-b04f-2e6727af32db"><rect width="28.35" height="28.35" class="60f324a4-e2f2-481a-8724-717ca1f8f072"/></clipPath></defs><title>demo-app-icon</title><g class="9e4f1b7c-4c67-4a50-ae2c-3cbd43da91f8"><rect width="28.35" height="28.35" class="06c3ff3c-228b-446e-848a-2af3fe8b48bc"/><path d="M-5.9,31.08L7.22-1.78h4.48L24.75,31.08H19.82l-3.54-9.22H2.57L-1,31.08H-5.9Zm10.1-13.5H14.65L9.43,3.94Z" class="9de8c474-a253-41e8-aa9b-c40dbed222bb"/><path d="M16.41-1.78H11.69l0.74,3H8.81L-2.1,30.08l-3.79,1,3.6,3H2.63l3.54-8H18.29l1.54,5,3.6,3h7.25ZM7.8,20.59L13,6.94l2.34,6.11,1.86,7.53H7.8Z" class="0eade208-5439-4070-897e-1d41b8757319"/><path d="M-5.9,31.08L7.22-1.78h4.48L24.75,31.08H19.82l-3.54-9.22H2.57L-1,31.08H-5.9Zm10.1-13.5H14.65L9.43,3.94Z" class="9de8c474-a253-41e8-aa9b-c40dbed222bb"/></g></svg>