<?xml version="1.0" encoding="utf-8"?>
<!-- Generator: Adobe Illustrator 21.0.2, SVG Export Plug-In . SVG Version: 6.00 Build 0)  -->
<svg version="1.1" id="onboarding-phone-base.svg" xmlns="http://www.w3.org/2000/svg" xmlns:xlink="http://www.w3.org/1999/xlink"
	 x="0px" y="0px" viewBox="0 0 304.3 618.9" style="enable-background:new 0 0 304.3 618.9;" xml:space="preserve">
<style type="text/css">
	.st0{fill:none;stroke:#FFFFFF;stroke-width:2;}
	.st1{fill:#FFFFFF;}
</style>
<path id="Abgerundetes_Rechteck_2" class="st0" d="M128,37.3h48.3c0.9,0,1.5,0.7,1.5,1.5v5.5c0,0.9-0.7,1.5-1.5,1.5H128
	c-0.9,0-1.5-0.7-1.5-1.5l0,0v-5.5C126.3,38,127.1,37.3,128,37.3L128,37.3z"/>
<circle class="st0" cx="106.5" cy="41.6" r="6.5"/>
<circle class="st0" cx="151.2" cy="21.8" r="5.3"/>
<path class="st0" d="M153.2,555.9c13.6,0,24.6,11,24.6,24.6s-11,24.6-24.6,24.6s-24.6-11-24.6-24.6l0,0
	C128.6,566.9,139.6,555.9,153.2,555.9L153.2,555.9z"/>
<path id="screen" class="st0" d="M19.2,78.1H285v469.2H19.2V78.1z"/>
<path id="Rechteck_28" class="st1" d="M300,131.7h4.3v45H300V131.7z"/>
<path id="Rechteck_28_Kopie_2" class="st1" d="M0,131.7h4.3v45H0V131.7z"/>
<path id="Rechteck_28_Kopie_3" class="st1" d="M0,187.4h4.3v47.2H0V187.4z"/>
<path id="Rechteck_28_Kopie" class="st1" d="M0,78.1h4.3v25.7H0V78.1z"/>
<path id="Abgerundetes_Rechteck_1" class="st0" d="M45.7,1h213c22.8,0,41.3,18.4,41.4,41.2v534.5c0,22.8-18.6,41.3-41.4,41.2h-213
	c-22.8,0-41.3-18.4-41.4-41.2V42.2C4.4,19.4,22.9,1,45.7,1L45.7,1z"/>
</svg>
