<?xml version="1.0" encoding="utf-8"?>
<!-- Generator: Adobe Illustrator 19.1.0, SVG Export Plug-In . SVG Version: 6.00 Build 0)  -->
<svg version="1.1" id="Ebene_1" xmlns="http://www.w3.org/2000/svg" xmlns:xlink="http://www.w3.org/1999/xlink" x="0px" y="0px"
	 viewBox="105 1.5 493 282" style="enable-background:new 105 1.5 493 282;" xml:space="preserve">
<style type="text/css">
	.st0{fill:#93A2B6;}
	.st1{fill:#92A0B5;}
	.st2{opacity:0.2;fill:#90A0B5;enable-background:new    ;}
	.st3{fill:#00BED5;}
</style>
<path class="st0" d="M153.4,24.9c-2.2,0-3.9-1.8-3.9-3.9s1.8-3.9,3.9-3.9s3.9,1.8,3.9,3.9S155.6,24.9,153.4,24.9z M153.4,19
	c-1.1,0-1.9,0.9-1.9,1.9s0.9,1.9,1.9,1.9s1.9-0.9,1.9-1.9S154.5,19,153.4,19z"/>
<path class="st0" d="M174.8,15.3c-1.9,0-3.4-1.5-3.4-3.4c0-1.9,1.5-3.4,3.4-3.4c1.9,0,3.4,1.5,3.4,3.4
	C178.2,13.8,176.7,15.3,174.8,15.3z M174.8,10.5c-0.8,0-1.4,0.6-1.4,1.4c0,0.8,0.6,1.4,1.4,1.4c0.8,0,1.4-0.6,1.4-1.4
	C176.2,11.1,175.6,10.5,174.8,10.5z"/>
<path class="st0" d="M175.7,277.6c-6.7,0-12.2-5.5-12.2-12.2s5.5-12.2,12.2-12.2s12.2,5.5,12.2,12.2S182.5,277.6,175.7,277.6z
	 M175.7,255.3c-5.6,0-10.2,4.6-10.2,10.2s4.6,10.2,10.2,10.2c5.6,0,10.2-4.6,10.2-10.2S181.3,255.3,175.7,255.3z"/>
<g>
	<path class="st1" d="M114,36.5v213h120v-213H114z M232,247.5H116v-209h116V247.5z"/>
</g>
<path class="st0" d="M223,283.5h-98c-10.5,0-19-8.5-19-19v-244c0-10.5,8.5-19,19-19h98c10.5,0,19,8.5,19,19v244
	C242,274.9,233.5,283.5,223,283.5z M125,3.5c-9.4,0-17,7.6-17,17v244c0,9.4,7.6,17,17,17h98c9.4,0,17-7.6,17-17v-244
	c0-9.4-7.6-17-17-17H125z"/>
<g>
	<path class="st2" d="M226,216.8c-0.2,0.1-0.4,0.2-0.8,0.2h-4.4c-0.4,0-0.6-0.1-0.8-0.2c-0.2-0.1-0.2-0.3-0.2-0.5
		c0-0.2,0.1-0.4,0.2-0.5c0.1-0.1,0.4-0.2,0.8-0.2h1.5v-6.1l-1.3,0.3c-0.2,0.1-0.4,0.1-0.5,0.1c-0.2,0-0.3-0.1-0.5-0.2
		c-0.1-0.1-0.2-0.3-0.2-0.5c0-0.2,0.1-0.3,0.2-0.5c0.1-0.1,0.3-0.2,0.6-0.3l3.1-0.8v8h1.5c0.4,0,0.6,0.1,0.8,0.2
		c0.1,0.1,0.2,0.3,0.2,0.5C226.3,216.5,226.2,216.7,226,216.8z M226,197c-0.2,0.1-0.4,0.2-0.8,0.2h-4.4c-0.4,0-0.6-0.1-0.8-0.2
		c-0.2-0.1-0.2-0.3-0.2-0.5c0-0.2,0.1-0.4,0.2-0.5c0.1-0.1,0.4-0.2,0.8-0.2h1.5v-6.1L221,190c-0.2,0.1-0.4,0.1-0.5,0.1
		c-0.2,0-0.3-0.1-0.5-0.2c-0.1-0.1-0.2-0.3-0.2-0.5c0-0.2,0.1-0.3,0.2-0.5c0.1-0.1,0.3-0.2,0.6-0.3l3.1-0.8v8h1.5
		c0.4,0,0.6,0.1,0.8,0.2c0.1,0.1,0.2,0.3,0.2,0.5C226.3,196.7,226.2,196.8,226,197z M226,177.1c-0.2,0.1-0.4,0.2-0.8,0.2h-4.4
		c-0.4,0-0.6-0.1-0.8-0.2c-0.2-0.1-0.2-0.3-0.2-0.5c0-0.2,0.1-0.4,0.2-0.5c0.1-0.1,0.4-0.2,0.8-0.2h1.5v-6.1l-1.3,0.3
		c-0.2,0.1-0.4,0.1-0.5,0.1c-0.2,0-0.3-0.1-0.5-0.2c-0.1-0.1-0.2-0.3-0.2-0.5c0-0.2,0.1-0.3,0.2-0.5c0.1-0.1,0.3-0.2,0.6-0.3
		l3.1-0.8v8h1.5c0.4,0,0.6,0.1,0.8,0.2c0.1,0.1,0.2,0.3,0.2,0.5C226.3,176.8,226.2,177,226,177.1z M226,157.3
		c-0.2,0.1-0.4,0.2-0.8,0.2h-4.4c-0.4,0-0.6-0.1-0.8-0.2c-0.2-0.1-0.2-0.3-0.2-0.5c0-0.2,0.1-0.4,0.2-0.5c0.1-0.1,0.4-0.2,0.8-0.2
		h1.5v-6.1l-1.3,0.3c-0.2,0.1-0.4,0.1-0.5,0.1c-0.2,0-0.3-0.1-0.5-0.2c-0.1-0.1-0.2-0.3-0.2-0.5c0-0.2,0.1-0.3,0.2-0.5
		c0.1-0.1,0.3-0.2,0.6-0.3l3.1-0.8v8h1.5c0.4,0,0.6,0.1,0.8,0.2c0.1,0.1,0.2,0.3,0.2,0.5C226.3,157,226.2,157.2,226,157.3z
		 M226,97.8c-0.2,0.1-0.4,0.2-0.8,0.2h-4.4c-0.4,0-0.6-0.1-0.8-0.2c-0.2-0.1-0.2-0.3-0.2-0.5c0-0.2,0.1-0.4,0.2-0.5
		c0.1-0.1,0.4-0.2,0.8-0.2h1.5v-6.1l-1.3,0.3c-0.2,0.1-0.4,0.1-0.5,0.1c-0.2,0-0.3-0.1-0.5-0.2c-0.1-0.1-0.2-0.3-0.2-0.5
		c0-0.2,0.1-0.3,0.2-0.5c0.1-0.1,0.3-0.2,0.6-0.3l3.1-0.8v8h1.5c0.4,0,0.6,0.1,0.8,0.2c0.1,0.1,0.2,0.3,0.2,0.5
		C226.3,97.5,226.2,97.7,226,97.8z M226,78c-0.2,0.1-0.4,0.2-0.8,0.2h-4.4c-0.4,0-0.6-0.1-0.8-0.2c-0.2-0.1-0.2-0.3-0.2-0.5
		c0-0.2,0.1-0.4,0.2-0.5c0.1-0.1,0.4-0.2,0.8-0.2h1.5v-6.1L221,71c-0.2,0.1-0.4,0.1-0.5,0.1c-0.2,0-0.3-0.1-0.5-0.2
		c-0.1-0.1-0.2-0.3-0.2-0.5c0-0.2,0.1-0.3,0.2-0.5c0.1-0.1,0.3-0.2,0.6-0.3l3.1-0.8v8h1.5c0.4,0,0.6,0.1,0.8,0.2
		c0.1,0.1,0.2,0.3,0.2,0.5C226.3,77.7,226.2,77.8,226,78z M223.1,58.5c-0.6,0-1.1-0.1-1.5-0.4c-0.4-0.3-0.8-0.7-1.2-1.4
		c-0.4-0.7-0.5-1.4-0.5-2.2v-1.6c0-0.9,0.3-1.9,0.8-2.7c0.5-0.9,1.3-1.3,2.4-1.3c0.6,0,1.1,0.1,1.5,0.4c0.4,0.3,0.8,0.7,1.2,1.4
		c0.4,0.7,0.6,1.4,0.6,2.2v1.6c0,0.9-0.3,1.9-0.8,2.7C224.9,58.1,224.1,58.5,223.1,58.5z M224.8,52.9c0-0.8-0.2-1.5-0.7-2.1
		c-0.3-0.3-0.6-0.5-1.1-0.5c-0.4,0-0.8,0.2-1.1,0.5c-0.4,0.5-0.6,1.2-0.6,2v1.6c0,0.8,0.2,1.5,0.7,2.1c0.2,0.3,0.6,0.5,1.1,0.5
		c0.4,0,0.8-0.2,1.1-0.5c0.4-0.5,0.6-1.2,0.6-2V52.9z M217.3,216.8c-0.1,0.1-0.4,0.2-0.8,0.2h-4.4c-0.4,0-0.6-0.1-0.8-0.2
		c-0.2-0.1-0.2-0.3-0.2-0.5c0-0.2,0.1-0.4,0.2-0.5c0.1-0.1,0.4-0.2,0.8-0.2h1.5v-6.1l-1.3,0.3c-0.2,0.1-0.4,0.1-0.5,0.1
		c-0.2,0-0.3-0.1-0.5-0.2c-0.1-0.1-0.2-0.3-0.2-0.5c0-0.2,0.1-0.3,0.2-0.5c0.1-0.1,0.3-0.2,0.6-0.3l3.1-0.8v8h1.5
		c0.4,0,0.6,0.1,0.8,0.2s0.2,0.3,0.2,0.5C217.5,216.5,217.4,216.7,217.3,216.8z M217.3,197c-0.1,0.1-0.4,0.2-0.8,0.2h-4.4
		c-0.4,0-0.6-0.1-0.8-0.2c-0.2-0.1-0.2-0.3-0.2-0.5c0-0.2,0.1-0.4,0.2-0.5c0.1-0.1,0.4-0.2,0.8-0.2h1.5v-6.1l-1.3,0.3
		c-0.2,0.1-0.4,0.1-0.5,0.1c-0.2,0-0.3-0.1-0.5-0.2c-0.1-0.1-0.2-0.3-0.2-0.5c0-0.2,0.1-0.3,0.2-0.5c0.1-0.1,0.3-0.2,0.6-0.3
		l3.1-0.8v8h1.5c0.4,0,0.6,0.1,0.8,0.2c0.1,0.1,0.2,0.3,0.2,0.5C217.5,196.7,217.4,196.8,217.3,197z M217.3,177.1
		c-0.1,0.1-0.4,0.2-0.8,0.2h-4.4c-0.4,0-0.6-0.1-0.8-0.2c-0.2-0.1-0.2-0.3-0.2-0.5c0-0.2,0.1-0.4,0.2-0.5c0.1-0.1,0.4-0.2,0.8-0.2
		h1.5v-6.1l-1.3,0.3c-0.2,0.1-0.4,0.1-0.5,0.1c-0.2,0-0.3-0.1-0.5-0.2c-0.1-0.1-0.2-0.3-0.2-0.5c0-0.2,0.1-0.3,0.2-0.5
		c0.1-0.1,0.3-0.2,0.6-0.3l3.1-0.8v8h1.5c0.4,0,0.6,0.1,0.8,0.2c0.1,0.1,0.2,0.3,0.2,0.5C217.5,176.8,217.4,177,217.3,177.1z
		 M217.3,137.5c-0.1,0.1-0.4,0.2-0.8,0.2h-4.4c-0.4,0-0.6-0.1-0.8-0.2c-0.2-0.1-0.2-0.3-0.2-0.5c0-0.2,0.1-0.4,0.2-0.5
		c0.1-0.1,0.4-0.2,0.8-0.2h1.5v-6.1l-1.3,0.3c-0.2,0.1-0.4,0.1-0.5,0.1c-0.2,0-0.3-0.1-0.5-0.2c-0.1-0.1-0.2-0.3-0.2-0.5
		c0-0.2,0.1-0.3,0.2-0.5c0.1-0.1,0.3-0.2,0.6-0.3l3.1-0.8v8h1.5c0.4,0,0.6,0.1,0.8,0.2c0.1,0.1,0.2,0.3,0.2,0.5
		C217.5,137.2,217.4,137.3,217.3,137.5z M217.3,117.6c-0.1,0.1-0.4,0.2-0.8,0.2h-4.4c-0.4,0-0.6-0.1-0.8-0.2
		c-0.2-0.1-0.2-0.3-0.2-0.5c0-0.2,0.1-0.4,0.2-0.5c0.1-0.1,0.4-0.2,0.8-0.2h1.5v-6.1l-1.3,0.3c-0.2,0.1-0.4,0.1-0.5,0.1
		c-0.2,0-0.3-0.1-0.5-0.2c-0.1-0.1-0.2-0.3-0.2-0.5c0-0.2,0.1-0.3,0.2-0.5c0.1-0.1,0.3-0.2,0.6-0.3l3.1-0.8v8h1.5
		c0.4,0,0.6,0.1,0.8,0.2c0.1,0.1,0.2,0.3,0.2,0.5C217.5,117.3,217.4,117.5,217.3,117.6z M217.3,78c-0.1,0.1-0.4,0.2-0.8,0.2h-4.4
		c-0.4,0-0.6-0.1-0.8-0.2c-0.2-0.1-0.2-0.3-0.2-0.5c0-0.2,0.1-0.4,0.2-0.5c0.1-0.1,0.4-0.2,0.8-0.2h1.5v-6.1l-1.3,0.3
		c-0.2,0.1-0.4,0.1-0.5,0.1c-0.2,0-0.3-0.1-0.5-0.2c-0.1-0.1-0.2-0.3-0.2-0.5c0-0.2,0.1-0.3,0.2-0.5c0.1-0.1,0.3-0.2,0.6-0.3
		l3.1-0.8v8h1.5c0.4,0,0.6,0.1,0.8,0.2c0.1,0.1,0.2,0.3,0.2,0.5C217.5,77.7,217.4,77.8,217.3,78z M214.3,58.5
		c-0.6,0-1.1-0.1-1.5-0.4c-0.4-0.3-0.8-0.7-1.2-1.4c-0.4-0.7-0.5-1.4-0.5-2.2v-1.6c0-0.9,0.3-1.9,0.8-2.7c0.5-0.9,1.3-1.3,2.4-1.3
		c0.6,0,1.1,0.1,1.5,0.4c0.4,0.3,0.8,0.7,1.2,1.4c0.4,0.7,0.6,1.4,0.6,2.2v1.6c0,0.9-0.3,1.9-0.8,2.7
		C216.1,58.1,215.3,58.5,214.3,58.5z M216,52.9c0-0.8-0.2-1.5-0.7-2.1c-0.3-0.3-0.6-0.5-1.1-0.5c-0.4,0-0.8,0.2-1.1,0.5
		c-0.4,0.5-0.6,1.2-0.6,2v1.6c0,0.8,0.2,1.5,0.7,2.1c0.2,0.3,0.6,0.5,1.1,0.5c0.4,0,0.8-0.2,1.1-0.5c0.4-0.5,0.6-1.2,0.6-2V52.9z
		 M208.5,157.3c-0.2,0.1-0.4,0.2-0.8,0.2h-4.4c-0.4,0-0.6-0.1-0.8-0.2c-0.1-0.1-0.2-0.3-0.2-0.5c0-0.2,0.1-0.4,0.2-0.5
		s0.4-0.2,0.8-0.2h1.5v-6.1l-1.3,0.3c-0.2,0.1-0.4,0.1-0.5,0.1c-0.2,0-0.3-0.1-0.5-0.2c-0.1-0.1-0.2-0.3-0.2-0.5
		c0-0.2,0-0.3,0.1-0.5c0.1-0.1,0.3-0.2,0.6-0.3l3.1-0.8v8h1.5c0.4,0,0.6,0.1,0.8,0.2s0.2,0.3,0.2,0.5
		C208.7,157,208.6,157.2,208.5,157.3z M208.5,58.1c-0.2,0.1-0.4,0.2-0.8,0.2h-4.4c-0.4,0-0.6-0.1-0.8-0.2s-0.2-0.3-0.2-0.5
		c0-0.2,0.1-0.4,0.2-0.5c0.1-0.1,0.4-0.2,0.8-0.2h1.5v-6.1l-1.3,0.3c-0.2,0.1-0.4,0.1-0.5,0.1c-0.2,0-0.3-0.1-0.5-0.2
		c-0.1-0.1-0.2-0.3-0.2-0.5c0-0.2,0-0.3,0.1-0.5c0.1-0.1,0.3-0.2,0.6-0.3l3.1-0.8v8h1.5c0.4,0,0.6,0.1,0.8,0.2
		c0.2,0.1,0.2,0.3,0.2,0.5C208.7,57.8,208.6,58,208.5,58.1z M205.5,68.7c0.6,0,1.1,0.1,1.5,0.4c0.4,0.3,0.8,0.7,1.2,1.4
		c0.4,0.7,0.6,1.4,0.6,2.2v1.6c0,0.9-0.3,1.9-0.8,2.7c-0.5,0.9-1.3,1.3-2.4,1.3c-0.6,0-1.1-0.1-1.5-0.4c-0.4-0.3-0.8-0.7-1.2-1.4
		c-0.4-0.7-0.5-1.4-0.5-2.2v-1.6c0-0.9,0.3-1.9,0.8-2.7C203.7,69.2,204.5,68.7,205.5,68.7z M203.8,74.3c0,0.8,0.2,1.5,0.7,2.1
		c0.2,0.3,0.6,0.5,1.1,0.5c0.4,0,0.8-0.2,1.1-0.5c0.4-0.5,0.6-1.2,0.6-2v-1.6c0-0.8-0.2-1.5-0.7-2.1c-0.3-0.3-0.6-0.5-1.1-0.5
		c-0.4,0-0.8,0.2-1.1,0.5c-0.4,0.5-0.6,1.2-0.6,2V74.3z M199.7,236.6c-0.2,0.1-0.4,0.2-0.8,0.2h-4.4c-0.4,0-0.6-0.1-0.8-0.2
		c-0.2-0.1-0.2-0.3-0.2-0.5c0-0.2,0.1-0.4,0.2-0.5c0.1-0.1,0.4-0.2,0.8-0.2h1.5v-6.1l-1.3,0.3c-0.2,0.1-0.4,0.1-0.5,0.1
		c-0.2,0-0.3-0.1-0.5-0.2c-0.1-0.1-0.2-0.3-0.2-0.5c0-0.2,0.1-0.3,0.2-0.5c0.1-0.1,0.3-0.2,0.6-0.3l3.1-0.8v8h1.5
		c0.4,0,0.6,0.1,0.8,0.2c0.1,0.1,0.2,0.3,0.2,0.5C199.9,236.3,199.9,236.5,199.7,236.6z M199.7,197c-0.2,0.1-0.4,0.2-0.8,0.2h-4.4
		c-0.4,0-0.6-0.1-0.8-0.2c-0.2-0.1-0.2-0.3-0.2-0.5c0-0.2,0.1-0.4,0.2-0.5c0.1-0.1,0.4-0.2,0.8-0.2h1.5v-6.1l-1.3,0.3
		c-0.2,0.1-0.4,0.1-0.5,0.1c-0.2,0-0.3-0.1-0.5-0.2c-0.1-0.1-0.2-0.3-0.2-0.5c0-0.2,0.1-0.3,0.2-0.5c0.1-0.1,0.3-0.2,0.6-0.3
		l3.1-0.8v8h1.5c0.4,0,0.6,0.1,0.8,0.2c0.1,0.1,0.2,0.3,0.2,0.5C199.9,196.7,199.9,196.8,199.7,197z M199.7,58.1
		c-0.2,0.1-0.4,0.2-0.8,0.2h-4.4c-0.4,0-0.6-0.1-0.8-0.2c-0.2-0.1-0.2-0.3-0.2-0.5c0-0.2,0.1-0.4,0.2-0.5c0.1-0.1,0.4-0.2,0.8-0.2
		h1.5v-6.1l-1.3,0.3c-0.2,0.1-0.4,0.1-0.5,0.1c-0.2,0-0.3-0.1-0.5-0.2c-0.1-0.1-0.2-0.3-0.2-0.5c0-0.2,0.1-0.3,0.2-0.5
		c0.1-0.1,0.3-0.2,0.6-0.3l3.1-0.8v8h1.5c0.4,0,0.6,0.1,0.8,0.2c0.1,0.1,0.2,0.3,0.2,0.5C199.9,57.8,199.9,58,199.7,58.1z
		 M196.7,68.7c0.6,0,1.1,0.1,1.5,0.4c0.4,0.3,0.8,0.7,1.2,1.4c0.4,0.7,0.6,1.4,0.6,2.2v1.6c0,0.9-0.3,1.9-0.8,2.7
		c-0.5,0.9-1.3,1.3-2.4,1.3c-0.6,0-1.1-0.1-1.5-0.4c-0.4-0.3-0.8-0.7-1.2-1.4c-0.4-0.7-0.5-1.4-0.5-2.2v-1.6c0-0.9,0.3-1.9,0.8-2.7
		C194.9,69.2,195.7,68.7,196.7,68.7z M195,74.3c0,0.8,0.2,1.5,0.7,2.1c0.2,0.3,0.6,0.5,1.1,0.5c0.4,0,0.8-0.2,1.1-0.5
		c0.4-0.5,0.6-1.2,0.6-2v-1.6c0-0.8-0.2-1.5-0.7-2.1c-0.3-0.3-0.6-0.5-1.1-0.5c-0.4,0-0.8,0.2-1.1,0.5c-0.4,0.5-0.6,1.2-0.6,2V74.3z
		 M190.9,157.3c-0.1,0.1-0.4,0.2-0.8,0.2h-4.4c-0.4,0-0.6-0.1-0.8-0.2c-0.2-0.1-0.2-0.3-0.2-0.5c0-0.2,0.1-0.4,0.2-0.5
		c0.1-0.1,0.4-0.2,0.8-0.2h1.5v-6.1l-1.3,0.3c-0.2,0.1-0.4,0.1-0.5,0.1c-0.2,0-0.3-0.1-0.5-0.2c-0.1-0.1-0.2-0.3-0.2-0.5
		c0-0.2,0.1-0.3,0.2-0.5c0.1-0.1,0.3-0.2,0.6-0.3l3.1-0.8v8h1.5c0.4,0,0.6,0.1,0.8,0.2s0.2,0.3,0.2,0.5
		C191.2,157,191.1,157.2,190.9,157.3z M190.9,137.5c-0.1,0.1-0.4,0.2-0.8,0.2h-4.4c-0.4,0-0.6-0.1-0.8-0.2c-0.2-0.1-0.2-0.3-0.2-0.5
		c0-0.2,0.1-0.4,0.2-0.5c0.1-0.1,0.4-0.2,0.8-0.2h1.5v-6.1l-1.3,0.3c-0.2,0.1-0.4,0.1-0.5,0.1c-0.2,0-0.3-0.1-0.5-0.2
		c-0.1-0.1-0.2-0.3-0.2-0.5c0-0.2,0.1-0.3,0.2-0.5c0.1-0.1,0.3-0.2,0.6-0.3l3.1-0.8v8h1.5c0.4,0,0.6,0.1,0.8,0.2
		c0.1,0.1,0.2,0.3,0.2,0.5C191.2,137.2,191.1,137.3,190.9,137.5z M190.9,117.6c-0.1,0.1-0.4,0.2-0.8,0.2h-4.4
		c-0.4,0-0.6-0.1-0.8-0.2c-0.2-0.1-0.2-0.3-0.2-0.5c0-0.2,0.1-0.4,0.2-0.5c0.1-0.1,0.4-0.2,0.8-0.2h1.5v-6.1l-1.3,0.3
		c-0.2,0.1-0.4,0.1-0.5,0.1c-0.2,0-0.3-0.1-0.5-0.2c-0.1-0.1-0.2-0.3-0.2-0.5c0-0.2,0.1-0.3,0.2-0.5c0.1-0.1,0.3-0.2,0.6-0.3
		l3.1-0.8v8h1.5c0.4,0,0.6,0.1,0.8,0.2c0.1,0.1,0.2,0.3,0.2,0.5C191.2,117.3,191.1,117.5,190.9,117.6z M190.9,78
		c-0.1,0.1-0.4,0.2-0.8,0.2h-4.4c-0.4,0-0.6-0.1-0.8-0.2c-0.2-0.1-0.2-0.3-0.2-0.5c0-0.2,0.1-0.4,0.2-0.5c0.1-0.1,0.4-0.2,0.8-0.2
		h1.5v-6.1l-1.3,0.3c-0.2,0.1-0.4,0.1-0.5,0.1c-0.2,0-0.3-0.1-0.5-0.2c-0.1-0.1-0.2-0.3-0.2-0.5c0-0.2,0.1-0.3,0.2-0.5
		c0.1-0.1,0.3-0.2,0.6-0.3l3.1-0.8v8h1.5c0.4,0,0.6,0.1,0.8,0.2c0.1,0.1,0.2,0.3,0.2,0.5C191.2,77.7,191.1,77.8,190.9,78z M188,58.5
		c-0.6,0-1.1-0.1-1.5-0.4c-0.4-0.3-0.8-0.7-1.2-1.4c-0.4-0.7-0.5-1.4-0.5-2.2v-1.6c0-0.9,0.3-1.9,0.8-2.7c0.5-0.9,1.3-1.3,2.4-1.3
		c0.6,0,1.1,0.1,1.5,0.4c0.4,0.3,0.8,0.7,1.2,1.4c0.4,0.7,0.6,1.4,0.6,2.2v1.6c0,0.9-0.3,1.9-0.8,2.7C189.8,58.1,189,58.5,188,58.5z
		 M189.7,52.9c0-0.8-0.2-1.5-0.7-2.1c-0.3-0.3-0.6-0.5-1.1-0.5c-0.4,0-0.8,0.2-1.1,0.5c-0.4,0.5-0.6,1.2-0.6,2v1.6
		c0,0.8,0.2,1.5,0.7,2.1c0.2,0.3,0.6,0.5,1.1,0.5c0.4,0,0.8-0.2,1.1-0.5c0.4-0.5,0.6-1.2,0.6-2V52.9z M182.2,216.8
		c-0.2,0.1-0.4,0.2-0.8,0.2H177c-0.4,0-0.6-0.1-0.8-0.2c-0.1-0.1-0.2-0.3-0.2-0.5c0-0.2,0.1-0.4,0.2-0.5s0.4-0.2,0.8-0.2h1.5v-6.1
		l-1.3,0.3c-0.2,0.1-0.4,0.1-0.5,0.1c-0.2,0-0.3-0.1-0.5-0.2c-0.1-0.1-0.2-0.3-0.2-0.5c0-0.2,0-0.3,0.1-0.5c0.1-0.1,0.3-0.2,0.6-0.3
		l3.1-0.8v8h1.5c0.4,0,0.6,0.1,0.8,0.2s0.2,0.3,0.2,0.5C182.4,216.5,182.3,216.7,182.2,216.8z M182.2,177.1
		c-0.2,0.1-0.4,0.2-0.8,0.2H177c-0.4,0-0.6-0.1-0.8-0.2c-0.1-0.1-0.2-0.3-0.2-0.5c0-0.2,0.1-0.4,0.2-0.5c0.1-0.1,0.4-0.2,0.8-0.2
		h1.5v-6.1l-1.3,0.3c-0.2,0.1-0.4,0.1-0.5,0.1c-0.2,0-0.3-0.1-0.5-0.2c-0.1-0.1-0.2-0.3-0.2-0.5c0-0.2,0-0.3,0.1-0.5
		c0.1-0.1,0.3-0.2,0.6-0.3l3.1-0.8v8h1.5c0.4,0,0.6,0.1,0.8,0.2c0.2,0.1,0.2,0.3,0.2,0.5C182.4,176.8,182.3,177,182.2,177.1z
		 M182.2,157.3c-0.2,0.1-0.4,0.2-0.8,0.2H177c-0.4,0-0.6-0.1-0.8-0.2c-0.1-0.1-0.2-0.3-0.2-0.5c0-0.2,0.1-0.4,0.2-0.5
		s0.4-0.2,0.8-0.2h1.5v-6.1l-1.3,0.3c-0.2,0.1-0.4,0.1-0.5,0.1c-0.2,0-0.3-0.1-0.5-0.2c-0.1-0.1-0.2-0.3-0.2-0.5
		c0-0.2,0-0.3,0.1-0.5c0.1-0.1,0.3-0.2,0.6-0.3l3.1-0.8v8h1.5c0.4,0,0.6,0.1,0.8,0.2s0.2,0.3,0.2,0.5
		C182.4,157,182.3,157.2,182.2,157.3z M182.2,137.5c-0.2,0.1-0.4,0.2-0.8,0.2H177c-0.4,0-0.6-0.1-0.8-0.2c-0.1-0.1-0.2-0.3-0.2-0.5
		c0-0.2,0.1-0.4,0.2-0.5c0.1-0.1,0.4-0.2,0.8-0.2h1.5v-6.1l-1.3,0.3c-0.2,0.1-0.4,0.1-0.5,0.1c-0.2,0-0.3-0.1-0.5-0.2
		c-0.1-0.1-0.2-0.3-0.2-0.5c0-0.2,0-0.3,0.1-0.5c0.1-0.1,0.3-0.2,0.6-0.3l3.1-0.8v8h1.5c0.4,0,0.6,0.1,0.8,0.2
		c0.2,0.1,0.2,0.3,0.2,0.5C182.4,137.2,182.3,137.3,182.2,137.5z M182.2,78c-0.2,0.1-0.4,0.2-0.8,0.2H177c-0.4,0-0.6-0.1-0.8-0.2
		c-0.1-0.1-0.2-0.3-0.2-0.5c0-0.2,0.1-0.4,0.2-0.5c0.1-0.1,0.4-0.2,0.8-0.2h1.5v-6.1l-1.3,0.3c-0.2,0.1-0.4,0.1-0.5,0.1
		c-0.2,0-0.3-0.1-0.5-0.2c-0.1-0.1-0.2-0.3-0.2-0.5c0-0.2,0-0.3,0.1-0.5c0.1-0.1,0.3-0.2,0.6-0.3l3.1-0.8v8h1.5
		c0.4,0,0.6,0.1,0.8,0.2c0.2,0.1,0.2,0.3,0.2,0.5C182.4,77.7,182.3,77.8,182.2,78z M182.2,58.1c-0.2,0.1-0.4,0.2-0.8,0.2H177
		c-0.4,0-0.6-0.1-0.8-0.2s-0.2-0.3-0.2-0.5c0-0.2,0.1-0.4,0.2-0.5c0.1-0.1,0.4-0.2,0.8-0.2h1.5v-6.1l-1.3,0.3
		c-0.2,0.1-0.4,0.1-0.5,0.1c-0.2,0-0.3-0.1-0.5-0.2c-0.1-0.1-0.2-0.3-0.2-0.5c0-0.2,0-0.3,0.1-0.5c0.1-0.1,0.3-0.2,0.6-0.3l3.1-0.8
		v8h1.5c0.4,0,0.6,0.1,0.8,0.2c0.2,0.1,0.2,0.3,0.2,0.5C182.4,57.8,182.3,58,182.2,58.1z M179.2,88.5c0.6,0,1.1,0.1,1.5,0.4
		c0.4,0.3,0.8,0.7,1.2,1.4c0.4,0.7,0.6,1.4,0.6,2.2v1.6c0,0.9-0.3,1.9-0.8,2.7c-0.5,0.9-1.3,1.3-2.4,1.3c-0.6,0-1.1-0.1-1.5-0.4
		c-0.4-0.3-0.8-0.7-1.2-1.4c-0.4-0.7-0.5-1.4-0.5-2.2v-1.6c0-0.9,0.3-1.9,0.8-2.7C177.4,89,178.2,88.5,179.2,88.5z M177.5,94.2
		c0,0.8,0.2,1.5,0.7,2.1c0.2,0.3,0.6,0.5,1.1,0.5c0.4,0,0.8-0.2,1.1-0.5c0.4-0.5,0.6-1.2,0.6-2v-1.6c0-0.8-0.2-1.5-0.7-2.1
		c-0.3-0.3-0.6-0.5-1.1-0.5c-0.4,0-0.8,0.2-1.1,0.5c-0.4,0.5-0.6,1.2-0.6,2V94.2z M173.4,197c-0.2,0.1-0.4,0.2-0.8,0.2h-4.4
		c-0.4,0-0.6-0.1-0.8-0.2c-0.2-0.1-0.2-0.3-0.2-0.5c0-0.2,0.1-0.4,0.2-0.5c0.1-0.1,0.4-0.2,0.8-0.2h1.5v-6.1l-1.3,0.3
		c-0.2,0.1-0.4,0.1-0.5,0.1c-0.2,0-0.3-0.1-0.5-0.2c-0.1-0.1-0.2-0.3-0.2-0.5c0-0.2,0.1-0.3,0.2-0.5c0.1-0.1,0.3-0.2,0.6-0.3
		l3.1-0.8v8h1.5c0.4,0,0.6,0.1,0.8,0.2c0.1,0.1,0.2,0.3,0.2,0.5C173.6,196.7,173.5,196.8,173.4,197z M173.4,177.1
		c-0.2,0.1-0.4,0.2-0.8,0.2h-4.4c-0.4,0-0.6-0.1-0.8-0.2c-0.2-0.1-0.2-0.3-0.2-0.5c0-0.2,0.1-0.4,0.2-0.5c0.1-0.1,0.4-0.2,0.8-0.2
		h1.5v-6.1l-1.3,0.3c-0.2,0.1-0.4,0.1-0.5,0.1c-0.2,0-0.3-0.1-0.5-0.2c-0.1-0.1-0.2-0.3-0.2-0.5c0-0.2,0.1-0.3,0.2-0.5
		c0.1-0.1,0.3-0.2,0.6-0.3l3.1-0.8v8h1.5c0.4,0,0.6,0.1,0.8,0.2c0.1,0.1,0.2,0.3,0.2,0.5C173.6,176.8,173.5,177,173.4,177.1z
		 M173.4,157.3c-0.2,0.1-0.4,0.2-0.8,0.2h-4.4c-0.4,0-0.6-0.1-0.8-0.2c-0.2-0.1-0.2-0.3-0.2-0.5c0-0.2,0.1-0.4,0.2-0.5
		c0.1-0.1,0.4-0.2,0.8-0.2h1.5v-6.1l-1.3,0.3c-0.2,0.1-0.4,0.1-0.5,0.1c-0.2,0-0.3-0.1-0.5-0.2c-0.1-0.1-0.2-0.3-0.2-0.5
		c0-0.2,0.1-0.3,0.2-0.5c0.1-0.1,0.3-0.2,0.6-0.3l3.1-0.8v8h1.5c0.4,0,0.6,0.1,0.8,0.2c0.1,0.1,0.2,0.3,0.2,0.5
		C173.6,157,173.5,157.2,173.4,157.3z M173.4,97.8c-0.2,0.1-0.4,0.2-0.8,0.2h-4.4c-0.4,0-0.6-0.1-0.8-0.2c-0.2-0.1-0.2-0.3-0.2-0.5
		c0-0.2,0.1-0.4,0.2-0.5c0.1-0.1,0.4-0.2,0.8-0.2h1.5v-6.1l-1.3,0.3c-0.2,0.1-0.4,0.1-0.5,0.1c-0.2,0-0.3-0.1-0.5-0.2
		c-0.1-0.1-0.2-0.3-0.2-0.5c0-0.2,0.1-0.3,0.2-0.5c0.1-0.1,0.3-0.2,0.6-0.3l3.1-0.8v8h1.5c0.4,0,0.6,0.1,0.8,0.2
		c0.1,0.1,0.2,0.3,0.2,0.5C173.6,97.5,173.5,97.7,173.4,97.8z M173.4,78c-0.2,0.1-0.4,0.2-0.8,0.2h-4.4c-0.4,0-0.6-0.1-0.8-0.2
		c-0.2-0.1-0.2-0.3-0.2-0.5c0-0.2,0.1-0.4,0.2-0.5c0.1-0.1,0.4-0.2,0.8-0.2h1.5v-6.1l-1.3,0.3c-0.2,0.1-0.4,0.1-0.5,0.1
		c-0.2,0-0.3-0.1-0.5-0.2c-0.1-0.1-0.2-0.3-0.2-0.5c0-0.2,0.1-0.3,0.2-0.5c0.1-0.1,0.3-0.2,0.6-0.3l3.1-0.8v8h1.5
		c0.4,0,0.6,0.1,0.8,0.2c0.1,0.1,0.2,0.3,0.2,0.5C173.6,77.7,173.5,77.8,173.4,78z M173.4,58.1c-0.2,0.1-0.4,0.2-0.8,0.2h-4.4
		c-0.4,0-0.6-0.1-0.8-0.2c-0.2-0.1-0.2-0.3-0.2-0.5c0-0.2,0.1-0.4,0.2-0.5c0.1-0.1,0.4-0.2,0.8-0.2h1.5v-6.1l-1.3,0.3
		c-0.2,0.1-0.4,0.1-0.5,0.1c-0.2,0-0.3-0.1-0.5-0.2c-0.1-0.1-0.2-0.3-0.2-0.5c0-0.2,0.1-0.3,0.2-0.5c0.1-0.1,0.3-0.2,0.6-0.3
		l3.1-0.8v8h1.5c0.4,0,0.6,0.1,0.8,0.2c0.1,0.1,0.2,0.3,0.2,0.5C173.6,57.8,173.5,58,173.4,58.1z M170.4,108.4
		c0.6,0,1.1,0.1,1.5,0.4c0.4,0.3,0.8,0.7,1.2,1.4c0.4,0.7,0.6,1.4,0.6,2.2v1.6c0,0.9-0.3,1.9-0.8,2.7c-0.5,0.9-1.3,1.3-2.4,1.3
		c-0.6,0-1.1-0.1-1.5-0.4c-0.4-0.3-0.8-0.7-1.2-1.4c-0.4-0.7-0.5-1.4-0.5-2.2v-1.6c0-0.9,0.3-1.9,0.8-2.7
		C168.6,108.8,169.4,108.4,170.4,108.4z M168.7,114c0,0.8,0.2,1.5,0.7,2.1c0.2,0.3,0.6,0.5,1.1,0.5c0.4,0,0.8-0.2,1.1-0.5
		c0.4-0.5,0.6-1.2,0.6-2v-1.6c0-0.8-0.2-1.5-0.7-2.1c-0.3-0.3-0.6-0.5-1.1-0.5c-0.4,0-0.8,0.2-1.1,0.5c-0.4,0.5-0.6,1.2-0.6,2V114z
		 M164.6,236.6c-0.1,0.1-0.4,0.2-0.8,0.2h-4.4c-0.4,0-0.6-0.1-0.8-0.2c-0.2-0.1-0.2-0.3-0.2-0.5c0-0.2,0.1-0.4,0.2-0.5
		c0.1-0.1,0.4-0.2,0.8-0.2h1.5v-6.1l-1.3,0.3c-0.2,0.1-0.4,0.1-0.5,0.1c-0.2,0-0.3-0.1-0.5-0.2c-0.1-0.1-0.2-0.3-0.2-0.5
		c0-0.2,0.1-0.3,0.2-0.5c0.1-0.1,0.3-0.2,0.6-0.3l3.1-0.8v8h1.5c0.4,0,0.6,0.1,0.8,0.2c0.2,0.1,0.2,0.3,0.2,0.5
		C164.8,236.3,164.8,236.5,164.6,236.6z M164.6,177.1c-0.1,0.1-0.4,0.2-0.8,0.2h-4.4c-0.4,0-0.6-0.1-0.8-0.2
		c-0.2-0.1-0.2-0.3-0.2-0.5c0-0.2,0.1-0.4,0.2-0.5c0.1-0.1,0.4-0.2,0.8-0.2h1.5v-6.1l-1.3,0.3c-0.2,0.1-0.4,0.1-0.5,0.1
		c-0.2,0-0.3-0.1-0.5-0.2c-0.1-0.1-0.2-0.3-0.2-0.5c0-0.2,0.1-0.3,0.2-0.5c0.1-0.1,0.3-0.2,0.6-0.3l3.1-0.8v8h1.5
		c0.4,0,0.6,0.1,0.8,0.2c0.2,0.1,0.2,0.3,0.2,0.5C164.8,176.8,164.8,177,164.6,177.1z M164.6,137.5c-0.1,0.1-0.4,0.2-0.8,0.2h-4.4
		c-0.4,0-0.6-0.1-0.8-0.2c-0.2-0.1-0.2-0.3-0.2-0.5c0-0.2,0.1-0.4,0.2-0.5c0.1-0.1,0.4-0.2,0.8-0.2h1.5v-6.1l-1.3,0.3
		c-0.2,0.1-0.4,0.1-0.5,0.1c-0.2,0-0.3-0.1-0.5-0.2c-0.1-0.1-0.2-0.3-0.2-0.5c0-0.2,0.1-0.3,0.2-0.5c0.1-0.1,0.3-0.2,0.6-0.3
		l3.1-0.8v8h1.5c0.4,0,0.6,0.1,0.8,0.2c0.2,0.1,0.2,0.3,0.2,0.5C164.8,137.2,164.8,137.3,164.6,137.5z M164.6,117.6
		c-0.1,0.1-0.4,0.2-0.8,0.2h-4.4c-0.4,0-0.6-0.1-0.8-0.2c-0.2-0.1-0.2-0.3-0.2-0.5c0-0.2,0.1-0.4,0.2-0.5c0.1-0.1,0.4-0.2,0.8-0.2
		h1.5v-6.1l-1.3,0.3c-0.2,0.1-0.4,0.1-0.5,0.1c-0.2,0-0.3-0.1-0.5-0.2c-0.1-0.1-0.2-0.3-0.2-0.5c0-0.2,0.1-0.3,0.2-0.5
		c0.1-0.1,0.3-0.2,0.6-0.3l3.1-0.8v8h1.5c0.4,0,0.6,0.1,0.8,0.2c0.2,0.1,0.2,0.3,0.2,0.5C164.8,117.3,164.8,117.5,164.6,117.6z
		 M164.6,58.1c-0.1,0.1-0.4,0.2-0.8,0.2h-4.4c-0.4,0-0.6-0.1-0.8-0.2c-0.2-0.1-0.2-0.3-0.2-0.5c0-0.2,0.1-0.4,0.2-0.5
		c0.1-0.1,0.4-0.2,0.8-0.2h1.5v-6.1l-1.3,0.3c-0.2,0.1-0.4,0.1-0.5,0.1c-0.2,0-0.3-0.1-0.5-0.2c-0.1-0.1-0.2-0.3-0.2-0.5
		c0-0.2,0.1-0.3,0.2-0.5c0.1-0.1,0.3-0.2,0.6-0.3l3.1-0.8v8h1.5c0.4,0,0.6,0.1,0.8,0.2c0.2,0.1,0.2,0.3,0.2,0.5
		C164.8,57.8,164.8,58,164.6,58.1z M161.6,68.7c0.6,0,1.1,0.1,1.5,0.4c0.4,0.3,0.8,0.7,1.2,1.4c0.4,0.7,0.6,1.4,0.6,2.2v1.6
		c0,0.9-0.3,1.9-0.8,2.7c-0.5,0.9-1.3,1.3-2.4,1.3c-0.6,0-1.1-0.1-1.5-0.4c-0.4-0.3-0.8-0.7-1.2-1.4c-0.4-0.7-0.5-1.4-0.5-2.2v-1.6
		c0-0.9,0.3-1.9,0.8-2.7C159.8,69.2,160.6,68.7,161.6,68.7z M159.9,74.3c0,0.8,0.2,1.5,0.7,2.1c0.2,0.3,0.6,0.5,1.1,0.5
		c0.4,0,0.8-0.2,1.1-0.5c0.4-0.5,0.6-1.2,0.6-2v-1.6c0-0.8-0.2-1.5-0.7-2.1c-0.3-0.3-0.6-0.5-1.1-0.5c-0.4,0-0.8,0.2-1.1,0.5
		c-0.4,0.5-0.6,1.2-0.6,2V74.3z M155.8,216.8c-0.2,0.1-0.4,0.2-0.8,0.2h-4.4c-0.4,0-0.6-0.1-0.8-0.2c-0.1-0.1-0.2-0.3-0.2-0.5
		c0-0.2,0.1-0.4,0.2-0.5s0.4-0.2,0.8-0.2h1.5v-6.1l-1.3,0.3c-0.2,0.1-0.4,0.1-0.5,0.1c-0.2,0-0.3-0.1-0.5-0.2
		c-0.1-0.1-0.2-0.3-0.2-0.5c0-0.2,0.1-0.3,0.1-0.5c0.1-0.1,0.3-0.2,0.6-0.3l3.1-0.8v8h1.5c0.4,0,0.6,0.1,0.8,0.2s0.2,0.3,0.2,0.5
		C156.1,216.5,156,216.7,155.8,216.8z M155.8,197c-0.2,0.1-0.4,0.2-0.8,0.2h-4.4c-0.4,0-0.6-0.1-0.8-0.2c-0.1-0.1-0.2-0.3-0.2-0.5
		c0-0.2,0.1-0.4,0.2-0.5c0.1-0.1,0.4-0.2,0.8-0.2h1.5v-6.1l-1.3,0.3c-0.2,0.1-0.4,0.1-0.5,0.1c-0.2,0-0.3-0.1-0.5-0.2
		c-0.1-0.1-0.2-0.3-0.2-0.5c0-0.2,0.1-0.3,0.1-0.5c0.1-0.1,0.3-0.2,0.6-0.3l3.1-0.8v8h1.5c0.4,0,0.6,0.1,0.8,0.2
		c0.2,0.1,0.2,0.3,0.2,0.5C156.1,196.7,156,196.8,155.8,197z M155.8,177.1c-0.2,0.1-0.4,0.2-0.8,0.2h-4.4c-0.4,0-0.6-0.1-0.8-0.2
		c-0.1-0.1-0.2-0.3-0.2-0.5c0-0.2,0.1-0.4,0.2-0.5c0.1-0.1,0.4-0.2,0.8-0.2h1.5v-6.1l-1.3,0.3c-0.2,0.1-0.4,0.1-0.5,0.1
		c-0.2,0-0.3-0.1-0.5-0.2c-0.1-0.1-0.2-0.3-0.2-0.5c0-0.2,0.1-0.3,0.1-0.5c0.1-0.1,0.3-0.2,0.6-0.3l3.1-0.8v8h1.5
		c0.4,0,0.6,0.1,0.8,0.2c0.2,0.1,0.2,0.3,0.2,0.5C156.1,176.8,156,177,155.8,177.1z M155.8,58.1c-0.2,0.1-0.4,0.2-0.8,0.2h-4.4
		c-0.4,0-0.6-0.1-0.8-0.2s-0.2-0.3-0.2-0.5c0-0.2,0.1-0.4,0.2-0.5c0.1-0.1,0.4-0.2,0.8-0.2h1.5v-6.1l-1.3,0.3
		c-0.2,0.1-0.4,0.1-0.5,0.1c-0.2,0-0.3-0.1-0.5-0.2c-0.1-0.1-0.2-0.3-0.2-0.5c0-0.2,0.1-0.3,0.1-0.5c0.1-0.1,0.3-0.2,0.6-0.3
		l3.1-0.8v8h1.5c0.4,0,0.6,0.1,0.8,0.2c0.2,0.1,0.2,0.3,0.2,0.5C156.1,57.8,156,58,155.8,58.1z M152.9,68.7c0.6,0,1.1,0.1,1.5,0.4
		c0.4,0.3,0.8,0.7,1.2,1.4c0.4,0.7,0.6,1.4,0.6,2.2v1.6c0,0.9-0.3,1.9-0.8,2.7c-0.5,0.9-1.3,1.3-2.4,1.3c-0.6,0-1.1-0.1-1.5-0.4
		s-0.8-0.7-1.2-1.4c-0.4-0.7-0.5-1.4-0.5-2.2v-1.6c0-0.9,0.3-1.9,0.8-2.7C151.1,69.2,151.8,68.7,152.9,68.7z M151.1,74.3
		c0,0.8,0.2,1.5,0.7,2.1c0.2,0.3,0.6,0.5,1.1,0.5c0.4,0,0.8-0.2,1.1-0.5c0.4-0.5,0.6-1.2,0.6-2v-1.6c0-0.8-0.2-1.5-0.7-2.1
		c-0.3-0.3-0.6-0.5-1.1-0.5c-0.4,0-0.8,0.2-1.1,0.5c-0.4,0.5-0.6,1.2-0.6,2V74.3z M147.1,216.8c-0.2,0.1-0.4,0.2-0.8,0.2h-4.4
		c-0.4,0-0.6-0.1-0.8-0.2c-0.2-0.1-0.2-0.3-0.2-0.5c0-0.2,0.1-0.4,0.2-0.5c0.1-0.1,0.4-0.2,0.8-0.2h1.5v-6.1l-1.3,0.3
		c-0.2,0.1-0.4,0.1-0.5,0.1c-0.2,0-0.3-0.1-0.5-0.2c-0.1-0.1-0.2-0.3-0.2-0.5c0-0.2,0.1-0.3,0.2-0.5c0.1-0.1,0.3-0.2,0.6-0.3
		l3.1-0.8v8h1.5c0.4,0,0.6,0.1,0.8,0.2c0.1,0.1,0.2,0.3,0.2,0.5C147.3,216.5,147.2,216.7,147.1,216.8z M147.1,197
		c-0.2,0.1-0.4,0.2-0.8,0.2h-4.4c-0.4,0-0.6-0.1-0.8-0.2c-0.2-0.1-0.2-0.3-0.2-0.5c0-0.2,0.1-0.4,0.2-0.5c0.1-0.1,0.4-0.2,0.8-0.2
		h1.5v-6.1l-1.3,0.3c-0.2,0.1-0.4,0.1-0.5,0.1c-0.2,0-0.3-0.1-0.5-0.2c-0.1-0.1-0.2-0.3-0.2-0.5c0-0.2,0.1-0.3,0.2-0.5
		c0.1-0.1,0.3-0.2,0.6-0.3l3.1-0.8v8h1.5c0.4,0,0.6,0.1,0.8,0.2c0.1,0.1,0.2,0.3,0.2,0.5C147.3,196.7,147.2,196.8,147.1,197z
		 M147.1,177.1c-0.2,0.1-0.4,0.2-0.8,0.2h-4.4c-0.4,0-0.6-0.1-0.8-0.2c-0.2-0.1-0.2-0.3-0.2-0.5c0-0.2,0.1-0.4,0.2-0.5
		c0.1-0.1,0.4-0.2,0.8-0.2h1.5v-6.1l-1.3,0.3c-0.2,0.1-0.4,0.1-0.5,0.1c-0.2,0-0.3-0.1-0.5-0.2c-0.1-0.1-0.2-0.3-0.2-0.5
		c0-0.2,0.1-0.3,0.2-0.5c0.1-0.1,0.3-0.2,0.6-0.3l3.1-0.8v8h1.5c0.4,0,0.6,0.1,0.8,0.2c0.1,0.1,0.2,0.3,0.2,0.5
		C147.3,176.8,147.2,177,147.1,177.1z M147.1,157.3c-0.2,0.1-0.4,0.2-0.8,0.2h-4.4c-0.4,0-0.6-0.1-0.8-0.2c-0.2-0.1-0.2-0.3-0.2-0.5
		c0-0.2,0.1-0.4,0.2-0.5c0.1-0.1,0.4-0.2,0.8-0.2h1.5v-6.1l-1.3,0.3c-0.2,0.1-0.4,0.1-0.5,0.1c-0.2,0-0.3-0.1-0.5-0.2
		c-0.1-0.1-0.2-0.3-0.2-0.5c0-0.2,0.1-0.3,0.2-0.5c0.1-0.1,0.3-0.2,0.6-0.3l3.1-0.8v8h1.5c0.4,0,0.6,0.1,0.8,0.2
		c0.1,0.1,0.2,0.3,0.2,0.5C147.3,157,147.2,157.2,147.1,157.3z M147.1,117.6c-0.2,0.1-0.4,0.2-0.8,0.2h-4.4c-0.4,0-0.6-0.1-0.8-0.2
		c-0.2-0.1-0.2-0.3-0.2-0.5c0-0.2,0.1-0.4,0.2-0.5c0.1-0.1,0.4-0.2,0.8-0.2h1.5v-6.1l-1.3,0.3c-0.2,0.1-0.4,0.1-0.5,0.1
		c-0.2,0-0.3-0.1-0.5-0.2c-0.1-0.1-0.2-0.3-0.2-0.5c0-0.2,0.1-0.3,0.2-0.5c0.1-0.1,0.3-0.2,0.6-0.3l3.1-0.8v8h1.5
		c0.4,0,0.6,0.1,0.8,0.2c0.1,0.1,0.2,0.3,0.2,0.5C147.3,117.3,147.2,117.5,147.1,117.6z M144.1,98.2c-0.6,0-1.1-0.1-1.5-0.4
		c-0.4-0.3-0.8-0.7-1.2-1.4c-0.4-0.7-0.5-1.4-0.5-2.2v-1.6c0-0.9,0.3-1.9,0.8-2.7c0.5-0.9,1.3-1.3,2.4-1.3c0.6,0,1.1,0.1,1.5,0.4
		s0.8,0.7,1.2,1.4c0.4,0.7,0.6,1.4,0.6,2.2v1.6c0,0.9-0.3,1.9-0.8,2.7C145.9,97.8,145.1,98.2,144.1,98.2z M145.8,92.6
		c0-0.8-0.2-1.5-0.7-2.1c-0.3-0.3-0.6-0.5-1.1-0.5c-0.4,0-0.8,0.2-1.1,0.5c-0.4,0.5-0.6,1.2-0.6,2v1.6c0,0.8,0.2,1.5,0.7,2.1
		c0.2,0.3,0.6,0.5,1.1,0.5c0.4,0,0.8-0.2,1.1-0.5c0.4-0.5,0.6-1.2,0.6-2V92.6z M144.1,78.4c-0.6,0-1.1-0.1-1.5-0.4
		c-0.4-0.3-0.8-0.7-1.2-1.4c-0.4-0.7-0.5-1.4-0.5-2.2v-1.6c0-0.9,0.3-1.9,0.8-2.7c0.5-0.9,1.3-1.3,2.4-1.3c0.6,0,1.1,0.1,1.5,0.4
		c0.4,0.3,0.8,0.7,1.2,1.4c0.4,0.7,0.6,1.4,0.6,2.2v1.6c0,0.9-0.3,1.9-0.8,2.7C145.9,77.9,145.1,78.4,144.1,78.4z M145.8,72.7
		c0-0.8-0.2-1.5-0.7-2.1c-0.3-0.3-0.6-0.5-1.1-0.5c-0.4,0-0.8,0.2-1.1,0.5c-0.4,0.5-0.6,1.2-0.6,2v1.6c0,0.8,0.2,1.5,0.7,2.1
		c0.2,0.3,0.6,0.5,1.1,0.5c0.4,0,0.8-0.2,1.1-0.5c0.4-0.5,0.6-1.2,0.6-2V72.7z M144.1,58.5c-0.6,0-1.1-0.1-1.5-0.4
		c-0.4-0.3-0.8-0.7-1.2-1.4c-0.4-0.7-0.5-1.4-0.5-2.2v-1.6c0-0.9,0.3-1.9,0.8-2.7c0.5-0.9,1.3-1.3,2.4-1.3c0.6,0,1.1,0.1,1.5,0.4
		c0.4,0.3,0.8,0.7,1.2,1.4c0.4,0.7,0.6,1.4,0.6,2.2v1.6c0,0.9-0.3,1.9-0.8,2.7C145.9,58.1,145.1,58.5,144.1,58.5z M145.8,52.9
		c0-0.8-0.2-1.5-0.7-2.1c-0.3-0.3-0.6-0.5-1.1-0.5c-0.4,0-0.8,0.2-1.1,0.5c-0.4,0.5-0.6,1.2-0.6,2v1.6c0,0.8,0.2,1.5,0.7,2.1
		c0.2,0.3,0.6,0.5,1.1,0.5c0.4,0,0.8-0.2,1.1-0.5c0.4-0.5,0.6-1.2,0.6-2V52.9z M138.3,236.6c-0.1,0.1-0.4,0.2-0.8,0.2h-4.4
		c-0.4,0-0.6-0.1-0.8-0.2c-0.2-0.1-0.2-0.3-0.2-0.5c0-0.2,0.1-0.4,0.2-0.5c0.1-0.1,0.4-0.2,0.8-0.2h1.5v-6.1l-1.3,0.3
		c-0.2,0.1-0.4,0.1-0.5,0.1c-0.2,0-0.3-0.1-0.5-0.2c-0.1-0.1-0.2-0.3-0.2-0.5c0-0.2,0.1-0.3,0.2-0.5c0.1-0.1,0.3-0.2,0.6-0.3
		l3.1-0.8v8h1.5c0.4,0,0.6,0.1,0.8,0.2c0.2,0.1,0.2,0.3,0.2,0.5C138.5,236.3,138.5,236.5,138.3,236.6z M138.3,216.8
		c-0.1,0.1-0.4,0.2-0.8,0.2h-4.4c-0.4,0-0.6-0.1-0.8-0.2c-0.2-0.1-0.2-0.3-0.2-0.5c0-0.2,0.1-0.4,0.2-0.5c0.1-0.1,0.4-0.2,0.8-0.2
		h1.5v-6.1l-1.3,0.3c-0.2,0.1-0.4,0.1-0.5,0.1c-0.2,0-0.3-0.1-0.5-0.2c-0.1-0.1-0.2-0.3-0.2-0.5c0-0.2,0.1-0.3,0.2-0.5
		c0.1-0.1,0.3-0.2,0.6-0.3l3.1-0.8v8h1.5c0.4,0,0.6,0.1,0.8,0.2c0.2,0.1,0.2,0.3,0.2,0.5C138.5,216.5,138.5,216.7,138.3,216.8z
		 M138.3,177.1c-0.1,0.1-0.4,0.2-0.8,0.2h-4.4c-0.4,0-0.6-0.1-0.8-0.2c-0.2-0.1-0.2-0.3-0.2-0.5c0-0.2,0.1-0.4,0.2-0.5
		c0.1-0.1,0.4-0.2,0.8-0.2h1.5v-6.1l-1.3,0.3c-0.2,0.1-0.4,0.1-0.5,0.1c-0.2,0-0.3-0.1-0.5-0.2c-0.1-0.1-0.2-0.3-0.2-0.5
		c0-0.2,0.1-0.3,0.2-0.5c0.1-0.1,0.3-0.2,0.6-0.3l3.1-0.8v8h1.5c0.4,0,0.6,0.1,0.8,0.2c0.2,0.1,0.2,0.3,0.2,0.5
		C138.5,176.8,138.5,177,138.3,177.1z M138.3,157.3c-0.1,0.1-0.4,0.2-0.8,0.2h-4.4c-0.4,0-0.6-0.1-0.8-0.2c-0.2-0.1-0.2-0.3-0.2-0.5
		c0-0.2,0.1-0.4,0.2-0.5c0.1-0.1,0.4-0.2,0.8-0.2h1.5v-6.1l-1.3,0.3c-0.2,0.1-0.4,0.1-0.5,0.1c-0.2,0-0.3-0.1-0.5-0.2
		c-0.1-0.1-0.2-0.3-0.2-0.5c0-0.2,0.1-0.3,0.2-0.5c0.1-0.1,0.3-0.2,0.6-0.3l3.1-0.8v8h1.5c0.4,0,0.6,0.1,0.8,0.2
		c0.2,0.1,0.2,0.3,0.2,0.5C138.5,157,138.5,157.2,138.3,157.3z M138.3,78c-0.1,0.1-0.4,0.2-0.8,0.2h-4.4c-0.4,0-0.6-0.1-0.8-0.2
		c-0.2-0.1-0.2-0.3-0.2-0.5c0-0.2,0.1-0.4,0.2-0.5c0.1-0.1,0.4-0.2,0.8-0.2h1.5v-6.1l-1.3,0.3c-0.2,0.1-0.4,0.1-0.5,0.1
		c-0.2,0-0.3-0.1-0.5-0.2c-0.1-0.1-0.2-0.3-0.2-0.5c0-0.2,0.1-0.3,0.2-0.5c0.1-0.1,0.3-0.2,0.6-0.3l3.1-0.8v8h1.5
		c0.4,0,0.6,0.1,0.8,0.2c0.2,0.1,0.2,0.3,0.2,0.5C138.5,77.7,138.5,77.8,138.3,78z M138.3,58.1c-0.1,0.1-0.4,0.2-0.8,0.2h-4.4
		c-0.4,0-0.6-0.1-0.8-0.2c-0.2-0.1-0.2-0.3-0.2-0.5c0-0.2,0.1-0.4,0.2-0.5c0.1-0.1,0.4-0.2,0.8-0.2h1.5v-6.1l-1.3,0.3
		c-0.2,0.1-0.4,0.1-0.5,0.1c-0.2,0-0.3-0.1-0.5-0.2c-0.1-0.1-0.2-0.3-0.2-0.5c0-0.2,0.1-0.3,0.2-0.5c0.1-0.1,0.3-0.2,0.6-0.3
		l3.1-0.8v8h1.5c0.4,0,0.6,0.1,0.8,0.2c0.2,0.1,0.2,0.3,0.2,0.5C138.5,57.8,138.5,58,138.3,58.1z M135.3,88.5c0.6,0,1.1,0.1,1.5,0.4
		s0.8,0.7,1.2,1.4c0.4,0.7,0.6,1.4,0.6,2.2v1.6c0,0.9-0.3,1.9-0.8,2.7c-0.5,0.9-1.3,1.3-2.4,1.3c-0.6,0-1.1-0.1-1.5-0.4
		c-0.4-0.3-0.8-0.7-1.2-1.4c-0.4-0.7-0.5-1.4-0.5-2.2v-1.6c0-0.9,0.3-1.9,0.8-2.7C133.5,89,134.3,88.5,135.3,88.5z M133.6,94.2
		c0,0.8,0.2,1.5,0.7,2.1c0.2,0.3,0.6,0.5,1.1,0.5c0.4,0,0.8-0.2,1.1-0.5c0.4-0.5,0.6-1.2,0.6-2v-1.6c0-0.8-0.2-1.5-0.7-2.1
		c-0.3-0.3-0.6-0.5-1.1-0.5c-0.4,0-0.8,0.2-1.1,0.5c-0.4,0.5-0.6,1.2-0.6,2V94.2z M129.5,236.6c-0.1,0.1-0.4,0.2-0.8,0.2h-4.4
		c-0.4,0-0.6-0.1-0.8-0.2c-0.1-0.1-0.2-0.3-0.2-0.5c0-0.2,0.1-0.4,0.2-0.5c0.2-0.1,0.4-0.2,0.8-0.2h1.5v-6.1l-1.3,0.3
		c-0.2,0.1-0.4,0.1-0.5,0.1c-0.2,0-0.3-0.1-0.5-0.2c-0.1-0.1-0.2-0.3-0.2-0.5c0-0.2,0-0.3,0.1-0.5c0.1-0.1,0.3-0.2,0.6-0.3l3.1-0.8
		v8h1.5c0.4,0,0.6,0.1,0.8,0.2c0.1,0.1,0.2,0.3,0.2,0.5C129.8,236.3,129.7,236.5,129.5,236.6z M129.5,197c-0.1,0.1-0.4,0.2-0.8,0.2
		h-4.4c-0.4,0-0.6-0.1-0.8-0.2c-0.1-0.1-0.2-0.3-0.2-0.5c0-0.2,0.1-0.4,0.2-0.5c0.2-0.1,0.4-0.2,0.8-0.2h1.5v-6.1l-1.3,0.3
		c-0.2,0.1-0.4,0.1-0.5,0.1c-0.2,0-0.3-0.1-0.5-0.2c-0.1-0.1-0.2-0.3-0.2-0.5c0-0.2,0-0.3,0.1-0.5c0.1-0.1,0.3-0.2,0.6-0.3l3.1-0.8
		v8h1.5c0.4,0,0.6,0.1,0.8,0.2c0.1,0.1,0.2,0.3,0.2,0.5C129.8,196.7,129.7,196.8,129.5,197z M129.5,117.6c-0.1,0.1-0.4,0.2-0.8,0.2
		h-4.4c-0.4,0-0.6-0.1-0.8-0.2c-0.1-0.1-0.2-0.3-0.2-0.5c0-0.2,0.1-0.4,0.2-0.5c0.2-0.1,0.4-0.2,0.8-0.2h1.5v-6.1l-1.3,0.3
		c-0.2,0.1-0.4,0.1-0.5,0.1c-0.2,0-0.3-0.1-0.5-0.2c-0.1-0.1-0.2-0.3-0.2-0.5c0-0.2,0-0.3,0.1-0.5c0.1-0.1,0.3-0.2,0.6-0.3l3.1-0.8
		v8h1.5c0.4,0,0.6,0.1,0.8,0.2c0.1,0.1,0.2,0.3,0.2,0.5C129.8,117.3,129.7,117.5,129.5,117.6z M129.5,97.8c-0.1,0.1-0.4,0.2-0.8,0.2
		h-4.4c-0.4,0-0.6-0.1-0.8-0.2c-0.1-0.1-0.2-0.3-0.2-0.5c0-0.2,0.1-0.4,0.2-0.5c0.2-0.1,0.4-0.2,0.8-0.2h1.5v-6.1l-1.3,0.3
		c-0.2,0.1-0.4,0.1-0.5,0.1c-0.2,0-0.3-0.1-0.5-0.2c-0.1-0.1-0.2-0.3-0.2-0.5c0-0.2,0-0.3,0.1-0.5c0.1-0.1,0.3-0.2,0.6-0.3l3.1-0.8
		v8h1.5c0.4,0,0.6,0.1,0.8,0.2s0.2,0.3,0.2,0.5C129.8,97.5,129.7,97.7,129.5,97.8z M126.6,78.4c-0.6,0-1.1-0.1-1.5-0.4
		s-0.8-0.7-1.2-1.4c-0.4-0.7-0.5-1.4-0.5-2.2v-1.6c0-0.9,0.3-1.9,0.8-2.7c0.5-0.9,1.3-1.3,2.4-1.3c0.6,0,1.1,0.1,1.5,0.4
		c0.4,0.3,0.8,0.7,1.2,1.4c0.4,0.7,0.6,1.4,0.6,2.2v1.6c0,0.9-0.3,1.9-0.8,2.7C128.4,77.9,127.6,78.4,126.6,78.4z M128.3,72.7
		c0-0.8-0.2-1.5-0.7-2.1c-0.3-0.3-0.6-0.5-1.1-0.5c-0.4,0-0.8,0.2-1.1,0.5c-0.4,0.5-0.6,1.2-0.6,2v1.6c0,0.8,0.2,1.5,0.7,2.1
		c0.2,0.3,0.6,0.5,1.1,0.5c0.4,0,0.8-0.2,1.1-0.5c0.4-0.5,0.6-1.2,0.6-2V72.7z M126.6,58.5c-0.6,0-1.1-0.1-1.5-0.4
		c-0.4-0.3-0.8-0.7-1.2-1.4c-0.4-0.7-0.5-1.4-0.5-2.2v-1.6c0-0.9,0.3-1.9,0.8-2.7c0.5-0.9,1.3-1.3,2.4-1.3c0.6,0,1.1,0.1,1.5,0.4
		c0.4,0.3,0.8,0.7,1.2,1.4c0.4,0.7,0.6,1.4,0.6,2.2v1.6c0,0.9-0.3,1.9-0.8,2.7C128.4,58.1,127.6,58.5,126.6,58.5z M128.3,52.9
		c0-0.8-0.2-1.5-0.7-2.1c-0.3-0.3-0.6-0.5-1.1-0.5c-0.4,0-0.8,0.2-1.1,0.5c-0.4,0.5-0.6,1.2-0.6,2v1.6c0,0.8,0.2,1.5,0.7,2.1
		c0.2,0.3,0.6,0.5,1.1,0.5c0.4,0,0.8-0.2,1.1-0.5c0.4-0.5,0.6-1.2,0.6-2V52.9z M126.5,128.2c0.6,0,1.1,0.1,1.5,0.4
		c0.4,0.3,0.8,0.7,1.2,1.4c0.4,0.7,0.6,1.4,0.6,2.2v1.6c0,0.9-0.3,1.9-0.8,2.7c-0.5,0.9-1.3,1.3-2.4,1.3c-0.6,0-1.1-0.1-1.5-0.4
		c-0.4-0.3-0.8-0.7-1.2-1.4c-0.4-0.7-0.5-1.4-0.5-2.2v-1.6c0-0.9,0.3-1.9,0.8-2.7C124.7,128.7,125.5,128.2,126.5,128.2z
		 M124.8,133.8c0,0.8,0.2,1.5,0.7,2.1c0.2,0.3,0.6,0.5,1.1,0.5c0.4,0,0.8-0.2,1.1-0.5c0.4-0.5,0.6-1.2,0.6-2v-1.6
		c0-0.8-0.2-1.5-0.7-2.1c-0.3-0.3-0.6-0.5-1.1-0.5c-0.4,0-0.8,0.2-1.1,0.5c-0.4,0.5-0.6,1.2-0.6,2V133.8z M126.5,148
		c0.6,0,1.1,0.1,1.5,0.4c0.4,0.3,0.8,0.7,1.2,1.4c0.4,0.7,0.6,1.4,0.6,2.2v1.6c0,0.9-0.3,1.9-0.8,2.7c-0.5,0.9-1.3,1.3-2.4,1.3
		c-0.6,0-1.1-0.1-1.5-0.4c-0.4-0.3-0.8-0.7-1.2-1.4c-0.4-0.7-0.5-1.4-0.5-2.2v-1.6c0-0.9,0.3-1.9,0.8-2.7
		C124.7,148.5,125.5,148,126.5,148z M124.8,153.7c0,0.8,0.2,1.5,0.7,2.1c0.2,0.3,0.6,0.5,1.1,0.5c0.4,0,0.8-0.2,1.1-0.5
		c0.4-0.5,0.6-1.2,0.6-2v-1.6c0-0.8-0.2-1.5-0.7-2.1c-0.3-0.3-0.6-0.5-1.1-0.5c-0.4,0-0.8,0.2-1.1,0.5c-0.4,0.5-0.6,1.2-0.6,2V153.7
		z M126.5,167.9c0.6,0,1.1,0.1,1.5,0.4c0.4,0.3,0.8,0.7,1.2,1.4c0.4,0.7,0.6,1.4,0.6,2.2v1.6c0,1-0.3,1.9-0.8,2.7
		c-0.5,0.9-1.3,1.3-2.4,1.3c-0.6,0-1.1-0.1-1.5-0.4c-0.4-0.3-0.8-0.7-1.2-1.4c-0.4-0.7-0.5-1.4-0.5-2.2v-1.6c0-0.9,0.3-1.9,0.8-2.7
		C124.7,168.3,125.5,167.9,126.5,167.9z M124.8,173.5c0,0.8,0.2,1.5,0.7,2.1c0.2,0.3,0.6,0.5,1.1,0.5c0.4,0,0.8-0.2,1.1-0.5
		c0.4-0.5,0.6-1.2,0.6-2v-1.6c0-0.8-0.2-1.5-0.7-2.1c-0.3-0.3-0.6-0.5-1.1-0.5c-0.4,0-0.8,0.2-1.1,0.5c-0.4,0.5-0.6,1.2-0.6,2V173.5
		z M126.5,207.5c0.6,0,1.1,0.1,1.5,0.4c0.4,0.3,0.8,0.7,1.2,1.4c0.4,0.7,0.6,1.4,0.6,2.2v1.6c0,0.9-0.3,1.9-0.8,2.7
		c-0.5,0.9-1.3,1.3-2.4,1.3c-0.6,0-1.1-0.1-1.5-0.4c-0.4-0.3-0.8-0.7-1.2-1.4c-0.4-0.7-0.5-1.4-0.5-2.2v-1.6c0-0.9,0.3-1.9,0.8-2.7
		C124.7,208,125.5,207.5,126.5,207.5z M124.8,213.2c0,0.8,0.2,1.5,0.7,2.1c0.2,0.3,0.6,0.5,1.1,0.5c0.4,0,0.8-0.2,1.1-0.5
		c0.4-0.5,0.6-1.2,0.6-2v-1.6c0-0.8-0.2-1.5-0.7-2.1c-0.3-0.3-0.6-0.5-1.1-0.5c-0.4,0-0.8,0.2-1.1,0.5c-0.4,0.5-0.6,1.2-0.6,2V213.2
		z M135.3,108.4c0.6,0,1.1,0.1,1.5,0.4c0.4,0.3,0.8,0.7,1.2,1.4c0.4,0.7,0.6,1.4,0.6,2.2v1.6c0,0.9-0.3,1.9-0.8,2.7
		c-0.5,0.9-1.3,1.3-2.4,1.3c-0.6,0-1.1-0.1-1.5-0.4c-0.4-0.3-0.8-0.7-1.2-1.4c-0.4-0.7-0.5-1.4-0.5-2.2v-1.6c0-0.9,0.3-1.9,0.8-2.7
		C133.5,108.8,134.3,108.4,135.3,108.4z M133.6,114c0,0.8,0.2,1.5,0.7,2.1c0.2,0.3,0.6,0.5,1.1,0.5c0.4,0,0.8-0.2,1.1-0.5
		c0.4-0.5,0.6-1.2,0.6-2v-1.6c0-0.8-0.2-1.5-0.7-2.1c-0.3-0.3-0.6-0.5-1.1-0.5c-0.4,0-0.8,0.2-1.1,0.5c-0.4,0.5-0.6,1.2-0.6,2V114z
		 M135.3,128.2c0.6,0,1.1,0.1,1.5,0.4c0.4,0.3,0.8,0.7,1.2,1.4c0.4,0.7,0.6,1.4,0.6,2.2v1.6c0,0.9-0.3,1.9-0.8,2.7
		c-0.5,0.9-1.3,1.3-2.4,1.3c-0.6,0-1.1-0.1-1.5-0.4c-0.4-0.3-0.8-0.7-1.2-1.4c-0.4-0.7-0.5-1.4-0.5-2.2v-1.6c0-0.9,0.3-1.9,0.8-2.7
		C133.5,128.7,134.3,128.2,135.3,128.2z M133.6,133.8c0,0.8,0.2,1.5,0.7,2.1c0.2,0.3,0.6,0.5,1.1,0.5c0.4,0,0.8-0.2,1.1-0.5
		c0.4-0.5,0.6-1.2,0.6-2v-1.6c0-0.8-0.2-1.5-0.7-2.1c-0.3-0.3-0.6-0.5-1.1-0.5c-0.4,0-0.8,0.2-1.1,0.5c-0.4,0.5-0.6,1.2-0.6,2V133.8
		z M135.3,187.7c0.6,0,1.1,0.1,1.5,0.4c0.4,0.3,0.8,0.7,1.2,1.4c0.4,0.7,0.6,1.4,0.6,2.2v1.6c0,0.9-0.3,1.9-0.8,2.7
		c-0.5,0.9-1.3,1.3-2.4,1.3c-0.6,0-1.1-0.1-1.5-0.4c-0.4-0.3-0.8-0.7-1.2-1.4c-0.4-0.7-0.5-1.4-0.5-2.2v-1.6c0-0.9,0.3-1.9,0.8-2.7
		C133.5,188.2,134.3,187.7,135.3,187.7z M133.6,193.3c0,0.8,0.2,1.5,0.7,2.1c0.2,0.3,0.6,0.5,1.1,0.5c0.4,0,0.8-0.2,1.1-0.5
		c0.4-0.5,0.6-1.2,0.6-2v-1.6c0-0.8-0.2-1.5-0.7-2.1c-0.3-0.3-0.6-0.5-1.1-0.5c-0.4,0-0.8,0.2-1.1,0.5c-0.4,0.5-0.6,1.2-0.6,2V193.3
		z M144.1,128.2c0.6,0,1.1,0.1,1.5,0.4c0.4,0.3,0.8,0.7,1.2,1.4c0.4,0.7,0.6,1.4,0.6,2.2v1.6c0,0.9-0.3,1.9-0.8,2.7
		c-0.5,0.9-1.3,1.3-2.4,1.3c-0.6,0-1.1-0.1-1.5-0.4c-0.4-0.3-0.8-0.7-1.2-1.4c-0.4-0.7-0.5-1.4-0.5-2.2v-1.6c0-0.9,0.3-1.9,0.8-2.7
		C142.3,128.7,143.1,128.2,144.1,128.2z M142.4,133.8c0,0.8,0.2,1.5,0.7,2.1c0.2,0.3,0.6,0.5,1.1,0.5c0.4,0,0.8-0.2,1.1-0.5
		c0.4-0.5,0.6-1.2,0.6-2v-1.6c0-0.8-0.2-1.5-0.7-2.1c-0.3-0.3-0.6-0.5-1.1-0.5c-0.4,0-0.8,0.2-1.1,0.5c-0.4,0.5-0.6,1.2-0.6,2V133.8
		z M144.1,227.4c0.6,0,1.1,0.1,1.5,0.4c0.4,0.3,0.8,0.7,1.2,1.4c0.4,0.7,0.6,1.4,0.6,2.2v1.6c0,1-0.3,1.9-0.8,2.7
		c-0.5,0.9-1.3,1.3-2.4,1.3c-0.6,0-1.1-0.1-1.5-0.4c-0.4-0.3-0.8-0.7-1.2-1.4c-0.4-0.7-0.5-1.4-0.5-2.2v-1.6c0-0.9,0.3-1.9,0.8-2.7
		C142.3,227.8,143.1,227.4,144.1,227.4z M142.4,233c0,0.8,0.2,1.5,0.7,2.1c0.2,0.3,0.6,0.5,1.1,0.5c0.4,0,0.8-0.2,1.1-0.5
		c0.4-0.5,0.6-1.2,0.6-2v-1.6c0-0.8-0.2-1.5-0.7-2.1c-0.3-0.3-0.6-0.5-1.1-0.5c-0.4,0-0.8,0.2-1.1,0.5c-0.4,0.5-0.6,1.2-0.6,2V233z
		 M152.9,88.5c0.6,0,1.1,0.1,1.5,0.4c0.4,0.3,0.8,0.7,1.2,1.4c0.4,0.7,0.6,1.4,0.6,2.2v1.6c0,0.9-0.3,1.9-0.8,2.7
		c-0.5,0.9-1.3,1.3-2.4,1.3c-0.6,0-1.1-0.1-1.5-0.4c-0.4-0.3-0.8-0.7-1.2-1.4c-0.4-0.7-0.5-1.4-0.5-2.2v-1.6c0-0.9,0.3-1.9,0.8-2.7
		C151.1,89,151.8,88.5,152.9,88.5z M151.1,94.2c0,0.8,0.2,1.5,0.7,2.1c0.2,0.3,0.6,0.5,1.1,0.5c0.4,0,0.8-0.2,1.1-0.5
		c0.4-0.5,0.6-1.2,0.6-2v-1.6c0-0.8-0.2-1.5-0.7-2.1c-0.3-0.3-0.6-0.5-1.1-0.5c-0.4,0-0.8,0.2-1.1,0.5c-0.4,0.5-0.6,1.2-0.6,2V94.2z
		 M152.9,108.4c0.6,0,1.1,0.1,1.5,0.4c0.4,0.3,0.8,0.7,1.2,1.4c0.4,0.7,0.6,1.4,0.6,2.2v1.6c0,0.9-0.3,1.9-0.8,2.7
		c-0.5,0.9-1.3,1.3-2.4,1.3c-0.6,0-1.1-0.1-1.5-0.4c-0.4-0.3-0.8-0.7-1.2-1.4c-0.4-0.7-0.5-1.4-0.5-2.2v-1.6c0-0.9,0.3-1.9,0.8-2.7
		C151.1,108.8,151.8,108.4,152.9,108.4z M151.1,114c0,0.8,0.2,1.5,0.7,2.1c0.2,0.3,0.6,0.5,1.1,0.5c0.4,0,0.8-0.2,1.1-0.5
		c0.4-0.5,0.6-1.2,0.6-2v-1.6c0-0.8-0.2-1.5-0.7-2.1c-0.3-0.3-0.6-0.5-1.1-0.5c-0.4,0-0.8,0.2-1.1,0.5c-0.4,0.5-0.6,1.2-0.6,2V114z
		 M152.9,128.2c0.6,0,1.1,0.1,1.5,0.4c0.4,0.3,0.8,0.7,1.2,1.4c0.4,0.7,0.6,1.4,0.6,2.2v1.6c0,0.9-0.3,1.9-0.8,2.7
		c-0.5,0.9-1.3,1.3-2.4,1.3c-0.6,0-1.1-0.1-1.5-0.4c-0.4-0.3-0.8-0.7-1.2-1.4c-0.4-0.7-0.5-1.4-0.5-2.2v-1.6c0-0.9,0.3-1.9,0.8-2.7
		S151.8,128.2,152.9,128.2z M151.1,133.8c0,0.8,0.2,1.5,0.7,2.1c0.2,0.3,0.6,0.5,1.1,0.5c0.4,0,0.8-0.2,1.1-0.5
		c0.4-0.5,0.6-1.2,0.6-2v-1.6c0-0.8-0.2-1.5-0.7-2.1c-0.3-0.3-0.6-0.5-1.1-0.5c-0.4,0-0.8,0.2-1.1,0.5c-0.4,0.5-0.6,1.2-0.6,2V133.8
		z M152.9,148c0.6,0,1.1,0.1,1.5,0.4c0.4,0.3,0.8,0.7,1.2,1.4c0.4,0.7,0.6,1.4,0.6,2.2v1.6c0,0.9-0.3,1.9-0.8,2.7
		c-0.5,0.9-1.3,1.3-2.4,1.3c-0.6,0-1.1-0.1-1.5-0.4c-0.4-0.3-0.8-0.7-1.2-1.4s-0.5-1.4-0.5-2.2v-1.6c0-0.9,0.3-1.9,0.8-2.7
		S151.8,148,152.9,148z M151.1,153.7c0,0.8,0.2,1.5,0.7,2.1c0.2,0.3,0.6,0.5,1.1,0.5c0.4,0,0.8-0.2,1.1-0.5c0.4-0.5,0.6-1.2,0.6-2
		v-1.6c0-0.8-0.2-1.5-0.7-2.1c-0.3-0.3-0.6-0.5-1.1-0.5c-0.4,0-0.8,0.2-1.1,0.5c-0.4,0.5-0.6,1.2-0.6,2V153.7z M152.9,227.4
		c0.6,0,1.1,0.1,1.5,0.4c0.4,0.3,0.8,0.7,1.2,1.4c0.4,0.7,0.6,1.4,0.6,2.2v1.6c0,1-0.3,1.9-0.8,2.7c-0.5,0.9-1.3,1.3-2.4,1.3
		c-0.6,0-1.1-0.1-1.5-0.4c-0.4-0.3-0.8-0.7-1.2-1.4c-0.4-0.7-0.5-1.4-0.5-2.2v-1.6c0-0.9,0.3-1.9,0.8-2.7
		C151.1,227.8,151.8,227.4,152.9,227.4z M151.1,233c0,0.8,0.2,1.5,0.7,2.1c0.2,0.3,0.6,0.5,1.1,0.5c0.4,0,0.8-0.2,1.1-0.5
		c0.4-0.5,0.6-1.2,0.6-2v-1.6c0-0.8-0.2-1.5-0.7-2.1c-0.3-0.3-0.6-0.5-1.1-0.5c-0.4,0-0.8,0.2-1.1,0.5c-0.4,0.5-0.6,1.2-0.6,2V233z
		 M161.6,88.5c0.6,0,1.1,0.1,1.5,0.4s0.8,0.7,1.2,1.4c0.4,0.7,0.6,1.4,0.6,2.2v1.6c0,0.9-0.3,1.9-0.8,2.7c-0.5,0.9-1.3,1.3-2.4,1.3
		c-0.6,0-1.1-0.1-1.5-0.4c-0.4-0.3-0.8-0.7-1.2-1.4c-0.4-0.7-0.5-1.4-0.5-2.2v-1.6c0-0.9,0.3-1.9,0.8-2.7
		C159.8,89,160.6,88.5,161.6,88.5z M159.9,94.2c0,0.8,0.2,1.5,0.7,2.1c0.2,0.3,0.6,0.5,1.1,0.5c0.4,0,0.8-0.2,1.1-0.5
		c0.4-0.5,0.6-1.2,0.6-2v-1.6c0-0.8-0.2-1.5-0.7-2.1c-0.3-0.3-0.6-0.5-1.1-0.5c-0.4,0-0.8,0.2-1.1,0.5c-0.4,0.5-0.6,1.2-0.6,2V94.2z
		 M161.6,148c0.6,0,1.1,0.1,1.5,0.4s0.8,0.7,1.2,1.4c0.4,0.7,0.6,1.4,0.6,2.2v1.6c0,0.9-0.3,1.9-0.8,2.7c-0.5,0.9-1.3,1.3-2.4,1.3
		c-0.6,0-1.1-0.1-1.5-0.4c-0.4-0.3-0.8-0.7-1.2-1.4s-0.5-1.4-0.5-2.2v-1.6c0-0.9,0.3-1.9,0.8-2.7C159.8,148.5,160.6,148,161.6,148z
		 M159.9,153.7c0,0.8,0.2,1.5,0.7,2.1c0.2,0.3,0.6,0.5,1.1,0.5c0.4,0,0.8-0.2,1.1-0.5c0.4-0.5,0.6-1.2,0.6-2v-1.6
		c0-0.8-0.2-1.5-0.7-2.1c-0.3-0.3-0.6-0.5-1.1-0.5c-0.4,0-0.8,0.2-1.1,0.5c-0.4,0.5-0.6,1.2-0.6,2V153.7z M161.6,187.7
		c0.6,0,1.1,0.1,1.5,0.4c0.4,0.3,0.8,0.7,1.2,1.4c0.4,0.7,0.6,1.4,0.6,2.2v1.6c0,0.9-0.3,1.9-0.8,2.7c-0.5,0.9-1.3,1.3-2.4,1.3
		c-0.6,0-1.1-0.1-1.5-0.4c-0.4-0.3-0.8-0.7-1.2-1.4c-0.4-0.7-0.5-1.4-0.5-2.2v-1.6c0-0.9,0.3-1.9,0.8-2.7
		C159.8,188.2,160.6,187.7,161.6,187.7z M159.9,193.3c0,0.8,0.2,1.5,0.7,2.1c0.2,0.3,0.6,0.5,1.1,0.5c0.4,0,0.8-0.2,1.1-0.5
		c0.4-0.5,0.6-1.2,0.6-2v-1.6c0-0.8-0.2-1.5-0.7-2.1c-0.3-0.3-0.6-0.5-1.1-0.5c-0.4,0-0.8,0.2-1.1,0.5c-0.4,0.5-0.6,1.2-0.6,2V193.3
		z M161.6,207.5c0.6,0,1.1,0.1,1.5,0.4s0.8,0.7,1.2,1.4c0.4,0.7,0.6,1.4,0.6,2.2v1.6c0,0.9-0.3,1.9-0.8,2.7
		c-0.5,0.9-1.3,1.3-2.4,1.3c-0.6,0-1.1-0.1-1.5-0.4c-0.4-0.3-0.8-0.7-1.2-1.4s-0.5-1.4-0.5-2.2v-1.6c0-0.9,0.3-1.9,0.8-2.7
		C159.8,208,160.6,207.5,161.6,207.5z M159.9,213.2c0,0.8,0.2,1.5,0.7,2.1c0.2,0.3,0.6,0.5,1.1,0.5c0.4,0,0.8-0.2,1.1-0.5
		c0.4-0.5,0.6-1.2,0.6-2v-1.6c0-0.8-0.2-1.5-0.7-2.1c-0.3-0.3-0.6-0.5-1.1-0.5c-0.4,0-0.8,0.2-1.1,0.5c-0.4,0.5-0.6,1.2-0.6,2V213.2
		z M170.4,128.2c0.6,0,1.1,0.1,1.5,0.4c0.4,0.3,0.8,0.7,1.2,1.4c0.4,0.7,0.6,1.4,0.6,2.2v1.6c0,0.9-0.3,1.9-0.8,2.7
		c-0.5,0.9-1.3,1.3-2.4,1.3c-0.6,0-1.1-0.1-1.5-0.4c-0.4-0.3-0.8-0.7-1.2-1.4c-0.4-0.7-0.5-1.4-0.5-2.2v-1.6c0-0.9,0.3-1.9,0.8-2.7
		C168.6,128.7,169.4,128.2,170.4,128.2z M168.7,133.8c0,0.8,0.2,1.5,0.7,2.1c0.2,0.3,0.6,0.5,1.1,0.5c0.4,0,0.8-0.2,1.1-0.5
		c0.4-0.5,0.6-1.2,0.6-2v-1.6c0-0.8-0.2-1.5-0.7-2.1c-0.3-0.3-0.6-0.5-1.1-0.5c-0.4,0-0.8,0.2-1.1,0.5c-0.4,0.5-0.6,1.2-0.6,2V133.8
		z M170.4,207.5c0.6,0,1.1,0.1,1.5,0.4s0.8,0.7,1.2,1.4c0.4,0.7,0.6,1.4,0.6,2.2v1.6c0,0.9-0.3,1.9-0.8,2.7
		c-0.5,0.9-1.3,1.3-2.4,1.3c-0.6,0-1.1-0.1-1.5-0.4c-0.4-0.3-0.8-0.7-1.2-1.4c-0.4-0.7-0.5-1.4-0.5-2.2v-1.6c0-0.9,0.3-1.9,0.8-2.7
		C168.6,208,169.4,207.5,170.4,207.5z M168.7,213.2c0,0.8,0.2,1.5,0.7,2.1c0.2,0.3,0.6,0.5,1.1,0.5c0.4,0,0.8-0.2,1.1-0.5
		c0.4-0.5,0.6-1.2,0.6-2v-1.6c0-0.8-0.2-1.5-0.7-2.1c-0.3-0.3-0.6-0.5-1.1-0.5c-0.4,0-0.8,0.2-1.1,0.5c-0.4,0.5-0.6,1.2-0.6,2V213.2
		z M170.4,227.4c0.6,0,1.1,0.1,1.5,0.4c0.4,0.3,0.8,0.7,1.2,1.4c0.4,0.7,0.6,1.4,0.6,2.2v1.6c0,1-0.3,1.9-0.8,2.7
		c-0.5,0.9-1.3,1.3-2.4,1.3c-0.6,0-1.1-0.1-1.5-0.4c-0.4-0.3-0.8-0.7-1.2-1.4c-0.4-0.7-0.5-1.4-0.5-2.2v-1.6c0-0.9,0.3-1.9,0.8-2.7
		C168.6,227.8,169.4,227.4,170.4,227.4z M168.7,233c0,0.8,0.2,1.5,0.7,2.1c0.2,0.3,0.6,0.5,1.1,0.5c0.4,0,0.8-0.2,1.1-0.5
		c0.4-0.5,0.6-1.2,0.6-2v-1.6c0-0.8-0.2-1.5-0.7-2.1c-0.3-0.3-0.6-0.5-1.1-0.5c-0.4,0-0.8,0.2-1.1,0.5c-0.4,0.5-0.6,1.2-0.6,2V233z
		 M179.2,108.4c0.6,0,1.1,0.1,1.5,0.4c0.4,0.3,0.8,0.7,1.2,1.4c0.4,0.7,0.6,1.4,0.6,2.2v1.6c0,0.9-0.3,1.9-0.8,2.7
		c-0.5,0.9-1.3,1.3-2.4,1.3c-0.6,0-1.1-0.1-1.5-0.4c-0.4-0.3-0.8-0.7-1.2-1.4c-0.4-0.7-0.5-1.4-0.5-2.2v-1.6c0-0.9,0.3-1.9,0.8-2.7
		C177.4,108.8,178.2,108.4,179.2,108.4z M177.5,114c0,0.8,0.2,1.5,0.7,2.1c0.2,0.3,0.6,0.5,1.1,0.5c0.4,0,0.8-0.2,1.1-0.5
		c0.4-0.5,0.6-1.2,0.6-2v-1.6c0-0.8-0.2-1.5-0.7-2.1c-0.3-0.3-0.6-0.5-1.1-0.5c-0.4,0-0.8,0.2-1.1,0.5c-0.4,0.5-0.6,1.2-0.6,2V114z
		 M179.2,187.7c0.6,0,1.1,0.1,1.5,0.4c0.4,0.3,0.8,0.7,1.2,1.4c0.4,0.7,0.6,1.4,0.6,2.2v1.6c0,0.9-0.3,1.9-0.8,2.7
		c-0.5,0.9-1.3,1.3-2.4,1.3c-0.6,0-1.1-0.1-1.5-0.4c-0.4-0.3-0.8-0.7-1.2-1.4c-0.4-0.7-0.5-1.4-0.5-2.2v-1.6c0-0.9,0.3-1.9,0.8-2.7
		S178.2,187.7,179.2,187.7z M177.5,193.3c0,0.8,0.2,1.5,0.7,2.1c0.2,0.3,0.6,0.5,1.1,0.5c0.4,0,0.8-0.2,1.1-0.5
		c0.4-0.5,0.6-1.2,0.6-2v-1.6c0-0.8-0.2-1.5-0.7-2.1c-0.3-0.3-0.6-0.5-1.1-0.5c-0.4,0-0.8,0.2-1.1,0.5c-0.4,0.5-0.6,1.2-0.6,2V193.3
		z M179.2,227.4c0.6,0,1.1,0.1,1.5,0.4c0.4,0.3,0.8,0.7,1.2,1.4c0.4,0.7,0.6,1.4,0.6,2.2v1.6c0,1-0.3,1.9-0.8,2.7
		c-0.5,0.9-1.3,1.3-2.4,1.3c-0.6,0-1.1-0.1-1.5-0.4c-0.4-0.3-0.8-0.7-1.2-1.4c-0.4-0.7-0.5-1.4-0.5-2.2v-1.6c0-0.9,0.3-1.9,0.8-2.7
		C177.4,227.8,178.2,227.4,179.2,227.4z M177.5,233c0,0.8,0.2,1.5,0.7,2.1c0.2,0.3,0.6,0.5,1.1,0.5c0.4,0,0.8-0.2,1.1-0.5
		c0.4-0.5,0.6-1.2,0.6-2v-1.6c0-0.8-0.2-1.5-0.7-2.1c-0.3-0.3-0.6-0.5-1.1-0.5c-0.4,0-0.8,0.2-1.1,0.5c-0.4,0.5-0.6,1.2-0.6,2V233z
		 M188,88.5c0.6,0,1.1,0.1,1.5,0.4c0.4,0.3,0.8,0.7,1.2,1.4c0.4,0.7,0.6,1.4,0.6,2.2v1.6c0,0.9-0.3,1.9-0.8,2.7
		c-0.5,0.9-1.3,1.3-2.4,1.3c-0.6,0-1.1-0.1-1.5-0.4c-0.4-0.3-0.8-0.7-1.2-1.4c-0.4-0.7-0.5-1.4-0.5-2.2v-1.6c0-0.9,0.3-1.9,0.8-2.7
		C186.1,89,186.9,88.5,188,88.5z M186.2,94.2c0,0.8,0.2,1.5,0.7,2.1c0.2,0.3,0.6,0.5,1.1,0.5c0.4,0,0.8-0.2,1.1-0.5
		c0.4-0.5,0.6-1.2,0.6-2v-1.6c0-0.8-0.2-1.5-0.7-2.1c-0.3-0.3-0.6-0.5-1.1-0.5c-0.4,0-0.8,0.2-1.1,0.5c-0.4,0.5-0.6,1.2-0.6,2V94.2z
		 M188,167.9c0.6,0,1.1,0.1,1.5,0.4c0.4,0.3,0.8,0.7,1.2,1.4c0.4,0.7,0.6,1.4,0.6,2.2v1.6c0,1-0.3,1.9-0.8,2.7
		c-0.5,0.9-1.3,1.3-2.4,1.3c-0.6,0-1.1-0.1-1.5-0.4c-0.4-0.3-0.8-0.7-1.2-1.4c-0.4-0.7-0.5-1.4-0.5-2.2v-1.6c0-0.9,0.3-1.9,0.8-2.7
		C186.1,168.3,186.9,167.9,188,167.9z M186.2,173.5c0,0.8,0.2,1.5,0.7,2.1c0.2,0.3,0.6,0.5,1.1,0.5c0.4,0,0.8-0.2,1.1-0.5
		c0.4-0.5,0.6-1.2,0.6-2v-1.6c0-0.8-0.2-1.5-0.7-2.1c-0.3-0.3-0.6-0.5-1.1-0.5c-0.4,0-0.8,0.2-1.1,0.5c-0.4,0.5-0.6,1.2-0.6,2V173.5
		z M188,187.7c0.6,0,1.1,0.1,1.5,0.4c0.4,0.3,0.8,0.7,1.2,1.4c0.4,0.7,0.6,1.4,0.6,2.2v1.6c0,0.9-0.3,1.9-0.8,2.7
		c-0.5,0.9-1.3,1.3-2.4,1.3c-0.6,0-1.1-0.1-1.5-0.4c-0.4-0.3-0.8-0.7-1.2-1.4c-0.4-0.7-0.5-1.4-0.5-2.2v-1.6c0-0.9,0.3-1.9,0.8-2.7
		S186.9,187.7,188,187.7z M186.2,193.3c0,0.8,0.2,1.5,0.7,2.1c0.2,0.3,0.6,0.5,1.1,0.5c0.4,0,0.8-0.2,1.1-0.5c0.4-0.5,0.6-1.2,0.6-2
		v-1.6c0-0.8-0.2-1.5-0.7-2.1c-0.3-0.3-0.6-0.5-1.1-0.5c-0.4,0-0.8,0.2-1.1,0.5c-0.4,0.5-0.6,1.2-0.6,2V193.3z M188,207.5
		c0.6,0,1.1,0.1,1.5,0.4c0.4,0.3,0.8,0.7,1.2,1.4c0.4,0.7,0.6,1.4,0.6,2.2v1.6c0,0.9-0.3,1.9-0.8,2.7c-0.5,0.9-1.3,1.3-2.4,1.3
		c-0.6,0-1.1-0.1-1.5-0.4c-0.4-0.3-0.8-0.7-1.2-1.4s-0.5-1.4-0.5-2.2v-1.6c0-0.9,0.3-1.9,0.8-2.7S186.9,207.5,188,207.5z
		 M186.2,213.2c0,0.8,0.2,1.5,0.7,2.1c0.2,0.3,0.6,0.5,1.1,0.5c0.4,0,0.8-0.2,1.1-0.5c0.4-0.5,0.6-1.2,0.6-2v-1.6
		c0-0.8-0.2-1.5-0.7-2.1c-0.3-0.3-0.6-0.5-1.1-0.5c-0.4,0-0.8,0.2-1.1,0.5c-0.4,0.5-0.6,1.2-0.6,2V213.2z M188,227.4
		c0.6,0,1.1,0.1,1.5,0.4c0.4,0.3,0.8,0.7,1.2,1.4c0.4,0.7,0.6,1.4,0.6,2.2v1.6c0,1-0.3,1.9-0.8,2.7c-0.5,0.9-1.3,1.3-2.4,1.3
		c-0.6,0-1.1-0.1-1.5-0.4c-0.4-0.3-0.8-0.7-1.2-1.4c-0.4-0.7-0.5-1.4-0.5-2.2v-1.6c0-0.9,0.3-1.9,0.8-2.7
		C186.1,227.8,186.9,227.4,188,227.4z M186.2,233c0,0.8,0.2,1.5,0.7,2.1c0.2,0.3,0.6,0.5,1.1,0.5c0.4,0,0.8-0.2,1.1-0.5
		c0.4-0.5,0.6-1.2,0.6-2v-1.6c0-0.8-0.2-1.5-0.7-2.1c-0.3-0.3-0.6-0.5-1.1-0.5c-0.4,0-0.8,0.2-1.1,0.5c-0.4,0.5-0.6,1.2-0.6,2V233z
		 M196.7,88.5c0.6,0,1.1,0.1,1.5,0.4s0.8,0.7,1.2,1.4c0.4,0.7,0.6,1.4,0.6,2.2v1.6c0,0.9-0.3,1.9-0.8,2.7c-0.5,0.9-1.3,1.3-2.4,1.3
		c-0.6,0-1.1-0.1-1.5-0.4c-0.4-0.3-0.8-0.7-1.2-1.4c-0.4-0.7-0.5-1.4-0.5-2.2v-1.6c0-0.9,0.3-1.9,0.8-2.7
		C194.9,89,195.7,88.5,196.7,88.5z M195,94.2c0,0.8,0.2,1.5,0.7,2.1c0.2,0.3,0.6,0.5,1.1,0.5c0.4,0,0.8-0.2,1.1-0.5
		c0.4-0.5,0.6-1.2,0.6-2v-1.6c0-0.8-0.2-1.5-0.7-2.1c-0.3-0.3-0.6-0.5-1.1-0.5c-0.4,0-0.8,0.2-1.1,0.5c-0.4,0.5-0.6,1.2-0.6,2V94.2z
		 M196.7,108.4c0.6,0,1.1,0.1,1.5,0.4c0.4,0.3,0.8,0.7,1.2,1.4c0.4,0.7,0.6,1.4,0.6,2.2v1.6c0,0.9-0.3,1.9-0.8,2.7
		c-0.5,0.9-1.3,1.3-2.4,1.3c-0.6,0-1.1-0.1-1.5-0.4c-0.4-0.3-0.8-0.7-1.2-1.4c-0.4-0.7-0.5-1.4-0.5-2.2v-1.6c0-0.9,0.3-1.9,0.8-2.7
		C194.9,108.8,195.7,108.4,196.7,108.4z M195,114c0,0.8,0.2,1.5,0.7,2.1c0.2,0.3,0.6,0.5,1.1,0.5c0.4,0,0.8-0.2,1.1-0.5
		c0.4-0.5,0.6-1.2,0.6-2v-1.6c0-0.8-0.2-1.5-0.7-2.1c-0.3-0.3-0.6-0.5-1.1-0.5c-0.4,0-0.8,0.2-1.1,0.5c-0.4,0.5-0.6,1.2-0.6,2V114z
		 M196.7,128.2c0.6,0,1.1,0.1,1.5,0.4c0.4,0.3,0.8,0.7,1.2,1.4c0.4,0.7,0.6,1.4,0.6,2.2v1.6c0,0.9-0.3,1.9-0.8,2.7
		c-0.5,0.9-1.3,1.3-2.4,1.3c-0.6,0-1.1-0.1-1.5-0.4c-0.4-0.3-0.8-0.7-1.2-1.4c-0.4-0.7-0.5-1.4-0.5-2.2v-1.6c0-0.9,0.3-1.9,0.8-2.7
		C194.9,128.7,195.7,128.2,196.7,128.2z M195,133.8c0,0.8,0.2,1.5,0.7,2.1c0.2,0.3,0.6,0.5,1.1,0.5c0.4,0,0.8-0.2,1.1-0.5
		c0.4-0.5,0.6-1.2,0.6-2v-1.6c0-0.8-0.2-1.5-0.7-2.1c-0.3-0.3-0.6-0.5-1.1-0.5c-0.4,0-0.8,0.2-1.1,0.5c-0.4,0.5-0.6,1.2-0.6,2V133.8
		z M196.7,148c0.6,0,1.1,0.1,1.5,0.4s0.8,0.7,1.2,1.4c0.4,0.7,0.6,1.4,0.6,2.2v1.6c0,0.9-0.3,1.9-0.8,2.7c-0.5,0.9-1.3,1.3-2.4,1.3
		c-0.6,0-1.1-0.1-1.5-0.4c-0.4-0.3-0.8-0.7-1.2-1.4c-0.4-0.7-0.5-1.4-0.5-2.2v-1.6c0-0.9,0.3-1.9,0.8-2.7
		C194.9,148.5,195.7,148,196.7,148z M195,153.7c0,0.8,0.2,1.5,0.7,2.1c0.2,0.3,0.6,0.5,1.1,0.5c0.4,0,0.8-0.2,1.1-0.5
		c0.4-0.5,0.6-1.2,0.6-2v-1.6c0-0.8-0.2-1.5-0.7-2.1c-0.3-0.3-0.6-0.5-1.1-0.5c-0.4,0-0.8,0.2-1.1,0.5c-0.4,0.5-0.6,1.2-0.6,2V153.7
		z M196.7,167.9c0.6,0,1.1,0.1,1.5,0.4c0.4,0.3,0.8,0.7,1.2,1.4c0.4,0.7,0.6,1.4,0.6,2.2v1.6c0,1-0.3,1.9-0.8,2.7
		c-0.5,0.9-1.3,1.3-2.4,1.3c-0.6,0-1.1-0.1-1.5-0.4c-0.4-0.3-0.8-0.7-1.2-1.4c-0.4-0.7-0.5-1.4-0.5-2.2v-1.6c0-0.9,0.3-1.9,0.8-2.7
		C194.9,168.3,195.7,167.9,196.7,167.9z M195,173.5c0,0.8,0.2,1.5,0.7,2.1c0.2,0.3,0.6,0.5,1.1,0.5c0.4,0,0.8-0.2,1.1-0.5
		c0.4-0.5,0.6-1.2,0.6-2v-1.6c0-0.8-0.2-1.5-0.7-2.1c-0.3-0.3-0.6-0.5-1.1-0.5c-0.4,0-0.8,0.2-1.1,0.5c-0.4,0.5-0.6,1.2-0.6,2V173.5
		z M196.7,207.5c0.6,0,1.1,0.1,1.5,0.4s0.8,0.7,1.2,1.4c0.4,0.7,0.6,1.4,0.6,2.2v1.6c0,0.9-0.3,1.9-0.8,2.7
		c-0.5,0.9-1.3,1.3-2.4,1.3c-0.6,0-1.1-0.1-1.5-0.4c-0.4-0.3-0.8-0.7-1.2-1.4c-0.4-0.7-0.5-1.4-0.5-2.2v-1.6c0-0.9,0.3-1.9,0.8-2.7
		C194.9,208,195.7,207.5,196.7,207.5z M195,213.2c0,0.8,0.2,1.5,0.7,2.1c0.2,0.3,0.6,0.5,1.1,0.5c0.4,0,0.8-0.2,1.1-0.5
		c0.4-0.5,0.6-1.2,0.6-2v-1.6c0-0.8-0.2-1.5-0.7-2.1c-0.3-0.3-0.6-0.5-1.1-0.5c-0.4,0-0.8,0.2-1.1,0.5c-0.4,0.5-0.6,1.2-0.6,2V213.2
		z M205.5,88.5c0.6,0,1.1,0.1,1.5,0.4c0.4,0.3,0.8,0.7,1.2,1.4c0.4,0.7,0.6,1.4,0.6,2.2v1.6c0,0.9-0.3,1.9-0.8,2.7
		c-0.5,0.9-1.3,1.3-2.4,1.3c-0.6,0-1.1-0.1-1.5-0.4c-0.4-0.3-0.8-0.7-1.2-1.4c-0.4-0.7-0.5-1.4-0.5-2.2v-1.6c0-0.9,0.3-1.9,0.8-2.7
		C203.7,89,204.5,88.5,205.5,88.5z M203.8,94.2c0,0.8,0.2,1.5,0.7,2.1c0.2,0.3,0.6,0.5,1.1,0.5c0.4,0,0.8-0.2,1.1-0.5
		c0.4-0.5,0.6-1.2,0.6-2v-1.6c0-0.8-0.2-1.5-0.7-2.1c-0.3-0.3-0.6-0.5-1.1-0.5c-0.4,0-0.8,0.2-1.1,0.5c-0.4,0.5-0.6,1.2-0.6,2V94.2z
		 M205.5,108.4c0.6,0,1.1,0.1,1.5,0.4c0.4,0.3,0.8,0.7,1.2,1.4c0.4,0.7,0.6,1.4,0.6,2.2v1.6c0,0.9-0.3,1.9-0.8,2.7
		c-0.5,0.9-1.3,1.3-2.4,1.3c-0.6,0-1.1-0.1-1.5-0.4c-0.4-0.3-0.8-0.7-1.2-1.4c-0.4-0.7-0.5-1.4-0.5-2.2v-1.6c0-0.9,0.3-1.9,0.8-2.7
		C203.7,108.8,204.5,108.4,205.5,108.4z M203.8,114c0,0.8,0.2,1.5,0.7,2.1c0.2,0.3,0.6,0.5,1.1,0.5c0.4,0,0.8-0.2,1.1-0.5
		c0.4-0.5,0.6-1.2,0.6-2v-1.6c0-0.8-0.2-1.5-0.7-2.1c-0.3-0.3-0.6-0.5-1.1-0.5c-0.4,0-0.8,0.2-1.1,0.5c-0.4,0.5-0.6,1.2-0.6,2V114z
		 M205.5,128.2c0.6,0,1.1,0.1,1.5,0.4c0.4,0.3,0.8,0.7,1.2,1.4c0.4,0.7,0.6,1.4,0.6,2.2v1.6c0,0.9-0.3,1.9-0.8,2.7
		c-0.5,0.9-1.3,1.3-2.4,1.3c-0.6,0-1.1-0.1-1.5-0.4c-0.4-0.3-0.8-0.7-1.2-1.4c-0.4-0.7-0.5-1.4-0.5-2.2v-1.6c0-0.9,0.3-1.9,0.8-2.7
		S204.5,128.2,205.5,128.2z M203.8,133.8c0,0.8,0.2,1.5,0.7,2.1c0.2,0.3,0.6,0.5,1.1,0.5c0.4,0,0.8-0.2,1.1-0.5
		c0.4-0.5,0.6-1.2,0.6-2v-1.6c0-0.8-0.2-1.5-0.7-2.1c-0.3-0.3-0.6-0.5-1.1-0.5c-0.4,0-0.8,0.2-1.1,0.5c-0.4,0.5-0.6,1.2-0.6,2V133.8
		z M205.5,167.9c0.6,0,1.1,0.1,1.5,0.4c0.4,0.3,0.8,0.7,1.2,1.4c0.4,0.7,0.6,1.4,0.6,2.2v1.6c0,1-0.3,1.9-0.8,2.7
		c-0.5,0.9-1.3,1.3-2.4,1.3c-0.6,0-1.1-0.1-1.5-0.4c-0.4-0.3-0.8-0.7-1.2-1.4c-0.4-0.7-0.5-1.4-0.5-2.2v-1.6c0-0.9,0.3-1.9,0.8-2.7
		C203.7,168.3,204.5,167.9,205.5,167.9z M203.8,173.5c0,0.8,0.2,1.5,0.7,2.1c0.2,0.3,0.6,0.5,1.1,0.5c0.4,0,0.8-0.2,1.1-0.5
		c0.4-0.5,0.6-1.2,0.6-2v-1.6c0-0.8-0.2-1.5-0.7-2.1c-0.3-0.3-0.6-0.5-1.1-0.5c-0.4,0-0.8,0.2-1.1,0.5c-0.4,0.5-0.6,1.2-0.6,2V173.5
		z M205.5,187.7c0.6,0,1.1,0.1,1.5,0.4c0.4,0.3,0.8,0.7,1.2,1.4c0.4,0.7,0.6,1.4,0.6,2.2v1.6c0,0.9-0.3,1.9-0.8,2.7
		c-0.5,0.9-1.3,1.3-2.4,1.3c-0.6,0-1.1-0.1-1.5-0.4c-0.4-0.3-0.8-0.7-1.2-1.4c-0.4-0.7-0.5-1.4-0.5-2.2v-1.6c0-0.9,0.3-1.9,0.8-2.7
		S204.5,187.7,205.5,187.7z M203.8,193.3c0,0.8,0.2,1.5,0.7,2.1c0.2,0.3,0.6,0.5,1.1,0.5c0.4,0,0.8-0.2,1.1-0.5
		c0.4-0.5,0.6-1.2,0.6-2v-1.6c0-0.8-0.2-1.5-0.7-2.1c-0.3-0.3-0.6-0.5-1.1-0.5c-0.4,0-0.8,0.2-1.1,0.5c-0.4,0.5-0.6,1.2-0.6,2V193.3
		z M205.5,207.5c0.6,0,1.1,0.1,1.5,0.4c0.4,0.3,0.8,0.7,1.2,1.4c0.4,0.7,0.6,1.4,0.6,2.2v1.6c0,0.9-0.3,1.9-0.8,2.7
		c-0.5,0.9-1.3,1.3-2.4,1.3c-0.6,0-1.1-0.1-1.5-0.4c-0.4-0.3-0.8-0.7-1.2-1.4c-0.4-0.7-0.5-1.4-0.5-2.2v-1.6c0-0.9,0.3-1.9,0.8-2.7
		S204.5,207.5,205.5,207.5z M203.8,213.2c0,0.8,0.2,1.5,0.7,2.1c0.2,0.3,0.6,0.5,1.1,0.5c0.4,0,0.8-0.2,1.1-0.5
		c0.4-0.5,0.6-1.2,0.6-2v-1.6c0-0.8-0.2-1.5-0.7-2.1c-0.3-0.3-0.6-0.5-1.1-0.5c-0.4,0-0.8,0.2-1.1,0.5c-0.4,0.5-0.6,1.2-0.6,2V213.2
		z M205.5,227.4c0.6,0,1.1,0.1,1.5,0.4c0.4,0.3,0.8,0.7,1.2,1.4c0.4,0.7,0.6,1.4,0.6,2.2v1.6c0,1-0.3,1.9-0.8,2.7
		c-0.5,0.9-1.3,1.3-2.4,1.3c-0.6,0-1.1-0.1-1.5-0.4c-0.4-0.3-0.8-0.7-1.2-1.4c-0.4-0.7-0.5-1.4-0.5-2.2v-1.6c0-0.9,0.3-1.9,0.8-2.7
		C203.7,227.8,204.5,227.4,205.5,227.4z M203.8,233c0,0.8,0.2,1.5,0.7,2.1c0.2,0.3,0.6,0.5,1.1,0.5c0.4,0,0.8-0.2,1.1-0.5
		c0.4-0.5,0.6-1.2,0.6-2v-1.6c0-0.8-0.2-1.5-0.7-2.1c-0.3-0.3-0.6-0.5-1.1-0.5c-0.4,0-0.8,0.2-1.1,0.5c-0.4,0.5-0.6,1.2-0.6,2V233z
		 M214.3,88.5c0.6,0,1.1,0.1,1.5,0.4c0.4,0.3,0.8,0.7,1.2,1.4c0.4,0.7,0.6,1.4,0.6,2.2v1.6c0,0.9-0.3,1.9-0.8,2.7
		c-0.5,0.9-1.3,1.3-2.4,1.3c-0.6,0-1.1-0.1-1.5-0.4c-0.4-0.3-0.8-0.7-1.2-1.4c-0.4-0.7-0.5-1.4-0.5-2.2v-1.6c0-0.9,0.3-1.9,0.8-2.7
		C212.5,89,213.2,88.5,214.3,88.5z M212.6,94.2c0,0.8,0.2,1.5,0.7,2.1c0.2,0.3,0.6,0.5,1.1,0.5c0.4,0,0.8-0.2,1.1-0.5
		c0.4-0.5,0.6-1.2,0.6-2v-1.6c0-0.8-0.2-1.5-0.7-2.1c-0.3-0.3-0.6-0.5-1.1-0.5c-0.4,0-0.8,0.2-1.1,0.5c-0.4,0.5-0.6,1.2-0.6,2V94.2z
		 M214.3,148c0.6,0,1.1,0.1,1.5,0.4c0.4,0.3,0.8,0.7,1.2,1.4c0.4,0.7,0.6,1.4,0.6,2.2v1.6c0,0.9-0.3,1.9-0.8,2.7
		c-0.5,0.9-1.3,1.3-2.4,1.3c-0.6,0-1.1-0.1-1.5-0.4c-0.4-0.3-0.8-0.7-1.2-1.4s-0.5-1.4-0.5-2.2v-1.6c0-0.9,0.3-1.9,0.8-2.7
		C212.5,148.5,213.2,148,214.3,148z M212.6,153.7c0,0.8,0.2,1.5,0.7,2.1c0.2,0.3,0.6,0.5,1.1,0.5c0.4,0,0.8-0.2,1.1-0.5
		c0.4-0.5,0.6-1.2,0.6-2v-1.6c0-0.8-0.2-1.5-0.7-2.1c-0.3-0.3-0.6-0.5-1.1-0.5c-0.4,0-0.8,0.2-1.1,0.5c-0.4,0.5-0.6,1.2-0.6,2V153.7
		z M214.3,227.4c0.6,0,1.1,0.1,1.5,0.4c0.4,0.3,0.8,0.7,1.2,1.4c0.4,0.7,0.6,1.4,0.6,2.2v1.6c0,1-0.3,1.9-0.8,2.7
		c-0.5,0.9-1.3,1.3-2.4,1.3c-0.6,0-1.1-0.1-1.5-0.4c-0.4-0.3-0.8-0.7-1.2-1.4c-0.4-0.7-0.5-1.4-0.5-2.2v-1.6c0-0.9,0.3-1.9,0.8-2.7
		C212.5,227.8,213.2,227.4,214.3,227.4z M212.6,233c0,0.8,0.2,1.5,0.7,2.1c0.2,0.3,0.6,0.5,1.1,0.5c0.4,0,0.8-0.2,1.1-0.5
		c0.4-0.5,0.6-1.2,0.6-2v-1.6c0-0.8-0.2-1.5-0.7-2.1c-0.3-0.3-0.6-0.5-1.1-0.5c-0.4,0-0.8,0.2-1.1,0.5c-0.4,0.5-0.6,1.2-0.6,2V233z
		 M223,108.4c0.6,0,1.1,0.1,1.5,0.4c0.4,0.3,0.8,0.7,1.2,1.4c0.4,0.7,0.6,1.4,0.6,2.2v1.6c0,0.9-0.3,1.9-0.8,2.7
		c-0.5,0.9-1.3,1.3-2.4,1.3c-0.6,0-1.1-0.1-1.5-0.4c-0.4-0.3-0.8-0.7-1.2-1.4c-0.4-0.7-0.5-1.4-0.5-2.2v-1.6c0-0.9,0.3-1.9,0.8-2.7
		C221.2,108.8,222,108.4,223,108.4z M221.3,114c0,0.8,0.2,1.5,0.7,2.1c0.2,0.3,0.6,0.5,1.1,0.5c0.4,0,0.8-0.2,1.1-0.5
		c0.4-0.5,0.6-1.2,0.6-2v-1.6c0-0.8-0.2-1.5-0.7-2.1c-0.3-0.3-0.6-0.5-1.1-0.5c-0.4,0-0.8,0.2-1.1,0.5c-0.4,0.5-0.6,1.2-0.6,2V114z
		 M223,128.2c0.6,0,1.1,0.1,1.5,0.4c0.4,0.3,0.8,0.7,1.2,1.4c0.4,0.7,0.6,1.4,0.6,2.2v1.6c0,0.9-0.3,1.9-0.8,2.7
		c-0.5,0.9-1.3,1.3-2.4,1.3c-0.6,0-1.1-0.1-1.5-0.4c-0.4-0.3-0.8-0.7-1.2-1.4c-0.4-0.7-0.5-1.4-0.5-2.2v-1.6c0-0.9,0.3-1.9,0.8-2.7
		C221.2,128.7,222,128.2,223,128.2z M221.3,133.8c0,0.8,0.2,1.5,0.7,2.1c0.2,0.3,0.6,0.5,1.1,0.5c0.4,0,0.8-0.2,1.1-0.5
		c0.4-0.5,0.6-1.2,0.6-2v-1.6c0-0.8-0.2-1.5-0.7-2.1c-0.3-0.3-0.6-0.5-1.1-0.5c-0.4,0-0.8,0.2-1.1,0.5c-0.4,0.5-0.6,1.2-0.6,2V133.8
		z M221,229.6c-0.2,0.1-0.4,0.1-0.5,0.1c-0.2,0-0.3-0.1-0.5-0.2c-0.1-0.1-0.2-0.3-0.2-0.5c0-0.2,0.1-0.3,0.2-0.5
		c0.1-0.1,0.3-0.2,0.6-0.3l3.1-0.8v8h1.5c0.4,0,0.6,0.1,0.8,0.2c0.1,0.1,0.2,0.3,0.2,0.5c0,0.2-0.1,0.4-0.2,0.5
		c-0.2,0.1-0.4,0.2-0.8,0.2h-4.4c-0.4,0-0.6-0.1-0.8-0.2c-0.2-0.1-0.2-0.3-0.2-0.5c0-0.2,0.1-0.4,0.2-0.5c0.1-0.1,0.4-0.2,0.8-0.2
		h1.5v-6.1L221,229.6z"/>
	<path class="st0" d="M189.8,214c-0.2,0.1-0.5,0.3-0.9,0.4l-0.2,0.1l0,0l-0.2,0.1c0,0,0,0,0,0l0,0c-0.2,0.1-0.3,0.1-0.5,0.2l0,0
		c-0.1,0-0.3,0.1-0.5,0.1c-0.8,0.2-2.1,0.5-3.6,0.5c0.4-0.4,0.8-1,0.8-1.6l0,0c0,0,0-0.1,0-0.1c0-0.1,0-0.2,0-0.2c0,0,0,0,0-0.1
		c-0.1-0.3-0.1-0.6-0.3-0.8c-0.1-0.1-0.2-0.2-0.2-0.3l-0.1-0.1l0.1-0.1c0.1-0.2,0.2-0.3,0.3-0.5c0.2-0.3,0.3-0.7,0.3-1
		c0-0.1,0-0.2,0-0.2l0-0.3l0.2,0c2.9,0.3,6,1.4,6,2.7c0,0.2-0.1,0.4-0.2,0.6C190.4,213.6,190.1,213.8,189.8,214z M184.6,217.1
		L184.6,217.1l0-0.2l0.1,0c2.3-0.2,4.2-0.8,5.6-1.5l0.1-0.1l0.1,0.1c0.2,0.2,0.2,0.4,0.2,0.6c0,1-2.1,2.2-5.9,2.7
		c-0.2,0-0.3,0-0.4,0.1c-0.2,0-0.3,0-0.5,0.1c-0.1,0-0.1,0-0.1,0c0,0,0,0,0-0.1c0.1-0.2,0.2-0.3,0.3-0.4
		C184.4,217.7,184.6,217.3,184.6,217.1z M181,225.1c-1.6,0.6-3.8,1-6.2,1c-2.7,0-5.2-0.5-6.9-1.3c-0.6-0.3-1-0.6-1.2-0.9
		c-0.2-0.2-0.3-0.4-0.3-0.6c0-0.1,0-0.2,0.1-0.4c0-0.1,0.1-0.1,0.1-0.2l0.1-0.1l0.1,0.1c0.1,0.1,0.2,0.1,0.3,0.2
		c0.6,0.3,1.2,0.5,2,0.8c0.7,0.2,1.5,0.4,2.4,0.5c1.1,0.1,2.1,0.2,3.3,0.2c3.2,0,6.2-0.6,8-1.7l0.1-0.1l0.1,0.1
		c0.2,0.2,0.2,0.4,0.2,0.6C183.3,223.8,182.4,224.5,181,225.1z M183,220.7c-0.2,0.2-0.4,0.4-0.7,0.6c-0.3,0.2-0.6,0.3-1,0.5
		c-1.5,0.6-3.6,1-5.8,1.1l-0.1,0c-0.5,0-1.1,0-1.7,0c-0.8,0-1.5-0.1-2.2-0.2c-1.2-0.2-2.2-0.5-3.1-0.8c-0.2-0.1-0.3-0.1-0.4-0.2
		c-0.2-0.1-0.4-0.2-0.5-0.3c-0.3-0.2-0.5-0.4-0.7-0.6c-0.3-0.3-0.3-0.5-0.3-0.6c0-0.1,0-0.2,0.1-0.4c0-0.1,0.1-0.1,0.1-0.2l0.1-0.1
		l0.1,0.1c0.1,0.1,0.2,0.1,0.3,0.2l0,0c0.3,0.1,0.5,0.2,0.7,0.3c0.4,0.2,0.8,0.3,1.3,0.4c0.6,0.2,1.2,0.3,1.8,0.4
		c0.2,0,0.4,0.1,0.6,0.1c1,0.1,2,0.2,3,0.2l0.3,0c0.3,0,0.6,0,0.9,0c0.3,0,0.6,0,1-0.1c0.7-0.1,1.3-0.1,1.9-0.2
		c0.6-0.1,1.3-0.2,1.8-0.4c0.3-0.1,0.6-0.2,0.8-0.3c0.1-0.1,0.3-0.1,0.4-0.2c0.4-0.2,0.7-0.3,1-0.5l0.1-0.1l0.1,0.1
		c0.2,0.2,0.2,0.4,0.2,0.6c0,0.1,0,0.1,0,0.2C183.2,220.4,183.1,220.6,183,220.7z M183,217.5c-0.2,0.2-0.4,0.4-0.7,0.6
		c-0.3,0.2-0.6,0.3-1,0.5c-0.7,0.3-1.4,0.5-2.2,0.7l-0.3,0.1c-0.6,0.1-1.3,0.2-1.9,0.3l-0.3,0c-0.2,0-0.4,0-0.6,0
		c-0.1,0-0.3,0-0.4,0l-0.2,0c-0.2,0-0.3,0-0.5,0h0c-0.4,0-0.8,0-1.2,0c-0.8,0-1.5-0.1-2.2-0.2c-0.2,0-0.4-0.1-0.5-0.1
		c-1-0.2-1.8-0.4-2.5-0.7c-0.2-0.1-0.3-0.1-0.5-0.2c-0.2-0.1-0.4-0.2-0.5-0.3c-0.2-0.1-0.4-0.2-0.5-0.4c-0.1-0.1-0.1-0.1-0.2-0.2
		l-0.1-0.1c-0.1-0.2-0.2-0.4-0.2-0.6l0-0.1c0-0.1,0-0.2,0.1-0.2c0-0.1,0.1-0.2,0.2-0.2l0.1-0.1l0.1,0.1c0.1,0.1,0.3,0.1,0.4,0.2
		c0.1,0.1,0.3,0.1,0.4,0.2l0.2,0.1c0.4,0.2,0.8,0.3,1.3,0.4c0.6,0.2,1.2,0.3,1.8,0.4c0.2,0,0.4,0.1,0.6,0.1c0.6,0.1,1.3,0.1,1.9,0.2
		c0.2,0,0.3,0,0.5,0c0.1,0,0.3,0,0.4,0l0.4,0l0.5,0c0.1,0,0.2,0,0.3,0c0.4,0,0.7,0,1.1-0.1c0.2,0,0.3,0,0.4,0l0.1,0
		c0.4,0,0.9-0.1,1.3-0.2c0.6-0.1,1.3-0.2,1.9-0.4c0.3-0.1,0.6-0.2,0.8-0.3c0.2-0.1,0.3-0.1,0.5-0.2c0.4-0.2,0.7-0.3,1-0.5l0.1-0.1
		l0.1,0.1c0.2,0.2,0.3,0.4,0.3,0.6c0,0.1,0,0.1,0,0.2C183.2,217.3,183.1,217.4,183,217.5z M182.3,215c-0.3,0.2-0.6,0.3-1,0.5l-0.1,0
		c-0.6,0.3-1.4,0.5-2.2,0.6l-0.2,0c-0.7,0.1-1.3,0.2-1.9,0.3l-0.3,0c-0.2,0-0.4,0-0.6,0c-0.1,0-0.3,0-0.4,0c-0.3,0-0.4,0-0.6,0
		l-0.1,0l0,0c-0.1,0-0.2,0-0.3,0l-0.2,0c-0.2,0-0.4,0-0.6,0l-0.4,0c-0.3,0-0.6,0-0.9-0.1c-0.3,0-0.6-0.1-0.9-0.1
		c-0.2,0-0.4-0.1-0.5-0.1c-1-0.2-1.8-0.4-2.6-0.7c-0.1-0.1-0.3-0.1-0.4-0.2c-0.2-0.1-0.4-0.2-0.6-0.3c-0.2-0.1-0.4-0.2-0.5-0.4
		c-0.1-0.1-0.1-0.1-0.2-0.2l-0.1-0.1c-0.2-0.2-0.2-0.4-0.3-0.6l0-0.1c0-0.1,0-0.2,0.1-0.2c0-0.1,0.1-0.2,0.2-0.2l0.1-0.1l0.1,0.1
		c0.1,0.1,0.3,0.1,0.4,0.2c0.1,0.1,0.3,0.1,0.4,0.2l0.2,0.1c0.4,0.2,0.8,0.3,1.3,0.4c0.6,0.2,1.2,0.3,1.8,0.4c0.2,0,0.4,0.1,0.6,0.1
		c0.3,0,0.6,0.1,0.9,0.1c0,0,0,0,0.1,0c0.1,0,0.2,0,0.2,0l0.2,0c0.1,0,0.2,0,0.3,0l0.6,0l0,0l0.1,0c0.2,0,0.4,0,0.5,0l0.7,0
		c0.1,0,0.3,0,0.4,0l0.1,0c0.3,0,0.6,0,1-0.1l0.5,0c0.5,0,0.9-0.1,1.3-0.2c0.6-0.1,1.3-0.2,1.8-0.4c0.5-0.1,0.9-0.3,1.3-0.4
		c0.3-0.1,0.7-0.3,1-0.5l0.2-0.1l0.1,0.1c0.2,0.2,0.2,0.4,0.2,0.6c0,0.2-0.1,0.4-0.3,0.6C182.8,214.6,182.6,214.8,182.3,215z
		 M182.4,211.7l-0.2,0.1c-0.3,0.2-0.6,0.3-1,0.5c-0.3,0.1-0.7,0.3-1.1,0.4c-0.5,0.1-1,0.3-1.5,0.4c-0.6,0.1-1.2,0.2-1.8,0.2
		c-0.3,0-0.6,0.1-1,0.1l-0.5,0c-0.2,0-0.4,0-0.6,0l-0.6,0c-0.2,0-0.4,0-0.6,0l-0.4,0c-0.3,0-0.6,0-0.9-0.1c-0.3,0-0.6-0.1-0.9-0.1
		c-0.2,0-0.4-0.1-0.5-0.1c-1-0.2-1.9-0.4-2.6-0.7c-0.4-0.2-0.7-0.3-1-0.5c-0.2-0.1-0.3-0.2-0.5-0.4c-0.1-0.1-0.2-0.2-0.3-0.3
		c-0.2-0.2-0.2-0.4-0.2-0.6l0-0.1c0-0.2,0.1-0.3,0.2-0.5l0.1-0.1l0.1,0.1c0.2,0.1,0.5,0.3,0.8,0.4l0.2,0.1c0.4,0.2,0.8,0.3,1.3,0.4
		c0.6,0.2,1.2,0.3,1.8,0.4c0.5,0.1,1.1,0.2,1.7,0.2c0.3,0,0.6,0.1,1,0.1l0.4,0c0.2,0,0.4,0,0.5,0l0.3,0c0.3,0,0.6,0,0.9,0
		c0.4,0,0.7,0,1.1-0.1c0.7-0.1,1.3-0.1,1.9-0.2c0.6-0.1,1.2-0.2,1.8-0.4c0.5-0.1,0.9-0.3,1.3-0.4c0.3-0.1,0.7-0.3,0.9-0.4l0.2-0.1
		l0.1,0.1c0.2,0.2,0.2,0.4,0.2,0.6c0,0.2-0.1,0.4-0.2,0.6C182.9,211.4,182.7,211.5,182.4,211.7z M182.3,208.6
		c-0.1,0.1-0.1,0.1-0.2,0.1c-0.3,0.2-0.6,0.3-1,0.5c-0.3,0.1-0.7,0.3-1.1,0.4c-0.4,0.1-0.9,0.2-1.5,0.4c-0.6,0.1-1.2,0.2-1.9,0.3
		c-0.4,0-0.7,0.1-1,0.1c-0.4,0-0.7,0-1,0l-0.1,0l0,0c-0.1,0-0.2,0-0.3,0l-0.2,0c-1.2,0-2.4-0.1-3.5-0.3c-1-0.2-1.8-0.4-2.5-0.7
		c-0.4-0.2-0.7-0.3-1-0.5c-0.2-0.1-0.3-0.2-0.5-0.4c-0.1-0.1-0.2-0.2-0.3-0.3c-0.2-0.2-0.2-0.4-0.2-0.6l0-0.1c0-0.3,0.3-0.6,0.7-0.9
		c1.2-0.8,3.8-1.7,7.7-1.7c2.3,0,4.5,0.3,6.2,1c1.4,0.5,2.2,1.2,2.2,1.8c0,0.2-0.1,0.4-0.2,0.6C182.7,208.2,182.5,208.4,182.3,208.6
		z M165.2,216.1c-0.1,0.1-0.1,0.3-0.1,0.5l0,0.1l-0.1,0c-0.6-0.1-1.2-0.1-1.8-0.3c-1-0.2-1.8-0.4-2.5-0.7c-0.4-0.2-0.7-0.3-1-0.5
		c-0.3-0.2-0.6-0.4-0.7-0.6c-0.2-0.2-0.2-0.4-0.2-0.6s0.1-0.4,0.2-0.6l0.1-0.1l0.1,0.1c0.3,0.2,0.6,0.3,1,0.5
		c0.4,0.2,0.8,0.3,1.3,0.4c0.6,0.2,1.2,0.3,1.8,0.4c0.7,0.1,1.4,0.2,2.2,0.3l0.1,0l0,0.1c0,0.1,0.1,0.1,0.2,0.2l0.1,0.1l-0.1,0.1
		C165.5,215.7,165.3,215.9,165.2,216.1z M165.6,212.1L165.6,212.1l0,0.2c-0.2,0.2-0.3,0.4-0.4,0.7c-0.1,0.1-0.1,0.3-0.1,0.5l0,0.1
		l-0.1,0c-0.6-0.1-1.2-0.1-1.8-0.3c-1-0.2-1.8-0.4-2.5-0.7c-0.4-0.2-0.7-0.3-1-0.5c-0.3-0.2-0.6-0.4-0.7-0.6
		c-0.2-0.2-0.2-0.4-0.2-0.6c0-1.3,3.3-2.4,6.4-2.7l0.1,0l0,0.1c0.1,0.2,0.2,0.5,0.4,0.7l0.1,0.1l-0.1,0.1c-0.2,0.2-0.3,0.4-0.4,0.7
		c-0.1,0.3-0.2,0.5-0.2,0.8c0,0.3,0.1,0.5,0.2,0.8C165.3,211.6,165.4,211.9,165.6,212.1z M159,216.5l0.1,0.1c0.3,0.2,0.6,0.3,1,0.5
		c0.4,0.2,0.8,0.3,1.3,0.4c0.6,0.2,1.2,0.3,1.8,0.4c0.7,0.1,1.4,0.2,2.2,0.3l0.1,0l0,0.1c0,0.1,0.1,0.1,0.2,0.2l0.1,0.1l-0.1,0.1
		c-0.3,0.3-0.5,0.7-0.5,1.1l0,0.1l-0.1,0c-1.7-0.2-3.2-0.5-4.3-1c-0.4-0.2-0.7-0.3-1-0.5c-0.3-0.2-0.6-0.4-0.7-0.6
		c-0.2-0.2-0.2-0.4-0.2-0.6c0-0.2,0.1-0.4,0.2-0.6L159,216.5z M159,219.6l0.1,0.1c1.5,0.9,3.7,1.4,6.3,1.6l0.1,0l0,0.1
		c0.1,0.1,0.1,0.2,0.2,0.2l0.1,0.1l-0.1,0.1c-0.3,0.3-0.5,0.7-0.5,1.1l0,0.1l-0.1,0c-3-0.3-6.3-1.4-6.3-2.7c0-0.2,0.1-0.4,0.2-0.6
		L159,219.6z"/>
	<path class="st0" d="M189.9,166.6l-10.1,8.7c-0.1,0.1-0.3,0.2-0.4,0.3c0,0-0.1,0-0.1,0.1c-0.1,0.1-0.3,0.1-0.4,0.2c0,0-0.1,0-0.1,0
		c-0.2,0-0.4,0.1-0.5,0.1c0,0,0,0,0,0c0,0,0,0,0,0c-0.2,0-0.3,0-0.5-0.1c0,0-0.1,0-0.1,0c-0.1,0-0.3-0.1-0.4-0.1c0,0,0,0-0.1,0
		c-0.1-0.1-0.2-0.1-0.4-0.2l-6.4-4.5l-7.2,7.6c-0.5,0.5-1.2,0.8-1.8,0.8c-0.6,0-1.3-0.2-1.8-0.7c-1-1-1-2.7-0.1-3.7l8.7-9.2
		c0,0,0,0,0,0c0.1-0.1,0.2-0.1,0.2-0.2c0.1,0,0.1-0.1,0.2-0.1c0.1-0.1,0.2-0.1,0.2-0.1c0.1,0,0.1-0.1,0.2-0.1c0.1,0,0.2-0.1,0.2-0.1
		c0.1,0,0.2-0.1,0.2-0.1s0.2,0,0.2,0c0.1,0,0.2,0,0.2,0c0.1,0,0.2,0,0.3,0c0.1,0,0.2,0,0.2,0c0.1,0,0.2,0,0.2,0.1
		c0.1,0,0.2,0,0.3,0.1c0.1,0,0.1,0.1,0.2,0.1c0.1,0,0.2,0.1,0.3,0.1c0,0,0,0,0,0l6.6,4.6l8.6-7.4c1.1-0.9,2.7-0.8,3.6,0.3
		C191.1,164,191,165.6,189.9,166.6z"/>
	<path class="st0" d="M189.1,136.6h-10.4h-18.1c-0.2,0-0.3-0.2-0.3-0.3v-2.8c0-0.2,0.2-0.3,0.3-0.3h18.1h10.4c0.2,0,0.3,0.2,0.3,0.3
		v2.8C189.5,136.4,189.3,136.6,189.1,136.6z M175.8,127.4c-0.2,0.6-0.5,0.8-0.8,0.8c0,0-0.1,0-0.1,0h-0.1c-0.2,0-0.4-0.1-0.6-0.3
		c-0.1-0.1-0.3-0.3-0.3-0.6l-5.3-14.1c-0.2-0.5-0.1-0.9,0.1-1.2l0.1-0.1c0.3-0.3,0.7-0.4,1.2-0.2l2.4,0.7c0.1,0,0.3,0,0.4,0
		c0.1-0.1,0.1-0.2,0.1-0.3l0-6.5c0-1,0.8-1.8,1.8-1.8h0.1c0.5,0,0.9,0.2,1.3,0.5c0.3,0.3,0.5,0.8,0.5,1.3l0,6.5c0,0.1,0,0.2,0.1,0.3
		c0.1,0.1,0.3,0.1,0.4,0.1l2.5-0.7c0.7-0.2,1.1,0,1.2,0.2l0.1,0.1c0.3,0.3,0.3,0.8,0.1,1.2L175.8,127.4z"/>
	<path class="st0" d="M187.3,80.8c0.8,0.7,0.7,1.9,0,2.7l-0.1,0.1c-0.4,0.4-0.8,0.6-1.4,0.6c-0.5,0-1-0.2-1.4-0.6l-4.9-4.9
		c-0.1-0.1-0.2-0.2-0.3-0.2c-0.2,0-0.3,0.2-0.3,0.2l-1.3,2.3c-0.4,0.6-0.8,0.8-1.1,0.8l-0.1,0c-0.4,0-0.8-0.3-1-0.8l-6.7-14.5
		c-0.3-0.6-0.2-1,0-1.2c0,0,0-0.1,0.1-0.1l0.1-0.1c0.2-0.1,0.4-0.2,0.6-0.2c0.2,0,0.4,0.1,0.7,0.2l14.7,6.7c0.5,0.2,0.8,0.6,0.9,1
		l0,0.1c0,0.4-0.3,0.8-0.8,1.1l-2.4,1.3c-0.1,0.1-0.2,0.2-0.2,0.3c0,0.1,0,0.2,0.2,0.4L187.3,80.8z M175.1,62.4
		c-0.2,0.2-0.5,0.3-0.8,0.3s-0.6-0.1-0.8-0.3l0,0c-0.5-0.5-0.5-1.2,0-1.6l3.4-3.3c0.2-0.2,0.5-0.3,0.8-0.3c0.3,0,0.6,0.1,0.8,0.3
		l0,0c0.5,0.5,0.5,1.2,0,1.6L175.1,62.4z M169.8,61L169.8,61c-0.7,0-1.2-0.5-1.2-1.2v-4.7c0-0.6,0.5-1.2,1.2-1.2h0.1
		c0.6,0,1.2,0.5,1.2,1.2v4.7C171,60.4,170.5,61,169.8,61z M166.2,62.4c-0.2,0.2-0.5,0.3-0.8,0.3c-0.3,0-0.6-0.1-0.8-0.3l-3.3-3.3
		c-0.5-0.5-0.5-1.2,0-1.6l0,0c0.2-0.2,0.5-0.3,0.8-0.3c0.3,0,0.6,0.1,0.8,0.3l3.4,3.3c0.2,0.2,0.3,0.5,0.3,0.8
		C166.6,61.9,166.5,62.2,166.2,62.4L166.2,62.4z M164.7,65.9L164.7,65.9c0,0.7-0.5,1.2-1.2,1.2h-4.7c-0.6,0-1.2-0.5-1.2-1.2v-0.1
		c0-0.6,0.5-1.2,1.2-1.2h4.7C164.2,64.8,164.7,65.3,164.7,65.9z M164.5,69.5c0.2-0.2,0.5-0.3,0.8-0.3c0.3,0,0.6,0.1,0.8,0.3l0,0
		c0.2,0.2,0.3,0.5,0.3,0.8c0,0.3-0.1,0.6-0.3,0.8l-3.4,3.3c-0.2,0.2-0.5,0.3-0.8,0.3c-0.3,0-0.6-0.1-0.8-0.3l0,0
		c-0.5-0.5-0.5-1.2,0-1.6L164.5,69.5z"/>
</g>
<rect x="105" y="37.5" class="st1" width="2" height="11"/>
<rect x="105" y="61.5" class="st1" width="2" height="20"/>
<rect x="105" y="86.5" class="st1" width="2" height="20"/>
<rect x="241" y="61.5" class="st0" width="2" height="20"/>
<path class="st1" d="M185,24.5h-20c-2.2,0-4-1.8-4-4s1.8-4,4-4h20c2.2,0,4,1.8,4,4S187.2,24.5,185,24.5z M165,18.5c-1.1,0-2,0.9-2,2
	s0.9,2,2,2h20c1.1,0,2-0.9,2-2s-0.9-2-2-2H165z"/>
<polygon class="st0" points="369.8,142.1 369.8,172.1 395.3,157.1 "/>
<circle class="st1" cx="292.5" cy="155" r="2.5"/>
<circle class="st1" cx="304.5" cy="155" r="2.5"/>
<circle class="st1" cx="315.5" cy="155" r="2.5"/>
<circle class="st1" cx="327.5" cy="155" r="2.5"/>
<circle class="st1" cx="338.5" cy="155" r="2.5"/>
<circle class="st1" cx="350.5" cy="155" r="2.5"/>
<circle class="st1" cx="361.5" cy="155" r="2.5"/>
<path class="st1" d="M481,130.5l-1,2h-48v-34h166v34h-49l-1-2h48v-30H434v30H481z"/>
<path class="st1" d="M549,178.5l1-2h48v34H432v-34h49l1,2h-48v30h162v-30H549z"/>
<path class="st1" d="M477,137.5l-1,2h-42v30h42l1,2h-45v-34H477z"/>
<path class="st1" d="M552,137.5C552,137.5,552,137.5,552,137.5c0.2,0.4,1,2,1,2h43v30h-42l-1,2h45v-34"/>
<path class="st1" d="M450,122.5c3.9,0,7-3.1,7-7c0-3.9-3.1-7-7-7c-3.9,0-7,3.1-7,7C443,119.3,446.1,122.5,450,122.5z M450,110.5
	c2.8,0,5,2.2,5,5s-2.2,5-5,5s-5-2.2-5-5S447.2,110.5,450,110.5z"/>
<path class="st1" d="M450,147.5c-3.9,0-7,3.1-7,7c0,3.9,3.1,7,7,7c3.9,0,7-3.1,7-7C457,150.6,453.9,147.5,450,147.5z M450,159.5
	c-2.8,0-5-2.2-5-5s2.2-5,5-5s5,2.2,5,5S452.8,159.5,450,159.5z"/>
<path class="st1" d="M450,186.5c-3.9,0-7,3.1-7,7c0,3.9,3.1,7,7,7c3.9,0,7-3.1,7-7C457,189.6,453.9,186.5,450,186.5z M450,198.5
	c-2.8,0-5-2.2-5-5s2.2-5,5-5s5,2.2,5,5S452.8,198.5,450,198.5z"/>
<path class="st3" d="M550.3,155.1c0-19.3-15.7-35-35.1-35c-19.3,0-35.1,15.7-35.1,35s15.7,35,35.1,35
	C534.6,190.1,550.3,174.4,550.3,155.1L550.3,155.1z M545.8,155.1c0,16.8-13.7,30.5-30.6,30.5c-16.9,0-30.6-13.7-30.6-30.5
	s13.7-30.5,30.6-30.5C532.1,124.6,545.8,138.2,545.8,155.1L545.8,155.1z M531.9,171.8l3.8-3.8l-15.3-34.2h-5.8l-6.9,15.8l-0.8-0.4
	c-4.1-2-7.3-3-9.7-3c-3.1,0-4.5,1.7-5.1,2.7c-1.7,3-0.7,7.3,3,12.9c1.4,2.1,2.8,4,3.9,5.3h5.5l2.3-5.1l-2.4-5.4l-2.8,6.1l-0.9-1.2
	c-0.6-0.8-1.2-1.7-1.7-2.5c-3-4.6-3.5-7-2.8-7.8c0.6-0.8,4.4,0.3,8.6,2.3c2.3,1,4.6,2.3,6.9,3.9c1.6,1,3.4,2.2,5.2,3.4
	C523.6,165.4,529.7,170.1,531.9,171.8L531.9,171.8z M528.4,163.1l-2.5-1.8c-4.9-3.6-9.5-6.6-13.5-9l-0.9-0.6l5.8-13.1L528.4,163.1
	L528.4,163.1z"/>
</svg>
