<?xml version="1.0" encoding="UTF-8"?>
<svg width="34px" height="34px" viewBox="0 0 34 35" xmlns="http://www.w3.org/2000/svg">
  <g fill="none" fill-rule="evenodd">
    <g transform="translate(-1e-5 -3.9e-5)">
      <path d="m33.675 14.279h-16.333v6.7507h9.333c-0.18715 1.0162-0.55433 1.9586-1.0766 2.8021-0.59904 0.96755-1.4027 1.8043-2.3838 2.4654l5.6045 4.3788c1.9562-1.8125 3.4183-4.1361 4.28-6.8442 0.58277-1.8315 0.89111-3.8387 0.89111-5.983 0-1.2375-0.11028-2.4275-0.31526-3.5697" fill="#3E82F1"/>
      <g transform="translate(1.754 20.689)">
        <mask id="a" fill="#fff">
          <polygon points="0.091 14.216 27.066 14.216 27.066 0.08 0.091 0.08"/>
        </mask>
        <path d="m21.461 5.6087c-1.553 1.0472-3.5394 1.6659-5.8726 1.6659-0.023284 0-0.04608-0.0012745-0.069266-0.0013726-3.2715-0.022941-6.1722-1.6558-8.0298-4.1298-0.64892-0.86422-1.17-1.8306-1.5355-2.8673-0.023089-0.065588-0.047347-0.13059-0.069169-0.19657l-5.7937 4.5217c1.3522 2.703 3.3812 5.0029 5.8629 6.6753 2.7371 1.8443 6.0252 2.9247 9.5653 2.9385 0.023089 9.81e-5 0.04608 6.863e-4 0.069266 6.863e-4 4.6823 0 8.6079-1.5627 11.477-4.2282l-5.6045-4.3788z" fill="#32A753" mask="url(#a)"/>
      </g>
      <path d="m7.6384 14.136-3.9259-3.0637-1.868-1.4578c-0.23615 0.47363-0.45087 0.96039-0.64483 1.4578-0.77099 1.9766-1.1997 4.1297-1.1997 6.3796 0 2.2499 0.42875 4.4031 1.1996 6.3798 0.19406 0.49735 0.40878 0.98422 0.64493 1.4578l5.7938-4.5217c-0.34692-1.0472-0.544-2.1657-0.544-3.316 0-1.1502 0.19708-2.2687 0.544-3.3159" fill="#F9BB00"/>
      <path d="m17.342 3.9216e-5c-0.023089 0-0.046178 4.902e-4 -0.069266 5.8824e-4 -6.7498 0.026569-12.584 3.9297-15.428 9.614l1.868 1.4577 3.9259 3.0638c0.021725-0.066078 0.045983-0.13108 0.069072-0.19667 0.36543-1.0366 0.88653-2.0029 1.5354-2.8672 1.8578-2.4739 4.7583-4.1069 8.0299-4.1297 0.023186-1.9607e-4 0.04608-0.0014706 0.069266-0.0014706 2.5461 0 4.8321 0.88059 6.6294 2.6099l4.9363-4.9677 0.037605-0.037843c-3.0033-2.8161-6.9289-4.5455-11.603-4.5455" fill="#E74133"/>
    </g>
  </g>
</svg>
