<?xml version="1.0" encoding="UTF-8"?>
<svg viewBox="0 0 34 35" xmlns="http://www.w3.org/2000/svg">
  <g fill="none" fill-rule="evenodd">
    <path d="m3.152 24.116-1.308 1.014c-0.236-0.47-0.451-0.954-0.645-1.448-0.771-1.965-1.199-4.104-1.199-6.34s0.428-4.375 1.199-6.339c0.194-0.495 0.409-0.978 0.645-1.449l1.868 1.449 3.926 3.044c-0.347 1.041-0.544 2.152-0.544 3.295s0.197 2.255 0.544 3.295l-3.926 3.045-0.56 0.434 0.56-0.434 3.926-3.045c0.022 0.066 0.046 0.13 0.069 0.195 0.366 1.031 0.887 1.991 1.536 2.85 1.857 2.458 4.758 4.081 8.03 4.103 0.023 1e-3 0.045 2e-3 0.069 2e-3 2.333 0 4.319-0.615 5.872-1.656l5.605 4.352c-2.869 2.648-6.795 4.201-11.477 4.201h-0.069c-3.541-0.014-6.829-1.088-9.566-2.92-2.481-1.662-4.51-3.948-5.863-6.634l1.308-1.014zm30.523-9.927c0.205 1.135 0.315 2.318 0.315 3.547 0 2.131-0.308 4.126-0.891 5.946-0.862 2.691-2.324 5-4.28 6.801l-5.605-4.352c0.982-0.657 1.785-1.488 2.384-2.449 0.523-0.839 0.89-1.775 1.077-2.785h-9.333v-6.708h16.333zm-16.333-14.189c4.674 0 8.6 1.719 11.603 4.517l-0.038 0.037-4.936 4.937c-1.797-1.719-4.083-2.594-6.629-2.594-0.023 0-0.046 2e-3 -0.07 2e-3 -3.271 0.023-6.172 1.645-8.029 4.104-0.649 0.858-1.17 1.819-1.536 2.849-0.023 0.065-0.047 0.129-0.069 0.195l-3.926-3.044-1.868-1.449c2.844-5.648 8.679-9.527 15.428-9.553 0.024-1e-3 0.047-1e-3 0.07-1e-3z" fill="#8A95B3"/>
  </g>
</svg>
