<?xml version="1.0" encoding="UTF-8"?>
<svg version="1.1" viewBox="0 0 42 42" xmlns="http://www.w3.org/2000/svg">
  <g transform="translate(0 12.172)" fill="none" fill-rule="evenodd">
    <g transform="translate(-1282 -570)" fill="#8595B9" fill-rule="nonzero">
      <g transform="translate(1241 400)">
        <g transform="translate(27 143)">
          <path d="m26.104 44v-3.936h-6.086l0.37625-0.26175 0.44175-0.30225c0.6-0.408 1.188-0.852 1.764-1.332s1.108-0.996 1.596-1.548 0.872-1.156 1.152-1.812 0.42-1.368 0.42-2.136c0-1.104-0.216-2.028-0.648-2.772s-1.06-1.304-1.884-1.68-1.82-0.564-2.988-0.564c-1.216 0-2.268 0.156-3.156 0.468s-1.66 0.676-2.316 1.092v3.624c0.72-0.56 1.4-1.016 2.04-1.368s1.328-0.528 2.064-0.528c0.416 0 0.82 0.076 1.212 0.228s0.712 0.4 0.96 0.744 0.372 0.812 0.372 1.404c0 0.512-0.148 1.056-0.444 1.632s-0.684 1.152-1.164 1.728-1.016 1.14-1.608 1.692-1.2 1.052-1.824 1.5-1.208 0.824-1.752 1.128v3h11.472zm7.1649 0v-5.928h5.832v-3.336h-5.832v-3.432h6.768v-3.312h-11.112v16.008h4.344zm10.285 0 1.0142-3.144h5.728l1.0338 3.144h4.464l-5.52-16.008h-4.8l-5.976 16.008h4.056zm5.7242-6.24h-3.71l1.839-5.694 1.871 5.694z"/>
        </g>
      </g>
    </g>
  </g>
</svg>
