<svg xmlns="http://www.w3.org/2000/svg" xmlns:xlink="http://www.w3.org/1999/xlink" id="Ebene_1" x="0" y="0" version="1.1" viewBox="-204 228.9 188.8 385" xml:space="preserve" style="enable-background:new -204 228.9 188.8 385"><style type="text/css">.st0{fill:#93a2b6}.st1{fill:#00bed5}</style><path d="M-95.6,258.8h-28.8c-1.4,0-2.5-1.1-2.5-2.5V254c0-1.4,1.1-2.5,2.5-2.5h28.8c1.4,0,2.5,1.1,2.5,2.5v2.2	C-93,257.6-94.2,258.8-95.6,258.8z M-124.4,253.5c-0.3,0-0.5,0.2-0.5,0.5v2.2c0,0.3,0.2,0.5,0.5,0.5h28.8c0.3,0,0.5-0.2,0.5-0.5V254	c0-0.3-0.2-0.5-0.5-0.5H-124.4z" class="st0"/><path d="M-139.3,260.1c-2.8,0-5-2.2-5-5c0-2.8,2.2-5,5-5s5,2.2,5,5C-134.3,257.9-136.5,260.1-139.3,260.1z M-139.3,252.1c-1.7,0-3,1.3-3,3c0,1.7,1.3,3,3,3s3-1.3,3-3C-136.3,253.5-137.6,252.1-139.3,252.1z" class="st0"/><path d="M-110.5,247.1c-2.4,0-4.3-1.9-4.3-4.3c0-2.4,1.9-4.3,4.3-4.3s4.3,1.9,4.3,4.3	C-106.2,245.2-108.1,247.1-110.5,247.1z M-110.5,240.5c-1.3,0-2.3,1-2.3,2.3c0,1.3,1,2.3,2.3,2.3c1.3,0,2.3-1,2.3-2.3	C-108.2,241.5-109.2,240.5-110.5,240.5z" class="st0"/><path d="M-110.3,605.9c-9,0-16.3-7.3-16.3-16.3c0-9,7.3-16.3,16.3-16.3c9,0,16.3,7.3,16.3,16.3	C-94,598.6-101.3,605.9-110.3,605.9z M-110.3,575.3c-7.9,0-14.3,6.4-14.3,14.3c0,7.9,6.4,14.3,14.3,14.3s14.3-6.4,14.3-14.3	C-96,581.8-102.4,575.3-110.3,575.3z" class="st0"/><path d="M-26.5,570h-166.8V276.8h166.8V570z M-191.4,568h162.8V278.8h-162.8V568z" class="st0"/><path d="M-15.2,310h-2v-54.5c0-14.7-12-26.6-26.7-26.6H-176c-14.7,0-26.7,11.9-26.7,26.6v21.3h-1.3v16h1.3V310h-1.3	v27.9h1.3v6.6h-1.3v29.3h1.3v213.4c0,14.7,12,26.6,26.7,26.6h132.1c14.7,0,26.7-11.9,26.7-26.6V337.9h2V310z M-19.2,587.3	c0,13.6-11.1,24.6-24.7,24.6H-176c-13.6,0-24.7-11-24.7-24.6V255.5c0-13.6,11.1-24.6,24.7-24.6h132.1c13.6,0,24.7,11,24.7,24.6	V587.3z" class="st0"/><path d="M-68.8,399.6c-0.2,0.8-1.1,1.3-1.9,1l0,0l-5.6-1.7l-0.4,0.6c-1.1,1.7-2.3,3.3-3.8,4.7l-0.5,0.5l2.7,5.2	c0.4,0.7,0.1,1.7-0.6,2.1l-2.4,1.3l-3.7,2c-0.7,0.4-1.7,0.1-2.1-0.6l-2.7-5.2l-0.7,0.2c-1.9,0.5-3.9,0.7-6,0.6l-0.7,0l-1.7,5.6	c-0.1,0.4-0.4,0.7-0.7,0.9c-0.4,0.2-0.8,0.2-1.2,0.1l-6.6-2c-0.8-0.2-1.3-1.1-1-1.9l1.7-5.6l-0.6-0.4c-1.7-1.1-3.3-2.3-4.6-3.8	l-0.5-0.5l-5.1,2.8c-0.4,0.2-0.8,0.2-1.2,0.1s-0.7-0.4-0.9-0.7l-2-3.8l-1.2-2.3c-0.2-0.4-0.2-0.8-0.1-1.2c0.1-0.4,0.4-0.7,0.7-0.9	l2-1.1l3.1-1.7l-0.2-0.7c-0.5-2-0.7-4-0.6-6l0-0.7l-5.6-1.7c-0.8-0.2-1.3-1.1-1-1.9l2-6.6c0.2-0.8,1.1-1.3,1.9-1l5.6,1.7l0.4-0.6	c1.1-1.7,2.3-3.3,3.8-4.7l0.5-0.5l-2.7-5.2c-0.4-0.7-0.1-1.7,0.6-2.1l6.1-3.2c0.4-0.2,0.8-0.2,1.2-0.1c0.4,0.1,0.7,0.4,0.9,0.7	l2.7,5.2l0.7-0.2c1.9-0.5,4-0.7,6-0.6l0.7,0l1.7-5.6c0.2-0.8,1.1-1.3,1.9-1l6.6,2c0.8,0.2,1.3,1.1,1,1.9l-1.7,5.6l0.6,0.4	c1.7,1.1,3.3,2.3,4.6,3.8l0.5,0.5l5.1-2.7c0.4-0.2,0.8-0.2,1.2-0.1c0.4,0.1,0.7,0.4,0.9,0.7l3.2,6.1c0.2,0.4,0.2,0.8,0.1,1.2	c-0.1,0.4-0.4,0.7-0.7,0.9l-5.1,2.8l0.2,0.7c0.5,2,0.7,4,0.6,6l0,0.7l5.6,1.7c0.8,0.2,1.3,1.1,1,1.9L-68.8,399.6z M-88.4,384	c-1-1.9-2.7-3.3-4.7-3.9c-2-0.6-4.2-0.4-6.1,0.6c-1.9,1-3.2,2.7-3.9,4.7c-0.6,2-0.4,4.2,0.6,6.1c0.4,0.7,0.8,1.3,1.4,1.9	c1.5,1.5,3.6,2.4,5.6,2.4c1.3,0,2.5-0.3,3.7-0.9c1.6-0.9,2.8-2.2,3.5-3.8C-87.3,388.8-87.3,386.3-88.4,384z M-92.6,393.2	c-2.3,1.2-5,0.8-6.8-0.7l7-3.8l2.6,1.4C-90.3,391.4-91.3,392.5-92.6,393.2z M-122.9,394.7c-0.8,0.4-1.4,1.1-1.6,2s-0.2,1.8,0.2,2.5	l1.2,2.3l-5.6,3c-0.3,0-0.6,0-0.8,0.1l-5.4,1.8c-0.7,0.2-1.3,0.8-1.7,1.5c-0.2,0.4-0.3,0.7-0.3,1.1l-10.6,5.7l-16.5-9.2l31.5-17.2	l10.7,5.8L-122.9,394.7z M-147.1,418.3l0.4-0.2l1.4,0.7l15.1,8.2l0,0l1.6,0.9l0,0l8.7,4.7l0,0l1.6,0.9l0,0l3.5,1.9h0h0l-16.8,9.1	l-7.5-4.1l-1.4-0.8l-6.7-3.6l-16.1-8.7L-147.1,418.3L-147.1,418.3z M-148.4,439l2.3,1.2l0,0v0l1.4,0.7l0,0l2.2,1.2h0l4.2,2.2h0	l1.9,1l4.7,2.6l17.7-9.9v0v7.2v3.5v3.2v1.9v25l0,0l-34.8-17.4v-22.8l0,0L-148.4,439L-148.4,439z M-117.5,431.2	c0-0.2,0.1-0.5,0.1-0.7c0,0,0-0.1,0-0.1c0-0.2,0-0.4,0-0.6c0-0.1,0-0.1,0-0.2c0-0.2,0-0.4-0.1-0.6c0-0.1,0-0.1,0-0.2	c-0.1-0.2-0.1-0.5-0.2-0.7c-1.1-3.6-5-5.5-8.5-4.4c-0.2,0.1-0.5,0.2-0.7,0.3c0,0-0.1,0-0.1,0c-0.2,0.1-0.4,0.2-0.6,0.3c0,0,0,0,0,0	c-0.4,0.2-0.8,0.5-1.1,0.8l-15.5-8.4l0,0c0.3-0.5,1-0.8,1.5-0.5l4.4,2.3l0.5-0.5c1.1-1.2,2.4-2.3,3.8-3.2l0.6-0.4l-1.5-4.7	c-0.1-0.3-0.1-0.6,0.1-0.9c0.1-0.3,0.4-0.5,0.6-0.6l5.4-1.8c0.6-0.2,1.2,0.1,1.4,0.7l1.5,4.7l0.7,0c1.6-0.1,3.3,0,4.9,0.4l0.7,0.2	l2.3-4.4c0.1-0.3,0.4-0.5,0.6-0.6c0.3-0.1,0.6-0.1,0.8,0.1l5.1,2.6c0.5,0.3,0.8,1,0.5,1.5l-2.3,4.4l0.5,0.5c1.2,1.1,2.3,2.4,3.2,3.8	l0.4,0.6l4.7-1.5c0.3-0.1,0.6-0.1,0.8,0.1c0.3,0.1,0.5,0.4,0.6,0.6l1.8,5.4c0.1,0.3,0.1,0.6-0.1,0.9c-0.1,0.3-0.4,0.5-0.6,0.6	l-4.7,1.5l0,0.7c0,0.5,0,1,0,1.5l-4.9,2.7l-1.4,0.8l-1.4-0.8L-117.5,431.2C-117.5,431.2-117.5,431.2-117.5,431.2z M-101.9,443	l8.7,4.9l17-9.1v22.7l-34.8,17.4v-33.6v-2.5V438l7.5,4.2L-101.9,443z M-93.2,444.5l-9-5l-7.6-4.2l3.4-1.9l0,0l2-1.1l26.1-14.3	l16.9,9.2l0,0v0L-93.2,444.5z M-78.7,405c1.2-1.2,2.3-2.5,3.2-4l4.3,1.3c1,0.3,2,0.1,2.9-0.5l7.3,4l-16.5,9.2l-1.8-0.9l1.3-0.7	c1.6-0.9,2.2-2.9,1.4-4.5L-78.7,405z" class="st1"/></svg>