<svg xmlns="http://www.w3.org/2000/svg"><metadata/><defs><font id="maven_problack" horiz-adv-x="1159"><font-face ascent="1638" descent="-410" units-per-em="2048"/><glyph horiz-adv-x="2048"/><glyph horiz-adv-x="2048"/><glyph horiz-adv-x="682"/><glyph horiz-adv-x="692"/><glyph horiz-adv-x="692"/><glyph horiz-adv-x="692"/><glyph d="M279 1366h354l-45 -975h-264zM297 0v262h317v-262h-317z" horiz-adv-x="882" unicode="!"/><glyph d="M166 1384h254l-35 -411h-182zM477 1384h254l-35 -411h-182z" horiz-adv-x="899" unicode="&quot;"/><glyph d="M152 248v186h176q4 27 19 110l24 132h-164v184h194l37 209h197l-37 -209h217q33 170 37 209h197l-39 -209h125v-184h-154q-4 -27 -20.5 -111t-22.5 -131h143v-186h-174q-6 -37 -19.5 -111t-17.5 -98h-196l37 209h-219q-8 -43 -35 -209h-197l39 209h-147zM524 434h221 l39 242h-217q-6 -47 -22.5 -131t-20.5 -111z" horiz-adv-x="1288" unicode="#"/><glyph d="M147 952q0 193 123 299.5t316 120.5v217h125v-215q168 -14 311 -92v-307q-162 96 -311 98v-244q88 -25 148.5 -50t129 -73.5t104 -129t35.5 -189.5q0 -164 -118.5 -272.5t-298.5 -128.5v-207h-125v203q-250 12 -422 133v329q189 -157 419 -157h3v243q-94 23 -154.5 45.5 t-134.5 68.5t-112 123t-38 185zM457 958q0 -57 129 -96v203q-129 -23 -129 -107zM711 299q120 27 120 101q0 60 -120 100v-201z" horiz-adv-x="1212" unicode="$"/><glyph d="M147 983q0 377 289 377q291 0 291 -377t-291 -377q-289 0 -289 377zM354 983q0 -145 82 -145q84 0 84 145q0 88 -22.5 116.5t-61.5 28.5q-82 0 -82 -145zM387 0l858 1366h234l-858 -1366h-234zM1141 383q0 377 289 377q291 0 291 -376q-1 -378 -291 -378q-289 0 -289 377 zM1346 383q0 -145 84 -145q82 0 82 143q0 147 -82 147q-84 0 -84 -145z" horiz-adv-x="1890" unicode="%"/><glyph d="M113 397q0 113 45 207t192 189q0 2 -9 13l-15 20q-7 8 -18 24t-19 30.5t-17.5 36t-15.5 41t-10 43t-4 46.5q0 137 86 232t247 95q160 0 249 -91t89 -239q0 -111 -47 -179t-161 -140l22 -27q14 -18 59 -70l107 -126l31 131h235q-32 -195 -104 -328l254 -305h-308l-92 117 q-147 -133 -352 -133q-115 0 -204 41t-139 105.5t-75.5 133t-25.5 133.5zM342 391q0 -23 9 -51.5t32 -60t69 -53t109 -21.5q119 0 207 84l-268 323q-57 -31 -92 -63.5t-48.5 -64t-15.5 -48t-2 -45.5zM469 1049q0 -41 82 -144q82 47 108.5 80t26.5 72q0 43 -31.5 73.5 t-77 30.5t-77 -32.5t-31.5 -79.5z" horiz-adv-x="1337" unicode="&amp;"/><glyph d="M166 1384h254l-35 -411h-182z" horiz-adv-x="583" unicode="'"/><glyph d="M190 627q0 440 211 856h258q-210 -414 -210 -852q0 -440 210 -862h-258q-211 422 -211 858z" horiz-adv-x="796" unicode="("/><glyph d="M133 -231q211 422 211 858q0 440 -211 856h258q211 -416 211 -856q0 -436 -211 -858h-258z" horiz-adv-x="796" unicode=")"/><glyph d="M172 1133l158 57l-158 57l78 139l110 -79l-12 131h160l-10 -131l108 79l78 -139l-156 -57l156 -57l-78 -140l-108 80l10 -131h-160l12 131l-110 -80z" horiz-adv-x="845" unicode="*"/><glyph d="M190 498v229h259v258h229v-258h256v-229h-256v-256h-229v256h-259z" horiz-adv-x="1128" unicode="+"/><glyph d="M152 -229l151 401h285l-197 -401h-239z" horiz-adv-x="751" unicode=","/><glyph d="M162 514v240h624v-240h-624z" horiz-adv-x="950" unicode="-"/><glyph d="M260 0v283h295v-283h-295z" horiz-adv-x="811" unicode="."/><glyph d="M-29 -201l752 1749h256l-754 -1749h-254z" horiz-adv-x="948" unicode="/"/><glyph d="M119 684q0 700 553 700t553 -700t-553 -700t-553 700zM473 684q0 -229 55.5 -312t143.5 -83q90 0 146 83t56 312q0 399 -202 399q-199 0 -199 -399z" horiz-adv-x="1345" unicode="0"/><glyph d="M211 840v346l285 180h288v-1366h-352v975z" horiz-adv-x="1040" unicode="1"/><glyph d="M158 0v279q579 433 579 642q0 62 -45 100t-133 38q-180 0 -391 -168v356q223 137 424 137q254 0 373.5 -128t119.5 -308q0 -158 -116.5 -325.5t-272.5 -305.5h398v-317h-936z" horiz-adv-x="1269" unicode="2"/><glyph d="M139 98v338q229 -137 402 -137q88 0 144 41t56 102.5t-47 105.5t-159 44h-224v254h228q72 0 107.5 32.5t35.5 79.5q0 49 -55.5 76t-126.5 27h-28h-30q-8 0 -28.5 -1t-32.5 -3t-33.5 -5t-39.5 -8l-42 -13q-24 -7 -50 -17t-52 -23v297q182 96 375 96q88 0 170 -18 t158.5 -58t122.5 -117t46 -181q0 -96 -65.5 -174.5t-147.5 -94.5q121 -35 195 -131t74 -227q0 -117 -49.5 -199t-133.5 -124t-170 -59t-184 -17q-190 0 -416 114z" horiz-adv-x="1228" unicode="3"/><glyph d="M80 348v270l598 748h307v-719h164v-299h-164v-348h-350v348h-555zM455 647h180v240z" horiz-adv-x="1265" unicode="4"/><glyph d="M162 707l74 661h806v-315h-499l-11 -119q31 4 99 4q229 0 356 -125t127 -385q0 -127 -41 -218t-112.5 -138t-151.5 -67.5t-174 -20.5q-213 0 -442 114v334q213 -135 395 -135q88 0 132 49t44 113q0 82 -45 124t-117 42h-17q-136 0 -229 -60z" horiz-adv-x="1280" unicode="5"/><glyph d="M111 630q0 196 49 341t117.5 221t163 122t165 58t142.5 12q176 0 278 -49v-297q-145 45 -250 45q-115 0 -211 -51t-110 -158q67 27 190 27q96 0 170 -15.5t148.5 -55t115.5 -129t41 -220.5q0 -90 -27.5 -175t-85 -158.5t-158.5 -118.5t-233 -45q-505 0 -505 646zM461 629 q0 -160 43 -247q46 -95 112 -95q61 0 98.5 45t44.5 83t7 68q0 78 -38 137.5t-116 59.5q-98 0 -151 -23v-28z" horiz-adv-x="1234" unicode="6"/><glyph d="M135 1016v350h1004v-258l-537 -1108h-407l495 1016h-555z" horiz-adv-x="1226" unicode="7"/><glyph d="M119 397q0 123 78.5 215.5t193.5 122.5q-88 25 -153.5 98.5t-65.5 174.5q0 376 459 376h2q459 0 459 -376q0 -100 -65 -175t-153 -98q113 -31 193 -123t80 -215q0 -205 -135 -309t-379 -104t-379 104.5t-135 308.5zM473 442q0 -74 40 -122t120 -48q78 0 118 48.5 t40 121.5q0 51 -41 93.5t-117 42.5q-78 0 -119 -42t-41 -94zM514 979q0 -53 37 -83t82 -30q43 0 80 30t37 83q0 43 -31 80t-86 37q-57 0 -88 -37t-31 -80z" horiz-adv-x="1261" unicode="8"/><glyph d="M111 887q0 90 27.5 175t85 158.5t158.5 118.5t232 45q506 0 506 -649q0 -193 -49 -338t-117.5 -221t-163 -122t-165 -58t-142.5 -12q-176 0 -278 49v297q145 -45 250 -45q115 0 211 51t110 158q-67 -27 -190 -27q-96 0 -170 15.5t-148.5 55.5t-115.5 129t-41 220z M465 885q0 -78 38 -137.5t115 -59.5q98 0 152 23v28q0 159 -43 247q-47 95 -113 95q-61 0 -98 -45t-44 -83t-7 -68z" horiz-adv-x="1259" unicode="9"/><glyph d="M281 72v282h294v-282h-294zM281 670v282h294v-282h-294z" horiz-adv-x="868" unicode=":"/><glyph d="M166 -229l151 401h285l-196 -401h-240zM309 670v282h295v-282h-295z" horiz-adv-x="913" unicode=";"/><glyph d="M246 455v186l862 383v-279l-504 -196l504 -199v-278z" horiz-adv-x="1368" unicode="&lt;"/><glyph d="M250 285v239h805v-239h-805zM250 698v240h805v-240h-805z" horiz-adv-x="1306" unicode="="/><glyph d="M238 72v278l503 199l-503 196v279l862 -383v-186z" horiz-adv-x="1351" unicode="&gt;"/><glyph d="M164 1024v262q59 41 155.5 68.5t196.5 27.5q115 0 200 -33.5t132 -92t69.5 -126t22.5 -145.5q0 -70 -22.5 -126t-56.5 -92l-73 -74l-72 -73q-34 -34 -56.5 -87.5t-22.5 -118.5v-21h-281v27q0 104 31 184t75 127t89 86t75.5 81t30.5 89q0 45 -15 76t-46 43t-58.5 16 t-66.5 4q-180 0 -307 -102zM338 0v262h317v-262h-317z" horiz-adv-x="1075" unicode="?"/><glyph d="M166 373q0 182 79 346t203.5 274.5t280 175t309.5 64.5q106 0 220 -38t220.5 -112.5t175 -211t68.5 -308.5q0 -207 -92 -362.5t-268 -155.5q-68 0 -114 41t-64 90q-31 -57 -103.5 -94t-175.5 -37q-156 0 -246 70.5t-90 193.5q0 53 17.5 100.5t63.5 95.5t143.5 76.5 t238.5 28.5q35 0 105 -4q-2 66 -35 99.5t-129 33.5q-162 0 -285 -45l29 178q168 53 274 54q340 0 340 -308q0 -49 -15.5 -151t-15.5 -160q0 -123 82 -123q70 0 139.5 99.5t69.5 279.5q0 162 -88 288t-213 186.5t-258 60.5q-287 0 -509 -218t-222 -513q0 -125 44 -226.5 t107.5 -158t142.5 -94.5t138.5 -51t102.5 -13q258 0 469 104l-23 -149q-184 -86 -444 -86q-106 0 -217 38t-216.5 113.5t-172 213t-66.5 315.5zM766 313q0 -71 139 -71q111 0 154 46t53 158q-27 2 -80 3q-266 0 -266 -136z" horiz-adv-x="1869" unicode="@"/><glyph d="M43 0l543 1366h332l542 -1366h-379l-106 328h-447l-106 -328h-379zM612 588h277l-137 424z" horiz-adv-x="1503" unicode="A"/><glyph d="M178 0v1366h463q541 0 541 -383q0 -66 -21.5 -116t-59.5 -79.5t-64.5 -43t-61.5 -25.5q274 -78 274 -342q0 -377 -567 -377h-504zM530 289h201h7h4q67 0 114 35q51 38 51 114t-57 111t-125 35h-195v-295zM530 831h181q49 0 89 31t40 84q0 70 -46 101.5t-104 31.5h-160 v-248z" horiz-adv-x="1349" unicode="B"/><glyph d="M125 684q0 207 57.5 351.5t155.5 216t201.5 101t226.5 29.5q197 0 438 -96v-305q-205 98 -418 98q-141 0 -225 -86t-84 -309t84 -309t225 -86q213 0 418 98v-305q-242 -96 -438 -96q-123 0 -226.5 29.5t-201.5 101t-155.5 216t-57.5 351.5z" horiz-adv-x="1314" unicode="C"/><glyph d="M178 0v1366h492q317 0 483 -174t166 -510q0 -334 -166 -508t-483 -174h-492zM530 289h140q297 0 297 393q0 397 -297 397h-140v-790z" horiz-adv-x="1443" unicode="D"/><glyph d="M178 0v1366h952v-287h-600v-252h521v-288h-521v-250h600v-289h-952z" horiz-adv-x="1247" unicode="E"/><glyph d="M178 0v1366h928v-287h-576v-276h498v-289h-498v-514h-352z" horiz-adv-x="1187" unicode="F"/><glyph d="M125 682q0 207 57.5 351.5t155.5 216t201.5 101t226.5 29.5q244 0 471 -102v-283q-207 84 -418 84q-344 0 -344 -395q0 -223 90 -309t242 -86q119 0 188 30v226h-243v262h524v-690q-223 -131 -510 -131q-96 0 -180 16t-171 63.5t-149.5 122t-101.5 201.5t-39 293z" horiz-adv-x="1427" unicode="G"/><glyph d="M180 0v1366h352v-539h439v539h352v-1366h-352v539h-439v-539h-352z" horiz-adv-x="1503" unicode="H"/><glyph d="M180 0v1366h352v-1366h-352z" horiz-adv-x="708" unicode="I"/><glyph d="M59 92v326q141 -129 293 -129q72 0 117 41t45 125v911h352v-889q0 -123 -32.5 -215t-79.5 -143t-114 -83t-122 -41t-115 -9q-176 0 -344 106z" horiz-adv-x="1060" unicode="J"/><glyph d="M178 0v1366h352v-481l375 481h475l-536 -594l575 -772h-444l-348 532l-97 -108v-424h-352z" horiz-adv-x="1505" unicode="K"/><glyph d="M178 0v1366h352v-1049h607v-317h-959z" horiz-adv-x="1179" unicode="L"/><glyph d="M180 0v1366h346l322 -465l321 465h347v-1366h-353v846l-315 -453l-316 453v-846h-352z" horiz-adv-x="1695" unicode="M"/><glyph d="M178 0v1366h352l555 -819v819h353v-1366h-348l-560 813v-813h-352z" horiz-adv-x="1619" unicode="N"/><glyph d="M125 684q0 166 39 293t101.5 201.5t149.5 122t171 63.5t180 16t180 -16t171 -63.5t149.5 -122t101.5 -201.5t39 -293t-39 -293t-101.5 -201.5t-149.5 -122t-171 -63.5t-180 -16t-180 16t-171 63.5t-149.5 122t-101.5 201.5t-39 293zM477 684q0 -223 79 -309t210 -86 t210 86t79 309t-79 309t-210 86t-210 -86t-79 -309z" horiz-adv-x="1538" unicode="O"/><glyph d="M176 0v1366h553q248 0 385 -126t137 -353q0 -229 -137 -355t-385 -126h-201v-406h-352zM528 696h168q106 0 155.5 56.5t49.5 134.5q0 76 -49 134t-156 58h-168v-383z" horiz-adv-x="1337" unicode="P"/><glyph d="M125 684q0 166 39 293t101.5 201.5t149.5 122t171 63.5t180 16t180 -16t171 -63.5t149.5 -122t101.5 -201.5t39 -293q0 -604 -494 -684q8 -162 213 -162v-227q-500 0 -505 387q-496 80 -496 686zM477 684q0 -223 79 -309t210 -86t210 86t79 309t-79 309t-210 86t-210 -86 t-79 -309z" horiz-adv-x="1529" unicode="Q"/><glyph d="M178 0v1366h539q250 0 400.5 -116.5t150.5 -327.5q0 -162 -75 -266.5t-200 -145.5l330 -510h-393l-254 457h-146v-457h-352zM530 721h209q72 0 124 50t52 128q0 80 -52 130t-124 50h-209v-358z" horiz-adv-x="1396" unicode="R"/><glyph d="M127 954q0 211 145.5 317.5t360.5 106.5q195 0 368 -94v-307q-166 98 -317 98q-80 0 -142.5 -26.5t-62.5 -87.5q0 -39 46 -65t117 -39t151.5 -43t151.5 -73t117 -133t46 -219q0 -180 -143.5 -292.5t-348.5 -112.5q-281 0 -473 133v329q189 -157 419 -157h3 q78 0 134.5 29.5t56.5 84.5q0 37 -35 63t-91 41l-122 31q-66 16 -133.5 45t-122.5 71t-90 119t-35 181z" horiz-adv-x="1232" unicode="S"/><glyph d="M25 1047v319h1142v-319h-397v-1047h-352v1047h-393z" horiz-adv-x="1191" unicode="T"/><glyph d="M178 588v778h352v-819q0 -131 56.5 -194.5t175.5 -63.5t175 63.5t56 194.5v819h353v-778q0 -287 -154 -444.5t-430.5 -157.5t-430 157.5t-153.5 444.5z" horiz-adv-x="1533" unicode="U"/><glyph d="M25 1366h376l306 -967l305 967h377l-521 -1366h-319z" horiz-adv-x="1413" unicode="V"/><glyph d="M27 1366h368l234 -862l243 862h304l243 -862l234 862h368l-440 -1366h-321l-236 782l-236 -782h-321z" horiz-adv-x="2045" unicode="W"/><glyph d="M25 0l485 692l-475 674h430l258 -369l260 369h403l-462 -653l503 -713h-430l-288 410l-289 -410h-395z" horiz-adv-x="1443" unicode="X"/><glyph d="M25 1366h428l290 -520l291 520h428l-542 -791v-575h-353v575z" horiz-adv-x="1492" unicode="Y"/><glyph d="M133 0v291l617 762h-611v313h1047v-285l-598 -772h598v-309h-1053z" horiz-adv-x="1337" unicode="Z"/><glyph d="M244 -238v1663h436v-247h-209v-1168h209v-248h-436z" horiz-adv-x="849" unicode="["/><glyph d="M-76 1548h256l752 -1749h-254z" horiz-adv-x="880" unicode="\"/><glyph d="M172 10h209v1168h-209v247h436v-1663h-436v248z" horiz-adv-x="849" unicode="]"/><glyph d="M246 958l282 455h148l289 -455h-230l-131 244l-131 -244h-227z" horiz-adv-x="1210" unicode="^"/><glyph d="M0 -49h1118v-209h-1118v209z" horiz-adv-x="1118" unicode="_"/><glyph d="M92 1393h240l127 -240h-176z" horiz-adv-x="571" unicode="`"/><glyph d="M106 301q0 31 7.5 63.5t35 78.5t72.5 81t134 59.5t208 24.5q63 0 92 -2q0 84 -41 120t-96 36q-154 0 -311 -64v267q178 71 336 71q225 0 348 -114.5t123 -329.5v-242q0 -190 -102.5 -277t-366.5 -87q-438 0 -439 315zM459 362q0 -108 98 -108h2q49 0 76 39t27 82v86 q-49 4 -68 4q-135 0 -135 -103z" horiz-adv-x="1142" unicode="a"/><glyph d="M160 348v1065h350v-383q29 4 133 4q223 0 344 -133t121 -383q0 -534 -502 -534h-2q-137 0 -229 30.5t-136 87t-61.5 114.5t-17.5 132zM510 287q0 -29 26.5 -51.5t81.5 -22.5q72 0 105 90t33 227q0 133 -45 209t-133 76q-18 0 -68 -4v-524z" horiz-adv-x="1230" unicode="b"/><glyph d="M119 510q0 254 126 390t361 136q178 0 322 -69v-262q-139 63 -258 63q-90 0 -144.5 -64.5t-54.5 -193.5t54.5 -193.5t144.5 -64.5q119 0 258 63v-262q-141 -69 -317 -69h-5q-236 0 -361.5 136t-125.5 390z" horiz-adv-x="993" unicode="c"/><glyph d="M129 518q0 250 121 383t344 133q104 0 133 -4v383h350v-1065q0 -74 -17.5 -132t-61.5 -114.5t-136 -87t-229 -30.5q-504 0 -504 534zM481 530q0 -137 32.5 -227t104.5 -90q55 0 82 22.5t27 51.5v524q-49 4 -68 4q-88 0 -133 -75.5t-45 -209.5z" horiz-adv-x="1222" unicode="d"/><glyph d="M131 502q0 244 113.5 390t355.5 146q229 0 347 -144t118 -353q0 -61 -6 -111h-582q0 -72 67.5 -121t151.5 -49q188 0 322 80v-248q-166 -106 -402 -106q-68 0 -129 11t-128.5 46t-115.5 89t-80 149.5t-32 220.5zM485 641h230q-4 59 -35 116.5t-80 57.5t-80 -53t-35 -121z" horiz-adv-x="1169" unicode="e"/><glyph d="M82 774v248h145q1 424 404 424q84 0 151 -23v-211q-29 8 -55 9q-72 0 -109.5 -63.5t-37.5 -135.5h202v-248h-207v-774h-352v774h-141z" horiz-adv-x="776" unicode="f"/><glyph d="M127 516q0 520 491 520q117 0 202 -30.5t128 -84t62.5 -112.5t19.5 -131v-637q0 -51 -10 -102.5t-42 -115t-82 -110.5t-139 -79.5t-204 -32.5q-156 0 -322 53v250q115 -66 252 -66q102 0 145.5 48t49.5 130q-53 -4 -98 -4q-211 0 -332 131t-121 373zM479 510 q0 -127 40 -209t110 -82q24 0 51 6v490q0 80 -80 80q-57 0 -89 -81t-32 -204z" horiz-adv-x="1153" unicode="g"/><glyph d="M207 0v1411h352v-387q74 12 174 12q213 0 333 -117.5t120 -316.5v-602h-352v657q0 113 -181 113q-55 0 -94 -14v-756h-352z" horiz-adv-x="1316" unicode="h"/><glyph d="M193 1139v268h360v-268h-360zM197 0v1022h352v-1022h-352z" horiz-adv-x="735" unicode="i"/><glyph d="M6 -141q168 0 168 125v1038h352v-1008q0 -119 -40 -201.5t-114.5 -126.5t-162.5 -62.5t-203 -18.5v254zM170 1139v268h360v-268h-360z" horiz-adv-x="667" unicode="j"/><glyph d="M178 0v1405h352v-631l215 248h451l-416 -451l461 -571h-426l-250 330l-35 -37v-293h-352z" horiz-adv-x="1318" unicode="k"/><glyph d="M207 0v1411h352v-1411h-352z" horiz-adv-x="761" unicode="l"/><glyph d="M203 0v930l14 6l42 16q26 10 60.5 20.5t78.5 22t92.5 20.5t105.5 15t113 6q147 0 249 -59q175 59 355 59q215 0 337 -110.5t122 -323.5v-602h-353v616q0 158 -141 158q-80 0 -141 -20q26 -77 26 -147v-5v-602h-352v621q0 149 -131 149h-2q-55 0 -123 -18v-752h-352z" horiz-adv-x="1939" unicode="m"/><glyph d="M178 0v913q246 123 508 123q217 0 344 -115.5t127 -318.5v-602h-352v657q0 31 -8.5 51.5t-48 41t-115.5 20.5q-55 0 -103 -12v-758h-352z" horiz-adv-x="1325" unicode="n"/><glyph d="M92 510q0 254 128 389t363.5 135t363.5 -135t128 -389t-128 -389t-363.5 -135t-363.5 135t-128 389zM444 510q0 -270 139.5 -270t139.5 270t-139.5 270t-139.5 -270z" unicode="o"/><glyph d="M170 -379v1051q0 74 17.5 132t61.5 114.5t136 87t229 30.5q504 0 504 -534q0 -250 -121 -383t-344 -133q-104 0 -133 4v-369h-350zM520 209q49 -4 68 -4q88 0 133 75.5t45 208.5q0 137 -32.5 227.5t-104.5 90.5q-55 0 -82 -22.5t-27 -51.5v-524z" horiz-adv-x="1232" unicode="p"/><glyph d="M115 502q0 534 501 534h2q137 0 229.5 -30.5t136.5 -87t61.5 -115t17.5 -131.5v-1051h-350v369q-29 -4 -133 -4q-223 0 -344 133t-121 383zM467 489q0 -133 45 -208.5t133 -75.5q18 0 68 4v524q0 29 -27 51.5t-82 22.5q-72 0 -104.5 -90t-32.5 -228z" horiz-adv-x="1228" unicode="q"/><glyph d="M164 0v922q264 109 584 116v-295q-127 -2 -232 -18v-725h-352z" horiz-adv-x="813" unicode="r"/><glyph d="M90 694q0 166 115 254t293 88q156 0 293 -84v-233q-133 74 -236 74q-111 0 -111 -70q0 -20 45.5 -40.5t110 -46.5t128 -61.5t108.5 -105.5t45 -164q0 -141 -113 -230t-293 -89q-190 0 -346 100v272q160 -125 309 -125q92 0 92 56q0 27 -45 48t-109.5 45t-130 57.5 t-110.5 99t-45 155.5z" horiz-adv-x="962" unicode="s"/><glyph d="M49 786v236h139v303h353v-303h213v-236h-213v-495q0 -23 18.5 -39t44.5 -16q63 0 150 51v-252q-88 -49 -205 -49q-178 0 -269.5 94t-91.5 264v442h-139z" horiz-adv-x="839" unicode="t"/><glyph d="M172 461v561h352v-623q0 -150 122 -150l1 1q123 0 123 149v623h352v-561q0 -475 -475 -475t-475 475z" horiz-adv-x="1280" unicode="u"/><glyph d="M66 1022h374l170 -629l172 629h377l-391 -1022h-311z" horiz-adv-x="1224" unicode="v"/><glyph d="M82 1022h373l133 -616l162 616h262l162 -616l133 616h372l-362 -1022h-309l-127 459l-127 -459h-310z" horiz-adv-x="1763" unicode="w"/><glyph d="M53 0l363 518l-353 504h414l148 -207l145 207h389l-350 -479l387 -543h-416l-172 252l-166 -252h-389z" horiz-adv-x="1249" unicode="x"/><glyph d="M63 1022h365l156 -588l153 588h363l-373 -1002q-90 -231 -177 -327t-212 -96q-133 0 -223 43v256q70 -25 135 -25q47 0 92 56.5t78 170.5z" horiz-adv-x="1169" unicode="y"/><glyph d="M94 0v289l424 461h-414v272h805v-285l-381 -444h381v-293h-815z" horiz-adv-x="1030" unicode="z"/><glyph d="M186 485v238q4 0 11.5 2t25 10t30.5 19.5t24.5 33t11.5 48.5v270q0 145 81 235.5t242 90.5h62v-236h-45q-45 0 -68.5 -22.5t-27 -45t-3.5 -67.5v-238q0 -94 -56 -147t-138 -72q82 -18 138 -71.5t56 -147.5v-238q0 -45 3.5 -67.5t27 -45t68.5 -22.5h45v-235h-62 q-162 0 -242.5 90t-80.5 235v271q0 41 -25.5 69.5t-50.5 36.5z" horiz-adv-x="804" unicode="{"/><glyph d="M379 -203v1569h270v-1569h-270z" horiz-adv-x="1005" unicode="|"/><glyph d="M156 12h45q45 0 68.5 22.5t26.5 45t3 67.5v238q0 94 56.5 147.5t138.5 71.5q-82 18 -138.5 71.5t-56.5 147.5v238q0 45 -3 67.5t-26.5 45t-68.5 22.5h-45v236h61q162 0 243 -90.5t81 -235.5v-270q0 -41 25.5 -70t51.5 -37l25 -6v-238q-4 0 -11 -2t-24.5 -10t-31 -19.5 t-24.5 -33t-11 -47.5v-271q0 -145 -81 -235t-243 -90h-61v235z" horiz-adv-x="804" unicode="}"/><glyph d="M201 457v186q57 68 129 74q11 1 23 1q59 0 116 -26l135 -60q57 -25 115 -25q12 0 23 1q71 6 128 74v-186q-57 -68 -128 -74q-11 -1 -23 -1q-58 0 -115 25l-135 60q-56 26 -115 26q-12 0 -24 -2q-72 -6 -129 -73z" horiz-adv-x="1071" unicode="~"/><glyph d="M270 -344l45 975h265l45 -975h-355zM289 760v262h317v-262h-317z" horiz-adv-x="882" unicode="¡"/><glyph d="M117 682q0 254 126 390t361 136h29v158h131v-174q90 -16 162 -53v-262q-90 43 -162 55v-500q70 14 162 55v-262q-74 -35 -162 -53v-172h-131v156h-29q-236 0 -361.5 136t-125.5 390zM469 682q0 -115 45 -178.5t119 -75.5v510q-164 -29 -164 -256z" horiz-adv-x="1007" unicode="¢"/><glyph d="M100 -31v307q80 55 158 74v203h-158v268h158v168q0 162 105.5 277.5t328.5 115.5q162 0 346 -106v-281q-141 119 -299 119q-90 0 -144 -35t-54 -104v-154h340v-268h-340v-211q117 -53 227 -53q141 0 270 86v-297q-82 -76 -181 -90q-35 -6 -70 -6q-62 0 -123 17l-187 51 q-60 17 -122 17q-36 0 -73 -5q-100 -15 -182 -93z" horiz-adv-x="1153" unicode="£"/><glyph d="M37 1366h428l291 -520l291 520h428l-408 -594h137v-201h-272v-155h272v-201h-272v-215h-352v215h-273v201h273v155h-273v201h137z" horiz-adv-x="1492" unicode="¥"/><glyph d="M127 707q0 98 91 145t192 49q-43 4 -95.5 60.5t-52.5 121.5q0 86 39 148.5t106.5 94.5t141.5 45t160 13q180 0 362 -104v-248q-160 92 -311 92q-170 0 -170 -80q0 -31 84 -63.5t184 -62t184 -100.5t84 -171q0 -61 -48 -100t-94 -50.5t-93 -13.5q49 -27 74.5 -87 t25.5 -122q0 -137 -119.5 -213.5t-328.5 -76.5q-213 0 -410 131v276q171 -153 361 -153h2q66 0 120 17t54 58q0 27 -56.5 49.5t-136.5 46t-158.5 56.5t-135 95.5t-56.5 146.5zM453 715q0 -18 58 -43t210 -76q78 14 78 45q0 18 -49.5 38.5t-123 43t-89.5 29.5 q-84 -10 -84 -37z" horiz-adv-x="1247" unicode="§"/><glyph d="M141 1139v223h246v-223h-246zM489 1139v223h246v-223h-246z" horiz-adv-x="899" unicode="¨"/><glyph d="M98 682q0 291 205 495.5t494 204.5q291 0 495.5 -204.5t204.5 -495.5q0 -289 -205 -493.5t-495 -204.5q-289 0 -494 204.5t-205 493.5zM227 682q0 -236 167 -402.5t402.5 -166.5t403.5 166.5t168 402.5q0 238 -167 404.5t-404 166.5q-236 0 -403 -166.5t-167 -404.5z M430 684q0 121 34 206t91 126t117.5 58.5t132.5 17.5q117 0 258 -56v-178q-123 57 -246 57q-180 0 -180 -231t180 -231q123 0 246 57v-178q-139 -57 -258 -58q-72 0 -132.5 17.5t-117.5 59.5t-91 127t-34 206z" horiz-adv-x="1593" unicode="©"/><glyph d="M154 970q0 24 8 48t31.5 55t79 50.5t137.5 19.5h51q0 86 -78 86q-80 0 -174 -35v147q102 41 188 41q125 0 195 -64.5t70 -182.5v-136q0 -106 -57.5 -155t-205.5 -49q-245 0 -245 175zM350 1006q0 -61 58 -62q27 0 42 22.5t15 45.5v49q-8 0 -20.5 1t-18.5 1q-76 0 -76 -57 z" horiz-adv-x="833" unicode="ª"/><glyph d="M70 522l346 389h338l-373 -389l373 -391h-338zM565 522l346 389h338l-372 -389l372 -391h-338z" horiz-adv-x="1347" unicode="«"/><glyph d="M199 465v219h903v-389h-211v170h-692z" horiz-adv-x="1300" unicode="¬"/><glyph d="M162 514v240h624v-240h-624z" horiz-adv-x="950" unicode="­"/><glyph d="M100 682q0 291 205 495.5t494 204.5q291 0 495.5 -204.5t204.5 -495.5q0 -289 -204.5 -493.5t-495.5 -204.5q-289 0 -494 204.5t-205 493.5zM229 682q0 -236 167 -402.5t402.5 -166.5t403.5 166.5t168 402.5q0 238 -167 404.5t-404 166.5q-236 0 -403 -166.5t-167 -404.5 zM498 285v796h315q145 0 233.5 -67.5t88.5 -190.5q0 -94 -44 -155t-118 -84l192 -299h-229l-148 266h-83v-266h-207zM705 707h120q41 0 72 28.5t31 73.5q0 47 -31 76.5t-72 29.5h-120v-208z" horiz-adv-x="1593" unicode="®"/><glyph d="M176 1139v180h479v-180h-479z" horiz-adv-x="825" unicode="¯"/><glyph d="M168 1143q0 111 57.5 169t166 58t165.5 -58.5t57 -168.5q0 -109 -57 -167t-165.5 -58t-166 58t-57.5 167zM293 1145q0 -57 23.5 -83t74.5 -26t73.5 25.5t22.5 83t-22.5 82t-73.5 24.5q-98 0 -98 -106z" horiz-adv-x="792" unicode="°"/><glyph d="M236 12v215h743v-215h-743zM236 608v230h258v258h229v-258h256v-230h-256v-256h-229v256h-258z" horiz-adv-x="1198" unicode="±"/><glyph d="M102 948v150q311 231 312 346q0 74 -97 74q-98 0 -211 -91v193q121 74 230 74q137 0 201.5 -69t64.5 -167q0 -154 -211 -340h215v-170h-504z" horiz-adv-x="696" unicode="²"/><glyph d="M100 999v183q121 -74 215 -74q49 0 79 21.5t30 54.5q0 82 -111 82h-120v135h122q76 0 76 61q0 27 -29.5 41.5t-66.5 14.5q-98 0 -180 -39v159q100 53 200 54q106 0 186.5 -47.5t80.5 -155.5q0 -51 -36 -93t-79 -50q66 -18 105.5 -70.5t39.5 -122.5q0 -119 -86 -167 t-202 -48q-96 0 -224 61z" horiz-adv-x="686" unicode="³"/><glyph d="M121 1139l127 239h239l-190 -239h-176z" horiz-adv-x="559" unicode="´"/><glyph d="M203 -430v1452h352v-657q0 -31 8 -51.5t48 -41t116 -20.5q55 0 102 12v758h353v-913q-246 -123 -508 -123q-57 0 -119 10v-426h-352z" horiz-adv-x="1325" unicode="µ"/><glyph d="M80 870q0 240 143.5 368t413.5 128h354v-1366h-274v371h-80q-270 0 -413.5 129t-143.5 370z" horiz-adv-x="1083" unicode="¶"/><glyph d="M215 420v282h295v-282h-295z" horiz-adv-x="741" unicode="·"/><glyph d="M106 -250l191 240h176l-127 -240h-240z" horiz-adv-x="585" unicode="¸"/><glyph d="M92 1401v186l154 96h155v-735h-190v525z" horiz-adv-x="512" unicode="¹"/><glyph d="M152 1090q0 143 71.5 218.5t204.5 75.5q131 0 202.5 -75.5t71.5 -218.5q0 -141 -71.5 -217t-202.5 -76q-133 0 -204.5 75.5t-71.5 217.5zM348 1090q0 -150 80 -150q78 0 78 150q0 151 -77 151h-1q-80 0 -80 -151z" horiz-adv-x="868" unicode="º"/><glyph d="M106 131l373 391l-373 389h338l347 -389l-347 -391h-338zM602 131l373 391l-373 389h338l346 -389l-346 -391h-338z" horiz-adv-x="1374" unicode="»"/><glyph d="M92 1098v186l154 96h155v-735h-190v524zM170 -45l895 1448h192l-895 -1448h-192zM840 186v146l321 403h166v-387h88v-162h-88v-186h-188v186h-299zM1040 348h99v129z" horiz-adv-x="1476" unicode="¼"/><glyph d="M92 1098v186l154 96h155v-735h-190v524zM170 -45l895 1448h192l-895 -1448h-192zM946 0v150q311 231 311 346q0 73 -93 73h-3q-98 0 -211 -90v193q119 73 227 73h3q137 0 201.5 -68.5t64.5 -166.5q0 -154 -211 -340h215v-170h-504z" horiz-adv-x="1550" unicode="½"/><glyph d="M137 696v183q121 -74 215 -74q49 0 79 21.5t30 54.5q0 82 -111 82h-121v135h123q76 0 76 61q0 27 -29.5 41t-66.5 14q-98 0 -180 -38v159q100 53 200 54q106 0 186 -47.5t80 -155.5q0 -51 -35.5 -93.5t-78.5 -50.5q66 -18 105.5 -70t39.5 -122q0 -119 -86 -167t-203 -48 q-96 0 -223 61zM387 -45l895 1448h193l-895 -1448h-193zM1067 186v146l322 403h165v-387h88v-162h-88v-186h-188v186h-299zM1268 348h98v129z" horiz-adv-x="1757" unicode="¾"/><glyph d="M164 37q0 70 22.5 126t56 92t72.5 74l73 73q34 34 56.5 87.5t22.5 118.5v21h281v-27q0 -104 -31 -184t-75 -127t-89 -86t-76 -81t-31 -89q0 -45 15.5 -76t46.5 -43t58.5 -16t66.5 -4q180 0 307 102v-262q-59 -41 -155.5 -68.5t-196.5 -27.5q-115 0 -200 33.5t-132 92 t-69.5 126t-22.5 145.5zM449 760v262h317v-262h-317z" horiz-adv-x="1075" unicode="¿"/><glyph d="M43 0l543 1366h332l542 -1366h-379l-106 328h-447l-106 -328h-379zM477 1722h240l127 -239h-176zM612 588h277l-137 424z" horiz-adv-x="1503" unicode="À"/><glyph d="M43 0l543 1366h332l542 -1366h-379l-106 328h-447l-106 -328h-379zM612 588h277l-137 424zM659 1483l127 239h240l-190 -239h-177z" horiz-adv-x="1503" unicode="Á"/><glyph d="M43 0l543 1366h332l542 -1366h-379l-106 328h-447l-106 -328h-379zM457 1483l245 250h99l246 -250h-209l-86 90l-86 -90h-209zM612 588h277l-137 424z" horiz-adv-x="1503" unicode="Â"/><glyph d="M43 0l543 1366h332l542 -1366h-379l-106 328h-447l-106 -328h-379zM440 1497v174q57 68 124 74q11 1 22 1q55 0 106 -26l121 -60q51 -25 105 -25q11 0 22 1q66 6 123 74v-174q-57 -68 -123 -74q-11 -1 -22 -1q-54 0 -105 25l-121 60q-51 26 -106 26q-11 0 -22 -1 q-66 -6 -124 -74zM612 588h277l-137 424z" horiz-adv-x="1503" unicode="Ã"/><glyph d="M43 0l543 1366h332l542 -1366h-379l-106 328h-447l-106 -328h-379zM455 1483v223h245v-223h-245zM612 588h277l-137 424zM803 1483v223h246v-223h-246z" horiz-adv-x="1503" unicode="Ä"/><glyph d="M43 0l543 1366h332l542 -1366h-379l-106 328h-447l-106 -328h-379zM573 1618q0 84 47.5 130t131.5 46q86 0 132 -46t46 -130t-46 -130t-132 -46q-84 0 -131.5 46t-47.5 130zM612 588h277l-137 424zM700 1618q0 -37 11.5 -50.5t40 -13.5t40 13.5t11.5 50.5q0 63 -51.5 63 t-51.5 -63z" horiz-adv-x="1503" unicode="Å"/><glyph d="M51 0l961 1366h1065v-287h-600v-252h520v-288h-520v-250h600v-289h-953v246h-469l-168 -246h-436zM831 504h293v428z" horiz-adv-x="2217" unicode="Æ"/><glyph d="M125 684q0 207 57.5 351.5t155.5 216t201.5 101t226.5 29.5q197 0 438 -96v-305q-205 98 -418 98q-141 0 -225 -86t-84 -309t84 -309t225 -86q213 0 418 98v-305q-195 -78 -356 -92l-125 -240h-240l189 240q-109 10 -200 48t-173 112.5t-128 211t-46 322.5z" horiz-adv-x="1314" unicode="Ç"/><glyph d="M178 0v1366h952v-287h-600v-252h521v-288h-521v-250h600v-289h-952zM424 1722h240l127 -239h-177z" horiz-adv-x="1247" unicode="È"/><glyph d="M178 0v1366h952v-287h-600v-252h521v-288h-521v-250h600v-289h-952zM561 1483l127 239h240l-191 -239h-176z" horiz-adv-x="1247" unicode="É"/><glyph d="M178 0v1366h952v-287h-600v-252h521v-288h-521v-250h600v-289h-952zM375 1483l246 250h98l246 -250h-209l-86 90l-86 -90h-209z" horiz-adv-x="1247" unicode="Ê"/><glyph d="M178 0v1366h952v-287h-600v-252h521v-288h-521v-250h600v-289h-952zM383 1483v223h246v-223h-246zM731 1483v223h246v-223h-246z" horiz-adv-x="1247" unicode="Ë"/><glyph d="M76 1722h239l127 -239h-176zM180 0h352v1366h-352v-1366z" horiz-adv-x="708" unicode="Ì"/><glyph d="M180 0h352v1366h-352v-1366zM270 1483l127 239h240l-191 -239h-176z" horiz-adv-x="708" unicode="Í"/><glyph d="M61 1483l246 250h99l245 -250h-209l-86 90l-86 -90h-209zM180 0h352v1366h-352v-1366z" horiz-adv-x="708" unicode="Î"/><glyph d="M59 1483v223h246v-223h-246zM180 0h352v1366h-352v-1366zM408 1483v223h245v-223h-245z" horiz-adv-x="708" unicode="Ï"/><glyph d="M106 582v200h166v584h492q317 0 483 -174t166 -510q0 -334 -166 -508t-483 -174h-492v582h-166zM625 289h139q297 0 297 393q0 397 -297 397h-139v-297h217v-200h-217v-293z" horiz-adv-x="1527" unicode="Ð"/><glyph d="M178 0v1366h352l555 -819v819h353v-1366h-348l-560 813v-813h-352zM510 1497v174q57 68 124 74q10 1 21 1q55 0 105 -26l122 -60q52 -25 106 -25q11 0 22 1q65 6 123 74v-174q-57 -68 -123 -74q-11 -1 -22 -1q-54 0 -106 25l-122 60q-50 26 -105 26q-11 0 -21 -1 q-67 -6 -124 -74z" horiz-adv-x="1619" unicode="Ñ"/><glyph d="M125 684q0 166 39 293t101.5 201.5t149.5 122t171 63.5t180 16t180 -16t171 -63.5t149.5 -122t101.5 -201.5t39 -293t-39 -293t-101.5 -201.5t-149.5 -122t-171 -63.5t-180 -16t-180 16t-171 63.5t-149.5 122t-101.5 201.5t-39 293zM477 684q0 -223 79 -309t210 -86 t210 86t79 309t-79 309t-210 86t-210 -86t-79 -309zM500 1722h239l127 -239h-176z" horiz-adv-x="1538" unicode="Ò"/><glyph d="M125 684q0 166 39 293t101.5 201.5t149.5 122t171 63.5t180 16t180 -16t171 -63.5t149.5 -122t101.5 -201.5t39 -293t-39 -293t-101.5 -201.5t-149.5 -122t-171 -63.5t-180 -16t-180 16t-171 63.5t-149.5 122t-101.5 201.5t-39 293zM477 684q0 -223 79 -309t210 -86 t210 86t79 309t-79 309t-210 86t-210 -86t-79 -309zM666 1483l127 239h239l-190 -239h-176z" horiz-adv-x="1538" unicode="Ó"/><glyph d="M125 684q0 166 39 293t101.5 201.5t149.5 122t171 63.5t180 16t180 -16t171 -63.5t149.5 -122t101.5 -201.5t39 -293t-39 -293t-101.5 -201.5t-149.5 -122t-171 -63.5t-180 -16t-180 16t-171 63.5t-149.5 122t-101.5 201.5t-39 293zM471 1483l246 250h98l246 -250h-209 l-86 90l-86 -90h-209zM477 684q0 -223 79 -309t210 -86t210 86t79 309t-79 309t-210 86t-210 -86t-79 -309z" horiz-adv-x="1538" unicode="Ô"/><glyph d="M125 684q0 166 39 293t101.5 201.5t149.5 122t171 63.5t180 16t180 -16t171 -63.5t149.5 -122t101.5 -201.5t39 -293t-39 -293t-101.5 -201.5t-149.5 -122t-171 -63.5t-180 -16t-180 16t-171 63.5t-149.5 122t-101.5 201.5t-39 293zM459 1497v174q57 68 123 74q11 1 22 1 q55 0 106 -26l122 -60q51 -25 105 -25q11 0 21 1q66 6 123 74v-174q-57 -68 -123 -74q-10 -1 -21 -1q-54 0 -105 25l-122 60q-51 26 -106 26q-11 0 -22 -1q-66 -6 -123 -74zM477 684q0 -223 79 -309t210 -86t210 86t79 309t-79 309t-210 86t-210 -86t-79 -309z" horiz-adv-x="1538" unicode="Õ"/><glyph d="M125 684q0 166 39 293t101.5 201.5t149.5 122t171 63.5t180 16t180 -16t171 -63.5t149.5 -122t101.5 -201.5t39 -293t-39 -293t-101.5 -201.5t-149.5 -122t-171 -63.5t-180 -16t-180 16t-171 63.5t-149.5 122t-101.5 201.5t-39 293zM469 1483v223h246v-223h-246zM477 684 q0 -223 79 -309t210 -86t210 86t79 309t-79 309t-210 86t-210 -86t-79 -309zM817 1483v223h246v-223h-246z" horiz-adv-x="1538" unicode="Ö"/><glyph d="M147 154l287 370l-284 371h225l174 -223l176 223h223l-284 -371l284 -370h-223l-176 223l-174 -223h-228z" horiz-adv-x="1093" unicode="×"/><glyph d="M14 0l211 246q-100 168 -100 436q0 166 39 293t101.5 201.5t149.5 122t171 63.5t180 16q215 0 360 -84l62 72h328l-211 -246q102 -168 102 -438q0 -166 -39 -293t-101.5 -201.5t-149.5 -122t-171 -63.5t-180 -16q-217 0 -363 86l-61 -72h-328zM477 682q0 -82 8 -133 l426 495q-57 33 -145 33q-131 0 -210 -86t-79 -309zM618 319q55 -32 143 -32h5q131 0 210 86t79 309q0 70 -11 135z" horiz-adv-x="1529" unicode="Ø"/><glyph d="M178 588v778h352v-819q0 -131 56.5 -194.5t175.5 -63.5t175 63.5t56 194.5v819h353v-778q0 -287 -154 -444.5t-430.5 -157.5t-430 157.5t-153.5 444.5zM506 1722h239l127 -239h-176z" horiz-adv-x="1533" unicode="Ù"/><glyph d="M178 588v778h352v-819q0 -131 56.5 -194.5t175.5 -63.5t175 63.5t56 194.5v819h353v-778q0 -287 -154 -444.5t-430.5 -157.5t-430 157.5t-153.5 444.5zM651 1483l127 239h240l-191 -239h-176z" horiz-adv-x="1533" unicode="Ú"/><glyph d="M178 588v778h352v-819q0 -131 56.5 -194.5t175.5 -63.5t175 63.5t56 194.5v819h353v-778q0 -287 -154 -444.5t-430.5 -157.5t-430 157.5t-153.5 444.5zM467 1483l246 250h98l246 -250h-209l-86 90l-86 -90h-209z" horiz-adv-x="1533" unicode="Û"/><glyph d="M178 588v778h352v-819q0 -131 56.5 -194.5t175.5 -63.5t175 63.5t56 194.5v819h353v-778q0 -287 -154 -444.5t-430.5 -157.5t-430 157.5t-153.5 444.5zM465 1483v223h246v-223h-246zM813 1483v223h246v-223h-246z" horiz-adv-x="1533" unicode="Ü"/><glyph d="M25 1366h428l290 -520l291 520h428l-542 -791v-575h-353v575zM635 1483l127 239h239l-190 -239h-176z" horiz-adv-x="1492" unicode="Ý"/><glyph d="M176 0v1366h352v-203h177q248 0 385 -126t137 -353q0 -229 -137.5 -355t-384.5 -126h-177v-203h-352zM528 494h144q106 0 155.5 56t49.5 134q0 76 -49.5 134.5t-155.5 58.5h-144v-383z" horiz-adv-x="1337" unicode="Þ"/><glyph d="M180 0v846q0 160 41 271.5t110.5 166.5t143.5 77.5t162 22.5q236 0 357.5 -109.5t121.5 -266.5q0 -106 -60 -187.5t-130 -101.5q250 -74 250 -313q0 -221 -167 -318q-149 -87 -391 -87q-30 0 -61 1v256h12q124 0 217 38q97 40 97 134q0 51 -32 84t-91.5 47t-100.5 19.5 t-102 7.5v233q43 0 84 6.5t88 21.5t74.5 48t27.5 82q0 162 -167 162q-190 0 -191 -267v-874h-293z" horiz-adv-x="1282" unicode="ß"/><glyph d="M106 301q0 31 7.5 63.5t35 78.5t72.5 81t134 59.5t208 24.5q63 0 92 -2q0 84 -41 120t-96 36q-154 0 -311 -64v267q178 71 336 71q225 0 348 -114.5t123 -329.5v-242q0 -190 -102.5 -277t-366.5 -87q-438 0 -439 315zM326 1378h239l127 -239h-176zM459 362 q0 -108 98 -108h2q49 0 76 39t27 82v86q-49 4 -68 4q-135 0 -135 -103z" horiz-adv-x="1128" unicode="à"/><glyph d="M106 301q0 31 7.5 63.5t35 78.5t72.5 81t134 59.5t208 24.5q63 0 92 -2q0 84 -41 120t-96 36q-154 0 -311 -64v267q178 71 336 71q225 0 348 -114.5t123 -329.5v-242q0 -190 -102.5 -277t-366.5 -87q-438 0 -439 315zM442 1139l127 239h240l-191 -239h-176zM459 362 q0 -108 98 -108h2q49 0 76 39t27 82v86q-49 4 -68 4q-135 0 -135 -103z" horiz-adv-x="1128" unicode="á"/><glyph d="M106 301q0 31 7.5 63.5t35 78.5t72.5 81t134 59.5t208 24.5q63 0 92 -2q0 84 -41 120t-96 36q-154 0 -311 -64v267q178 71 336 71q225 0 348 -114.5t123 -329.5v-242q0 -190 -102.5 -277t-366.5 -87q-438 0 -439 315zM268 1139l246 250h98l246 -250h-209l-86 90l-86 -90 h-209zM459 362q0 -108 98 -108h2q49 0 76 39t27 82v86q-49 4 -68 4q-135 0 -135 -103z" horiz-adv-x="1128" unicode="â"/><glyph d="M106 301q0 31 7.5 63.5t35 78.5t72.5 81t134 59.5t208 24.5q63 0 92 -2q0 84 -41 120t-96 36q-154 0 -311 -64v267q178 71 336 71q225 0 348 -114.5t123 -329.5v-242q0 -190 -102.5 -277t-366.5 -87q-438 0 -439 315zM252 1153v174q57 68 124 74q10 1 21 1q55 0 105 -26 l122 -60q52 -25 106 -25q11 0 22 1q65 6 122 74v-174q-57 -68 -122 -74q-12 -1 -23 -1q-53 0 -105 25l-122 60q-50 26 -105 26q-11 0 -21 -1q-67 -6 -124 -74zM459 362q0 -108 98 -108h2q49 0 76 39t27 82v86q-49 4 -68 4q-135 0 -135 -103z" horiz-adv-x="1128" unicode="ã"/><glyph d="M106 301q0 31 7.5 63.5t35 78.5t72.5 81t134 59.5t208 24.5q63 0 92 -2q0 84 -41 120t-96 36q-154 0 -311 -64v267q178 71 336 71q225 0 348 -114.5t123 -329.5v-242q0 -190 -102.5 -277t-366.5 -87q-438 0 -439 315zM266 1139v223h246v-223h-246zM459 362 q0 -108 98 -108h2q49 0 76 39t27 82v86q-49 4 -68 4q-135 0 -135 -103zM614 1139v223h246v-223h-246z" horiz-adv-x="1128" unicode="ä"/><glyph d="M106 301q0 31 7.5 63.5t35 78.5t72.5 81t134 59.5t208 24.5q63 0 92 -2q0 84 -41 120t-96 36q-154 0 -311 -64v267q178 71 336 71q225 0 348 -114.5t123 -329.5v-242q0 -190 -102.5 -277t-366.5 -87q-438 0 -439 315zM385 1272q0 84 47 130t131 46q86 0 132 -46t46 -130 t-46 -130t-132 -46q-84 0 -131 46t-47 130zM459 362q0 -108 98 -108h2q49 0 76 39t27 82v86q-49 4 -68 4q-135 0 -135 -103zM512 1272q0 -37 11.5 -50.5t40 -13.5t39.5 13.5t11 50.5q0 63 -51 63t-51 -63z" horiz-adv-x="1128" unicode="å"/><glyph d="M127 297q0 31 7 63.5t35 78.5t73 81t134 59.5t208 24.5q63 0 92 -2q0 84 -41 120t-96 36q-154 0 -312 -64v267q176 71 332 71h4q92 0 175 -44t124 -91q35 51 113 94t170 43q229 0 347 -144t118 -353q0 -61 -6 -111h-582q0 -72 67.5 -121t151.5 -49q188 0 322 80v-248 q-166 -106 -389 -106q-96 0 -175 48t-112 109q-89 -157 -319 -157h-3q-438 0 -438 315zM479 358q0 -108 99 -108h2q49 0 75.5 39t26.5 82v86q-49 4 -68 4q-135 0 -135 -103zM1030 637h230q-4 59 -35 116.5t-80 57.5t-80 -53t-35 -121z" horiz-adv-x="1792" unicode="æ"/><glyph d="M119 510q0 254 126 390t361 136q178 0 322 -69v-262q-139 63 -258 63q-90 0 -144.5 -64.5t-54.5 -193.5t54.5 -193.5t144.5 -64.5q119 0 258 63v-262q-106 -51 -238 -63l-125 -240h-239l188 240q-193 25 -294 158t-101 362z" horiz-adv-x="993" unicode="ç"/><glyph d="M131 502q0 244 113.5 390t355.5 146q229 0 347 -144t118 -353q0 -61 -6 -111h-582q0 -72 67.5 -121t151.5 -49q188 0 322 80v-248q-166 -106 -402 -106q-68 0 -129 11t-128.5 46t-115.5 89t-80 149.5t-32 220.5zM338 1393h240l127 -240h-177zM485 641h230 q-4 59 -35 116.5t-80 57.5t-80 -53t-35 -121z" unicode="è"/><glyph d="M131 502q0 244 113.5 390t355.5 146q229 0 347 -144t118 -353q0 -61 -6 -111h-582q0 -72 67.5 -121t151.5 -49q188 0 322 80v-248q-166 -106 -402 -106q-68 0 -129 11t-128.5 46t-115.5 89t-80 149.5t-32 220.5zM475 1139l127 239h240l-191 -239h-176zM485 641h230 q-4 59 -35 116.5t-80 57.5t-80 -53t-35 -121z" unicode="é"/><glyph d="M131 502q0 244 113.5 390t355.5 146q229 0 347 -144t118 -353q0 -61 -6 -111h-582q0 -72 67.5 -121t151.5 -49q188 0 322 80v-248q-166 -106 -402 -106q-68 0 -129 11t-128.5 46t-115.5 89t-80 149.5t-32 220.5zM301 1139l246 250h98l246 -250h-209l-86 90l-86 -90h-209z M485 641h230q-4 59 -35 116.5t-80 57.5t-80 -53t-35 -121z" unicode="ê"/><glyph d="M131 502q0 244 113.5 390t355.5 146q229 0 347 -144t118 -353q0 -61 -6 -111h-582q0 -72 67.5 -121t151.5 -49q188 0 322 80v-248q-166 -106 -402 -106q-68 0 -129 11t-128.5 46t-115.5 89t-80 149.5t-32 220.5zM299 1139v223h246v-223h-246zM485 641h230 q-4 59 -35 116.5t-80 57.5t-80 -53t-35 -121zM647 1139v223h246v-223h-246z" unicode="ë"/><glyph d="M92 1393h240l127 -240h-176zM197 0h352v1022h-352v-1022z" horiz-adv-x="735" unicode="ì"/><glyph d="M197 0h352v1022h-352v-1022zM287 1139l127 239h239l-190 -239h-176z" horiz-adv-x="735" unicode="í"/><glyph d="M78 1139l246 250h98l246 -250h-209l-86 90l-86 -90h-209zM197 0h352v1022h-352v-1022z" horiz-adv-x="735" unicode="î"/><glyph d="M76 1139v223h246v-223h-246zM197 0h352v1022h-352v-1022zM424 1139v223h246v-223h-246z" horiz-adv-x="735" unicode="ï"/><glyph d="M117 481q0 131 41 220.5t115.5 129t148.5 55t170 15.5q123 0 190 -27q-14 109 -123 164l-151 -118l-92 114l61 49h-16q-90 0 -199 -30v301q91 30 219 30h8q162 0 291 -59l107 84l92 -117l-68 -53q215 -193 215 -606q0 -649 -505 -649q-131 0 -232.5 45t-159 118.5 t-85 158.5t-27.5 175zM471 483q0 -31 7 -68.5t44.5 -82.5t98.5 -45q66 0 113 95q42 87 42 247v28q-53 23 -151 23q-78 0 -116 -59.5t-38 -137.5z" horiz-adv-x="1271" unicode="ð"/><glyph d="M178 0v913q246 123 508 123q217 0 344 -115.5t127 -318.5v-602h-352v657q0 31 -8.5 51.5t-48 41t-115.5 20.5q-55 0 -103 -12v-758h-352zM342 1153v174q57 68 124 74q10 1 21 1q55 0 105 -26l122 -60q52 -25 106 -25q11 0 22 1q65 6 123 74v-174q-57 -68 -123 -74 q-11 -1 -22 -1q-54 0 -106 25l-122 60q-50 26 -105 26q-11 0 -21 -1q-67 -6 -124 -74z" horiz-adv-x="1308" unicode="ñ"/><glyph d="M92 510q0 254 128 389t363.5 135t363.5 -135t128 -389t-128 -389t-363.5 -135t-363.5 135t-128 389zM332 1378h239l127 -239h-176zM444 510q0 -270 139.5 -270t139.5 270t-139.5 270t-139.5 -270z" unicode="ò"/><glyph d="M92 510q0 254 128 389t363.5 135t363.5 -135t128 -389t-128 -389t-363.5 -135t-363.5 135t-128 389zM444 510q0 -270 139.5 -270t139.5 270t-139.5 270t-139.5 -270zM469 1139l127 239h240l-191 -239h-176z" unicode="ó"/><glyph d="M92 510q0 254 128 389t363.5 135t363.5 -135t128 -389t-128 -389t-363.5 -135t-363.5 135t-128 389zM289 1139l246 250h98l246 -250h-209l-86 90l-86 -90h-209zM444 510q0 -270 139.5 -270t139.5 270t-139.5 270t-139.5 -270z" unicode="ô"/><glyph d="M92 510q0 254 128 389t363.5 135t363.5 -135t128 -389t-128 -389t-363.5 -135t-363.5 135t-128 389zM276 1153v174q57 68 124 74q11 1 22 1q55 0 106 -26l122 -60q51 -25 105 -25q11 0 21 1q66 6 123 74v-174q-57 -68 -123 -74q-11 -1 -22 -1q-53 0 -104 25l-122 60 q-51 26 -106 26q-11 0 -22 -1q-66 -6 -124 -74zM444 510q0 -270 139.5 -270t139.5 270t-139.5 270t-139.5 -270z" unicode="õ"/><glyph d="M92 510q0 254 128 389t363.5 135t363.5 -135t128 -389t-128 -389t-363.5 -135t-363.5 135t-128 389zM287 1139v223h245v-223h-245zM444 510q0 -270 139.5 -270t139.5 270t-139.5 270t-139.5 -270zM635 1139v223h246v-223h-246z" unicode="ö"/><glyph d="M188 418v231h916v-231h-916zM520 47v240h252v-240h-252zM520 782v240h252v-240h-252z" horiz-adv-x="1286" unicode="÷"/><glyph d="M23 0l178 209q-68 119 -68 303q0 254 128 389t364 135q141 0 243 -49l31 35h330l-178 -207q65 -119 65 -298v-5q0 -254 -128 -389t-363 -135q-139 0 -244 49l-31 -37h-327zM487 541l193 227q-28 14 -55 14q-131 0 -138 -241zM569 256q23 -14 56 -14q131 0 139 239z" horiz-adv-x="1255" unicode="ø"/><glyph d="M172 461v561h352v-623q0 -150 122 -150q1 0 1 1q123 0 123 149v623h352v-561q0 -475 -475 -475t-475 475zM391 1378h240l127 -239h-176z" horiz-adv-x="1269" unicode="ù"/><glyph d="M172 461v561h352v-623q0 -150 122 -150q1 0 1 1q123 0 123 149v623h352v-561q0 -475 -475 -475t-475 475zM537 1139l127 239h239l-190 -239h-176z" horiz-adv-x="1269" unicode="ú"/><glyph d="M172 461v561h352v-623q0 -150 122 -150q1 0 1 1q123 0 123 149v623h352v-561q0 -475 -475 -475t-475 475zM352 1139l246 250h98l246 -250h-209l-86 90l-86 -90h-209z" horiz-adv-x="1269" unicode="û"/><glyph d="M172 461v561h352v-623q0 -150 122 -150q1 0 1 1q123 0 123 149v623h352v-561q0 -475 -475 -475t-475 475zM350 1139v223h246v-223h-246zM698 1139v223h246v-223h-246z" horiz-adv-x="1269" unicode="ü"/><glyph d="M63 1022h373l148 -588l145 588h371l-373 -1002q-90 -231 -177 -327t-212 -96q-133 0 -223 43v256q70 -25 135 -25q47 0 92 56.5t78 170.5zM485 1139l127 239h240l-190 -239h-177z" horiz-adv-x="1169" unicode="ý"/><glyph d="M172 -375v1778h350v-379q43 6 133 6q223 0 344 -133t121 -383t-120.5 -383t-344.5 -133q-90 0 -133 6v-379h-350zM522 221q50 -4 68 -4q178 12 178 297t-178 297q-18 0 -68 -4v-586z" horiz-adv-x="1218" unicode="þ"/><glyph d="M63 1022h373l148 -588l145 588h371l-373 -1002q-90 -231 -177 -327t-212 -96q-133 0 -223 43v256q70 -25 135 -25q47 0 92 56.5t78 170.5zM287 1139v223h245v-223h-245zM635 1139v223h246v-223h-246z" horiz-adv-x="1169" unicode="ÿ"/><glyph d="M123 684q0 166 39 293t101.5 201.5t149.5 122t171 63.5t180 16q168 0 293 -51v37h952v-287h-600v-252h520v-288h-520v-250h600v-289h-952v39q-125 -51 -293 -51q-96 0 -180 16t-171 63.5t-149.5 122t-101.5 201.5t-39 293zM475 684q0 -223 79 -309t210 -86t210 86t79 309 t-79 309t-210 86t-210 -86t-79 -309z" horiz-adv-x="2160" unicode="Œ"/><glyph d="M125 512q0 254 128 389t363 135q190 0 308 -86q117 88 297 88q229 0 347 -144t118 -353q0 -61 -7 -111h-581q0 -72 67.5 -121t151.5 -49q188 0 321 80v-248q-166 -106 -401 -106q-193 0 -311 88q-119 -86 -310 -86q-236 0 -363.5 135t-127.5 389zM477 512 q0 -270 139.5 -270t139.5 270t-139.5 270t-139.5 -270zM1106 641h229q-4 59 -34.5 116.5t-80 57.5t-80 -53t-34.5 -121z" horiz-adv-x="1853" unicode="œ"/><glyph d="M25 1366h428l290 -520l291 520h428l-542 -791v-575h-353v575zM449 1483v223h245v-223h-245zM797 1483v223h245v-223h-245z" horiz-adv-x="1492" unicode="Ÿ"/><glyph d="M137 1155l246 250h98l246 -250h-209l-86 90l-86 -90h-209z" horiz-adv-x="874" unicode="ˆ"/><glyph d="M215 1153v174q57 68 124 74q11 1 22 1q55 0 105 -26l122 -60q51 -25 105 -25q11 0 21 1q66 6 124 74v-174q-57 -68 -123 -74q-11 -1 -22 -1q-54 0 -105 25l-122 60q-50 26 -105 26q-11 0 -22 -1q-67 -6 -124 -74z" horiz-adv-x="1058" unicode="˜"/><glyph horiz-adv-x="897"/><glyph horiz-adv-x="1794"/><glyph horiz-adv-x="897"/><glyph horiz-adv-x="1794"/><glyph horiz-adv-x="598"/><glyph horiz-adv-x="448"/><glyph horiz-adv-x="299"/><glyph horiz-adv-x="299"/><glyph horiz-adv-x="224"/><glyph horiz-adv-x="358"/><glyph horiz-adv-x="99"/><glyph d="M162 514v240h624v-240h-624z" horiz-adv-x="950" unicode="‐"/><glyph d="M162 514v240h624v-240h-624z" horiz-adv-x="950" unicode="‑"/><glyph d="M162 514v240h624v-240h-624z" horiz-adv-x="950" unicode="‒"/><glyph d="M141 475v240h860v-240h-860z" horiz-adv-x="1146" unicode="–"/><glyph d="M162 475v240h1501v-240h-1501z" horiz-adv-x="1824" unicode="—"/><glyph d="M96 1384h285l151 -401h-239z" horiz-adv-x="616" unicode="‘"/><glyph d="M96 983l152 401h284l-196 -401h-240z" horiz-adv-x="616" unicode="’"/><glyph d="M147 -229l152 401h285l-197 -401h-240z" horiz-adv-x="698" unicode="‚"/><glyph d="M98 1384h285l152 -401h-240zM455 1384h284l152 -401h-240z" horiz-adv-x="980" unicode="“"/><glyph d="M98 983l152 401h285l-197 -401h-240zM455 983l151 401h285l-197 -401h-239z" horiz-adv-x="980" unicode="”"/><glyph d="M147 -229l152 401h285l-197 -401h-240zM504 -229l151 401h285l-197 -401h-239z" horiz-adv-x="1056" unicode="„"/><glyph d="M172 665.5q0 153.5 109.5 262t263 108.5t261 -107.5t107.5 -263t-107.5 -263t-261 -107.5t-263 108.5t-109.5 262z" horiz-adv-x="1085" unicode="•"/><glyph d="M219 0v283h295v-283h-295zM780 0v283h295v-283h-295zM1343 0v283h295v-283h-295z" horiz-adv-x="1849" unicode="…"/><glyph horiz-adv-x="358"/><glyph d="M63 522l347 389h338l-373 -389l373 -391h-338z" horiz-adv-x="819" unicode="‹"/><glyph d="M80 131l373 391l-373 389h338l346 -389l-346 -391h-338z" horiz-adv-x="843" unicode="›"/><glyph horiz-adv-x="448"/><glyph d="M98 408v190h166q-2 27 -2 86t2 88h-166v191h197q117 419 606 419h2q199 0 438 -96v-305q-204 98 -417 98q-174 0 -248 -116h397v-191h-455q-4 -53 -4 -88q0 -33 4 -86h455v-190h-397q74 -119 248 -119q213 0 417 98v-305q-240 -96 -438 -96q-492 0 -608 422h-197z" horiz-adv-x="1466" unicode="€"/><glyph d="M100 1206v160h572v-160h-199v-522h-176v522h-197zM772 684v682h174l160 -233l160 233h174v-682h-176v422l-158 -227l-158 227v-422h-176z" horiz-adv-x="1581" unicode="™"/><glyph d="M0 0v1020h1020v-1020h-1020z" horiz-adv-x="1020" unicode="◼"/><glyph d="M84 774v248h145q1 424 404 424q84 0 151 -23v-211q-29 8 -55 9q-72 0 -109.5 -63.5t-37.5 -135.5h202v-248h-206v-774h-353v774h-141zM981 1139h360v268h-360v-268zM985 0h352v1022h-352v-1022z" horiz-adv-x="1462" unicode="ﬁ"/><glyph d="M82 774v248h145q1 424 404 424q84 0 151 -23v-211q-29 8 -55 9q-72 0 -109.5 -63.5t-37.5 -135.5h202v-248h-207v-774h-352v774h-141zM983 0h352v1411h-352v-1411z" horiz-adv-x="1462" unicode="ﬂ"/><glyph d="M82 774v248h145q1 424 404 424q84 0 151 -23v-211q-29 8 -55 9q-72 0 -109.5 -63.5t-37.5 -135.5h202v-248h-207v-774h-352v774h-141zM858 774v248h145q1 424 404 424q84 0 151 -23v-211q-29 8 -55 9q-72 0 -109.5 -63.5t-37.5 -135.5h202v-248h-207v-774h-352v774h-141z M1745 1139v268h360v-268h-360zM1749 0v1022h352v-1022h-352z" horiz-adv-x="2287" unicode="ﬃ"/><glyph d="M82 774v248h145q1 424 404 424q84 0 151 -23v-211q-29 8 -55 9q-72 0 -109.5 -63.5t-37.5 -135.5h202v-248h-207v-774h-352v774h-141zM858 774v248h145q1 424 404 424q84 0 151 -23v-211q-29 8 -55 9q-72 0 -109.5 -63.5t-37.5 -135.5h202v-248h-207v-774h-352v774h-141z M1759 0v1411h352v-1411h-352z" horiz-adv-x="2313" unicode="ﬄ"/></font>
</defs>
</svg>
