<svg xmlns="http://www.w3.org/2000/svg" width="389" height="512" version="1.1" viewBox="0 0 389 512"><path fill="#8fa0b5" d="M344.276 192.177v-101.447c-0.45-50.205-41.252-90.731-91.521-90.731-0.101 0-0.201 0-0.302 0.001h-116.72c-0.085-0.001-0.185-0.001-0.286-0.001-50.269 0-91.072 40.526-91.52 90.688l-0.001 101.49c-24.428 0.733-43.972 20.63-44.138 45.128v229.375c0.139 25.062 20.486 45.324 45.568 45.324 0.193 0 0.385-0.001 0.577-0.003l296.577 0.001c0.1 0.001 0.218 0.001 0.336 0.001 25.080 0 45.428-20.262 45.567-45.309v-229.371c-0.166-24.514-19.71-44.41-44.070-45.143zM135.768 64h116.736c14.776 0.116 26.745 11.978 27.029 26.703l0 101.297h-170.814v-101.27c0.296-14.778 12.308-26.653 27.111-26.73zM226.498 363.467v53.531c0 17.873-14.489 32.362-32.362 32.362s-32.362-14.489-32.362-32.362v-53.531c-16.468-10.548-27.243-28.726-27.313-49.424 0-32.967 26.717-59.685 59.674-59.685s59.674 26.717 59.674 59.675c-0.053 20.697-10.802 38.871-27.009 49.294z"/></svg>