<!-- Generated by IcoMoon.io -->
<svg version="1.1" xmlns="http://www.w3.org/2000/svg" width="565" height="512" viewBox="0 0 565 512">
<g id="icomoon-ignore">
</g>
<path fill="#768da9" d="M1.024 397.312c1.707-2.731 4.45-2.901 8.218-0.512 85.53 49.493 178.583 74.24 279.171 74.24 67.059 0 133.264-12.459 198.603-37.376 1.72-0.683 4.201-1.707 7.444-3.072 3.256-1.365 5.567-2.389 6.932-3.072 5.133-2.048 9.151-1.024 12.052 3.072 2.914 4.096 1.969 7.851-2.822 11.264-6.157 4.438-14.021 9.558-23.605 15.36-29.421 17.408-62.267 30.89-98.527 40.448-36.273 9.558-71.68 14.336-106.233 14.336-53.366 0-103.831-9.308-151.394-27.911-47.55-18.589-90.151-44.793-127.777-78.585-2.061-1.707-3.085-3.413-3.085-5.12 0-1.024 0.342-2.048 1.024-3.072zM155.504 251.392c0-23.552 5.816-43.69 17.447-60.416s27.543-29.355 47.721-37.888c18.471-7.851 41.222-13.482 68.254-16.896 9.243-1.024 24.287-2.389 45.161-4.096v-8.704c0-21.846-2.389-36.523-7.181-44.032-7.181-10.24-18.471-15.36-33.871-15.36h-4.109c-11.291 1.024-21.044 4.608-29.25 10.752s-13.509 14.677-15.911 25.6c-1.365 6.826-4.792 10.752-10.267 11.776l-59.012-7.168c-5.816-1.365-8.731-4.438-8.731-9.216 0-1.024 0.171-2.219 0.512-3.584 5.816-30.379 20.113-52.907 42.863-67.584s49.349-22.869 79.793-24.576h12.827c39.004 0 69.462 10.069 91.359 30.208 3.413 3.413 6.577 7.076 9.491 11.002 2.901 3.938 5.212 7.431 6.932 10.502 1.707 3.072 3.243 7.51 4.608 13.312 1.378 5.802 2.402 9.82 3.085 12.025 0.683 2.219 1.195 7.010 1.536 14.336 0.341 7.338 0.512 11.697 0.512 13.063v123.904c0 8.875 1.286 16.988 3.846 24.314 2.573 7.352 5.055 12.643 7.443 15.872 2.402 3.243 6.328 8.454 11.803 15.623 2.061 3.072 3.085 5.803 3.085 8.192 0 2.731-1.365 5.12-4.109 7.168-28.397 24.576-43.796 37.888-46.185 39.936-4.109 3.072-9.072 3.413-14.887 1.024-4.779-4.096-8.979-8.022-12.563-11.776-3.597-3.755-6.157-6.486-7.707-8.192-1.536-1.707-4.017-5.028-7.443-9.99-3.413-4.95-5.816-8.271-7.181-9.978-19.154 20.822-37.98 33.792-56.452 38.912-11.632 3.413-25.994 5.12-43.1 5.12-26.349 0-47.983-8.1-64.919-24.327-16.935-16.214-25.403-39.161-25.403-68.858zM243.764 241.152c0 13.312 3.334 23.972 10.004 31.993 6.682 8.034 15.662 12.038 26.952 12.038 1.024 0 2.481-0.171 4.358-0.512s3.164-0.512 3.846-0.512c14.375-3.755 25.495-12.971 33.359-27.648 3.768-6.486 6.591-13.575 8.467-21.255s2.914-13.903 3.085-18.681c0.171-4.779 0.25-12.63 0.25-23.552v-12.8c-19.837 0-34.895 1.365-45.161 4.096-30.103 8.534-45.161 27.477-45.161 56.832zM459.303 406.016c0.683-1.365 1.72-2.731 3.085-4.096 8.546-5.803 16.764-9.728 24.628-11.776 13.010-3.413 25.665-5.291 37.98-5.632 3.427-0.341 6.669-0.171 9.755 0.512 15.386 1.365 24.629 3.925 27.713 7.68 1.365 2.048 2.048 5.12 2.048 9.216v3.584c0 11.947-3.256 26.020-9.755 42.233-6.499 16.226-15.557 29.276-27.202 39.175-1.707 1.365-3.242 2.048-4.608 2.048-0.683 0-1.379-0.171-2.061-0.512-2.048-1.024-2.56-2.901-1.536-5.632 12.655-29.696 18.984-50.346 18.984-61.952 0-3.755-0.683-6.486-2.048-8.192-3.427-4.096-12.997-6.144-28.738-6.144-5.816 0-12.656 0.341-20.532 1.024-8.546 1.024-16.423 2.048-23.605 3.072-2.048 0-3.426-0.341-4.109-1.024s-0.853-1.365-0.512-2.048c0-0.341 0.171-0.853 0.512-1.536z"></path>
</svg>
