<svg xmlns="http://www.w3.org/2000/svg" xmlns:svg="http://www.w3.org/2000/svg" width="879" height="512"><g><title>Layer 1</title><path id="svg_1" fill="#757575" d="m40.102,241.544l64.35,0l8.082,-19.584l18.186,0l8.083,19.584l70.722,0l0,-14.922l6.373,15.077l36.683,0l6.218,-15.232l0,15.232l175.796,0l-0.156,-32.175l3.42,0c2.332,0 3.108,0.311 3.108,4.197l0,27.822l90.929,0l0,-7.461c7.306,3.886 18.808,7.461 33.729,7.461l38.237,0l8.238,-19.584l18.186,0l8.082,19.584l73.676,0l0,-18.652l11.192,18.652l59.065,0l0,-122.793l-58.443,0l0,14.611l-8.082,-14.611l-59.997,0l0,14.611l-7.461,-14.611l-80.981,0c-13.523,0 -25.491,1.865 -35.128,7.15l0,-7.15l-55.801,0l0,7.15c-6.217,-5.44 -14.611,-7.15 -23.781,-7.15l-204.552,0l-13.833,31.709l-13.989,-31.709l-64.35,0l0,14.611l-7.15,-14.611l-54.713,0l-53.935,122.793l-0.003,0.001zm723.546,-17.252l-29.843,0l-39.947,-66.059l0,66.06l-42.9,0l-8.238,-19.584l-43.832,0l-7.927,19.584l-24.714,0c-10.259,0 -23.159,-2.332 -30.465,-9.637c-7.461,-7.461 -11.192,-17.564 -11.192,-33.729c0,-13.056 2.332,-25.025 11.346,-34.351c6.839,-6.994 17.409,-10.258 32.019,-10.258l20.362,0l0,18.808l-19.895,0c-7.616,0 -12.124,1.244 -16.321,5.285c-3.575,3.731 -6.062,10.725 -6.062,19.895c0,9.482 1.865,16.165 5.751,20.672c3.109,3.419 9.015,4.507 14.611,4.507l9.481,0l29.688,-69.323l31.553,0l35.595,83.313l0,-83.313l32.175,0l36.994,61.397l0,-61.397l21.45,0l0,88.131l0.311,0l0,-0.001zm-249.005,0l-21.45,0l0,-88.131l21.45,0l0,88.131zm-33.73,-64.351c0,13.989 -9.326,21.294 -14.766,23.47c4.663,1.865 8.549,4.819 10.414,7.461c2.953,4.352 3.575,8.238 3.575,16.01l0,17.253l-21.294,0l-0.156,-11.036c0,-5.285 0.466,-12.901 -3.42,-17.098c-3.108,-3.108 -7.772,-3.731 -15.233,-3.731l-22.694,0l0,32.019l-20.983,0l0,-88.131l48.495,0c10.725,0 18.652,0.311 25.491,4.352c6.528,3.886 10.57,9.637 10.57,19.429l0.001,0.002zm-99.167,64.351l-70.256,0l0,-88.131l70.256,0l0,18.341l-49.272,0l0,15.855l48.029,0l0,18.03l-48.029,-0.155l0,17.564l49.272,0l0,18.496zm-85.955,0l-21.606,0l-0.156,-68.857l-30.465,68.858l-18.496,0l-30.62,-69.013l0,69.013l-42.745,0l-8.083,-19.584l-43.833,0l-8.082,19.584l-23.004,0l37.615,-87.976l31.243,0l35.75,83.468l0,-83.624l34.351,0l27.512,59.842l25.336,-59.842l34.973,0l0,88.131l0.311,0l-0.001,0zm339.935,-38.082l-14.611,-34.972l-14.456,34.972l29.066,0l0.001,0zm-182.325,-13.834c-2.798,1.554 -6.373,1.865 -10.414,1.865l-25.647,0l0,-19.584l25.957,0c3.731,0 7.461,0.155 10.103,1.554s4.352,4.042 4.352,7.772s-1.71,6.839 -4.352,8.393l0.001,0zm-317.396,13.834l-14.456,-34.972l-14.3,34.972l28.755,0l0.001,0z"/><path id="svg_2" fill="#757575" d="m257.399,306.05l0,16.01l46.164,0l0,17.875l-46.164,0l0,17.564l51.76,0l23.937,-25.802l-23.005,-25.647l-52.692,0z"/><path id="svg_3" fill="#757575" d="m392.471,367.913l0,-70.722l-32.175,34.817l32.175,35.905z"/><path id="svg_4" fill="#757575" d="m543.398,307.604c-2.487,-1.399 -6.217,-1.555 -9.948,-1.555l-25.957,0l0,19.74l25.646,0c4.042,0 7.616,-0.156 10.414,-1.865s4.352,-4.663 4.352,-8.549c-0.155,-3.731 -1.71,-6.373 -4.508,-7.772l0.001,0.001z"/><path id="svg_5" fill="#757575" d="m440.966,306.05l-27.512,0l0,22.382l27.201,0c8.082,0 13.056,-3.886 13.056,-11.502c0.156,-7.927 -5.13,-10.88 -12.745,-10.88z"/><path id="svg_6" fill="#757575" d="m839.034,348.017c0,-9.637 -1.865,-17.564 -6.062,-24.093l1.71,0l0,-53.625l-56.423,0c-11.813,0 -20.362,2.798 -26.424,7.15l0,-7.15l-57.666,0c-9.17,0 -19.895,2.332 -25.181,7.15l0,-7.15l-102.898,0l0,7.15c-8.238,-5.906 -21.916,-7.15 -28.444,-7.15l-67.769,0l0,7.15c-6.528,-6.217 -20.828,-7.15 -29.688,-7.15l-76.007,0l-17.098,18.808l-16.32,-18.808l-113.467,0l0,122.948l111.291,0l17.875,-19.118l16.942,19.118l68.546,0l0,-28.911l6.839,0c9.015,0.156 19.895,-0.156 29.221,-4.352l0,33.108l56.578,0l0,-32.019l2.798,0c3.575,0 3.886,0.156 3.886,3.575l0,28.445l171.91,0c10.88,0 22.227,-2.798 28.6,-7.927l0,7.927l54.713,0c0.155,0 12.434,0 21.45,-2.332c6.683,-1.71 12.59,-5.596 13.989,-6.528c15.388,-11.036 17.098,-29.066 17.098,-36.216l0.001,0zm-399.311,-1.71l-26.269,0l0,29.533l-40.879,0l-25.957,-29.066l-26.89,29.066l-83.313,0l0,-88.131l84.712,0l25.802,28.911l26.735,-28.911l67.303,0c16.632,0 35.439,4.663 35.439,29.066s-18.186,29.532 -36.683,29.532zm126.679,-4.041c2.953,4.352 3.419,8.238 3.575,16.165l0,17.409l-21.139,0l0,-11.036c0,-5.285 0.466,-13.056 -3.419,-17.253c-3.109,-3.264 -7.771,-3.886 -15.388,-3.886l-22.538,0l0,32.175l-21.139,0l0,-88.131l48.495,0c10.725,0 18.496,0.466 25.336,4.197c6.683,3.886 10.725,9.481 10.725,19.584c0,13.989 -9.326,21.139 -14.922,23.315c4.818,1.865 8.705,4.974 10.414,7.461zm86.577,-36.216l-49.273,0l0,16.01l48.029,0l0,18.031l-48.029,0l0,17.409l49.273,0.156l0,18.341l-70.256,0l0,-88.131l70.256,0l0,18.186l0,-0.002zm53.625,69.789l-41.034,0l0,-18.963l40.879,0c4.042,0 6.839,-0.466 8.549,-2.176c1.399,-1.243 2.487,-3.264 2.487,-5.751c0,-2.642 -1.088,-4.663 -2.643,-5.751c-1.554,-1.399 -3.731,-2.021 -7.461,-2.021c-19.74,-0.622 -44.298,0.622 -44.298,-27.201c0,-12.745 8.082,-26.269 29.999,-26.269l42.278,0l0,18.808l-38.548,0c-3.886,0 -6.373,0.156 -8.549,1.555c-2.332,1.399 -3.109,3.575 -3.109,6.373c0,3.264 2.02,5.596 4.663,6.528c2.176,0.777 4.508,0.933 8.082,1.088l11.346,0.311c11.502,0.311 19.274,2.332 23.937,6.995c4.197,4.352 6.373,9.637 6.373,18.652c0.155,18.963 -11.813,27.822 -32.952,27.822l0.001,0zm96.058,-1.709l0,0c-0.933,0.311 -2.02,0.466 -2.953,0.777c-0.155,0 -0.311,0 -0.466,0.156c-2.02,0.311 -4.197,0.622 -6.373,0.777c-0.311,0 -0.466,0 -0.777,0c-1.088,0 -2.176,0.156 -3.264,0.156l-40.723,0l0,-18.963l40.568,0c4.042,0 6.839,-0.466 8.549,-2.176c1.399,-1.243 2.487,-3.264 2.487,-5.751c0,-2.642 -1.088,-4.663 -2.643,-5.751c-1.554,-1.399 -3.731,-2.021 -7.461,-2.021c-19.74,-0.622 -44.454,0.622 -44.454,-27.201c0,-12.745 8.082,-26.269 30.154,-26.269l41.967,0l0,18.808l-38.392,0c-3.886,0 -6.373,0.156 -8.549,1.555s-3.109,3.575 -3.109,6.373c0,3.264 1.865,5.596 4.663,6.528c2.176,0.777 4.508,0.933 8.082,1.088l11.346,0.311c1.71,0 3.264,0.156 4.663,0.311l0,0c8.86,0.777 15.077,2.798 19.119,6.839c4.197,4.352 6.373,9.637 6.373,18.652c0.155,13.989 -6.528,22.382 -18.808,25.802l0.001,-0.001z"/></g></svg>