<svg xmlns="http://www.w3.org/2000/svg" width="512" height="512" viewBox="0 0 512 512">
  <path fill="#8A95B3" fill-rule="evenodd" d="M256,512 C114.615104,512 0,397.384896 0,256 C0,114.615104 114.615104,0 256,0 C397.384896,0 512,114.615104 512,256 C512,397.384896 397.384896,512 256,512 Z M269.010286,339.0016 L269.010286,271.490743 C285.046857,272.295314 300.461714,285.808457 301.696,299.824457 C303.414857,319.179886 291.337143,333.982171 269.010286,339.0016 Z M234.331429,231.243886 C213.888,226.891886 201.718857,214.786743 201.691429,199.253029 C201.664,180.903314 213.668571,167.527314 234.331429,163.376457 L234.331429,231.243886 Z M234.861714,266.8096 L234.861714,302.0736 L234.861714,337.630171 C214.582857,333.058743 203.657143,321.109029 201.554286,302.357029 C201.371429,300.757029 201.197714,299.147886 200.786286,297.611886 C198.610286,289.575314 190.838857,284.382171 182.500571,285.296457 C174.820571,286.146743 168.228571,293.1136 167.972571,301.086171 C167.844571,304.944457 167.963429,308.912457 168.676571,312.6976 C173.915429,340.181029 191.241143,357.406171 216.256,367.774171 C222.125714,370.215314 228.342857,371.824457 234.852571,373.954743 C234.852571,379.422171 234.742857,384.898743 234.88,390.357029 C235.136,401.063314 242.514286,409.099886 251.858286,409.045029 C261.229714,408.981029 268.388571,401.008457 268.635429,390.174171 C268.772571,384.770743 268.662857,379.358171 268.662857,374.210743 C308.873143,365.186743 333.083429,341.2416 335.533714,309.077029 C336.630857,294.9056 333.897143,281.685029 326.016,269.799314 C312.502857,249.4016 292.141714,239.957029 269.248,235.559314 L269.248,163.824457 C283.593143,168.853029 295.698286,175.216457 300.443429,190.091886 C301.814857,194.389029 301.677714,199.134171 302.601143,203.595886 C304.338286,212.080457 312.274286,217.794743 320.758857,216.926171 C328.786286,216.103314 335.424,208.981029 335.597714,200.679314 C335.670857,197.040457 335.579429,193.310171 334.902857,189.744457 C329.334857,160.496457 310.509714,143.0976 283.684571,133.022171 C279.021714,131.266743 272.246857,131.330743 269.961143,128.085029 C267.428571,124.4736 268.873143,118.037029 268.662857,112.8256 C268.251429,102.741029 260.681143,94.5307429 251.766857,94.6038857 C242.733714,94.6770286 235.254857,102.640457 234.861714,112.853029 C234.669714,117.854171 234.825143,122.8736 234.825143,127.728457 C186.340571,142.567314 166.729143,165.058743 167.926857,204.034743 C168.841143,233.557029 193.216,256.651886 234.861714,266.8096 Z"/>
</svg>
