<!-- Generated by IcoMoon.io -->
<svg version="1.1" xmlns="http://www.w3.org/2000/svg" width="427" height="512" viewBox="0 0 427 512">
<g id="icomoon-ignore">
</g>
<path fill="#00bed5" d="M396.313 347.356c-16.75 0-30.342-14.166-30.342-31.635v-123.636c0-17.469 13.592-31.635 30.342-31.635 16.762 0 30.342 14.166 30.342 31.635v123.636c0 17.469-13.58 31.635-30.342 31.635zM325.254 411.575h-27.038v68.779c0 17.481-13.58 31.647-30.342 31.647-16.75 0-30.342-14.166-30.342-31.647v-68.779h-47.226v68.779c0 17.481-13.58 31.647-30.342 31.647-16.75 0-30.342-14.166-30.342-31.647v-68.779h-27.026c-13.068 0-23.662-10.874-23.662-24.296v-225.865h269.983v225.865c0 13.421-10.594 24.296-23.661 24.296zM149.321 44.373l-24.942-37.169c-1.475-2.207-1.109-5.108 0.829-6.473 1.926-1.377 4.706-0.695 6.18 1.511l25.905 38.607c17.079-6.9 36.047-10.752 56.028-10.752s38.948 3.852 56.028 10.752l25.905-38.607c1.475-2.207 4.243-2.889 6.18-1.512 1.938 1.366 2.304 4.266 0.829 6.473l-24.942 37.169c39.644 18.932 67.45 54.918 70.998 96.915h-269.995c3.535-41.996 31.354-77.983 70.998-96.915zM272.14 102.948c8.253 0 14.945-6.863 14.945-15.335s-6.692-15.335-14.945-15.335c-8.253 0-14.933 6.863-14.933 15.335s6.68 15.335 14.933 15.335zM156.367 102.948c8.253 0 14.934-6.863 14.934-15.335s-6.68-15.335-14.934-15.335c-8.253 0-14.934 6.863-14.934 15.335s6.68 15.335 14.934 15.335zM30.33 347.356c-16.762 0-30.342-14.166-30.342-31.635v-123.636c0-17.469 13.58-31.635 30.342-31.635 16.749 0 30.342 14.166 30.342 31.635v123.636c0 17.469-13.593 31.635-30.342 31.635z"></path>
</svg>
