<svg xmlns="http://www.w3.org/2000/svg" width="512" height="512" version="1.1" viewBox="0 0 512 512"><path d="M15.059 0h195.764c8.317 0 15.059 6.742 15.059 15.059v195.764c0 8.317-6.742 15.059-15.059 15.059h-195.764c-8.317 0-15.059-6.742-15.059-15.059v-195.764c0-8.317 6.742-15.059 15.059-15.059z"/><path d="M301.176 0h195.764c8.317 0 15.059 6.742 15.059 15.059v195.764c0 8.317-6.742 15.059-15.059 15.059h-195.764c-8.317 0-15.059-6.742-15.059-15.059v-195.764c0-8.317 6.742-15.059 15.059-15.059z"/><path d="M15.059 286.118h195.764c8.317 0 15.059 6.742 15.059 15.059v195.764c0 8.317-6.742 15.059-15.059 15.059h-195.764c-8.317 0-15.059-6.742-15.059-15.059v-195.764c0-8.317 6.742-15.059 15.059-15.059z"/><path d="M301.176 286.118h195.764c8.317 0 15.059 6.742 15.059 15.059v195.764c0 8.317-6.742 15.059-15.059 15.059h-195.764c-8.317 0-15.059-6.742-15.059-15.059v-195.764c0-8.317 6.742-15.059 15.059-15.059z"/></svg>