<svg xmlns="http://www.w3.org/2000/svg" width="600" height="512" version="1.1" viewBox="0 0 600 512"><path fill="#92a0b5" d="M507.846 440.481v-300.002c0-9.333-7.622-16.896-17.043-16.896h-67.511v-123.582h176.479v213.358c0 87.859-24.664 170.599-91.926 227.123zM473.761 465.32c-18.49 11.63-38.21 21.24-58.704 28.628-22.002 7.914-30.544 13.298-54.214 15.96-17.613 2.004-19.603 2.487-36.322 1.565l-2.692-350.559h146.286l5.647 304.406zM275.807 140.478v367.221c-13.048-2.195-55.238-5.252-67.921-9.143v-252.577c0-9.333-7.621-31.524-17.042-31.524l-44.559-9.655v-175.543h175.543v87.772l-28.979 6.553c-9.421 0-17.043 7.563-17.043 16.896zM159.173 485.771c-15.112-6.714-29.652-14.673-43.432-23.772-69.954-46.183-102.108-118.009-115.742-199.124h159.173v222.895z"/></svg>