<svg xmlns="http://www.w3.org/2000/svg" width="512" height="512" viewBox="0 0 512 512"><path fill="#8A95B3" fill-rule="evenodd" d="M256,512 C114.615104,512 0,397.384896 0,256 C0,114.615104 114.615104,0 256,0 C397.384896,0 512,114.615104 512,256 C512,397.384896 397.384896,512 256,512 Z M312.082286,292.9792 L312.082286,291.214629 C312.082286,258.848914 312.082286,226.492343 312.073143,194.126629 C312.064,191.914057 312.054857,189.6832 311.808,187.479771 C311.131429,181.4272 308.361143,176.727771 302.665143,174.076343 C299.968,172.814629 297.078857,172.366629 294.125714,172.366629 C266.368,172.357486 238.619429,172.348343 210.861714,172.357486 C209.197714,172.357486 207.506286,172.412343 205.860571,172.6592 C199.625143,173.600914 195.117714,176.846629 192.832,182.8352 C191.725714,185.733486 191.506286,188.778057 191.506286,191.840914 L191.506286,291.562057 L191.506286,292.997486 L214.272,292.997486 L214.272,413.610057 L289.398857,413.610057 L289.398857,292.9792 L312.082286,292.9792 Z M251.743086,88.8411429 C231.637943,88.9325714 215.445943,105.161143 215.491657,125.165714 C215.546514,145.289143 231.893943,161.572571 251.907657,161.426286 C272.031086,161.289143 288.259657,144.987429 288.095086,125.065143 C287.930514,104.896 271.729371,88.7497143 251.743086,88.8411429 Z"/></svg>