<!-- Generated by IcoMoon.io -->
<svg version="1.1" xmlns="http://www.w3.org/2000/svg" width="622" height="512" viewBox="0 0 622 512">
<g id="icomoon-ignore">
</g>
<path fill="#000" d="M310.857 193.828c40.228 0 71.924 31.695 73.143 70.705 0 23.162-10.971 45.105-30.476 59.733l-18.286 13.409 20.724 7.315c12.19 4.876 23.162 10.971 32.914 19.505v132.876h-156.038v-131.657c9.752-8.534 20.724-15.848 32.914-19.505l20.724-7.315-18.286-13.409c-31.695-23.162-39.010-68.267-15.847-101.181 13.41-18.286 35.352-29.257 58.515-30.476zM310.857 182.857c-46.324 0-84.115 37.791-84.115 84.114 0 26.819 13.41 52.419 35.353 68.267-15.847 6.095-29.257 14.628-41.447 26.819v149.943h181.638v-151.162c-10.971-12.19-25.6-20.724-41.447-26.819 37.791-26.819 46.324-80.457 19.505-117.029-17.067-21.943-42.666-34.133-69.486-34.133v0z"></path>
<path fill="#000" d="M531.505 193.828c40.229 0 71.924 32.915 71.924 71.924 0 23.162-10.971 45.105-30.476 58.514l-18.285 13.409 20.724 7.315c12.191 3.657 24.381 10.971 34.134 19.505v132.876h-156.038v-131.657c9.752-8.534 20.724-15.848 32.914-19.505l20.724-7.315-18.286-13.409c-31.695-23.162-39.010-68.267-15.848-101.181 13.409-19.505 35.353-30.476 58.515-30.476zM531.505 181.638c-46.324 0-84.115 37.791-84.115 84.114 0 26.819 13.409 52.419 35.353 68.267-15.848 6.095-29.257 14.628-41.447 26.819v149.943h180.419v-149.943c-10.971-12.19-25.6-20.724-41.447-26.819 37.79-26.819 46.324-80.457 19.505-117.029-15.847-21.943-41.447-34.133-68.266-35.352v0z"></path>
<path fill="#000" d="M90.21 193.828c40.228 0 71.924 31.695 71.924 71.924 0 23.162-10.971 45.105-29.257 58.514l-18.285 13.409 20.724 7.315c12.191 4.876 23.162 10.971 32.915 19.505v132.876h-156.038v-131.657c9.752-8.534 20.724-15.848 32.914-19.505l20.724-7.315-17.067-13.409c-31.695-23.162-39.010-68.267-15.847-101.181 13.41-18.286 35.353-29.257 57.295-30.476zM91.428 182.857c-46.324 0-84.115 37.791-84.115 84.114 0 26.819 12.191 52.419 34.133 68.267-15.848 6.095-29.257 14.628-41.447 26.819v149.943h180.419v-151.162c-10.971-12.19-25.6-20.724-41.447-26.819 37.791-26.819 46.324-79.238 19.505-117.029-15.847-21.943-41.447-35.352-67.047-34.133v0z"></path>
<path fill="#000" d="M458.362 12.191c24.381 0 43.885 19.505 43.885 43.886 0 14.628-7.315 26.819-18.286 35.352l-18.286 13.409 20.724 7.314c7.315 2.438 13.409 6.095 19.505 10.972v13.41c-32.914 7.315-62.171 28.038-81.676 56.076-3.657-6.095-8.534-12.191-13.409-17.066v-51.2c6.095-4.876 12.19-8.534 19.505-10.972l20.724-8.534-18.286-13.409c-19.505-13.409-24.381-41.447-9.752-60.953 8.534-10.971 20.724-18.285 35.353-18.285zM458.362 0c-30.476 0-56.076 24.381-56.076 56.076 0 18.286 8.534 35.352 23.162 45.105-9.752 3.657-19.505 9.752-26.819 17.067v62.172c10.971 10.971 19.505 23.162 25.6 37.791 17.067-39.010 52.419-65.828 93.867-71.924v-28.038c-7.315-7.314-17.067-13.409-26.819-17.067 24.381-18.285 30.476-52.419 12.19-78.019-10.971-14.629-26.819-23.162-45.105-23.162z"></path>
<path fill="#000" d="M313.295 12.191c24.381 0 43.885 19.505 43.885 43.886 0 14.628-7.315 26.819-18.286 35.352l-18.286 13.409 20.724 7.314c7.315 2.438 13.409 6.095 19.505 10.972v18.285c-30.476-12.19-64.61-12.19-95.086 0v-18.285c6.095-4.876 12.19-8.534 19.505-10.972l20.724-7.314-18.286-13.409c-19.505-13.409-24.381-41.447-9.752-60.953 8.534-10.971 21.943-18.285 35.353-18.285zM313.295 0c-30.476 0-56.076 24.381-56.076 54.857 0 18.285 8.534 35.352 23.162 46.324-9.752 3.657-19.505 9.752-26.819 17.067v42.666c36.571-20.724 82.895-20.724 119.467 0v-42.666c-7.315-7.314-17.067-13.409-26.819-17.067 24.381-18.285 30.476-52.419 12.19-78.019-9.752-14.629-26.819-23.162-45.105-23.162z"></path>
<path fill="#000" d="M168.228 12.191c24.381 0 43.886 19.505 43.886 43.886 0 14.628-7.315 26.819-18.285 35.352l-18.286 13.409 20.724 7.314c7.315 2.438 13.41 6.095 19.505 10.972v52.419c-4.876 4.876-9.752 10.971-13.41 17.066-19.505-28.038-48.762-48.762-81.676-56.076v-13.409c6.095-4.876 12.191-8.534 19.505-10.972l20.724-7.314-18.285-13.409c-19.505-13.409-24.381-41.447-9.752-60.953 8.534-10.971 21.943-18.285 35.352-18.285zM168.228 0c-30.476 0-56.076 24.381-56.076 56.076 0 18.286 8.534 35.352 23.162 45.105-9.752 3.657-19.505 9.752-26.819 17.067v28.038c41.448 6.095 76.8 32.915 93.867 70.705 6.095-13.41 14.629-26.819 25.6-36.572v-60.953c-7.315-7.314-17.066-13.409-26.819-17.067 24.381-18.285 30.476-52.419 12.19-78.019-9.752-15.848-26.819-24.381-45.105-24.381z"></path>
</svg>
