<!-- Generated by IcoMoon.io -->
<svg version="1.1" xmlns="http://www.w3.org/2000/svg" width="623" height="512" viewBox="0 0 623 512">
<g id="icomoon-ignore">
</g>
<path fill="#000" d="M261.738 335.108c-16.075 5.923-29.779 14.916-41.002 26.352l-0.017 150.541h181.166v-150.401c-11.296-11.527-25.087-20.565-40.501-26.245 20.569-15.774 34.275-40.659 34.275-68.745 0-46.656-37.822-84.479-84.479-84.479s-84.479 37.822-84.479 84.479c0 28.087 13.707 52.971 34.795 68.332z"></path>
<path fill="#000" d="M482.457 335.108c-16.075 5.923-29.779 14.916-41.002 26.352l-0.017 150.541h181.165v-150.401c-11.297-11.527-25.087-20.565-40.501-26.245 20.569-15.774 34.275-40.659 34.275-68.745 0-46.656-37.822-84.479-84.479-84.479s-84.479 37.822-84.479 84.479c0 28.087 13.707 52.971 34.795 68.332z"></path>
<path fill="#000" d="M41.141 335.108c-16.075 5.923-29.779 14.916-41.002 26.352l-0.017 150.541h181.166v-150.401c-11.297-11.527-25.087-20.565-40.501-26.245 20.569-15.774 34.275-40.659 34.275-68.745 0-46.656-37.822-84.479-84.479-84.479s-84.479 37.822-84.479 84.479c0 28.087 13.706 52.971 34.795 68.332z"></path>
<path fill="#000" d="M399.077 179.822c10.693 10.529 19.445 22.993 25.692 36.831 17.322-36.953 52.017-64.038 93.535-70.081l0.654-27.79c-7.445-7.647-16.544-13.643-26.723-17.416 13.62-10.439 22.694-26.912 22.694-45.503 0-30.88-25.033-55.913-55.913-55.913s-55.913 25.033-55.913 55.913c0 18.591 9.074 35.064 23.035 45.23-10.518 4.052-19.616 10.047-27.048 17.675z"></path>
<path fill="#000" d="M254.169 161.511c17.215-10.017 37.887-15.93 59.941-15.93s42.726 5.913 60.519 16.24l-0.579-43.037c-7.445-7.647-16.544-13.643-26.723-17.416 13.62-10.439 22.694-26.912 22.694-45.503 0-30.88-25.033-55.913-55.913-55.913s-55.913 25.033-55.913 55.913c0 18.591 9.074 35.064 23.035 45.23-10.518 4.052-19.616 10.047-27.048 17.675z"></path>
<path fill="#000" d="M109.261 147.106c42.28 6.016 77.089 33.131 93.815 70.165 6.833-13.692 15.498-26.031 26.054-36.459l0.012-62.029c-7.445-7.647-16.544-13.643-26.722-17.416 13.62-10.439 22.694-26.912 22.694-45.503 0-30.88-25.033-55.913-55.912-55.913s-55.912 25.033-55.912 55.913c0 18.591 9.074 35.064 23.035 45.23-10.518 4.052-19.616 10.047-27.049 17.675z"></path>
</svg>
