<!-- Generated by IcoMoon.io -->
<svg version="1.1" xmlns="http://www.w3.org/2000/svg" width="482" height="512" viewBox="0 0 482 512">
<g id="icomoon-ignore">
</g>
<path d="M388.969 202.511v51.486h77.418v31.126h-77.418v57.555l74.918 50.764 17.995 113.709-30.976 4.834-15.887-100.428-60.22-40.794-109.387 69.993v-195.84l95.94-61.38 68.307-46.276 15.887-100.427 30.991 4.834-17.995 113.724-69.572 47.119zM132.292 144.143v-74.075l108.65-70.069 108.664 70.069v74.075l-108.665 69.526-108.65-69.526zM216.47 440.757l-109.388-69.993-60.22 40.794-15.887 100.428-30.976-4.834 17.98-113.709 74.918-50.764v-57.555h-77.403v-31.126h77.403v-51.365l-69.556-47.119-17.995-113.724 30.991-4.819 15.887 100.428 64.874 43.941 99.373 63.578v195.84z"></path>
</svg>
