<!-- Generated by IcoMoon.io -->
<svg version="1.1" xmlns="http://www.w3.org/2000/svg" width="512" height="512" viewBox="0 0 512 512">
<g id="icomoon-ignore">
</g>
<path fill="#000" d="M331.947 301.226l-54.613-53.76v-122.88c0-11.947-9.387-21.334-21.334-21.334 0 0 0 0 0 0v0c-11.947 0-21.334 9.386-21.334 21.334v128c0 0.853 0 0.853 0 1.707-0.853 5.974 1.707 11.947 5.974 17.067l61.44 59.733c8.534 8.534 21.334 8.534 29.866 0l0.853-0.853c7.68-7.68 7.68-20.48-0.853-29.014 0 0 0 0 0 0z"></path>
<path fill="#000" d="M490.666 256c0 129.707-104.96 234.667-234.667 234.667s-234.667-104.96-234.667-234.667c0-129.707 104.96-234.667 234.667-234.667 0 0 0 0 0 0 129.707 0 234.667 104.96 234.667 234.667zM256 61.44c-107.52 0-195.413 87.040-195.413 194.56s87.894 195.413 195.413 195.413 194.56-87.894 194.56-195.413v0c0-107.52-87.040-194.56-194.56-194.56z"></path>
</svg>
