<svg xmlns="http://www.w3.org/2000/svg" xmlns:xlink="http://www.w3.org/1999/xlink" id="Ebene_1" x="0" y="0" version="1.1" viewBox="0 0 43 43" xml:space="preserve" style="enable-background:new 0 0 43 43"><style type="text/css">.st0{fill:#8a95b3}.st1{fill:#4d567e}</style><path d="M21.5,42.5c-11.6,0-21-9.4-21-21s9.4-21,21-21s21,9.4,21,21S33.1,42.5,21.5,42.5z M21.5,1.5c-11,0-20,9-20,20	s9,20,20,20s20-9,20-20S32.5,1.5,21.5,1.5z" class="st0"/><polygon points="29.8 27.4 23.4 21 29.7 14.7 28.4 13.3 22 19.7 15.6 13.3 14.3 14.7 20.7 21 14.2 27.4 15.6 28.8 22 22.4 28.4 28.8" class="st1"/></svg>