<?xml version="1.0" encoding="utf-8"?>
<!-- Generator: Adobe Illustrator 21.1.0, SVG Export Plug-In . SVG Version: 6.00 Build 0)  -->
<svg version="1.1" id="Ebene_1" xmlns="http://www.w3.org/2000/svg" xmlns:xlink="http://www.w3.org/1999/xlink" x="0px" y="0px"
	 viewBox="0 0 43 43" style="enable-background:new 0 0 43 43;" xml:space="preserve">
<style type="text/css">
	.st0{fill:#8A95B3;}
	.st1{fill:#4D567E;}
</style>
<path class="st0" d="M21.5,42.5c-11.6,0-21-9.4-21-21s9.4-21,21-21s21,9.4,21,21S33.1,42.5,21.5,42.5z M21.5,1.5c-11,0-20,9-20,20
	s9,20,20,20s20-9,20-20S32.5,1.5,21.5,1.5z"/>
<polygon class="st1" points="29.8,27.4 23.4,21 29.7,14.7 28.4,13.3 22,19.7 15.6,13.3 14.3,14.7 20.7,21 14.2,27.4 15.6,28.8 
	22,22.4 28.4,28.8 "/>
</svg>
