<!-- Generated by IcoMoon.io -->
<svg version="1.1" xmlns="http://www.w3.org/2000/svg" width="512" height="512" viewBox="0 0 512 512">
<g id="icomoon-ignore">
</g>
<path fill="#93a2b6" d="M509.147 333.831c2.192-7.163-3.553-15.742-10.431-18.728-22.262-9.657-36.36-31.295-35.868-55.106 0.51-24.379 16.441-46.167 39.629-54.18 7.295-2.513 11.396-10.224 9.43-17.689-5.122-19.408-12.397-38.079-21.638-55.541-3.61-6.86-12-9.751-19.106-6.52-21.43 9.752-50.022 4.441-66.483-12.662-17.103-17.877-21.109-44.788-9.94-66.974 3.515-6.974 1.002-15.44-5.764-19.37-17.235-9.959-35.528-17.972-54.596-23.849-7.389-2.268-15.231 1.53-18.067 8.693-8.976 22.866-31.351 37.89-55.73 37.399-23.376-0.51-46.64-17.613-54.199-39.78-2.513-7.295-10.224-11.415-17.669-9.486-19.522 5.103-38.419 12.435-56.145 21.808-6.916 3.628-9.751 12-6.558 19.087 10.262 22.639 5.159 49.361-12.719 66.501-17.046 16.328-43.352 20.202-67.088 9.921-7.597-3.591-15.326-0.813-19.2 5.84-10.053 17.311-18.142 35.906-24.076 55.182-2.211 7.2 3.799 15.837 10.753 18.86 21.393 8.637 36.019 30.539 35.547 54.974-0.492 24.378-16.422 46.149-39.629 54.18-7.276 2.514-11.396 10.205-9.43 17.651 5.064 19.276 12.341 37.985 21.581 55.56 3.61 6.897 11.981 9.77 19.125 6.558 21.506-9.77 50.080-4.441 66.464 12.642 17.159 17.858 21.165 44.769 9.997 66.974-3.515 6.974-0.964 15.459 5.764 19.351 8.825 5.122 17.915 9.714 27.288 13.776 8.882 3.855 17.991 7.219 27.308 10.091 7.37 2.267 15.232-1.531 18.066-8.712 8.939-22.866 31.352-37.89 55.692-37.38 23.547 0.51 46.659 17.632 54.237 39.78 2.533 7.313 10.186 11.376 17.669 9.486 19.465-5.103 38.363-12.435 56.145-21.808 6.897-3.628 9.77-12 6.558-19.087-10.262-22.659-5.197-49.399 12.68-66.501 16.8-16.12 42.502-20.693 63.969-11.377l2.967 1.38c6.728 3.572 15.459 1.002 19.389-5.745 10.053-17.348 18.142-35.906 24.076-55.2zM221.048 337.818c-44.674-19.389-65.255-71.49-45.884-116.184 19.389-44.674 71.49-65.254 116.184-45.884 44.675 19.389 65.255 71.49 45.884 116.184-19.389 44.675-71.49 65.255-116.184 45.884z"></path>
</svg>
