<!-- Generated by IcoMoon.io -->
<svg version="1.1" xmlns="http://www.w3.org/2000/svg" width="497" height="512" viewBox="0 0 497 512">
<g id="icomoon-ignore">
</g>
<path fill="#636464" d="M367.868 47.259v-47.102h-239.279v47.102h-128.589v464.741h147.115v-62.803h90.75v62.803h20.568v-62.803h90.75v62.803h147.115v-464.741zM152.297 429.414h-107.393v-47.102h107.393zM152.297 353.894h-107.393v-47.102h107.393zM152.297 278.373h-107.393v-47.102h107.393zM152.297 202.853h-107.393v-47.102h107.393zM152.297 127.332h-107.393v-47.102h107.393zM301.925 429.257h-107.393v-47.102h107.393zM301.925 353.737h-107.393v-47.102h107.393zM301.925 278.216h-107.393v-47.102h107.393zM301.925 202.696h-107.393v-47.102h107.393zM301.925 127.175h-107.393v-47.102h107.393zM451.553 429.101h-107.393v-47.102h107.393zM451.553 353.58h-107.393v-47.102h107.393zM451.553 278.060h-107.393v-47.102h107.393zM451.553 202.539h-107.393v-47.102h107.393zM451.553 127.019h-107.393v-47.102h107.393z"></path>
</svg>
