<?xml version="1.0" encoding="UTF-8"?>
<svg viewBox="0 0 36 36" xmlns="http://www.w3.org/2000/svg">
<g fill="none" fill-rule="evenodd">
<path d="m13.633 28.571c-5.0566-3.1597-6.6138-9.7145-3.5731-14.799 0.028804-0.048172 0.063557-0.09133 0.093294-0.13892 0.029737-0.047589 0.053292-0.097744 0.083963-0.14475 3.2373-4.9627 9.8102-6.4347 14.867-3.275 0.20809 0.13003 0.69945-0.010563 1.0388-0.55364 1.0571-1.6918 2.655-4.2821 3.6072-5.8059 0.28571-0.45723 0.16577-0.89028-0.036719-1.0168-0.7605-0.47521-1.2055-0.70786-1.8349-1.0129-0.50108-0.24045-1.1975 0.10158-1.4961 0.57538-0.86692 1.4642-2.6274 2.2883-4.4045 1.9823-1.7731-0.30611-3.1847-1.7098-3.5124-3.4923-0.10257-0.55843-0.61802-0.94409-1.1829-0.88316-1.4621 0.15549-2.908 0.47812-4.2931 0.9568-0.54221 0.18667-0.84541 0.76532-0.68977 1.3219 0.47358 1.6777-0.23269 3.7029-1.6605 4.7089-1.493 1.0522-3.5003 1.0461-4.9965-0.014693-0.46995-0.33388-1.1163-0.24214-1.4753 0.20565-0.4715 0.58636-0.90742 1.1988-1.3078 1.8375-0.0081632 0.013064-0.013877 0.026361-0.02204 0.039424-0.0081632 0.013064-0.017609 0.024028-0.025773 0.037092-0.39848 0.63978-0.75788 1.3001-1.0782 1.9809-0.2457 0.51986-0.044214 1.1401 0.46189 1.4161 1.6099 0.8788 2.4953 2.6802 2.2029 4.4853-0.27824 1.7243-1.7883 3.246-3.5032 3.5549-0.56905 0.10502-0.95622 0.6312-0.88689 1.2013 0.17754 1.4538 0.52139 2.8948 1.022 4.278 0.19285 0.5344 0.76601 0.82768 1.3129 0.67507 1.7457-0.48688 3.6262 0.16656 4.6786 1.626 1.054 1.4631 1.0851 3.4067 0.14858 4.8286-0.29434 0.47519-0.29648 1.251 0.13929 1.596 0.5495 0.43289 0.95425 0.72992 1.7148 1.2051 0.20249 0.12653 0.64371 0.045427 0.93-0.41274 0.95217-1.5238 2.5799-4.0955 3.637-5.7873 0.33935-0.54308 0.24973-1.0454 0.041644-1.1754" fill="#FFF"/>
<g transform="translate(17 13)">
<path d="m11 4c0 2.2096-1.7904 4-4 4-2.208 0-4-1.7904-4-4 0-2.208 1.792-4 4-4 2.2096 0 4 1.792 4 4m7 9c0 2.2096-1.7904 4-4 4s-4-1.7904-4-4 1.7904-4 4-4 4 1.7904 4 4" fill="#FFF"/>
<line x2="18" y1="13" y2="13" stroke="#FFF" stroke-linecap="round" stroke-linejoin="round" stroke-width="2"/>
<line x2="18" y1="4" y2="4" stroke="#FFF" stroke-linecap="round" stroke-linejoin="round" stroke-width="2"/>
</g>
</g>
</svg>
