<svg xmlns="http://www.w3.org/2000/svg" xmlns:xlink="http://www.w3.org/1999/xlink" id="Ebene_1" x="0" y="0" version="1.1" viewBox="0 0 20 20" xml:space="preserve" style="enable-background:new 0 0 20 20"><style type="text/css">.st0{fill:#8a95b3}</style><g><g><path id="_x2D_custom-attribution-settings-outline-copy-2-a" d="M0,3c0-1.7,1.3-3,3-3h14c1.7,0,3,1.3,3,3v14 c0,1.7-1.3,3-3,3H3c-1.7,0-3-1.3-3-3V3z M2,3.5v13C2,17.3,2.7,18,3.5,18h13c0.8,0,1.5-0.7,1.5-1.5v-13C18,2.7,17.3,2,16.5,2h-13 C2.7,2,2,2.7,2,3.5z M5,15L9,5h2l4,10H13l-0.9-2.4H7.8L6.9,15H5z M8.5,11h3L10,7L8.5,11z" class="st0"/></g></g></svg>