<svg xmlns="http://www.w3.org/2000/svg" width="9" height="13" fill="#fff" xmlns:v="https://vecta.io/nano"><path d="M6.83.493v1.354h1.35zM4.333 7.668c-.577 0-1.046.45-1.046 1v.417H5.38v-.417c0-.55-.47-1-1.046-1zm2.2-5.056c-.255 0-.468-.213-.468-.468V0H.156C.07 0 0 .07 0 .156V10.26c0 .086.07.156.156.156h1.557v-.24c0-.44.262-.82.64-.994v-.516c0-1.068.9-1.936 1.982-1.936s1.982.87 1.982 1.936v.516c.376.173.64.553.64.994v.24H8.5c.086 0 .156-.07.156-.156V2.6H6.532zm1.136 3.56H1v-.937h6.668v.937zm0-2.014H1V3.22h6.668v.937zM5.862 10.02H2.804c-.086 0-.156.07-.156.156v2.342c0 .086.07.156.156.156h3.058c.086 0 .156-.07.156-.156v-2.342c0-.086-.07-.156-.156-.156zm-1.2 1.433v.874h-.676v-.874c-.143-.108-.237-.28-.237-.478 0-.327.257-.592.575-.592s.575.265.575.592c0 .196-.093.37-.237.478z"/></svg>