<svg xmlns="http://www.w3.org/2000/svg" width="24" height="16" viewBox="0 0 24 16"><title>  Combined Shape</title><desc>  Created with Sketch.</desc><defs><path d="M20.1 8.9C22.1 8.9 23.7 10.5 23.7 12.4 23.7 14.4 22.1 16 20.1 16 18.8 16 17.5 15.2 17 14L14.7 14C13.6 14 12.9 13.9 12.4 13.3 12 12.7 11.9 12.4 11.9 11.4 11.9 10.8 11.9 10.5 11.9 10.1L11.9 10.1 14.2 9.7C14.3 10.3 14.3 10.7 14.3 11.4 14.3 11.5 14.3 11.6 14.3 11.6 14.4 11.7 14.6 11.7 14.7 11.7L14.7 11.7 16.7 11.7C17 10.1 18.5 8.9 20.1 8.9ZM20.1 11.3C19.5 11.3 19 11.8 19 12.4 19 13.1 19.5 13.6 20.1 13.6 20.8 13.6 21.3 13.1 21.3 12.4 21.3 11.8 20.8 11.3 20.1 11.3ZM20.1 0C22.1 0 23.7 1.6 23.7 3.6 23.7 5.5 22.1 7.1 20.1 7.1 18.6 7.1 17.3 6.1 16.8 4.7L14.4 4.7C14.3 5 14.2 5.3 14.2 6 14.2 6 14.2 6.1 14.2 6.1L14.2 6.1C14.1 7.1 14 7.5 13.8 8 13.5 8.9 12.8 9.5 11.8 9.5L11.8 9.5 6.9 9.5C6.4 10.9 5.1 11.9 3.6 11.9 1.6 11.9 0 10.3 0 8.3 0 6.3 1.6 4.7 3.6 4.7 5.1 4.7 6.4 5.7 6.9 7.1L11.6 7.1C11.7 6.9 11.7 6.6 11.8 5.9 11.8 5.9 11.8 5.9 11.8 5.9L11.8 5.8C11.9 4.9 12 4.4 12.2 3.9 12.5 2.9 13.3 2.4 14.3 2.4L14.3 2.4 16.8 2.4C17.3 1 18.6 0 20.1 0ZM3.6 7.1C2.9 7.1 2.4 7.6 2.4 8.3 2.4 9 2.9 9.5 3.6 9.5 4.2 9.5 4.7 9 4.7 8.3 4.7 7.6 4.2 7.1 3.6 7.1ZM20.1 2.4C19.5 2.4 19 2.9 19 3.6 19 4.2 19.5 4.7 20.1 4.7 20.8 4.7 21.3 4.2 21.3 3.6 21.3 2.9 20.8 2.4 20.1 2.4Z"/></defs><g fill="none"><mask fill="white"><use xlink:href="#path-1"/></mask><use xlink:href="#path-1" fill="#FFF"/></g></svg>
