<svg xmlns="http://www.w3.org/2000/svg" width="879" height="512" version="1.1" viewBox="0 0 879 512"><path fill="#757575" d="M604.484 159.786l-0.311-6.839-0.311-3.419-0.933-6.528-1.244-6.528-1.554-6.528-1.865-6.218-2.176-5.906-1.244-2.953-1.088-2.953-4.197-8.394-3.109-5.285-3.419-5.285-5.596-7.461-4.042-4.663-6.528-6.528-2.332-2.176-4.663-4.041-2.487-2.020-7.461-5.596-5.285-3.419-2.643-1.554-2.798-1.554-2.643-1.554-5.596-2.798-2.798-1.243-5.907-2.487-5.907-2.176-2.953-0.932-6.217-1.554-2.953-0.777-3.108-0.777-3.108-0.621-9.326-1.399-3.108-0.311-3.264-0.311-3.264-0.156-3.108-0.156h-65.127l-6.528 0.311-6.217 0.621-9.326 1.399-3.108 0.621-11.813 3.108-2.953 0.932-2.798 1.088-2.953 1.088-5.596 2.487-2.642 1.243-2.798 1.399-5.285 2.798-5.285 3.108-4.974 3.419-2.487 1.865-4.663 3.731-4.663 4.041-2.176 2.020-4.352 4.352-4.041 4.352-3.731 4.663-1.865 2.487-3.42 4.974-1.71 2.642-3.108 5.285-1.399 2.642-2.798 5.596-2.487 5.596-2.176 5.906-0.933 2.953-0.933 3.109-0.777 3.108-0.777 3.264-1.243 6.528-0.933 6.528-0.311 3.264-0.311 3.419-0.311 6.839v6.528l0.311 6.218 0.622 6.218 0.933 6.218 0.622 3.108 0.622 2.953 1.555 5.906 1.865 5.906 2.176 5.595 2.487 5.595 1.399 2.798 2.798 5.285 1.555 2.643 1.555 2.487 5.13 7.461 1.865 2.487 3.731 4.663 2.021 2.332 2.021 2.176 2.176 2.020 2.176 2.176 2.176 2.020 4.663 4.041 4.663 3.731 4.974 3.731 2.487 1.71 2.642 1.71 5.285 3.108 2.642 1.399 2.798 1.399 2.642 1.399 5.596 2.487 2.953 1.088 2.798 1.088 8.86 2.798 5.906 1.555 6.217 1.243 6.217 0.933 6.217 0.622 6.528 0.311h66.215l3.108-0.156 3.264-0.156 3.264-0.311 3.108-0.311 6.217-0.933 6.217-1.243 3.108-0.777 2.953-0.777 6.218-1.865 2.953-0.933 2.953-1.088 8.86-3.731 8.394-4.197 2.643-1.555 2.798-1.555 5.285-3.42 2.643-1.865 4.974-3.731 4.974-4.042 2.332-2.020 4.663-4.352 2.176-2.020 2.176-2.176 2.176-2.332 2.020-2.332 2.020-2.487 5.596-7.461 1.71-2.487 1.71-2.643 3.109-5.285 1.399-2.643 2.798-5.595 2.487-5.595 1.088-2.798 1.088-2.953 1.865-5.906 1.554-5.906 1.244-6.218 0.933-6.218 0.311-3.108 0.311-6.218v-3.108l-1.244-2.332zM529.409 164.916l-0.311 5.906-0.311 2.953-0.311 2.798-0.933 5.595-1.244 5.595-0.777 2.798-1.554 5.285-2.798 7.927-1.088 2.643-1.088 2.487-3.731 7.461-2.798 4.974-1.399 2.332-1.555 2.176-1.555 2.332-5.13 6.528-3.731 4.352-1.865 2.020-4.041 4.042-2.021 1.865-2.021 1.71-6.528 5.13-2.176 1.554-4.663 3.109-2.332 1.399-4.974 2.798-7.461 3.731-5.285 2.176-7.927 2.798-5.596 1.555-8.394 1.865-2.953 0.466-2.798 0.466-5.906 0.622-5.906 0.311h-5.906l-5.906-0.311-2.798-0.311-2.953-0.311-5.596-0.933-5.596-1.243-2.642-0.622-2.798-0.777-2.642-0.777-2.798-0.933-5.285-1.865-5.285-2.176-7.461-3.731-4.974-2.798-2.332-1.399-6.995-4.663-6.528-5.13-2.021-1.71-2.021-1.865-2.021-2.020-3.731-4.042-3.731-4.352-5.13-6.528-1.555-2.332-1.555-2.176-1.555-2.332-2.798-4.974-3.731-7.461-1.088-2.487-2.176-5.285-1.865-5.285-1.555-5.285-1.243-5.595-0.933-5.595-0.622-5.595-0.311-2.953-0.311-5.906v-5.906l0.311-5.906 0.311-2.798 0.311-2.953 0.311-2.798 0.466-2.953 0.466-2.798 0.622-2.798 0.622-2.643 0.777-2.798 0.777-2.642 0.933-2.798 0.933-2.642 2.176-5.285 1.088-2.487 3.731-7.461 2.798-4.974 4.663-6.995 5.13-6.528 1.865-2.176 5.596-6.062 2.021-2.020 4.041-3.731 6.528-5.13 6.995-4.663 2.332-1.399 4.974-2.798 7.461-3.73 5.285-2.176 5.285-1.865 2.798-0.932 2.642-0.777 2.798-0.777 2.642-0.777 5.596-1.243 5.596-0.932 2.953-0.311 2.798-0.311 5.906-0.311h5.906l5.906 0.311 5.906 0.621 2.798 0.467 2.953 0.467 5.596 1.243 8.394 2.331 7.927 2.798 5.285 2.176 7.461 3.73 2.487 1.399 3.108 1.554 2.332 1.399 4.663 3.109 2.176 1.555 6.528 5.129 4.041 3.731 4.041 4.041 3.731 4.041 1.865 2.176 5.13 6.528 3.108 4.663 1.399 2.332 2.798 4.974 3.731 7.461 1.088 2.487 1.088 2.642 1.865 5.285 0.933 2.798 0.777 2.643 0.777 2.798 0.777 2.643 1.244 5.595 0.466 2.953 0.466 2.798 0.311 2.953 0.311 2.798 0.311 5.906v2.953l-0.621 2.798z"/><path fill="#757575" d="M270.455 347.861v-1.71l-0.156-0.622-0.156-0.777-0.156-0.466-0.311-0.622-0.311-0.466-1.399-1.399-0.622-0.466-0.777-0.466-0.777-0.311-0.933-0.466-2.176-0.933v-2.487l4.352-1.399 4.197-1.399 4.352-1.555 2.332-0.933 2.332-1.088h0.156l0.156 0.156h0.156l0.156 0.156v0.156l0.156 0.311v9.171l2.798-2.021 2.798-1.71 1.399-0.933 1.243-0.777 2.798-1.555 2.798-1.243 1.399-0.466 1.555-0.466 1.399-0.311 3.108-0.311 1.71-0.156h0.933l1.088 0.156 1.865 0.311 0.777 0.156 0.933 0.311 0.777 0.156 0.777 0.466 0.622 0.311 0.777 0.466 0.622 0.311 0.622 0.466 0.466 0.622 0.622 0.466 1.399 1.865 0.311 0.777 0.466 0.622 0.311 0.622 0.622 1.555 0.156 0.777 0.311 0.933 0.156 0.777 0.156 0.933 0.156 1.71 0.311 3.731v34.972l0.311 1.243 0.156 0.466 0.311 0.466 0.622 0.622 0.466 0.311 0.933 0.311h0.622l0.622 0.156h4.974v3.42h-3.575l-3.42-0.156h-3.575l-3.42-0.156h-3.731l-3.575 0.156h-3.575l-3.575 0.156v-3.42h4.974l0.622-0.156h0.466l0.933-0.311 0.466-0.311 0.622-0.622 0.156-0.466 0.311-0.466 0.156-0.622v-0.622l0.156-0.777v-34.195l-0.311-2.798-0.622-2.176-0.156-0.466-0.311-0.622-0.311-0.466-0.156-0.466-0.466-0.311-0.311-0.466-0.311-0.311-0.311-0.466-1.865-1.243-0.933-0.466-2.176-0.622-1.243-0.311-1.399-0.156h-2.176l-1.865 0.311-1.865 0.622-1.088 0.311-0.933 0.466-3.264 1.399-1.865 1.088-2.021 1.088-1.71 1.088v39.947l0.311 1.243 0.156 0.466 0.311 0.466 0.311 0.311 0.933 0.622 0.933 0.311h0.466l0.622 0.156h4.974v3.42h-3.42l-3.575-0.156h-3.42l-3.575-0.156h-3.575l-3.575 0.156h-3.575l-3.575 0.156v-3.42h4.974l0.466-0.156h0.622l0.933-0.311 0.933-0.933 0.311-0.466 0.156-0.466 0.311-1.243v-35.906z"/><path fill="#757575" d="M361.851 350.038h1.088l0.933-0.311 0.933-0.466 0.156-0.156 0.311-0.622 0.311-1.243v-1.865l-0.156-1.243-0.156-1.088-0.311-1.088-0.466-1.088-0.466-0.933-0.622-0.933-0.777-0.933-1.555-1.555-1.399-0.933-0.622-0.311-0.466-0.156-3.108-0.777h-2.798l-0.777 0.156-0.622 0.156-0.777 0.156-1.243 0.311-3.108 1.555-0.622 0.466-2.332 2.332-0.933 1.243-0.777 1.243-0.622 1.243-0.622 1.555-0.466 1.555-0.466 1.71-0.311 1.71h22.849v0.311zM338.38 354.235l-0.156 0.466v4.352l0.156 2.953 0.311 2.487 0.311 2.176 0.933 3.264 0.466 1.088 0.311 0.933 1.865 3.731 0.622 0.933 1.865 2.332 1.399 1.399 2.332 1.865 1.555 0.933 0.933 0.466 2.798 0.933 2.798 0.466h2.332l1.399-0.156 1.243-0.156 2.487-0.622 1.243-0.466 1.088-0.466 3.264-1.865 2.176-1.555 0.933-0.777 2.798-2.798 1.865 1.865-1.243 1.555-3.731 4.197-1.243 1.243-2.798 2.487-1.555 1.088-3.886 2.332-0.777 0.311-2.798 0.933-4.663 0.777h-2.021l-3.731-0.311-1.71-0.311-1.71-0.466-1.555-0.466-1.555-0.622-1.399-0.622-2.487-1.555-3.264-2.798-1.865-2.176-1.555-2.176-0.622-1.088-0.622-1.243-1.865-4.974-0.311-1.243-0.311-1.088-0.311-1.243-0.466-3.264-0.156-2.021v-4.041l0.156-2.332 0.311-2.176 0.311-2.021 0.466-2.021 0.466-1.865 0.622-1.865 0.622-1.71 1.555-3.108 0.777-1.399 0.933-1.399 0.933-1.243 0.933-1.088 2.021-2.021 2.176-1.865 2.176-1.555 2.176-1.243 3.264-1.399 2.176-0.622 2.176-0.311 0.933-0.156h3.886l1.088 0.156 0.933 0.156 1.088 0.156 0.933 0.156 3.731 1.243 2.798 1.399 1.865 1.243 1.555 1.243 1.555 1.555 0.622 0.777 0.622 0.933 0.622 0.777 0.622 0.933 0.933 1.865 0.466 1.088 0.622 2.176 0.311 1.243 0.311 2.487v3.886l-1.243 0.622h-37.615v0.311z"/><path fill="#757575" d="M379.881 387.342h6.217l0.466-0.156h0.622l0.933-0.311 0.311-0.311 0.466-0.311 0.156-0.311 0.311-0.466 0.156-0.466 0.311-1.243v-38.703l-0.156-0.622-0.311-0.622-0.311-0.466-0.466-0.466-0.311-0.466-0.622-0.311-0.466-0.466-0.622-0.311-0.622-0.156-2.176-0.933-0.777-0.466v-1.865l3.42-1.555 2.953-1.399 2.642-1.243 4.041-2.021 1.399-0.777 1.088-0.466 0.311-0.156h0.622l0.156 0.156h0.311l0.156 0.311v0.156l0.156 0.311v12.745h0.311l1.399-2.021 0.777-1.243 0.777-1.088 0.933-1.088 0.933-1.243 0.933-1.088 2.021-2.021 1.243-0.933 1.088-0.777 0.622-0.466 0.622-0.311 0.777-0.311 0.622-0.311 0.622-0.156 0.777-0.156 0.622-0.156 1.555-0.311h1.399l2.487 0.622 0.622 0.311 0.622 0.466 0.622 0.311 0.466 0.466 0.466 0.622 0.466 0.466 0.311 0.622 0.622 1.555 0.156 0.777v1.555l-0.466 1.865-0.311 0.622-0.156 0.466-0.466 0.622-0.311 0.466-0.466 0.466-0.933 0.622-1.243 0.622-0.466 0.156-0.777 0.156h-1.399l-0.622-0.156-0.466-0.156-0.622-0.311-0.466-0.156-0.466-0.311-0.777-0.466-0.777-0.622-0.466-0.311-0.622-0.156-0.466-0.311-0.777-0.156h-0.622l-0.777-0.156-0.622 0.156h-0.466l-0.777 0.156-0.622 0.311-0.777 0.311-0.777 0.466-0.933 0.622-1.555 1.243-0.777 0.777-1.243 1.865-0.311 0.622-0.156 0.466-0.156 0.622-0.311 0.622v0.622l-0.156 0.777v0.622l-0.156 0.777v31.087l0.156 0.777v0.622l0.156 0.622 0.156 0.466 0.311 0.466 0.622 0.622 0.466 0.311 0.933 0.311h0.466l0.622 0.156h9.948v3.42l-5.13-0.156h-4.663l-4.507-0.156h-8.238l-4.197 0.156h-3.886l-3.731 0.156v-3.42z"/><path fill="#757575" d="M431.019 372.42l0.311 1.555 0.933 3.108 0.622 1.555 0.777 1.399 0.777 1.243 1.865 2.487 1.088 1.088 0.622 0.466 0.466 0.466 0.622 0.311 0.777 0.466 1.243 0.622 1.555 0.622 2.332 0.466 0.933 0.156h3.108l1.243-0.156 1.243-0.311 1.088-0.156 0.933-0.466 0.933-0.622 0.777-0.466 0.622-0.622 0.622-0.777 0.933-1.555 0.622-1.555 0.156-0.933 0.156-0.777v-2.332l-0.466-1.865-0.311-0.622-0.156-0.466-0.311-0.622-0.622-0.933-0.466-0.466-0.311-0.466-0.933-0.933-0.933-0.777-1.088-0.777-1.088-0.622-1.243-0.622-1.243-0.777-5.285-2.487-1.399-0.622-1.243-0.622-1.399-0.777-1.243-0.622-1.243-0.933-1.243-0.777-2.176-1.865-0.466-0.622-0.466-0.466-0.933-1.243-0.311-0.622-0.466-0.622-0.311-0.622-0.311-0.777-0.311-0.622-0.156-0.777-0.311-0.933-0.156-0.777-0.156-0.933v-0.777l-0.156-1.088v-1.555l0.156-0.777v-0.622l0.311-1.555 0.156-0.622 0.933-2.332 0.311-0.622 0.466-0.777 0.311-0.622 0.466-0.777 0.466-0.622 2.487-2.487 0.777-0.466 0.777-0.622 0.777-0.466 1.865-0.933 0.933-0.311 1.088-0.466 0.933-0.311 1.088-0.311 1.088-0.156 1.399-0.156 1.088-0.156 1.399-0.156h1.243l3.42 0.311 1.865 0.311 2.021 0.311 1.865 0.622 2.021 0.622 0.933 0.311 1.088 0.466 1.865 0.933 0.311 3.42 0.156 3.264 0.311 3.42 0.156 3.42h-2.953l-0.311-1.555-0.466-1.399-0.311-1.399-0.466-1.243-0.777-1.243-0.622-1.088-0.311-0.466-0.466-0.466-0.311-0.466-0.466-0.466-0.466-0.311-0.466-0.466-0.622-0.311-0.933-0.622-0.622-0.311-0.622-0.156-0.622-0.311-1.243-0.311-1.399-0.311-1.399-0.156h-2.487l-1.088 0.156-1.865 0.311-0.933 0.311-0.777 0.466-0.777 0.311-0.777 0.622-0.777 0.466-0.622 0.777-0.466 0.622-0.466 0.777-0.622 1.865-0.156 0.933-0.156 1.088v0.622l0.156 0.622 0.156 0.777 0.311 1.243 0.156 0.466 0.311 0.622 0.311 0.466 0.311 0.622 0.311 0.466 0.933 0.933 0.933 0.777 0.933 0.933 1.243 0.622 1.088 0.777 1.243 0.622 6.995 3.108 2.953 1.243 2.798 1.555 2.487 1.555 1.243 0.933 1.088 0.933 0.622 0.466 0.933 1.243 0.466 0.466 0.466 0.622 0.311 0.622 0.466 0.777 0.311 0.622 0.311 0.777 0.156 0.777 0.311 0.777 0.311 1.555 0.156 0.933v3.575l-0.466 2.332-0.311 0.777-0.156 0.933-0.311 0.777-0.466 0.777-0.311 0.777-0.466 0.777-0.466 0.622-1.243 1.555-1.243 1.243-1.555 1.243-0.777 0.466-0.777 0.622-1.865 0.933-2.176 0.933-2.176 0.622-1.243 0.311-1.243 0.156-1.399 0.156-1.243 0.156-1.399 0.156h-2.487l-0.933-0.156h-1.088l-2.176-0.311-1.088-0.311-0.933-0.156-3.264-0.933-0.933-0.466-0.933-0.311-1.088-0.466-1.865-0.933-0.777-0.466-0.466-3.731-0.311-3.886-0.311-3.731-0.466-3.886 1.865-0.466 0.466-0.156h0.156z"/><path fill="#757575" d="M588.629 322.37h-3.264l-0.621-2.798-0.311-1.243-1.399-3.731-0.621-1.088-0.466-1.088-0.621-0.933-0.777-0.933-0.621-0.933-0.777-0.933-1.554-1.555-0.933-0.777-2.798-1.865-1.088-0.466-0.933-0.466-2.176-0.933-1.244-0.311-1.088-0.466-1.244-0.156-1.244-0.311-3.731-0.466-1.399-0.156h-4.197l-1.554 0.156-1.399 0.156-1.554 0.156-3.109 0.622-1.554 0.466-1.71 0.466-3.109 1.243-3.109 1.555-1.554 0.933-1.399 0.933-1.554 1.088-2.798 2.487-2.487 2.798-1.244 1.555-2.176 3.42-0.933 1.865-0.933 2.021-0.933 2.176-0.621 2.176-0.466 1.088-0.155 1.088-0.621 2.487-0.155 1.243-0.311 1.399-0.155 1.243-0.155 1.399v1.243l-0.155 1.555v5.285l0.155 2.487 0.311 2.332 0.311 2.487 0.466 2.176 1.244 4.352 0.777 2.176 0.777 2.021 0.933 2.021 1.088 1.865 0.933 1.865 1.244 1.865 1.244 1.71 1.244 1.555 2.798 3.108 1.399 1.399 4.663 3.731 1.71 1.088 3.419 1.865 1.71 0.777 3.731 1.243 1.71 0.466 3.731 0.622 2.020 0.156h4.352l1.088-0.156 1.244-0.156 1.088-0.311 1.088-0.156 1.244-0.311 1.088-0.466 1.088-0.311 1.088-0.466 0.933-0.622 1.088-0.466 1.865-1.243 1.865-1.555 0.777-0.777 0.933-0.777 0.777-0.777 0.777-0.933 0.621-0.933 0.777-0.933 0.621-0.933 1.244-2.176 0.466-1.088 0.621-1.088 0.311-1.243 0.466-1.088 0.311-1.243 0.466-1.243 0.155-1.399 0.777 0.311 2.332 0.466-0.777 4.818-0.777 4.974-1.554 9.637-1.088 0.622-1.399 0.622-3.109 1.243-3.731 1.243-2.020 0.466-2.020 0.622-2.176 0.466-2.020 0.311-2.176 0.466-4.042 0.622-3.731 0.311h-1.71l-2.953-0.156-2.798-0.156-2.643-0.156-5.285-0.933-2.487-0.622-2.487-0.777-2.332-0.777-1.244-0.466-2.176-0.933-1.088-0.622-1.088-0.466-1.088-0.622-0.933-0.622-1.088-0.622-1.865-1.243-1.865-1.555-0.933-0.622-0.933-0.777-0.777-0.777-0.933-0.777-0.777-0.933-0.777-0.777-0.777-0.933-0.777-0.777-0.621-0.933-0.777-0.933-0.621-1.088-1.244-1.865-0.621-1.088-1.243-2.021-1.865-4.352-1.555-4.663-0.622-2.487-0.466-2.487-0.622-5.285-0.156-2.642-0.156-2.798v-1.243l0.156-1.243v-1.243l0.466-3.731 0.311-1.088 0.156-1.243 0.311-1.243 0.622-2.176 0.466-1.243 0.311-1.088 0.933-2.176 0.466-0.933 0.466-1.088 0.622-1.088 1.088-2.021 1.399-1.865 1.244-1.865 1.554-1.865 3.109-3.42 1.71-1.555 1.865-1.555 3.731-2.798 2.020-1.243 4.042-2.176 4.352-1.865 2.332-0.777 2.176-0.777 2.332-0.622 2.332-0.466 2.487-0.311 2.332-0.311 2.487-0.156 2.332-0.156 2.020 0.156h2.020l2.020 0.311 2.020 0.156 1.865 0.311 2.020 0.466 2.020 0.311 1.865 0.466 2.020 0.622 1.865 0.466 7.771 2.487 3.886 1.399 0.621 9.326 0.311 4.819 0.311 4.663z"/><path fill="#757575" d="M593.447 387.342h4.974l0.621-0.156h0.466l0.621-0.156 0.311-0.156 0.466-0.311 0.621-0.622 0.311-0.466 0.155-0.466 0.311-1.243v-76.007l-0.155-1.243v-1.243l-0.311-0.933-0.155-0.933-0.311-0.777-0.311-0.622-0.466-0.466-0.311-0.466-0.621-0.466-0.466-0.311-0.777-0.311-0.621-0.156-0.777-0.311-1.71-0.466v-2.176l1.865-0.622 4.042-1.555 1.865-0.777 1.71-0.622 1.554-0.777 1.399-0.622 1.088-0.777 1.088-0.466 0.777-0.466 0.777-0.311 0.155-0.156h0.466l0.155 0.156 0.311 0.156 0.155 0.311v0.156l0.155 0.311v92.95l0.311 1.243 0.155 0.466 0.311 0.466 0.311 0.311 0.933 0.622 0.933 0.311h0.466l0.621 0.156h4.818v3.42h-3.419l-3.419-0.156h-3.419l-3.575-0.156h-3.731l-3.419 0.156h-3.731l-3.575 0.156v-3.42z"/><path fill="#757575" d="M678.47 383.456v0.466l0.155 0.311v0.311l0.311 0.622 0.311 0.311 0.311 0.156 0.155 0.156h0.311l0.621 0.156h0.777l0.777 0.156 1.244-0.156h4.042v2.642l-1.088 0.156-1.244 0.156-2.643 0.466-2.953 0.622-5.596 1.243-2.332 0.622-1.865 0.466-1.399 0.466-0.155-0.156h-0.155l-0.311-0.311v-10.725l-2.953 2.332-1.399 1.243-1.399 0.933-1.399 1.088-1.244 0.777-1.399 0.933-1.399 0.777-4.197 1.865-1.554 0.466-3.109 0.622-1.71 0.156h-2.953l-1.399-0.311-1.399-0.156-1.244-0.466-0.621-0.311-0.621-0.156-1.244-0.622-0.621-0.466-0.466-0.311-0.621-0.466-2.020-2.021-0.311-0.622-0.466-0.622-0.311-0.622-0.311-0.777-0.311-0.622-0.311-0.777-0.311-0.933-0.155-0.777-0.311-0.933v-0.777l-0.155-0.933v-1.088l-0.155-0.933v-35.75l-0.466-1.865-0.311-0.466-0.311-0.622-0.466-0.466-0.621-0.466-0.621-0.311-0.777-0.466-0.777-0.311-1.088-0.156-1.088-0.311-1.399-0.156v-2.487h2.020l2.487-0.156 5.285-0.311 4.663-0.311 2.643-0.156h0.466l0.311 0.156h0.155l0.155 0.156v0.156l0.155 0.156v0.156l0.311 1.243v38.858l0.155 1.088 0.155 1.243 0.311 1.399 0.466 1.865 1.244 2.487 0.466 0.466 0.466 0.622 0.933 0.933 1.244 0.933 0.621 0.311 1.554 0.622 2.798 0.466h1.865l1.865-0.311 1.865-0.622 0.933-0.466 2.176-0.933 0.933-0.622 3.264-1.865 1.088-0.777 0.933-0.777 2.176-1.71v-35.75l-0.155-0.311v-0.156l-0.155-0.311-0.311-0.466-0.466-0.311-0.621-0.466-1.244-0.622-0.777-0.466-1.865-0.622-1.865-0.466-3.731-1.088v-2.332l4.352-0.311 3.731-0.311 6.373-0.622 4.197-0.466 1.244-0.156h1.244l0.311 0.311 0.311 0.622v50.205z"/><path fill="#757575" d="M704.894 375.839v0.933l0.155 1.088 0.621 2.176 0.621 1.088 0.621 1.243 0.621 1.088 0.777 0.933 0.466 0.622 0.933 0.933 0.621 0.466 0.466 0.466 1.244 0.622 0.621 0.466 0.621 0.311 0.621 0.156 0.777 0.311 0.621 0.156 1.554 0.311h0.777l0.933 0.156 1.244-0.156h1.244l1.244-0.311 1.088-0.156 1.088-0.466 1.088-0.311 1.088-0.466 0.933-0.466 1.865-1.243 0.777-0.777 0.933-0.777 0.777-0.777 0.621-0.777 0.777-0.933 0.621-0.933 0.466-0.933 0.621-0.933 0.466-0.933 0.933-2.176 0.311-1.088 0.466-1.088 0.311-1.088 0.155-1.088 0.311-1.088 0.311-2.176 0.155-1.243 0.155-1.088v-4.818l-0.311-1.399-0.155-1.243-0.933-3.731-0.466-1.243-0.933-2.176-0.621-1.088-0.466-1.088-0.621-1.088-0.777-0.933-0.621-0.933-1.554-1.865-1.554-1.555-0.933-0.777-0.777-0.622-1.865-1.243-2.798-1.399-2.798-0.933-1.088-0.156-0.933-0.156h-1.865l-1.865 0.311-0.777 0.311-0.777 0.156-0.777 0.466-0.933 0.311-2.332 1.399-4.197 3.264v32.175-36.060l2.020-1.71 1.088-0.777 1.244-0.777 1.088-0.777 1.244-0.777 1.088-0.777 1.244-0.777 1.399-0.622 1.244-0.622 1.244-0.466 2.798-0.933 1.244-0.156 2.798-0.311h1.399l2.798 0.311 2.487 0.622 2.487 0.933 1.088 0.466 1.244 0.622 1.088 0.622 0.933 0.777 0.933 0.622 0.933 0.933 0.933 0.777 0.933 0.933 1.554 1.865 0.777 1.088 2.487 4.352 0.933 2.487 0.933 3.731 0.311 1.399 0.155 1.243 0.155 1.399v5.906l-0.311 1.555-0.155 1.555-0.466 1.71-0.311 1.555-0.933 3.108-0.621 1.399-0.621 1.555-2.332 4.197-0.933 1.399-0.933 1.243-2.176 2.487-2.176 2.176-1.399 1.088-1.088 0.933-1.399 0.777-1.399 0.933-1.399 0.777-1.554 0.622-1.399 0.622-1.554 0.466-1.71 0.466-1.554 0.311-1.71 0.311-1.71 0.156h-3.575l-1.71-0.156-1.554-0.156-1.399-0.156-1.554-0.311-2.487-0.622-1.088-0.466-1.088-0.311-0.933-0.311-1.865-0.777-1.554-0.777-1.399-0.622-0.933 0.777-1.088 0.777-1.865 1.555-0.777-0.466-0.621-0.311-0.777-0.311-0.621-0.466 0.311-2.798 0.466-2.953 0.621-5.906 0.311-5.906v-2.953l0.155-2.953v-58.443l-0.311-2.487-0.311-1.865-0.311-0.777-0.311-0.622-1.399-1.399-1.244-0.622-0.621-0.156-0.777-0.311-1.865-0.466v-2.176l2.020-0.622 2.020-0.777 3.731-1.555 1.865-0.622 1.554-0.777 1.399-0.622 1.088-0.777 1.088-0.466 0.777-0.466 0.933-0.466h0.466l0.311 0.311 0.155 0.311 0.155 0.156v0.311l0.155 0.777v84.245z"/><path fill="#757575" d="M155.124 469.877l0.155 0.311-2.643-0.156h-2.953l-2.953-0.156h-5.595l-2.798 0.156h-2.643l-2.332 0.156h-0.311v-2.798h1.244l1.088-0.156h0.933l0.311-0.156h0.466l0.466-0.156 0.311-0.156 0.311-0.311 0.311-0.156 0.311-0.311 0.155-0.311 0.311-0.933 0.155-0.622v-38.858l-0.155-0.622-0.311-0.933-0.155-0.311-0.621-0.622-0.621-0.311-0.466-0.156h-0.466l-0.311-0.156-0.933-0.156h-2.332v-2.642h5.44l2.798 0.156h5.595l2.953-0.156h5.906v2.642h-2.332l-0.933 0.156-0.466 0.156h-0.466l-0.621 0.311-0.466 0.156-0.155 0.311-0.621 0.622-0.311 0.933v40.102l0.311 0.933 0.777 0.777 0.466 0.311 0.621 0.311h0.466l0.466 0.156h0.933l0.933 0.156h1.399v2.798h-0.466l-0.155-0.311z"/><path fill="#757575" d="M209.059 471.276l-0.777-0.156h-2.176l-9.171-10.259-9.171-10.103-9.171-10.259-9.171-10.103v28.911l0.155 1.088v1.865l0.311 0.933v0.777l0.311 0.466 0.155 0.622 0.311 0.466 0.933 0.933 0.466 0.156 0.621 0.311 0.621 0.156 0.777 0.156h0.933l0.933 0.156h1.554v2.798h-0.311l-2.332-0.156h-2.332l-2.332-0.156h-4.663l-2.487 0.156h-2.487l-2.487 0.156h-0.311v-2.798h1.399l0.777-0.156h0.777l0.777-0.156 0.621-0.311 0.466-0.311 0.621-0.466 0.311-0.466 0.466-0.466 0.621-1.243 0.155-0.622 0.155-0.933 0.155-0.777 0.155-0.933v-32.952l-0.155-0.777-0.311-1.243-0.621-0.933-0.466-0.466-0.311-0.466-0.466-0.466-0.466-0.311-0.621-0.156-0.466-0.311-0.621-0.156-0.466-0.156-0.621-0.156h-1.865v-2.642h4.507l2.020 0.156h5.285l1.71-0.156h1.71l7.927 9.015 23.781 26.579v-27.512l-0.155-0.777-0.155-0.933-0.621-1.243-0.466-0.466-0.311-0.466-0.466-0.466-0.466-0.311-0.933-0.311-0.621-0.156-0.466-0.156h-0.466l-0.777-0.156h-2.020v-2.642h5.44l2.487 0.156h4.819l2.020-0.156h4.663v2.642h-1.399l-1.088 0.156h-0.466l-0.621 0.156-0.466 0.156-0.621 0.156-0.155 0.311-0.466 0.311-0.466 0.622-0.311 0.466-0.621 1.555-0.311 1.088-0.155 1.088-0.155 1.399v36.060l0.155 1.865v1.71l0.311 1.71v0.156l0.155 0.156v0.156h-0.466z"/><path fill="#757575" d="M255.223 470.188h-2.487l-2.953-0.156-3.264-0.156h-6.528l-3.264 0.156-3.108 0.156h-2.798v-2.798h2.953l1.244-0.156 1.399-0.466 0.933-0.933 0.311-0.933 0.155-0.622 0.155-0.777v-39.791h-8.549c-2.176 0-2.487 0-3.886 0h-0.777l-0.777 0.156-0.621 0.156-0.933 0.311h-0.155l-0.621 0.622-0.311 0.466-0.155 0.466-0.155 0.622-0.311 1.399-0.466 1.865v0.156h-2.643v-0.466l0.155-1.555 0.311-1.555 0.777-7.772v-1.865h2.176v0.156l0.466 0.933 0.466 0.466 0.466 0.311 0.466 0.156 0.621 0.156c0.621 0 1.088 0 1.71 0h38.703l0.622-0.156 0.466-0.156 0.777-0.777 0.156-0.311v-1.088h0.777l0.466 0.156h0.466l0.466 0.156v0.311l-0.311 2.798-0.156 1.555-0.156 1.399v5.751l-0.622 0.311-0.622 0.156-0.622 0.311-0.622 0.156v-0.622l-0.311-2.176-0.466 0.777-0.156-0.622-0.311-0.933-0.622-0.933-1.399-0.933-0.622-0.156-0.777-0.156h-12.28v38.858l0.311 1.555 0.311 1.243 0.621 0.933 0.621 0.622 1.865 0.622h3.731c0 0.311 0 0.622 0 0.933v1.865c-0.155-0.156-0.311-0.156-0.311-0.156v0z"/><path fill="#757575" d="M308.848 469.877l0.156 0.311-4.197-0.156h-4.818l-5.285-0.156h-10.259l-5.44 0.156h-4.818l-3.886 0.156h-0.311v-2.798h1.399l0.933-0.156h0.933l0.466-0.156h0.466l0.622-0.311 0.311-0.311 0.311-0.156 0.311-0.311 0.156-0.311 0.311-0.466v-0.466l0.156-0.622v-38.858l-0.156-0.622v-0.466l-0.311-0.466-0.156-0.311-0.311-0.311-0.311-0.156-0.311-0.311-0.622-0.311h-0.466l-0.466-0.156-0.933-0.156h-2.332v-2.642h8.704l4.819 0.156h9.481l4.974-0.156h9.171v0.311l-0.156 0.777v6.683l0.156 1.865v1.71l0.156 0.156h-0.311v0.156l-0.622 0.156h-0.622l-1.243 0.311v-0.156l-0.156-0.156-0.156-1.71v-0.777l-0.156-0.777-0.311-0.622-0.156-0.622-0.311-0.622-0.466-0.622-0.933-0.933-0.777-0.466-0.777-0.311-0.933-0.311-0.933-0.156-1.088-0.156h-11.036v18.186h9.015l1.243-0.311 0.933-0.311 0.466-0.311 0.933-0.933 0.156-0.466 0.156-0.622 0.156-0.466 0.311-1.243 0.311-1.399v-0.311h2.642v2.487l-0.156 2.021v8.394l0.156 2.021v2.332h-0.156l-0.622 0.156-0.777 0.156-0.466 0.156-0.622 0.156v-0.466l-0.311-1.555-0.156-1.243-0.311-1.243-0.311-0.933-0.311-0.466-0.311-0.311-0.933-0.622-0.466-0.156-0.777-0.156h-0.622l-0.933-0.156h-8.238v17.253l0.311 1.243 0.622 0.933 1.399 0.933 0.777 0.156 0.622 0.156h0.622l0.777 0.156h6.373l1.243-0.156h1.243l1.088-0.156 1.088-0.311 1.865-0.622 0.311-0.156 0.466-0.311 0.311-0.311 0.466-0.311 0.622-0.622 0.622-0.777 0.466-0.933 0.622-1.088 0.466-1.399 0.311-1.399 0.156-0.156v-0.156h0.156v0.156h0.156l0.622 0.156 0.466 0.156 0.622 0.156h0.622v0.156l-0.156 0.156-0.622 2.953-0.622 2.798-0.622 2.953-0.466 2.798h-0.156v0.311h-0.156l-0.156-0.311z"/><path fill="#757575" d="M363.872 470.188v0h-1.71l-3.42-0.311h-3.575l-1.71 0.156h-3.575l-4.041-5.596-1.865-2.798-5.596-8.86-1.71-2.953-1.71-3.108h-4.352v16.010l0.311 1.555 0.156 0.622 0.156 0.466 0.311 0.466 0.622 0.622 0.311 0.156 1.399 0.466h4.041v2.798h-3.42l-6.217-0.311h-5.751l-5.285 0.311h-2.953v-2.798h2.487l0.933-0.156 0.933-0.311 0.622-0.311 0.933-0.933 0.311-0.622 0.311-0.933v-38.082l-0.156-0.777-0.311-1.243-0.622-0.933-0.622-0.622-0.622-0.311-0.933-0.311-0.777-0.156h-2.642v-2.798h5.285l3.108 0.156h6.373l2.953-0.156h7.305l1.71 0.156 1.555 0.156 3.108 0.622 1.399 0.466 3.108 1.555 1.243 0.933 1.399 1.399 0.466 0.622 0.622 1.243 0.622 1.555 0.311 1.555 0.311 1.865v2.176l-0.156 1.088-0.311 1.088-0.311 0.933-1.399 2.798-1.243 1.555-0.777 0.777-1.555 1.243-0.933 0.622-1.865 0.933-1.088 0.466 6.217 9.015 2.953 4.507 3.108 4.507 0.777 1.088 0.622 0.777 0.777 0.622 0.622 0.622 0.311 0.156 1.399 0.466 1.088 0.156 1.243 0.156h0.156v2.642h-0.777v1.088zM333.873 443.609h1.243l1.243-0.156 1.088-0.156 1.088-0.311 0.933-0.311 0.933-0.466 0.777-0.466 1.555-1.555 0.311-0.466 0.156-0.466 0.311-0.466 0.311-0.933 0.311-1.088 0.156-1.243 0.156-1.399v-2.642l-0.311-2.176-0.311-0.933-0.466-0.933-0.933-1.555-1.243-1.243-1.555-0.933-0.933-0.466-0.933-0.311-2.176-0.311h-3.264l-0.777 0.156h-0.622v20.673h2.953v0.156z"/><path fill="#757575" d="M416.408 471.121h-2.332l-9.171-10.259-9.171-10.103-9.171-10.259-9.171-10.103v30.776l0.156 0.933 0.311 1.555 0.156 0.622 0.311 0.622 0.311 0.466 0.466 0.466 0.933 0.622 0.622 0.311 0.622 0.156 0.777 0.156h3.264v2.798h-2.642l-4.663-0.311h-4.819l-4.974 0.311h-2.798v-2.798h2.332l1.555-0.311 1.243-0.622 0.466-0.311 0.933-0.933 0.622-1.243 0.311-0.777 0.311-1.555 0.156-0.933v-32.952l-0.466-1.865-0.622-0.933-1.399-1.399-0.933-0.622-0.466-0.156-1.865-0.466h-1.865v-2.798h4.507l2.021 0.156h5.13l1.71-0.156h1.71l31.709 35.439v-27.201l-0.156-0.933-0.156-0.777-0.622-1.243-0.311-0.466-0.466-0.466-1.399-0.933-1.399-0.466h-3.264v-2.798h5.44l2.487 0.156h4.663l2.176-0.156h4.663v2.798h-2.953l-0.622 0.156-0.933 0.311-0.933 0.622-0.466 0.466-0.156 0.622-0.622 1.555-0.311 0.933-0.156 1.088-0.156 1.399v38.237l0.156 1.865 0.156 1.71v0.466h-0.311c0-0.311 0.311-0.311-0.466-0.466v0z"/><path fill="#757575" d="M505.783 470.188h-2.487l-2.953-0.156-3.264-0.156h-6.528l-3.264 0.156-3.108 0.156h-2.798v-2.798h2.953l1.088-0.156 1.399-0.466 0.933-0.933 0.311-0.466 0.156-0.466 0.156-0.622 0.156-0.777v-39.791h-8.238c-2.176 0-2.487 0-3.886 0h-0.777l-0.777 0.156-0.622 0.156-0.933 0.311-0.933 0.933-0.311 0.933-0.156 0.622-0.311 1.399-0.311 1.865v0.156h-2.642v-0.466l0.156-1.555 0.311-1.555 0.622-6.217v-3.42h2.176v0.156l0.466 0.933 0.466 0.466 0.466 0.311 0.466 0.156 0.622 0.156h1.243c3.264 0 6.528 0 9.637 0h29.221l0.621-0.156 0.466-0.156 0.777-0.777 0.155-0.311v-1.088h0.933l0.466 0.156h0.466l0.466 0.156v0.311l-0.311 2.798-0.155 1.555-0.311 2.798v4.352l-0.621 0.311-0.621 0.156-0.621 0.311-0.621 0.156v-1.71l-0.155-1.088-0.311-1.243-0.155-0.466-0.933-1.399-0.933-0.622-0.621-0.311-1.243-0.311h-12.279v39.635l0.156 0.777 0.156 0.622 0.311 0.622 0.622 0.933 0.311 0.311 0.466 0.311 1.865 0.622h3.731v2.798h-0.777v0.933z"/><path fill="#757575" d="M543.087 469.877l0.155 0.311-2.643-0.156h-2.953l-2.953-0.156h-5.596l-2.798 0.156h-2.643l-2.332 0.156h-0.311v-2.798h1.244l1.088-0.156h0.933l0.311-0.156h0.466l0.311-0.156 0.466-0.156 0.311-0.311 0.311-0.156 0.155-0.311 0.311-0.311 0.311-0.933v-40.102l-0.311-0.933-0.311-0.311-0.155-0.311-0.311-0.311-0.311-0.156-0.466-0.156-0.311-0.156h-0.466l-0.311-0.156-0.933-0.156h-2.332v-2.642h5.285l2.953 0.156h5.596l2.953-0.156h5.751v2.642h-2.176l-0.933 0.156-0.466 0.156h-0.466l-0.311 0.156-0.466 0.156-0.311 0.156-0.311 0.311-0.155 0.311-0.311 0.311-0.311 0.933v40.102l0.311 0.933 0.311 0.311 0.155 0.311 0.311 0.156 0.311 0.311 0.466 0.156 0.311 0.156h0.466l0.466 0.156h0.933l0.933 0.156h1.244v2.798h-0.311l-0.155-0.311z"/><path fill="#757575" d="M652.513 471.276l-0.777-0.156h-2.332l-9.015-10.259-9.17-10.103-9.17-10.259-9.17-10.103v29.999l0.155 0.933v0.933l0.155 0.933 0.155 0.777 0.155 0.466 0.311 0.622 0.621 0.933 0.466 0.466 0.621 0.156 0.621 0.311 0.621 0.156 0.777 0.156h0.777l0.933 0.156h1.71v2.798h-0.466l-2.332-0.156h-2.176l-2.332-0.156h-4.818l-2.487 0.156h-2.332l-2.487 0.156h-0.311v-2.798h1.244l0.933-0.156h0.621l0.777-0.311 0.621-0.156 0.621-0.311 0.933-0.933 0.311-0.466 0.933-1.865 0.155-0.933 0.155-0.777v-0.933l0.155-0.933v-32.019l-0.155-0.777-0.155-0.622-0.311-0.622-0.933-1.399-0.933-0.933-0.933-0.622-0.466-0.156-1.244-0.311-0.466-0.156h-1.865v-2.642h4.352l2.176 0.156h5.285l1.71-0.156h1.71l7.927 9.015 23.782 26.579v-26.424l-0.155-1.088-0.155-0.777-0.155-0.933-0.621-1.243-0.311-0.466-0.933-0.933-0.466-0.311-1.865-0.622h-0.466l-0.933-0.156h-1.865v-2.642h5.285l2.643 0.156h4.663l2.332-0.156h4.663v2.642h-1.399l-1.088 0.156h-0.466l-0.621 0.156-0.933 0.311-0.621 0.311-0.311 0.311-0.466 0.622-0.311 0.466-0.466 0.777-0.155 0.777-0.311 1.088-0.155 1.088-0.155 1.399v37.926l0.155 1.71 0.311 1.71v0.466h-0.311z"/><path fill="#757575" d="M749.97 469.877l0.155 0.311-4.818-0.156h-4.663l-4.818-0.156h-9.481l-4.663 0.156h-4.818l-4.818 0.156h-0.311v-2.798h1.244l1.088-0.156h0.933l0.466-0.156h0.311l0.466-0.156 0.311-0.311 0.311-0.156 0.311-0.311 0.311-0.466 0.311-0.311 0.155-0.622 0.155-0.466v-39.635l-0.311-0.933-0.933-0.933-0.621-0.311-0.466-0.156h-0.311l-0.466-0.156-0.933-0.156h-2.332v-2.642h6.062l2.798 0.156h5.596l2.798-0.156h5.751v2.642h-3.109l-0.933 0.156-0.777 0.156h-0.311l-0.621 0.311-0.155 0.311-0.311 0.311-0.155 0.311-0.311 0.933v39.169l0.155 0.466 0.466 0.933 0.311 0.156 0.155 0.311 0.621 0.311 0.777 0.311 1.554 0.311 0.933 0.156h5.751l2.798-0.311h0.466l0.621-0.156 0.933-0.311 2.798-1.399 0.621-0.622 0.777-0.622 0.466-0.622 0.621-1.243 0.466-0.622 0.311-0.622 0.311-1.399 0.466-1.243v-0.156h2.798l-0.155 0.156v0.156l-1.244 6.217-0.777 2.953-0.621 3.108v0.156l-0.155 0.156h-0.155l-0.155-0.311z"/><path fill="#757575" d="M388.274 229.732v0h-0.156v-0.155h-0.311l-0.156-0.155h-0.156l-0.156-0.155h-0.466l-0.156-0.155h-0.156v-0.155h-0.311l-0.156-0.155h-0.311v-0.155h-0.311l-0.156-0.155h-0.156l-0.156-0.155h-0.156l-0.156-0.155h-0.156v-0.155h-0.466v-0.155h-0.311v-0.155h-0.311l-0.156-0.155h-0.156l-0.156-0.155h-0.156l-0.156-0.155h-0.156l-0.156-0.155h-0.156l-0.156-0.155h-0.156l-0.156-0.155h-0.156l-0.156-0.155h-0.156l-0.156-0.155h-0.156l-0.156-0.155h-0.156l-0.156-0.155h-0.156l-0.156-0.155h-0.156l-0.156-0.155h-0.156l-0.156-0.155h-0.156v-0.155h-0.156l-0.156-0.155h-0.156l-0.156-0.155h-0.156v-0.155h-0.156l-0.156-0.155h-0.156l-0.156-0.155h-0.156l-0.156-0.155h-0.156v-0.155h-0.156l-0.156-0.155h-0.156v-0.155h-0.311v-0.155h-0.311v-0.155h-0.156l-0.311-0.311h-0.311v-0.155h-0.156v-0.155h-0.311v-0.155h-0.156l-0.156-0.155h-0.156l-0.156-0.155h-0.156v-0.155h-0.156v-0.155h-0.311v-0.155h-0.156l-0.156-0.155h-0.156v-0.155h-0.156v-0.155h-0.311v-0.155h-0.156l-0.311-0.311h-0.156v-0.155h-0.156l-0.311-0.311h-0.156v-0.155h-0.156l-0.156-0.155h-0.156v-0.155h-0.156l-0.311-0.311h-0.156v-0.155h-0.156l-0.466-0.466h-0.156v-0.155h-0.156v-0.155h-0.156l-0.156-0.155h-0.156v-0.155h-0.156v-0.155h-0.156l-0.311-0.311h-0.156v-0.155h-0.156l-0.156-0.155v-0.155h-0.156l-0.311-0.311h-0.156v-0.155h-0.156l-0.156-0.155h-0.156v-0.155l-0.156-0.155h-0.156v-0.155h-0.156v-0.155h-0.156v-0.155h-0.156l-0.466-0.466h-0.156v-0.155h-0.156v-0.155h-0.156v-0.155h-0.156v-0.155h-0.156v-0.155h-0.156l-0.156-0.155v-0.155h-0.156l-0.156-0.155v-0.155h-0.156l-0.311-0.311h-0.156v-0.155l-0.777-0.777v-0.155h-0.156l-0.622-0.621v-0.155h-0.156l-0.156-0.155v-0.155h-0.156l-0.466-0.466v-0.155h-0.156l-0.156-0.155v-0.155h-0.156v-0.155h-0.156v-0.155h-0.156v-0.155h-0.156v-0.155h-0.156v-0.155h-0.156v-0.155h-0.156v-0.155l-0.156-0.155v-0.155h-0.156v-0.155h-0.156v-0.155h-0.156v-0.155h-0.156v-0.155h-0.156v-0.155l-0.156-0.155v-0.155h-0.156l-0.156-0.155v-0.155h-0.156v-0.155h-0.156v-0.155l-0.311-0.311v-0.155h-0.156v-0.155h-0.156v-0.155l-0.466-0.466v-0.155h-0.156v-0.155h-0.156v-0.155l-0.311-0.311v-0.155h-0.156v-0.155h-0.156v-0.311h-0.156v-0.155h-0.156v-0.311h-0.156v-0.155h-0.156v-0.155h-0.156v-0.311h-0.156v-0.155h-0.156v-0.155l-0.156-0.155v-0.155h-0.156v-0.155h-0.156v-0.311h-0.156v-0.155h-0.156v-0.155l-0.156-0.155v-0.155h-0.156v-0.311h-0.156v-0.155h-0.156v-0.155l-0.156-0.155v-0.155h-0.156v-0.155l-0.156-0.155v-0.155h-0.156v-0.155h-0.156v-0.311h-0.156v-0.155l-0.156-0.155v-0.155h-0.156v-0.155l-0.156-0.155v-0.155l-0.156-0.155v-0.155h-0.156v-0.311h-0.156v-0.155h-0.156v-0.311h-0.156v-0.155l-0.156-0.155v-0.155l-0.156-0.155v-0.155l-0.311-0.311v-0.311h-0.156v-0.155l-0.156-0.155v-0.155h-0.156v-0.311h-0.156v-0.311h-0.156v-0.155l-0.156-0.155v-0.311h-0.156v-0.311h-0.156v-0.155h-0.156v-0.466h-0.156v-0.155h-0.156v-0.311l-0.156-0.155v-0.155l-0.156-0.155v-0.155l-0.156-0.155v-0.155l-0.156-0.155v-0.155h-0.156v-0.311h-0.156v-0.466h-0.156v-0.311h-0.156v-0.311l-0.156-0.155v-0.155l-0.156-0.155v-0.311h-0.156v-0.311l-0.156-0.155v-0.155l-0.156-0.155v-0.155l-0.156-0.155v-0.311l-0.156-0.155v-0.155l-0.156-0.155v-0.311h-0.156v-0.466h-0.156v-0.311l-0.156-0.155v-0.311h-0.156v-0.311l-0.156-0.155v-0.311h-0.156v-0.466h-0.156v-0.466h-0.156v-0.311l-0.156-0.155v-0.466h-0.156v-0.311l-0.156-0.155v-0.311l-0.156-0.155v-0.311l-0.156-0.155v-0.311l-0.156-0.155v-0.466l-0.156-0.155v-0.311l-0.156-0.155v-0.466l-0.156-0.155v-0.311l-0.156-0.155v-0.466l-0.156-0.155v-0.466l-0.156-0.155v-0.466l-0.156-0.155v-0.621h-0.156v-0.621h-0.156v-0.621l-0.156-0.155v-0.621l-0.156-0.155v-0.621l-0.156-0.155v-1.088h-0.156v-0.621h-0.156v-1.244h-0.156v-0.777h-0.156v-1.71h-0.156v-1.399l-0.156-0.155v-1.865h-0.156v-9.171h0.156v-1.865h0.156v-1.554h0.156v-1.71h0.156v-0.777h0.156v-1.244h0.156v-0.621h0.156v-1.088l0.156-0.155v-0.621l0.156-0.155v-0.621l0.156-0.155v-0.466l0.156-0.155v-0.621h0.156v-0.621h0.156v-0.621l0.156-0.155v-0.466l0.156-0.155v-0.466h0.156v-0.466l0.156-0.155v-0.466h0.156v-0.466l0.156-0.155v-0.466h0.156v-0.466l0.156-0.155v-0.311l0.156-0.155v-0.311h0.156v-0.466h0.156v-0.466l0.156-0.155v-0.311h0.156v-0.466h0.156v-0.311l0.156-0.155v-0.311l0.156-0.155v-0.311h0.156v-0.311l0.156-0.155v-0.311h0.156v-0.311l0.156-0.155v-0.311l0.156-0.155v-0.311h0.156v-0.311h0.156v-0.311h0.156v-0.311l0.156-0.155v-0.155l0.156-0.155v-0.311h0.156v-0.311h0.156v-0.311l0.156-0.155v-0.311h0.156v-0.466h0.156v-0.311h0.156v-0.155l0.156-0.155v-0.155h0.156v-0.311h0.156v-0.311h0.156v-0.466h0.156v-0.155h0.156v-0.466h0.156l0.156-0.155v-0.311h0.156v-0.311h0.156v-0.311h0.156v-0.311h0.156v-0.311h0.156v-0.156l0.156-0.156v-0.156h0.156v-0.311h0.156v-0.156l0.156-0.156v-0.156l0.156-0.156v-0.156l0.156-0.156v-0.156h0.156v-0.156l0.156-0.156v-0.156h0.156v-0.311h0.156v-0.156l0.156-0.156v-0.156l0.311-0.311v-0.156h0.156v-0.156l0.156-0.156v-0.156l0.156-0.156v-0.156h0.156v-0.156h0.156v-0.311h0.156v-0.156l0.156-0.156v-0.156h0.156v-0.156h0.156v-0.311h0.156v-0.156l0.311-0.311v-0.156h0.156v-0.311h0.156v-0.156h0.156v-0.156l0.156-0.156v-0.156h0.156v-0.156h0.156v-0.311h0.156v-0.156h0.156v-0.156h0.156v-0.311h0.156v-0.156h0.156v-0.311h0.156l0.156-0.156v-0.156l0.156-0.156h0.156v-0.311h0.156v-0.156h0.156v-0.156l0.156-0.156h0.156v-0.156l0.156-0.156v-0.156h0.156v-0.156h0.156v-0.156l0.311-0.311v-0.156h0.156v-0.156h0.156v-0.156l0.156-0.156h0.156v-0.156l0.311-0.311v-0.156h0.156v-0.156h0.156v-0.156h0.156v-0.156h0.156v-0.156l0.311-0.311v-0.156h0.156v-0.156h0.156v-0.156h0.156v-0.156h0.156v-0.156h0.156v-0.156h0.156v-0.156h0.156v-0.156h0.156v-0.156h0.156v-0.156h0.156v-0.156h0.156v-0.156h0.156v-0.156l0.156-0.156h0.156v-0.156h0.156v-0.156l0.466-0.466h0.156v-0.156l1.243-1.243h0.156v-0.156l0.156-0.156h0.156v-0.156h0.156l0.156-0.156v-0.156h0.156v-0.156h0.156v-0.156h0.156v-0.156h0.156v-0.156h0.156l0.311-0.311h0.156v-0.156h0.156v-0.156h0.156v-0.156h0.156v-0.156h0.311v-0.311h0.311v-0.156h0.156v-0.156h0.156l0.311-0.311h0.156v-0.156h0.156v-0.156h0.156v-0.156h0.156l0.311-0.311h0.156v-0.156h0.156v-0.156h0.156l0.156-0.156h0.156v-0.156h0.156v-0.156h0.156l0.466-0.466h0.156v-0.156h0.156l0.311-0.311h0.156v-0.156h0.156l0.156-0.156h0.156v-0.156h0.156l0.311-0.311h0.156v-0.156h0.156l0.311-0.311h0.156l0.156-0.156h0.156v-0.156h0.156v-0.156h0.156l0.156-0.156h0.156l0.156-0.156h0.156v-0.156h0.156l0.311-0.311h0.311v-0.156h0.156v-0.156h0.311v-0.156h0.156l0.156-0.156h0.156l0.311-0.311h0.156l0.156-0.156h0.156v-0.156h0.311v-0.156h0.156l0.156-0.156h0.156v-0.156h0.156l0.156-0.156h0.156l0.156-0.156h0.156l0.156-0.156h0.156v-0.156h0.156l0.156-0.156h0.156l0.156-0.156h0.156v-0.156h0.156l0.156-0.156h0.156l0.156-0.156h0.156l0.156-0.156h0.156l0.156-0.156h0.156l0.156-0.156h0.156l0.156-0.156h0.156l0.156-0.156h0.156l0.156-0.156h0.156l0.156-0.156h0.156l0.156-0.156h0.156l0.156-0.156h0.311v-0.156h0.156l0.156-0.156h0.311v-0.156h0.311v-0.156h0.311v-0.156h0.311l0.156-0.156h0.311v-0.156h0.156v-0.156h0.466l0.156-0.156h0.156l0.156-0.156h0.311v-0.156h0.466v-0.156h0.311v-0.156h0.311l0.156-0.156h0.311v-0.156h0.156v135.694z"/><path fill="#757575" d="M158.698 375.218v1.865l0.466 2.332 0.155 0.622 0.933 1.865 0.621 0.933 0.933 0.933 1.865 1.243 0.621 0.311 1.088 0.466 1.088 0.311 1.244 0.311 2.487 0.311h5.13l4.974-0.622 2.176-0.311 5.44-1.555 0.933-0.466 0.933-0.311 2.798-1.399 1.71-1.088 1.554-1.088 1.554-1.243 1.399-1.243 1.244-1.243 1.244-1.399 1.088-1.399 1.088-1.555 1.865-3.108 1.554-3.42 1.244-3.42 1.399-5.596 0.621-3.731 0.466-5.596v-4.197l-0.155-2.332-0.621-4.352-0.466-2.176-0.466-2.021-1.244-4.041-1.554-3.731-1.865-3.42-1.088-1.71-2.487-3.108-1.399-1.555-2.798-2.798-1.554-1.243-1.554-1.088-1.71-1.088-1.71-0.933-1.865-0.933-3.731-1.555-2.020-0.622-2.020-0.466-2.176-0.466-2.176-0.311-2.332-0.311-2.332-0.156h-5.906l-2.798 0.156-2.176 0.156-1.865 0.156v72.433h0.155zM145.642 313.2v-3.108l-0.155-0.933-0.311-1.555-0.155-0.622-0.621-1.243-1.244-1.865-0.311-0.311-1.399-0.933-1.399-0.466-0.933-0.156-1.088-0.156h-4.352v-3.42l3.886 0.156h16.165l5.285-0.156h16.165l6.218 0.622 1.399 0.156 6.994 1.555 1.244 0.311 6.218 2.332 1.088 0.622 1.244 0.622 5.44 3.108 0.933 0.777 2.020 1.399 1.865 1.555 1.71 1.555 1.399 1.71 1.554 1.71 1.399 1.865 2.487 3.731 1.088 2.021 1.865 4.041 0.777 2.021 0.777 2.176 0.621 2.176 0.466 2.176 0.621 4.352 0.155 2.176v4.818l-0.311 3.108-0.621 3.42-0.933 3.731-1.244 3.731-0.777 2.021-0.933 1.865-1.088 1.865-1.088 2.021-1.865 2.798-4.663 5.596-1.865 1.555-4.352 3.108-2.487 1.555-2.487 1.243-4.197 1.865-1.554 0.622-4.663 1.399-1.71 0.466-3.419 0.622-3.731 0.622-1.865 0.156-4.042 0.311-2.176 0.156h-7.15l-4.819-0.156h-13.989l-4.352 0.156h-4.507l-4.507 0.156v-3.575l2.798-0.311 1.244-0.156 1.088-0.156 1.088-0.311 1.865-0.622 0.777-0.466 1.244-1.243 0.311-0.466 0.311-0.311 0.621-1.865 0.311-1.243 0.155-1.399 0.155-1.555v-65.127h0.311z"/><path fill="#757575" d="M575.106 422.159l2.798 0.933 0.933 0.466 0.777 0.466 2.332 1.865 0.621 0.622 1.865 2.332 0.466 0.777 0.621 0.933 0.466 0.777 0.933 1.865 1.554 4.663 0.155 1.088 0.155 0.933 0.155 1.088 0.155 0.933v4.974l-0.311 4.041-0.311 2.021-0.466 2.798-1.244 3.731-1.865 3.108-0.621 0.777-1.244 1.243-0.777 0.622-1.554 0.933-0.933 0.466-0.933 0.311-1.088 0.311-2.176 0.311-1.244 0.156h-2.332l-1.088-0.156-1.865-0.311-1.865-0.622-1.554-0.933-3.109-2.487-2.487-3.108-1.865-3.731-0.466-1.088-1.554-5.44-0.155-1.243-0.155-1.088-0.155-1.243v-5.596l0.155-1.865 0.311-1.865 0.311-1.71 0.311-0.933 0.155-0.933 0.311-0.777 0.311-0.933 0.311-0.777 2.332-3.886 0.466-0.622 1.865-1.865 2.332-1.399 0.777-0.311 1.865-0.622 0.933-0.156 1.088-0.156c2.020 0 3.731 0 5.596 0.311v0zM570.598 418.118l-2.798 0.311-2.798 0.622-1.244 0.311-1.088 0.311-2.487 0.933-1.244 0.622-2.176 1.243-2.176 1.555-0.933 0.777-1.865 1.865-0.777 0.933-1.554 2.176-1.244 2.176-0.621 1.243-1.399 3.731-0.311 1.243-0.621 2.798-0.311 2.798v2.798l0.311 2.798 0.311 1.399 0.621 2.487 0.933 2.487 0.621 1.243 1.865 3.264 0.777 1.088 0.777 0.933 1.865 1.865 1.865 1.555 1.088 0.777 3.264 1.865 1.244 0.622 3.731 1.399 1.244 0.311 1.399 0.311 4.197 0.466h2.798l4.197-0.466 2.798-0.622 3.731-1.399 1.244-0.622 2.176-1.243 2.176-1.555 0.933-0.777 2.798-2.798 2.332-3.264 0.621-1.088 0.621-1.243 0.933-2.487 0.466-1.399 0.621-2.798 0.155-1.555 0.155-1.399 0.155-1.555v-2.953l-0.311-2.798-0.311-1.399-0.621-2.487-0.933-2.487-1.865-3.264-0.777-1.088-1.554-1.865-0.933-0.933-2.798-2.332-1.088-0.777-2.176-1.243-1.244-0.622-1.088-0.466-2.487-0.933-1.244-0.311-2.798-0.622-4.197-0.466h-2.953z"/><path fill="#757575" d="M255.689 387.342h-2.643l-0.466-0.156h-0.621l-0.933-0.311-0.933-0.622-0.155-0.311-0.621-0.933-0.311-1.243v-52.536l-0.155-0.311v-0.311l-0.155-0.311-0.155-0.156h-0.155l-0.311-0.156-0.466 0.156h-0.621l-1.244 0.622-0.466 0.156-1.088 0.466-3.419 1.243-4.507 1.399-4.819 1.555v2.021l1.71 0.933 1.554 0.777 0.466 0.466 0.621 0.466 0.466 0.311 0.466 0.466 0.466 0.622 0.311 0.466 0.311 0.622 0.155 0.622 0.311 1.555 0.155 0.933v37.149l-0.155 0.777v0.622l-0.155 0.622-0.155 0.466-0.311 0.466-0.621 0.622-0.466 0.311-0.933 0.311h-0.466l-0.621 0.156h-5.13v3.42l7.305-0.156h3.731l3.575-0.156 3.575 0.156h3.419l3.575 0.156h3.419v-3.42h-2.332z"/><path fill="#757575" d="M709.091 467.39h-0.777l-0.777-0.156-0.621-0.156-0.621-0.311-0.466-0.311-0.466-0.466-0.621-1.243-0.621-1.71-1.865-5.596-13.212-37.615-0.621-1.865-0.155-0.311-0.155-0.156h-0.777l-0.311 0.156-1.399 0.777-1.71 0.777-1.865 0.777-1.865 0.622-0.621 2.176-0.777 2.487-0.777 2.332-0.777 2.176-11.502 32.952-0.155 0.466-1.244 1.865-0.933 0.933-0.933 0.622-1.865 0.622h-1.71v2.798h0.311l3.886-0.156 2.020-0.156h4.042l2.176 0.156 4.352 0.156h0.311v-2.798h-2.020l-1.865-0.311-0.777-0.156-1.244-0.622-0.466-0.933v-0.777l0.155-0.466 0.311-1.243 0.466-1.555 0.621-1.71 2.176-7.305h15.855l2.798 8.082 0.621 1.71 0.466 1.399 0.311 1.243v1.243l-0.466 0.466-0.311 0.156-1.865 0.466h-2.487v2.798h0.311l5.44-0.156 2.643-0.156h5.285l2.487 0.156 4.974 0.156h0.311v-2.798h-0.621v0.466zM687.796 447.651h-12.59l6.373-19.274 6.217 19.274z"/><path fill="#757575" d="M250.249 303.096v0.622l-0.466 1.865-0.311 0.622-0.311 0.466-0.311 0.622-0.466 0.466-0.466 0.311-0.466 0.466-0.621 0.311-0.466 0.156-0.621 0.311-1.244 0.311h-1.399l-1.244-0.311-0.621-0.311-0.466-0.156-0.621-0.311-0.466-0.466-0.466-0.311-0.466-0.466-0.311-0.622-0.311-0.466-0.311-0.622-0.466-1.865v-1.243l0.466-1.865 0.311-0.622 0.621-0.933 0.933-0.933 0.466-0.311 0.621-0.311 0.466-0.311 0.621-0.311 0.621-0.156h2.643l0.621 0.156 0.621 0.311 0.466 0.311 0.621 0.311 0.466 0.311 0.933 0.933 0.621 0.933 0.311 0.622 0.466 1.865v0.622z"/><path fill="#757575" d="M440.5 229.732v-135.694l7.461 3.264 6.995 4.197 2.176 1.555 4.352 3.419 2.021 1.71 3.731 3.731 1.865 2.020 1.71 2.020 1.71 2.176 3.108 4.352 2.798 4.663 1.243 2.332 2.176 4.974 1.088 2.643 0.933 2.487 0.777 2.798 1.243 5.285 0.466 2.798 0.311 2.798 0.466 2.953v2.798l0.156 2.953-0.156 2.798v2.953l-0.466 2.798-0.311 2.643-0.466 2.798-0.622 2.798-0.622 2.643-0.777 2.643-0.933 2.643-1.088 2.643-1.088 2.332-1.088 2.487-1.243 2.487-2.798 4.663-3.108 4.352-1.71 2.176-1.71 2.020-1.865 2.020-3.731 3.731-2.021 1.865-2.176 1.554-2.176 1.71-2.176 1.554-4.663 2.798-2.332 1.244-2.487 1.244-4.974 2.176z"/><path fill="#757575" d="M473.608 467.39h-0.777l-0.777-0.156-0.622-0.156-0.622-0.311-0.466-0.311-0.466-0.466-0.622-1.243-0.622-1.71-1.865-5.596-13.212-37.615-0.622-1.865-0.156-0.311-0.156-0.156h-0.777l-0.311 0.156-1.399 0.777-1.71 0.777-1.865 0.777-1.865 0.622-0.622 2.176-0.777 2.487-0.777 2.332-0.777 2.176-11.502 32.952-0.156 0.466-0.622 0.933-0.466 0.622-0.311 0.466-0.933 0.933-0.933 0.622-1.865 0.622h-1.71v2.798h0.311l3.886-0.156 2.021-0.156h4.041l2.176 0.156 4.352 0.156h0.311v-2.798h-2.021l-1.865-0.311-0.777-0.156-1.243-0.622-0.466-0.933v-0.777l0.156-0.466 0.311-1.243 0.466-1.555 0.622-1.71 2.176-7.305h15.854l2.798 8.082 0.622 1.71 0.466 1.399 0.311 1.243v1.243l-0.466 0.466-0.311 0.156-1.865 0.466h-2.487v2.798h0.311l5.44-0.156 2.642-0.156h5.285l2.487 0.156 4.974 0.156h0.311v-2.798h-0.466v0.311zM452.313 447.651h-12.59l6.373-19.274 6.217 19.274z"/><path fill="#757575" d="M747.949 421.226c0.311 0 0.466 0 0.621 0.156 0.155 0 0.311 0 0.311 0.156 0 0 0.155 0.156 0.155 0.311s0 0.311 0 0.622v5.13c0 0.311 0 0.466 0 0.622s0 0.311-0.155 0.311c0 0-0.155 0.156-0.311 0.156s-0.311 0-0.621 0v0.466h3.419v-0.466c-0.311 0-0.466 0-0.621 0s-0.311 0-0.311-0.156c0 0-0.155-0.156-0.155-0.311s0-0.311 0-0.622v-2.021h1.088c0.311 0.466 0.621 1.088 0.933 1.399 0.311 0.466 0.466 0.777 0.777 1.088 0.155 0.311 0.311 0.622 0.621 0.777 0.155 0.156 0.311 0.311 0.466 0.311h1.244v-0.156c-0.155-0.156-0.311-0.311-0.466-0.466s-0.466-0.466-0.621-0.622c-0.155-0.311-0.466-0.466-0.621-0.777l-1.244-1.71c0.311-0.156 0.621-0.311 0.933-0.466s0.466-0.466 0.621-0.777c0.155-0.311 0.311-0.622 0.311-1.088 0-0.311-0.155-0.622-0.155-0.933-0.155-0.311-0.311-0.466-0.621-0.622s-0.466-0.311-0.777-0.311c-0.311-0.156-0.621-0.156-0.933-0.156h-3.731v0.156h-0.155zM750.436 421.538h0.933c0.311 0 0.621 0 0.777 0.156 0.311 0.156 0.466 0.311 0.621 0.466 0.155 0.311 0.155 0.622 0.311 0.933 0 0.622-0.155 1.088-0.466 1.399s-0.621 0.466-1.244 0.466h-1.088v-3.42h0.155zM751.524 432.728c0.777 0 1.554-0.156 2.332-0.466s1.399-0.622 2.020-1.088c0.621-0.466 1.088-1.088 1.554-1.71s0.777-1.399 1.088-2.021c0.311-0.777 0.311-1.555 0.311-2.332s-0.155-1.71-0.311-2.487c-0.311-0.777-0.621-1.399-1.088-2.021s-0.933-1.243-1.554-1.71c-0.621-0.466-1.244-0.777-2.020-1.088s-1.554-0.311-2.332-0.311c-0.777 0-1.554 0.156-2.332 0.311-0.777 0.311-1.399 0.622-2.020 1.088s-1.088 1.088-1.554 1.71c-0.466 0.622-0.777 1.399-1.088 2.021-0.311 0.777-0.311 1.555-0.311 2.487 0 0.777 0.155 1.71 0.311 2.332 0.311 0.777 0.621 1.399 1.088 2.021s0.933 1.243 1.554 1.71c0.621 0.466 1.244 0.777 2.020 1.088 0.621 0.311 1.399 0.466 2.332 0.466v0zM751.524 431.64c-0.621 0-1.399-0.156-2.020-0.311s-1.244-0.466-1.71-0.933c-0.466-0.466-0.933-0.933-1.399-1.399-0.311-0.466-0.621-1.088-0.933-1.71-0.155-0.622-0.311-1.243-0.311-2.021 0-0.622 0.155-1.399 0.311-2.021s0.466-1.243 0.933-1.71c0.311-0.466 0.777-0.933 1.399-1.399 0.466-0.466 1.088-0.777 1.71-0.933s1.244-0.311 2.020-0.311c0.621 0 1.399 0.156 2.020 0.311s1.244 0.466 1.71 0.933c0.466 0.466 0.933 0.933 1.399 1.399 0.311 0.466 0.621 1.088 0.933 1.71 0.155 0.622 0.311 1.243 0.311 2.021 0 0.622-0.155 1.399-0.311 2.021s-0.466 1.243-0.933 1.71c-0.311 0.466-0.777 0.933-1.399 1.399-0.466 0.466-1.088 0.777-1.71 0.933-0.777 0.156-1.399 0.311-2.020 0.311v0z"/></svg>