<!-- Generated by IcoMoon.io -->
<svg version="1.1" xmlns="http://www.w3.org/2000/svg" width="879" height="512" viewBox="0 0 879 512">
<g id="icomoon-ignore">
</g>
<path fill="#757575" d="M820.071 512c32.486 0 59.065-26.579 59.065-59.065v-202.841c0 0-227.711 191.805-660.906 261.906h601.841z"></path>
<path fill="#757575" d="M108.804 156.522h-32.952v115.332h32.952c17.719 0 30.62-4.663 41.19-12.901 12.901-10.57 21.139-27.046 21.139-44.765 0-34.040-24.714-57.666-62.329-57.666zM135.85 243.565c-6.994 5.906-16.476 9.482-30.62 9.482h-6.995v-76.474h5.906c14.145 0 23.471 2.332 30.621 9.482 8.238 6.994 12.901 17.564 12.901 29.377 1.244 10.57-3.575 21.139-11.813 28.133z"></path>
<path fill="#757575" d="M181.858 156.522h22.382v115.332h-22.382v-115.332z"></path>
<path fill="#757575" d="M259.42 201.287c-14.144-4.663-17.72-8.238-17.72-14.144 0-6.994 6.994-12.901 16.476-12.901 6.995 0 11.813 2.332 17.719 9.482l11.813-15.232c-9.481-8.238-21.139-12.901-34.196-12.901-20.051 0-36.527 14.144-36.527 32.952 0 16.476 6.994 24.714 28.289 31.708 9.482 3.575 12.901 4.663 15.233 6.994 4.663 3.575 6.995 6.994 6.995 11.813 0 9.482-6.995 16.476-17.72 16.476s-20.051-5.906-24.714-15.232l-14.144 14.144c10.57 15.233 22.382 22.382 39.946 22.382 23.471 0 39.947-15.233 39.947-37.615 2.798-20.362-5.44-28.6-31.397-37.926z"></path>
<path fill="#757575" d="M300.61 214.188c0 34.196 27.046 59.998 61.241 59.998 9.481 0 17.719-2.332 28.289-6.995v-27.046c-9.481 9.482-16.476 12.901-27.046 12.901-22.382 0-38.858-16.476-38.858-39.947 0-22.382 16.476-39.947 37.615-39.947 10.57 0 18.808 3.575 28.289 12.901v-27.046c-9.481-4.663-17.719-6.994-28.289-6.994-34.040 2.176-61.241 29.221-61.241 62.173z"></path>
<path fill="#757575" d="M569.044 234.239l-30.62-77.717h-24.714l49.428 118.907h11.813l49.428-118.907h-23.626z"></path>
<path fill="#757575" d="M634.948 273.098h64.816v-20.051h-42.433v-31.709h39.947v-18.963h-39.947v-25.802h42.433v-20.051h-64.816z"></path>
<path fill="#757575" d="M789.139 190.718c0-21.139-15.232-34.196-41.19-34.196h-32.952v115.332h22.383v-47.096h3.575l31.708 47.096h28.289l-38.859-48.185c17.564-3.575 27.045-15.388 27.045-32.952zM743.286 209.525h-6.995v-35.284h6.995c14.144 0 21.139 5.906 21.139 17.72 1.244 11.657-6.995 17.564-21.139 17.564z"></path>
<path fill="#757575" d="M519.616 214.188c0 33.822-27.418 61.241-61.241 61.241s-61.241-27.418-61.241-61.241c0-33.822 27.418-61.241 61.241-61.241s61.241 27.418 61.241 61.241z"></path>
<path fill="#757575" d="M800.952 158.853c0-2.332-1.244-3.575-3.575-3.575h-3.575v10.57h2.332v-3.575l2.332 3.575h3.575l-3.575-4.663c1.244 0 2.487-1.088 2.487-2.332zM796.134 160.097v0-2.332c1.244 0 2.332 0 2.332 1.244 0.155 1.088-1.088 1.088-2.332 1.088z"></path>
<path fill="#757575" d="M797.377 151.859c-4.663 0-9.481 3.575-9.481 9.482 0 4.663 3.575 9.482 9.481 9.482 4.663 0 8.238-3.575 8.238-9.482 0-4.819-3.575-9.482-8.238-9.482zM797.377 168.335c-3.575 0-6.995-3.575-6.995-6.994s3.575-6.994 6.995-6.994c3.575 0 6.995 3.575 6.995 6.994s-3.419 6.994-6.995 6.994z"></path>
</svg>
