<svg width="17" height="17" viewBox="0 0 17 17">
  <path fill="#FFF" fill-rule="evenodd" d="M15,17 L2.00004333,17 L2.00004333,-3.26849658e-13 L11,-3.26849658e-13 C11.0897,-3.26849658e-13 15,3.86491665 15,3.95584028 L15,17 Z M10,4.99715169 L14.0031535,4.99715169 L10,1 L10,4.99715169 Z M4,8 L8,8 L8,7 L4,7 L4,8 Z M4,10 L8,10 L8,9 L4,9 L4,10 Z M4,12 L8,12 L8,11 L4,11 L4,12 Z M4,14 L8,14 L8,13 L4,13 L4,14 Z M9,8 L13,8 L13,7 L9,7 L9,8 Z M9,10 L13,10 L13,9 L9,9 L9,10 Z M9,12 L13,12 L13,11 L9,11 L9,12 Z M9,14 L13,14 L13,13 L9,13 L9,14 Z"/>
</svg>
