<svg height="14" viewBox="0 0 8 14" width="8" xmlns="http://www.w3.org/2000/svg"><path d="m1.51724138 2.98951049c-.83794928 0-1.51724138-.66922472-1.51724138-1.49475525 0-.82553052.6792921-1.49475524 1.51724138-1.49475524.83794927 0 1.51724138.66922472 1.51724138 1.49475524 0 .82553053-.67929211 1.49475525-1.51724138 1.49475525zm0 5.50699301c-.83794928 0-1.51724138-.66922472-1.51724138-1.49475525 0-.82553052.6792921-1.49475524 1.51724138-1.49475524.83794927 0 1.51724138.66922472 1.51724138 1.49475524 0 .82553053-.67929211 1.49475525-1.51724138 1.49475525zm0 5.506993c-.83794928 0-1.51724138-.6692247-1.51724138-1.4947552 0-.8255306.6792921-1.4947553 1.51724138-1.4947553.83794927 0 1.51724138.6692247 1.51724138 1.4947553 0 .8255305-.67929211 1.4947552-1.51724138 1.4947552zm4.96551724-11.01398601c-.83794927 0-1.51724138-.66922472-1.51724138-1.49475525 0-.82553052.67929211-1.49475524 1.51724138-1.49475524.83794928 0 1.51724138.66922472 1.51724138 1.49475524 0 .82553053-.6792921 1.49475525-1.51724138 1.49475525zm0 5.50699301c-.83794927 0-1.51724138-.66922472-1.51724138-1.49475525 0-.82553052.67929211-1.49475524 1.51724138-1.49475524.83794928 0 1.51724138.66922472 1.51724138 1.49475524 0 .82553053-.6792921 1.49475525-1.51724138 1.49475525zm0 5.506993c-.83794927 0-1.51724138-.6692247-1.51724138-1.4947552 0-.8255306.67929211-1.4947553 1.51724138-1.4947553.83794928 0 1.51724138.6692247 1.51724138 1.4947553 0 .8255305-.6792921 1.4947552-1.51724138 1.4947552z" fill="#454f76" fill-rule="evenodd"/></svg>