<svg xmlns="http://www.w3.org/2000/svg" width="512" height="512" viewBox="0 0 512 512">
  <path fill="#8A95B3" fill-rule="evenodd" d="M256,512 C114.615104,512 0,397.384896 0,256 C0,114.615104 114.615104,0 256,0 C397.384896,0 512,114.615104 512,256 C512,397.384896 397.384896,512 256,512 Z M333.269943,299.903086 L274.682514,242.138514 L274.682514,111.386514 C274.682514,99.0162286 264.561371,88.8950857 252.200229,88.8950857 L251.450514,88.8950857 C239.080229,88.8950857 228.968229,99.0162286 228.968229,111.386514 L228.968229,248.1088 C228.968229,248.721371 229.096229,249.306514 229.151086,249.909943 C228.611657,256.291657 230.659657,262.865371 235.523657,267.720229 L300.949943,332.232229 C309.690514,340.9728 323.999086,340.9728 332.739657,332.232229 L333.269943,331.701943 C342.010514,322.952229 342.010514,308.6528 333.269943,299.903086 Z"/>
</svg>
