<!-- Generated by IcoMoon.io -->
<svg version="1.1" xmlns="http://www.w3.org/2000/svg" width="512" height="512" viewBox="0 0 512 512">
<g id="icomoon-ignore">
</g>
<path fill="#636464" d="M14.44 372.3c8.71 24.873 21.308 46.327 37.269 64.796 14.713 16.339 31.907 30.487 50.972 41.817 34.27 20.879 74.521 32.913 117.582 32.913 0.179 0 0.357 0 0.536-0 3.067 0.106 6.704 0.166 10.357 0.166 47.239 0 92.115-10.117 132.58-28.303l3.868-29.796c-38.38 21.012-84.087 33.371-132.679 33.371-3.142 0-6.272-0.051-9.388-0.154-12.825-0.084-25.774-1.155-38.421-3.135-17.594-3.322-34.565-8.81-50.48-16.193-19.272-8.213-37.014-19.317-52.715-32.739-17.181-15.883-30.972-35.707-39.873-58.012-11.396-26.918-17.801-56.98-17.801-88.538 0-1.178 0.009-2.355 0.026-3.529-0.012-0.62-0.017-1.563-0.017-2.506 0-71.483 30.794-135.774 79.841-180.329 46.781-47.178 111.331-76.299 182.682-76.379 24.451 0.082 47.821 4.541 69.416 12.63 22.784 8.352 43.687 20.121 62.266 34.715 19.692 15.948 35.789 36.504 46.575 60.003 11.974 25.362 18.716 53.891 18.716 83.995 0 1.049-0.008 2.096-0.024 3.142 0.163 2.76 0.256 6.173 0.256 9.608 0 35.288-9.728 68.305-26.65 96.514q-25.622 37.943-55.197 37.943c-0.959 0.079-2.077 0.124-3.205 0.124-9.582 0-18.403-3.255-25.419-8.719-6.168-6.375-10.029-15.183-10.029-24.89 0-0.522 0.011-1.041 0.033-1.558l-0.002-8.625q0-13.57 1.218-26.966l6.089-45.928c2.195-15.101 3.518-32.644 3.652-50.471 0.13-1.881 0.203-3.895 0.203-5.925 0-24.069-10.312-45.73-26.759-60.805-19.334-14.367-43.592-22.965-69.86-22.965-2.926 0-5.827 0.106-8.7 0.317-27.904 0.186-54.968 5.139-80.144 14.079l-3.849 37.915c23.957-8.511 51.588-13.428 80.368-13.428 1.409 0 2.816 0.012 4.22 0.036-0.101-0.003 0.029-0.004 0.161-0.004 12.697 0 24.964 1.843 36.548 5.276 7.173 1.622 14.044 5.946 19.053 11.892 3.462 4.502 6.145 9.721 7.791 15.381 1.31 5.425 2.015 11.272 2.015 17.284 0 0.585-0.007 1.168-0.020 1.75 0.142 1.942 0.223 4.311 0.223 6.698s-0.080 4.756-0.238 7.103c-15.011-2.398-32.396-3.599-50.057-3.624-1.663-0.038-3.587-0.060-5.517-0.060-25.010 0-49.168 3.644-71.973 10.431-16.181 4.31-31.561 13.6-43.593 26.13-8.148 9.050-14.786 19.598-19.438 31.16-4.018 10.012-6.351 20.786-6.686 32.062-0.048 1.077-0.073 2.177-0.073 3.284 0 22.514 10.508 42.575 26.888 55.544 18.923 13.608 42.376 21.695 67.716 21.695 2.302 0 4.588-0.067 6.857-0.199q65.274 0.014 96.937-35.998c10.637 21.613 32.503 36.223 57.781 36.223 1.829 0 3.64-0.077 5.431-0.226-0.117 0.017 0.022 0.017 0.161 0.017 34.319 0 64.182-19.072 79.57-47.197 19.176-32.973 30.357-72.010 30.357-113.659 0-3.328-0.072-6.64-0.213-9.934 0.029-0.427 0.036-1.486 0.036-2.547 0-28.934-5.433-56.6-15.336-82.031-8.619-22.526-21.659-43.172-38.019-60.674-29.966-30.697-68.13-53.464-110.953-64.755-18.558-4.76-37.964-7.352-57.95-7.509-49.637 0.134-96.139 13.013-136.536 35.528-43.757 24.128-80.788 58.709-107.802 100.387-28.187 42.071-44.563 92.419-44.563 146.592 0 0.743 0.003 1.485 0.009 2.226-0.036 1.447-0.055 3.286-0.055 5.13 0 29.536 5.119 57.878 14.518 84.185zM179.539 308.104q0-56.367 107.689-56.367c1.221-0.017 2.663-0.026 4.108-0.026 14.438 0 28.652 0.958 42.583 2.814l-3.719 15.305-2.262 17.397c-0.949 5.761-2.099 10.688-3.531 15.494-1.003 4.471-3.108 9.185-5.955 13.353-3.264 3.965-6.62 7.652-10.16 11.154-4.228 4.408-9.493 7.764-15.406 9.681-5.878 1.889-13.185 3.754-20.631 5.238-9.707 1.894-19.282 2.846-29.079 2.846-0.537 0-1.073-0.003-1.609-0.009q-62.201 0-62.201-36.882z"></path>
</svg>
