<svg enable-background="new 224 24 512 512" viewBox="224 24 512 512" xmlns="http://www.w3.org/2000/svg"><path d="m633.1 251.6c-20-8-28-29-30.6-37.6-5.2-17.7-7.9-34.7-7.7-47.8v-.5c0-.1 0-.2 0-.3 0-11.6-1.8-40-15.7-66.9-18.1-34.8-49.5-53.3-93.3-54.9-.7 0-9.8 0-10.5 0-18.1.7-34.4 4.4-48.4 11-4.3-9.1-11.7-16.9-21.8-23.3-12.4-7.7-29.2-9.4-47.1-4.7-22.7 6-44.2 21.4-53.4 38.5-10.7 20-13.2 48.6-15.3 73.7-.8 9-1.5 17.5-2.5 25.3-5.5 40.3-5.1 153.5 44.8 161.5 1.1.2 2.3.3 3.3.3 5.3 0 11.2-1.9 13.7-6 1.7-2.6 2.5-7.1-2.4-14-4-5.6-9.1-6.8-14-7.9-5.8-1.4-10.7-2.5-14.2-10.5-2.7-6.3-4.1-19.8-3.7-34.4.5-16.5 3.4-32 7.8-42.5 3.2-7.6 7.2-12.7 11.8-15 1.9 2.8 6.9 9.2 12.5 7.1 1.6-.6 3.5-3.2 6.6-7.5 1.9-2.5 3.7-5.3 4.9-6.2 3.7-2.9 7.7-5.5 12-7.5 4.2 11 11.8 26.2 22.5 45.3 13.6 24.2 28.2 47.4 32.2 53.6 3.8 5.9 6.5 20.1 8.6 33l.8 4.5c.9 5.1 1.7 10 2.4 13.9-37.6 16.5-63.8 54.1-63.8 97.6 0 58.9 47.7 106.6 106.6 106.5s106.5-47.8 106.5-106.6c0-42.4-24.7-78.9-60.5-96.2.1-1 .1-2.1.2-3.2.2-5.6.8-11.2 1.6-16.6 2.2-12.9 4.8-27.2 8.6-33 4-6.2 18.7-29.4 32.2-53.6 12.3-21.9 20.4-38.6 24.1-49.7 1 11.3 3.5 24.3 7.4 37.7 2.6 9 11.1 31 32.2 39.5.2.1.4.1.5.1.6 0 1.1-.4 1.3-.9.8-.7.4-1.5-.2-1.8zm-277-64.7c-1.5 1.2-3.3 3.9-5.4 6.8-1.8 2.4-4.4 6.1-5.3 6.5-4.2 1.6-8.9-5.5-9.5-6.7 0-.1 0-.1-.1-.2-.3-.8-1.1-1.1-1.9-.8-5.9 2.3-10.8 7.9-14.6 17-10.3 24.4-9.9 65.9-4.1 79.1 4 9.3 10.2 10.7 16.2 12.1 4.6 1.1 8.9 2.1 12.3 6.8 2.3 3 4.4 7.4 2.3 10.9-2.3 3.7-9.1 5.2-14.1 4.4-47.1-7.6-47.5-120.3-42.3-158.3 1.1-7.8 1.8-16.4 2.5-25.5 2.2-25 4.5-53.2 15.1-72.7 8.9-16.3 29.6-31.2 51.4-37 6.1-1.6 12.3-2.3 18.7-2.4 9.9 0 18.8 2.3 26.1 6.9 10.2 6.4 17.4 14.2 21.3 23.3 2.4 5.6 3.7 11.5 3.9 17.5 1.3 26.2-15.4 56.2-29.3 81.2-2.8 5.1-5.5 9.9-7.8 14.3l-2.8 1c-6.2 2.2-12.5 4.4-18.6 7.2-4.9 2.2-9.6 5.1-14 8.6zm227.1 242.7c0 57.3-46.4 103.7-103.7 103.7s-103.7-46.5-103.7-103.7c0-45.4 29.2-84 69.9-98.1.2-.1.4-.2.7-.2.6-.2 1.1-.4 1.7-.5l.9-.3c.6-.2 1.1-.3 1.7-.5.3-.1.6-.2.9-.2.6-.2 1.2-.3 1.8-.5.2-.1.5-.1.7-.2.7-.2 1.3-.3 2-.5.2 0 .3-.1.5-.1.8-.2 1.5-.3 2.3-.5h.2c6.8-1.4 13.7-2.1 20.9-2.1 56.7.1 103.1 46.5 103.2 103.7zm-120.3-196.7c4.1 3.1 8.8 5.2 13.9 6.1 2.4.4 4.8.4 7.2 0 5.1-.9 9.9-2.9 13.9-6.1l-17.5 84.3zm102.8-7.4c-13.5 24.2-28.1 47.2-32.1 53.5-4.1 6.3-6.9 20.9-9 34.1-.9 5.6-1.4 11.3-1.7 16.9-.1.7-.1 1.4-.1 2.1-12.8-5.7-26.6-8.8-40.6-9.1l19.5-93.6c.1-.5-.1-1-.4-1.4-.6-.5-1.5-.5-2.1.1-.1.1-6.4 6.7-15.6 8.1-2.2.3-4.2.3-6.4 0-9.3-1.5-15.6-8-15.6-8.1-.4-.5-1.2-.6-1.7-.3-.6.3-.9 1-.8 1.6l19.5 93.6c-11.4.1-22.6 2-33.3 5.6-.1 0-.1 0-.2.1-.7.2-1.4.5-2.2.8-.2.1-.3.1-.5.2-.6.2-1.2.4-1.8.7-.3.1-.6.2-.8.3s-.4.2-.6.2c-.8-3.7-1.6-8.3-2.4-13.2l-.8-4.5c-2.3-13.2-5-27.8-9-34.1-4-6.2-18.6-29.3-32.1-53.5-10.8-19.1-18.2-34.3-22.4-45.1.8-.4 1.6-.7 2.4-1 .5-.2.9-.4 1.4-.6 1.1-.5 2.3-.9 3.3-1.4.4-.1.7-.3 1.1-.4 1.5-.6 2.8-1.1 4.3-1.6h.1c1.6-.6 3-1.1 4.6-1.7l3.4-1.2c.3-.1.6-.4.8-.7 2.4-4.6 5.1-9.5 8-14.8 9.1-16.5 20.1-36.2 25.8-55.8v-.1c.3-1 .6-2.1.8-3 0-.1 0-.2.1-.3.3-1 .5-2 .7-2.9 0-.1.1-.3.1-.4.2-1 .4-1.9.6-2.8 0-.2.1-.3.1-.5.2-.9.3-1.9.5-2.7 0-.2.1-.4.1-.6.1-.9.2-1.8.4-2.6 0-.2.1-.4.1-.6.1-.9.2-1.7.2-2.5 0-.2 0-.5.1-.7.1-.8.1-1.7.1-2.4 0-.3 0-.5 0-.8 0-.8 0-1.6 0-2.4 0-.3 0-.5 0-.8 0-.8-.1-1.6-.1-2.3 0-.3 0-.6-.1-.8-.1-.8-.2-1.5-.2-2.3 0-.3-.1-.6-.1-.9-.1-.7-.2-1.5-.4-2.2-.1-.3-.1-.6-.2-.9-.1-.7-.3-1.4-.5-2.2-.1-.3-.2-.6-.2-.9-.2-.7-.4-1.4-.6-2.1-.1-.3-.2-.6-.3-.9-.2-.7-.5-1.4-.7-2-.1-.2-.1-.4-.2-.6 13.6-6.5 29.6-10 47.4-10.7h10.2c42.8 1.7 73.3 19.6 91 53.4 13.9 26.6 15.4 55 15.4 66.1-.2 8.6-9.2 29.1-26.3 59.6z"/><path d="m324.6 106.2c-4.7 0-8.6 3.8-8.6 8.6 0 4.7 3.8 8.6 8.6 8.6 4.7 0 8.6-3.8 8.6-8.6 0-4.7-3.8-8.6-8.6-8.6zm5.8 8.6c0 3.1-2.5 5.8-5.8 5.8-3.1 0-5.8-2.5-5.8-5.8s2.5-5.8 5.8-5.8c3.3.1 5.8 2.6 5.8 5.8z"/></svg>