<!-- Generated by IcoMoon.io -->
<svg version="1.1" xmlns="http://www.w3.org/2000/svg" width="512" height="512" viewBox="0 0 512 512">
<g id="icomoon-ignore">
</g>
<path fill="#fff" d="M496.428 268.344l-42.504-11.39c0.002-0.274 0.002-0.597 0.002-0.921 0-18.575-2.575-36.548-7.386-53.583l38.497-20.653c6.269-3.67 10.414-10.373 10.414-18.042 0-3.834-1.036-7.427-2.842-10.513l-29.442-50.998c-3.669-6.272-10.372-10.418-18.043-10.418-3.834 0-7.427 1.036-10.512 2.843l-38.053 21.978c-12.323-12.481-26.276-23.306-41.526-32.144l10.442-43.016c0.452-1.618 0.711-3.477 0.711-5.396 0-9.585-6.476-17.659-15.291-20.084l-57.13-15.302c-1.617-0.451-3.474-0.71-5.392-0.71-9.587 0-17.661 6.476-20.085 15.293l-11.425 42.661c-0.179-0.001-0.39-0.001-0.602-0.001-18.668 0-36.729 2.604-53.838 7.468l-20.694-38.589c-3.668-6.271-10.369-10.416-18.040-10.416-3.835 0-7.429 1.037-10.516 2.846l-50.99 29.446c-6.27 3.671-10.414 10.374-10.414 18.044 0 3.835 1.036 7.428 2.843 10.514l22.026 38.146c-12.501 12.3-23.343 26.228-32.198 41.454l-43.007-10.452c-1.617-0.451-3.474-0.71-5.392-0.71-9.587 0-17.66 6.476-20.085 15.293l-15.302 57.138c-0.451 1.618-0.71 3.475-0.71 5.393 0 9.588 6.476 17.662 15.293 20.088l42.65 11.424c-0.001 0.179-0.001 0.392-0.001 0.604 0 18.668 2.602 36.728 7.465 53.837l-38.577 20.694c-6.27 3.671-10.414 10.374-10.414 18.044 0 3.835 1.036 7.428 2.843 10.514l29.442 50.998c3.667 6.271 10.368 10.416 18.037 10.416 3.835 0 7.428-1.036 10.514-2.845l38.15-22.029c12.296 12.502 26.219 23.346 41.44 32.205l-10.453 43.014c-0.451 1.616-0.709 3.473-0.709 5.39 0 9.588 6.476 17.663 15.292 20.091l57.13 15.305c1.617 0.45 3.474 0.709 5.391 0.709 9.588 0 17.662-6.478 20.086-15.296l11.421-42.657c0.273 0.002 0.596 0.002 0.918 0.002 18.573 0 36.545-2.575 53.578-7.386l20.645 38.516c3.669 6.271 10.371 10.415 18.041 10.415 3.835 0 7.428-1.036 10.514-2.844l50.99-29.446c6.269-3.671 10.411-10.373 10.411-18.043 0-3.836-1.036-7.429-2.844-10.516l-21.97-38.060c12.482-12.324 23.308-26.28 32.144-41.533l43.009 10.445c1.617 0.45 3.474 0.71 5.392 0.71 9.589 0 17.664-6.478 20.089-15.296l15.279-57.149c0.45-1.615 0.708-3.47 0.708-5.385 0-9.58-6.469-17.651-15.276-20.080zM286.712 141.194c51.17 14.030 88.148 60.124 88.148 114.854 0 65.666-53.233 118.899-118.899 118.899s-118.899-53.233-118.899-118.899c0-10.946 1.479-21.547 4.249-31.613 13.845-50.321 59.933-87.286 114.653-87.286 10.935 0 21.526 1.476 31.583 4.24z"></path>
</svg>
