<svg xmlns="http://www.w3.org/2000/svg" width="436" height="512" version="1.1" viewBox="0 0 436 512"><path fill="#fff" d="M143.171 290.608v0zM197.215 301.985c0 0.948 0 1.897 0 2.844 0-0.948 0-1.897 0-2.844v0zM196.74 299.14c0 0.948 0.474 1.897 0.474 2.37-0.474-0.948-0.474-1.897-0.474-2.37v0zM154.074 279.229c-1.897 0.948-3.319 2.37-4.74 3.318v0c1.422-1.422 2.845-2.37 4.74-3.318v0zM196.74 308.622c0-0.948 0-1.897 0.474-3.318 0 0.948-0.474 2.37-0.474 3.318v0zM79.171 256v0zM189.63 304.356v0zM195.792 294.874c0.474 0.948 0.474 1.897 0.948 3.318-0.474-0.948-0.474-1.897-0.948-3.318v0zM154.074 278.755c0.948-0.474 1.422-0.948 2.37-1.422-0.948 0.948-1.422 0.948-2.37 1.422v0zM71.585 253.63v0zM91.022 355.082v0 0zM156.918 277.334c0.948-0.474 1.897-0.948 2.845-0.948-0.948 0.474-1.897 0.948-2.845 0.948v0zM363.14 252.681v0 0zM393.007 185.363l-18.015-5.689c-3.793 6.163-8.534 11.852-13.748 17.066l9.007 16.593c3.793 7.111 0.948 15.644-5.689 19.437l-5.689 2.845 7.585 4.267 69.689-39.348-30.815-17.066c-3.793 2.37-8.060 2.845-12.326 1.897v0zM116.148 209.066c1.422-2.845 4.266-5.215 7.111-6.163l23.229-7.585c0.948-0.474 2.37-0.474 3.319-0.474l23.703-12.8-5.215-9.956c-3.792-7.111-0.948-15.644 5.689-19.437l4.267-2.37-45.037-24.652-133.215 73.481 69.689 39.348 45.037-24.652c0.474-1.422 0.948-2.845 1.422-4.74v0zM302.459 146.489c5.215-2.845 9.481-7.585 11.852-13.274l-11.378-6.163-29.392 16.118c8.060 7.111 19.437 8.534 28.918 3.319v0zM407.704 137.007l-23.704-7.111v-2.844c0.474-8.534-0.474-17.067-2.37-25.6l-0.474-2.844 21.808-11.852c1.422-0.948 2.844-2.371 3.318-3.793s0.474-3.319-0.474-4.74l-14.222-26.074c-0.948-1.422-2.37-2.844-3.793-3.319s-3.318-0.474-4.74 0.474l-21.808 11.852-1.897-2.37c-5.689-6.163-12.326-11.852-19.437-16.119l-2.37-1.422 7.111-23.703c0.948-3.319-0.948-7.111-4.267-8.059l-27.971-8.534c-3.318-0.948-7.111 0.948-8.060 4.266l-7.111 23.703-3.318-0.474c-8.534-0.474-17.067 0.474-25.126 2.37l-3.318 0.948-11.378-22.282c-1.897-3.319-5.689-4.266-8.534-2.845 0 0 0 0 0 0l-25.6 13.748c-3.319 1.896-4.267 5.689-2.845 9.008l11.852 21.807-2.37 1.897c-6.163 5.689-11.852 12.326-16.119 19.911l-1.897 2.844-23.703-7.111c-3.319-0.948-7.111 0.948-8.059 4.266 0 0 0 0 0 0l-8.534 27.971c-0.948 3.319 0.948 7.111 4.267 8.059l23.703 7.111v2.844c-0.474 8.534 0.474 17.067 2.37 25.6l0.474 2.845-13.274 7.111-8.534 4.74c-1.422 0.948-2.845 2.37-3.319 3.792s-0.474 3.319 0.474 4.74l5.215 9.956 8.534 16.119c0.948 1.422 2.37 2.845 3.792 3.319s3.319 0.474 4.74-0.474l21.808-11.852 1.897 2.37c5.689 6.163 12.326 11.852 19.437 16.119l2.37 1.422-7.111 23.703c-0.948 3.319 0.948 7.111 4.267 8.060l27.971 8.534c1.422 0.474 3.318 0.474 4.74-0.474s2.844-2.37 3.318-3.792l7.111-23.703h2.844c8.534 0.474 17.067-0.474 25.126-2.37l2.844-0.474 11.852 21.808c1.422 3.319 5.689 4.267 8.534 2.845 0 0 0 0 0 0l15.644-8.534 9.956-5.215c3.318-1.897 4.267-5.689 2.844-9.007 0 0 0 0 0 0l-11.378-21.808 2.37-1.897c6.163-5.689 11.852-12.326 16.118-19.911l1.422-2.37 23.704 7.111c3.318 0.948 7.111-0.948 8.060-4.267 0 0 0 0 0 0l8.534-27.971c1.897-3.319 0-6.637-3.318-8.060v0zM306.252 153.126c-4.74 2.845-10.43 3.792-15.644 3.792-9.007 0-17.541-3.792-23.704-9.956-9.007-9.007-11.852-21.808-8.534-34.133 2.37-8.534 8.534-15.644 16.592-19.911 16.118-8.534 36.504-2.844 45.511 13.748 0 0 0 0.474 0 0.474 4.74 9.007 5.215 20.385 0.948 29.867-3.318 7.111-8.534 12.8-15.171 16.119v0zM149.333 282.548c1.422-1.422 2.845-2.37 4.74-3.318v0c0.948-0.474 1.422-0.948 2.37-1.422 0 0 0 0 0.474 0 0.948-0.474 1.897-0.948 2.845-0.948 15.171-4.74 31.289 3.318 36.029 18.489 0 0 0 0 0 0 0.474 0.948 0.474 1.897 0.948 3.318 0 0.474 0 0.474 0 0.948 0 0.948 0.474 1.897 0.474 2.37s0 0.474 0 0.948c0 0.948 0 1.897 0 2.844 0 0 0 0.474 0 0.474 0 0.948 0 1.897-0.474 3.318v0l16.119 9.007 6.163 3.318 6.163-3.318 20.859-11.378c0-1.897 0-4.267 0-6.163v-2.844l19.911-6.637c1.422-0.474 2.37-1.422 2.844-2.37s0.474-2.37 0.474-3.793l-8.060-24.652c-0.474-1.422-1.422-2.37-2.37-2.844s-2.37-0.474-3.792-0.474l-19.911 6.637-1.422-2.37c-3.792-6.163-8.534-11.378-13.748-16.119l-2.37-1.897 9.482-18.963c0.948-2.37 0-5.215-1.897-6.163l-21.333-11.378c-0.948-0.474-2.37-0.474-3.792-0.474-1.422 0.474-2.37 1.422-2.845 2.37l-9.482 18.963-2.845-0.474c-6.637-1.422-13.748-1.897-20.859-1.897h-2.845l-6.637-20.385c-0.948-2.37-3.319-3.792-5.689-2.845 0 0 0 0 0 0l-23.23 7.585c-1.422 0.474-2.37 1.422-2.844 2.37s-0.474 2.37-0.474 3.792l6.637 20.385-2.37 1.422c-5.689 3.792-11.378 8.534-16.118 13.748l-1.422 2.37-18.963-9.482c-2.37-0.948-5.215-0.474-6.163 1.897 0 0 0 0 0 0v0l65.422 36.029zM143.171 290.608v0 0zM196.74 298.192c0 0.474 0 0.474 0 0.948 0-0.474 0-0.474 0-0.948v0zM197.215 304.829c0 0 0 0.474 0 0 0 0.474 0 0 0 0v0zM197.215 301.511c0 0.474 0 0.474 0 0.948 0-0.474 0-0.948 0-0.948v0zM156.445 277.808c0 0 0.474 0 0 0 0.474 0 0 0 0 0v0zM154.074 279.229v0 0zM299.615 379.733l-36.978-20.86-6.637-3.793-31.763-18.015v173.985l146.963-73.955v-96.237l-71.585 38.874zM137.007 380.207l-19.911-10.904-8.534-4.267-17.541-9.481-9.481-5.215-5.689-3.318-9.481-5.215-1.897-0.948v97.185l147.437 73.956v-173.985l-74.904 42.192zM434.726 292.029l-71.585-39.348-133.689 73.955 31.763 17.541 37.926 21.334 135.585-73.481zM208.119 326.163l-14.696-8.060-6.637-3.793-36.978-19.911-6.637-3.793-64-34.608-5.689-3.319-1.897 0.948-69.689 38.4 68.266 36.978 34.608 18.489 31.763 17.541 71.585-38.874z"/></svg>