<svg xmlns="http://www.w3.org/2000/svg" width="879" height="512" version="1.1" viewBox="0 0 879 512"><path fill="#757575" d="M820.071 512h-761.005c-32.486 0-59.065-26.579-59.065-59.065v-393.87c0-32.486 26.579-59.065 59.065-59.065h761.005c32.486 0 59.065 26.579 59.065 59.065v393.87c0 32.486-26.579 59.065-59.065 59.065zM820.071 496.457c23.937 0 43.522-19.584 43.522-43.522v-393.87c0-23.937-19.585-43.522-43.522-43.522h-761.005c-23.937 0-43.522 19.584-43.522 43.522v393.87c0 23.937 19.584 43.522 43.522 43.522h761.005z"/><path fill="#757575" d="M221.804 101.809h-100.1c-11.657 0-21.139 9.481-21.139 21.139v85.333c0 11.657 9.481 21.139 21.139 21.139h100.255c5.751 0 11.036-2.176 15.077-6.218 3.886-4.042 6.062-9.326 6.062-14.922v-85.334c-0.155-11.657-9.637-21.139-21.294-21.139zM121.705 103.674h100.1c6.684 0 12.435 3.419 16.010 8.394h-132.119c3.575-4.974 9.326-8.394 16.010-8.394zM104.607 114.088h134.295c1.399 2.642 2.176 5.596 2.176 8.859v14.456h-48.962c-3.108-2.332-6.839-3.731-11.036-3.731h-18.496c-4.196 0-7.927 1.399-11.036 3.731h-49.117v-14.456c0-3.109 0.777-6.218 2.176-8.859zM149.372 166.625c-3.419 3.419-5.13 7.927-5.13 12.745 0 4.974 2.020 9.482 5.13 12.745h-46.941v-25.491h46.941zM102.431 164.76v-25.491h46.941c-3.108 3.264-5.13 7.772-5.13 12.745 0 4.819 1.865 9.326 5.13 12.745h-46.941zM146.108 179.371c0-4.974 2.176-9.637 6.373-12.901l0.933-0.777-0.933-0.777c-3.886-3.108-6.373-7.927-6.373-12.901 0-9.015 7.305-16.476 16.476-16.476h18.496c9.015 0 16.476 7.305 16.476 16.476 0 4.974-2.176 9.637-6.373 12.901l-0.933 0.777 0.933 0.777c3.886 3.108 6.373 7.927 6.373 12.901 0 9.015-7.305 16.476-16.476 16.476h-18.496c-9.015 0-16.476-7.461-16.476-16.476zM199.422 179.371c0-4.819-1.865-9.326-5.13-12.745h46.785v25.491h-46.786c3.264-3.264 5.13-7.772 5.13-12.745zM194.292 164.76c3.419-3.419 5.13-7.927 5.13-12.745 0-4.974-2.020-9.482-5.13-12.745h46.785v25.491h-46.786zM235.638 221.804c-3.575 3.731-8.549 5.751-13.678 5.751h-100.255c-6.218 0-11.813-3.108-15.388-7.617h130.875c-0.466 0.621-0.933 1.244-1.554 1.865zM238.591 217.918h-133.518c-1.71-2.798-2.642-6.062-2.642-9.637v-14.3h49.117c3.108 2.332 6.839 3.731 11.036 3.731h18.496c4.196 0 7.927-1.399 11.036-3.731h48.962v14.3c0 3.419-0.933 6.684-2.487 9.637z"/><path fill="#757575" d="M143.621 411.745v-9.481c0-1.399 0.621-2.332 2.332-2.332s2.332 0.933 2.332 2.332v11.969c0 1.71-1.088 2.332-2.332 2.332h-18.496c-1.243 0-2.332-0.622-2.332-2.332s1.088-2.332 2.332-2.332h6.994v-27.356h-6.995c-1.243 0-2.332-0.622-2.332-2.332s1.088-2.332 2.332-2.332h11.658v32.019h4.507z"/><path fill="#757575" d="M163.827 411.745h16.321c1.244 0 2.332 0.622 2.332 2.332s-1.088 2.332-2.332 2.332h-20.983v-15.388c0-3.575 1.865-5.285 5.285-5.285h13.212v-11.346h-16.321c-1.244 0-2.332-0.622-2.332-2.332s1.088-2.332 2.332-2.332h15.855c1.554 0 2.643 0.311 3.886 1.399 1.399 1.243 1.399 2.487 1.399 4.197v9.637c0 1.71-0.155 2.953-1.399 4.197-1.244 1.088-2.332 1.399-3.886 1.399h-13.368v11.192z"/><path fill="#757575" d="M195.536 384.389c-1.244 0-2.332-0.622-2.332-2.332s1.088-2.332 2.332-2.332h16.321c2.643 0 4.663 2.021 4.663 4.663v9.015c0 1.865-0.311 3.264-1.865 4.663 1.399 1.399 1.865 2.642 1.865 4.663v9.015c0 2.642-2.020 4.663-4.663 4.663h-16.321c-1.244 0-2.332-0.622-2.332-2.332s1.088-2.332 2.332-2.332h16.321v-7.927c0-2.642-1.088-3.42-2.332-3.42h-9.326c-1.244 0-2.332-0.622-2.332-2.332s1.088-2.332 2.332-2.332h9.326c1.399 0 2.332-0.777 2.332-3.42v-7.927h-16.321z"/><path fill="#757575" d="M243.41 399.776v-13.678c0-1.243 0.621-2.332 2.332-2.332 1.865 0 2.332 1.243 2.332 2.332v13.678c1.244 0 2.332 0.622 2.332 2.332s-1.088 2.332-2.332 2.332v9.637c0 1.555-0.621 2.332-2.332 2.332s-2.332-0.777-2.332-2.332v-9.637h-13.833v-22.382c0-1.243 0.621-2.332 2.332-2.332 1.865 0 2.332 1.243 2.332 2.332v17.719h9.171z"/><path fill="#757575" d="M311.646 399.776v-13.678c0-1.243 0.622-2.332 2.332-2.332 1.865 0 2.332 1.243 2.332 2.332v13.678c1.243 0 2.332 0.622 2.332 2.332s-1.088 2.332-2.332 2.332v9.637c0 1.555-0.622 2.332-2.332 2.332s-2.332-0.777-2.332-2.332v-9.637h-13.834v-22.382c0-1.243 0.622-2.332 2.332-2.332 1.865 0 2.332 1.243 2.332 2.332v17.719h9.171z"/><path fill="#757575" d="M338.691 395.736h8.704c1.555 0 2.642 0.311 3.731 1.399 1.399 1.243 1.399 2.332 1.399 4.041v10.103c0 1.399-0.156 2.487-1.088 3.731-1.243 1.399-2.487 1.555-4.041 1.555h-10.57c-1.243 0-1.865-0.311-3.108-0.777l-1.865-0.777c-1.243-0.622-2.642-0.933-2.642-2.642 0-1.243 1.088-2.332 2.332-2.332 0.622 0 0.933 0.156 1.555 0.311l1.399 0.622c0.622 0.311 1.71 0.933 2.487 0.933h10.88v-11.346h-13.989v-20.828h16.32c1.243 0 2.332 0.622 2.332 2.332s-1.088 2.332-2.332 2.332h-11.658v11.346z"/><path fill="#757575" d="M368.068 399.776h15.854c2.332 0 2.798 0.933 2.798 3.108v10.57c0 2.176-0.933 2.953-3.108 2.953h-17.253c-2.176 0-3.108-0.777-3.108-2.953v-31.397c0-1.088 0.311-2.332 2.021-2.332h2.798c1.243 0 2.176 1.088 2.176 2.332 0 1.399-0.933 2.332-2.332 2.332v15.388zM368.068 404.44v7.305h13.834v-7.305h-13.834z"/><path fill="#757575" d="M402.264 384.389c0 1.088-0.777 2.332-2.332 2.332s-2.332-1.399-2.332-2.332v-2.332c0-1.088 0.777-2.332 2.332-2.332h20.983v13.678c0 1.71 0 1.865-1.243 2.953l-6.683 5.751c-1.243 1.088-1.399 1.243-1.399 2.798v9.171c0 1.555-0.622 2.332-2.332 2.332s-2.332-0.777-2.332-2.332v-11.346c0-1.555 0-1.71 1.243-2.798l6.528-5.596c1.555-1.399 1.399-1.399 1.399-3.42v-6.528h-13.834z"/><path fill="#757575" d="M481.846 379.726c1.555 0 2.332 1.088 2.332 2.332v13.678c1.399 0 2.642 0.466 3.42 1.399 0.777 0.777 1.243 2.021 1.243 3.42v11.192c0 2.953-1.865 4.663-4.663 4.663h-13.834c-2.953 0-4.663-1.865-4.663-4.663v-11.192c0-1.399 0.466-2.642 1.243-3.42s2.021-1.399 3.42-1.399v-13.678c0-1.243 0.777-2.332 2.332-2.332h9.171zM484.178 411.745v-11.346h-13.834v11.346h13.834zM479.514 395.736v-11.346h-4.507v11.346h4.507z"/><path fill="#757575" d="M518.217 396.512h-16.165c-1.399 0-2.332-1.088-2.332-2.332v-12.124c0-1.243 1.088-2.332 2.332-2.332h18.652c1.399 0 2.332 1.088 2.332 2.332v32.019c0 1.243-0.933 2.332-2.332 2.332h-2.332c-1.399 0-2.332-1.088-2.332-2.332 0-1.399 0.933-2.332 2.332-2.332v-15.233zM518.217 391.849v-7.305h-13.834v7.305h13.834z"/><path fill="#757575" d="M552.258 411.745v-9.481c0-1.399 0.621-2.332 2.332-2.332s2.332 0.933 2.332 2.332v11.969c0 1.71-1.088 2.332-2.332 2.332h-18.652c-1.244 0-2.332-0.622-2.332-2.332s1.088-2.332 2.332-2.332h6.995v-27.356h-6.995c-1.244 0-2.332-0.622-2.332-2.332s1.088-2.332 2.332-2.332h11.658v32.019h4.663z"/><path fill="#757575" d="M586.298 379.726c2.643 0 4.663 2.176 4.663 4.663v27.356c0 2.642-2.020 4.663-4.663 4.663h-13.833c-2.643 0-4.663-2.021-4.663-4.663v-27.356c0-2.642 2.176-4.663 4.663-4.663h13.833zM586.298 411.745v-27.356h-13.833v27.356h13.833z"/><path fill="#757575" d="M654.533 411.745v-9.481c0-1.399 0.621-2.332 2.332-2.332s2.332 0.933 2.332 2.332v11.969c0 1.71-1.088 2.332-2.332 2.332h-18.652c-1.244 0-2.332-0.622-2.332-2.332s1.088-2.332 2.332-2.332h6.995v-27.356h-6.995c-1.244 0-2.332-0.622-2.332-2.332s1.088-2.332 2.332-2.332h11.658v32.019h4.663z"/><path fill="#757575" d="M688.573 411.745v-9.481c0-1.399 0.621-2.332 2.332-2.332s2.332 0.933 2.332 2.332v11.969c0 1.71-1.088 2.332-2.332 2.332h-18.652c-1.244 0-2.332-0.622-2.332-2.332s1.088-2.332 2.332-2.332h6.995v-27.356h-6.995c-1.244 0-2.332-0.622-2.332-2.332s1.088-2.332 2.332-2.332h11.658v32.019h4.663z"/><path fill="#757575" d="M722.613 411.745v-9.481c0-1.399 0.621-2.332 2.332-2.332s2.332 0.933 2.332 2.332v11.969c0 1.71-1.088 2.332-2.332 2.332h-18.652c-1.244 0-2.332-0.622-2.332-2.332s1.088-2.332 2.332-2.332h6.995v-27.356h-6.995c-1.244 0-2.332-0.622-2.332-2.332s1.088-2.332 2.332-2.332h11.658v32.019h4.663z"/><path fill="#757575" d="M742.664 411.745h16.321c1.244 0 2.332 0.622 2.332 2.332s-1.088 2.332-2.332 2.332h-20.984v-15.388c0-3.575 1.865-5.285 5.285-5.285h13.212v-11.346h-16.321c-1.244 0-2.332-0.622-2.332-2.332s1.088-2.332 2.332-2.332h15.699c1.554 0 2.643 0.311 3.886 1.399 1.399 1.243 1.399 2.487 1.399 4.197v9.637c0 1.71-0.155 2.953-1.399 4.197-1.244 1.088-2.332 1.399-3.886 1.399h-13.367v11.192z"/></svg>