<!-- Generated by IcoMoon.io -->
<svg version="1.1" xmlns="http://www.w3.org/2000/svg" width="512" height="512" viewBox="0 0 512 512">
<g id="icomoon-ignore">
</g>
<path fill="#000" d="M422.61 281.902h-41.903c-0.454-2.443-1.21-4.875-2.478-7.156-1.082-1.943-3.84-7.192-7.68-14.499-5.55-10.542-13.51-25.624-22.039-41.507h74.101c4.363 0 7.936 3.549 7.936 7.889v47.372c0 4.352-3.56 7.901-7.936 7.901zM356.050 300.276c-5.527 2.293-8.716 4.562-16.989 0.466-8.274-4.131-49.501-98.816-60.067-123.508-10.566-24.704-42.484-90.461-32.163-95.581 7.343-3.665 33.722 48.104 53.493 79.197 19.736 31.093 61.021 111.243 66.106 120.366 5.050 9.158-4.864 16.779-10.38 19.060zM254.080 184.692l-95.732 165.946c-2.176 3.77-7.075 5.062-10.845 2.909l-20.678-11.822c-3.782-2.152-5.109-6.993-2.909-10.764l95.733-165.946c2.165-3.77 7.064-5.085 10.845-2.898l20.666 11.776c3.782 2.188 5.085 7.040 2.921 10.798zM89.391 281.902c-4.376 0-7.936-3.549-7.936-7.901v-47.371c0-4.34 3.561-7.889 7.936-7.889h83.701l-36.445 63.162h-47.255zM120.076 350.79l20.666 11.811c3.782 2.164 3.933 5.958 0.338 8.39l-26.706 18.106c-3.596 2.443-6.144 0.896-5.644-3.421l3.561-30.964c0.501-4.317 4.003-6.074 7.784-3.921zM277.784 218.74l29.603 63.162h-87.029l36.445-63.162h20.981zM356.632 313.425l11.869-6.086c4.189-2.13 9.425-0.396 11.648 3.863l9.832 18.816c2.234 4.248 0.71 9.716-3.317 12.113l-8.495 5.062c-4.026 2.432-9.449 1.106-12.021-2.933l-12.462-19.584c-2.572-4.072-1.233-9.111 2.944-11.252zM411.986 395.637c-2.606-8.296-22.47-8.844-31.372-21.341-8.925-12.451-1.548-18.874 1.56-21.83 36.072-20.236 29.813 43.171 29.813 43.171z"></path>
<path fill="#000" d="M256 512c-141.382 0-256-114.618-256-256s114.618-256 256-256c141.382 0 256 114.618 256 256s-114.618 256-256 256zM256 23.273c-128.536 0-232.727 104.192-232.727 232.727s104.192 232.727 232.727 232.727c128.536 0 232.727-104.192 232.727-232.727s-104.192-232.727-232.727-232.727z"></path>
</svg>
