<svg xmlns="http://www.w3.org/2000/svg" width="879" height="512" version="1.1" viewBox="0 0 879 512"><path fill="#757575" d="M356.193 475.473h89.996c10.368 0 21.014 0.684 31.274-1.197 25.108-4.894 45.379-21.912 54.735-44.583 3.409-8.311 5.306-17.385 5.356-26.897v-365.694c0-0.7 0-1.461 0-2.16s0-0.638-1.182-0.638h-85.255c-13.647 0-27.683-1.026-40.988 2.642-28.622 8.297-49.844 32.621-53.465 62.376-0.356 3.995-0.539 8.228-0.539 12.505 0 1.385 0.019 2.766 0.058 4.142l-0.005 88.146c12.124-10.399 27.527-16.258 42.962-19.631 10.37-2.292 22.433-3.795 34.779-4.174 3.565-0.145 7.394-0.224 11.241-0.224 8.493 0 16.898 0.383 25.196 1.134 12.433 1.215 24.398 3.070 36.131 5.554q2.311 0.523 6.726 1.518c0.761 0.171 3.451 0.388 3.886 0.964s0 2.285 0 2.782v28.32c-5.402-2.845-12.021-5.778-18.837-8.305-6.82-2.481-13.597-4.383-20.564-5.758-6.704-1.337-13.546-2.156-20.529-2.421-1.382-0.067-2.721-0.101-4.067-0.101-7.873 0-15.471 1.171-22.632 3.347-7.295 2.256-14.019 6.339-19.476 11.707-6.732 7.084-11.291 16.305-12.56 26.546-0.488 3.046-0.754 6.291-0.754 9.599 0 8.157 1.616 15.937 4.546 23.037 3.615 8.147 9.757 15.069 17.438 19.695 9.803 5.83 21.087 7.99 32.154 8.192 0.351 0.004 0.767 0.006 1.183 0.006 6.719 0 13.305-0.567 19.712-1.657 7.087-1.133 13.899-2.783 20.493-4.916 6.969-2.281 13.57-4.945 19.938-8.014 0.692-0.356 2.34-1.132 3.987-1.988v28.662c0 0.451 0.28 2.067 0 2.44s-1.648 0.404-2.005 0.498l-2.239 0.513-4.368 0.964c-9.502 2.194-21.524 4.212-33.74 5.591-9.956 1.059-19.676 1.581-29.519 1.581-2.591 0-5.175-0.036-7.748-0.108-12.197-0.202-24.332-1.477-36.118-3.731-12.449-2.447-26.142-6.924-37.925-14.68-2.74-1.81-5.107-3.604-7.353-5.536l0.095 169.954z"/><path fill="#757575" d="M595.562 263.849h28.149c4.663 0 9.326 0 14.082 0 0.208-0.007 0.452-0.012 0.697-0.012 4.534 0 8.727 1.455 12.14 3.924 4.586 3.577 7.545 9.173 7.545 15.46 0 0.925-0.064 1.834-0.188 2.724-0.828 6.467-4.887 11.933-10.508 14.722-3.008 1.289-6.378 2.010-9.916 2.010-0.548 0-1.092-0.017-1.632-0.051l-38.582 0.003c-0.746 0-1.554 0.264-1.788-0.311-0.056-0.351-0.088-0.755-0.088-1.166s0.032-0.815 0.093-1.209l-0.005-36.094zM559.563 475.473h106.581c0.232 0.002 0.507 0.004 0.782 0.004 10.872 0 21.21-2.289 30.557-6.413 22.22-10.069 38.606-30.788 42.638-55.649 0.597-4.526 0.905-9.268 0.905-14.081 0-1.041-0.014-2.079-0.043-3.113l0.004-360.983c0-0.156 0.093-0.746 0-0.87-0.357-0.467-3.823 0-4.538 0h-98.545c-0.741-0.020-1.614-0.032-2.489-0.032-5.87 0-11.619 0.52-17.202 1.518-8.205 1.678-16.016 4.774-23.056 9.019-19.86 12.105-33.583 33.285-35.405 57.78-0.279 4.209-0.186 8.204-0.186 12.183v68.578c0 0.125-0.093 0.731 0 0.824s2.549 0 3.109 0h98.545c12.745 0 26.067 1.057 36.9 8.487 8.323 5.811 13.699 15.343 13.699 26.131 0 3.602-0.6 7.065-1.705 10.293-3.757 11.387-14.016 18.972-25.487 22.096-1.383 0.399-3.177 0.799-5.003 1.107-0.779 0.043-1.727 0.043-1.323 0.868 0.171 0.342 0.995 0.264 1.476 0.311 3.247 0.297 6.173 0.768 9.030 1.423 10.072 2.26 20.503 7.56 26.58 16.762 7.771 11.751 6.311 27.978-2.72 38.641-6.699 7.896-16.647 12.357-26.673 14.191s-20.455 1.103-30.574 1.103h-91.489c-0.855 0-3.995-0.373-4.306 0.217-0.061 0.351-0.096 0.754-0.096 1.166s0.034 0.815 0.101 1.208l-0.006 147.232zM652.653 219.94c0.298 1.233 0.47 2.649 0.47 4.104 0 5.242-2.222 9.965-5.775 13.28-3.239 2.811-7.448 4.557-12.064 4.673-4.423 0.218-8.869 0-13.251 0h-22.663c-0.5 0.063-1.077 0.099-1.663 0.099s-1.164-0.036-1.731-0.106c-0.569-0.164-0.414 0.007-0.414-0.802v-32.16c-0.039-0.355-0.063-0.765-0.063-1.181s0.023-0.827 0.067-1.232c0.167-0.665 0.167-0.447 1.13-0.447h32.47c2.332 0 4.663-0.094 7.025 0.094 4.817 0.272 9.102 2.35 12.229 5.56 2.071 2.197 3.571 4.946 4.256 8.003z"/><path fill="#757575" d="M154.284 290.18l-1.554-0.731v-181.594c0.008-5.299 0.575-10.462 1.642-15.438q0.239-1.070 0.628-2.624t0.715-2.596q0.342-1.15 0.715-2.285c0.233-0.7 0.466-1.383 0.715-2.067s0.466-1.259 0.715-1.881 0.466-1.166 0.715-1.741 0.466-1.088 0.715-1.555l0.715-1.555 0.715-1.43 0.715-1.368 0.715-1.29 0.715-1.243 0.715-1.197 0.715-1.135 0.715-1.088 0.715-1.057 0.59-1.026 0.715-0.979 0.715-0.948 0.715-0.917 0.715-0.886 0.715-0.855 0.715-0.84 0.715-0.809 0.715-0.792 0.715-0.761 0.715-0.746 0.715-0.73 1.43-1.399 1.43-1.306 1.43-1.243 1.43-1.181 0.715-0.575 0.715-0.559 0.715-0.544 0.715-0.529 1.43-1.026 0.715-0.498 0.715-0.482 1.43-0.932 1.43-0.87 1.43-0.84 1.43-0.777 1.43-0.746 1.43-0.715 0.715-0.342 1.43-0.653 1.43-0.621 1.43-0.59 0.715-0.28 1.43-0.529 1.43-0.498 1.43-0.467 2.145-0.653 0.715-0.202 1.43-0.373 1.43-0.342 2.145-0.467 1.43-0.28 1.43-0.248 0.715-0.109 2.145-0.28 1.43-0.156h114.959v367.26c-0.002 3.327-0.221 6.603-0.647 9.813-0.146 1.176-0.394 2.575-0.674 4.036q-0.311 1.663-0.715 3.295-0.327 1.384-0.715 2.736t-0.715 2.363q-0.342 1.057-0.715 2.114t-0.715 1.928q-0.342 0.901-0.715 1.772t-0.715 1.647-0.715 1.555-0.715 1.461l-0.715 1.384-0.715 1.321-0.715 1.259-0.715 1.197-0.715 1.15-0.715 1.103-0.715 1.072-0.715 1.026-0.715 0.979-0.715 0.964-0.715 0.933-0.715 0.886-0.715 0.87-0.715 0.839-0.715 0.824-0.715 0.793-1.43 1.524-0.715 0.731-0.715 0.715-0.715 0.7-0.715 0.668-0.715 0.653-0.715 0.637-0.715 0.622-0.715 0.606-0.715 0.591-0.715 0.575-0.715 0.56-1.43 1.088-1.43 1.026-0.715 0.498-0.715 0.482-1.43 0.933-1.43 0.87-1.43 0.839-0.715 0.404-1.43 0.777-1.43 0.746-1.43 0.715-1.43 0.653-1.43 0.622-1.43 0.591-0.715 0.28-0.715 0.264-0.389 0.311-2.145 0.746-1.43 0.466-1.43 0.435-0.715 0.202-1.43 0.373-1.43 0.342-2.145 0.466-1.43 0.28-2.145 0.373-2.145 0.28-1.43 0.156h-115.363v-154.968l1.554 0.389 3.575 0.855 5.72 1.243 5.72 1.119 6.435 1.119 7.15 1.088 7.15 0.933 3.575 0.389h59.174l2.86-0.311 2.86-0.373 2.86-0.435 2.86-0.498 3.575-0.7 2.86-0.622 2.145-0.513 2.145-0.56 2.145-0.606 2.145-0.653 2.145-0.7 2.145-0.793 1.43-0.56 1.43-0.591-0.42 0.855 0.715-0.327 0.715-0.311 0.715-0.327 1.43-0.684 1.43-0.715 1.43-0.777 0.715-0.404 1.43-0.839 0.715-0.435 0.715-0.451 0.715-0.466 0.715-0.482 0.715-0.498 0.715-0.513 0.715-0.529 0.715-0.544 0.715-0.575 0.715-0.591 0.715-0.606 0.715-0.637 0.715-0.653 0.715-0.7 0.715-0.715 0.715-0.746 0.715-0.793 0.715-0.824 0.715-0.855 0.715-0.901 0.715-0.948 0.715-1.010 0.715-1.057 0.715-1.135 0.715-1.212q0.373-0.653 0.715-1.305t0.715-1.414 0.715-1.555 0.715-1.71c0.248-0.637 0.482-1.274 0.715-1.912s0.482-1.461 0.715-2.207 0.498-1.741 0.715-2.627 0.498-2.207 0.715-3.327q0.451-2.502 0.715-5.082 0.358-3.591 0.358-7.321v-85.255h-63.48v85.302q0 2.005-0.171 3.933c-0.153 1.81-0.395 3.442-0.731 5.038q-0.249 1.18-0.668 2.563-0.327 1.103-0.715 2.176c-0.218 0.606-0.451 1.212-0.715 1.788s-0.466 1.041-0.715 1.555-0.466 0.917-0.715 1.368-0.466 0.824-0.715 1.228-0.466 0.762-0.715 1.119l-0.715 1.026-0.715 0.948-0.715 0.87-0.715 0.824-0.715 0.762-0.715 0.715-0.715 0.668-0.715 0.637-0.715 0.591-0.715 0.56-0.715 0.529-0.715 0.498-0.715 0.482-0.715 0.451-0.715 0.42-0.715 0.404-0.715 0.389-0.715 0.358-0.715 0.342-0.715 0.327-0.715 0.311-0.715 0.296-0.715 0.28-0.715 0.264-0.715 0.248-0.715 0.233-0.715 0.217-0.715 0.202-0.715 0.187-0.715 0.171-1.43 0.311-0.715 0.14-1.43 0.248-0.715 0.109-1.43 0.187-0.715 0.077h-18.543l-1.43-0.156-2.145-0.28-0.715-0.109-0.233-0.373-1.43-0.217-2.86-0.498-2.86-0.56-0.621-0.28-1.43-0.311-3.575-0.855-2.145-0.56-2.86-0.808-3.575-1.088-2.86-0.933-3.575-1.243-2.86-1.057-3.575-1.399-2.86-1.182-3.327-1.445-3.575-1.632-0.715-0.342z"/><path fill="#757575" d="M152.761 475.473h109.131c14.566-0.171 28.056-4.634 39.305-12.179 19.53-13.003 32.514-35.039 32.986-60.135 0.001-4.159 0.001-8.247 0.001-12.334v-354.841c0.035-0.211 0.055-0.453 0.055-0.7s-0.020-0.489-0.058-0.725c-0.308-0.627-1.815-0.239-2.592-0.239h-104.141c-0.292-0.004-0.636-0.007-0.981-0.007-32.854 0-60.68 21.527-70.142 51.245-2.226 7.219-3.427 14.919-3.427 22.9 0 0.275 0.001 0.549 0.005 0.823l-0 179.423c0 1.43 1.321 1.399 2.58 1.99 8.366 4.107 18.25 7.861 28.51 10.711 10.107 2.788 20.323 4.322 30.864 4.536 8.986 0.127 18.048-1.382 25.633-6.216 10.476-6.683 15.373-18.357 15.404-30.512 0-11.736 0-23.471 0-35.206v-44.811c-0.084-0.677-0.132-1.459-0.132-2.254s0.048-1.577 0.142-2.346c0.162-0.514-0.304-0.234 0.535-0.389 0.547-0.050 1.183-0.078 1.827-0.078s1.279 0.029 1.908 0.084l55.782-0.006c0.466 0 2.953-0.28 3.187 0s0 2.347 0 2.814v75.401c0 4.43 0.109 8.875-0.248 13.289-1.228 14.782-7.772 28.18-19.755 37.133-6.658 4.823-14.424 8.635-22.796 11.003-10.632 3.041-22.339 4.959-34.411 5.462-4.433 0.234-9.265 0.362-14.128 0.362-5.565 0-11.089-0.167-16.571-0.497q-14.184-0.757-28.996-2.933c-11.402-1.538-21.316-3.538-30.999-6.111l1.73 155.343z"/></svg>