<svg xmlns="http://www.w3.org/2000/svg" width="511" height="512" version="1.1" viewBox="0 0 511 512"><path fill="#636464" d="M271.587 512.225h-31.846l-18.166-2.243c-110.474-15.649-197.49-99.78-217.298-207.44-1.811-10.547-2.932-19.517-4.277-28.712v-35.659c0.047-0.637 0.073-1.381 0.073-2.131s-0.026-1.493-0.079-2.23c2.124-25.518 7.864-49.203 16.736-71.293 37.56-94.598 129.838-161.422 237.722-161.422 141.199 0 255.663 114.465 255.663 255.663 0 12.269-0.864 24.336-2.535 36.143-16.159 110.99-103.331 198.923-213.917 216.22zM137.026 243.105h103.162v-99.126l-85.221-4.934c-10.829 31.056-17.632 66.9-18.824 104.16zM375.87 243.105c-0.923-37.566-7.418-73.299-18.686-106.84l-84.476 7.49v99.125zM154.744 371.61l84.773-3.364v-91.725h-102.938c1.604 34.817 7.883 67.609 18.233 98.536zM272.708 275.399v92.846l85.221 4.934c9.685-28.46 15.97-61.337 17.466-95.459zM121.104 135.457h-2.243l-42.611-8.298c-1.947 0.178-3.626 1.191-4.697 2.672-16.781 23.822-29.078 52.035-35.002 82.525-2.016 11.237-2.913 21.329-4.258 31.421h71.765c0.935-38.946 7.098-76.092 17.813-111.255zM390.224 135.457c10.005 32.274 16.243 69.485 17.257 107.997l70.88 0.548c0-1.57 0-2.691 0-3.813-2.665-39.585-15.433-75.719-35.719-106.452-4.649-7.252-4.649-7.252-13.619-5.458zM121.104 376.991c-9.328-29.717-15.445-64.072-17.014-99.61l-71.123-0.862c3.416 36.7 15.238 70.052 33.507 98.919 6.412 10.299 6.412 10.299 19.419 7.832v0zM478.136 276.296h-71.093c-1.539 36.376-7.579 70.742-17.586 103.373l45.619 5.62c1.6-0.111 2.979-0.969 3.801-2.224 21.257-30 35.382-66.425 39.188-105.867zM165.957 403.68c16.147 36.331 44.853 68.401 72.438 73.56v-77.372zM271.138 112.133l74.232-3.588c-13.587-33.909-39.693-60.379-72.457-74.129-0.878 25.688-0.878 50.358-0.878 75.251-0.024 0.402-0.037 0.873-0.037 1.346s0.014 0.944 0.040 1.41zM238.395 34.761c-33.692 13.121-59.672 39.687-71.719 72.928l71.719 4.668zM270.69 477.238c22.426-2.467 63.916-43.732 72.214-73.56l-72.214-3.813zM414.22 99.126c-17.745-18.058-38.504-33.083-61.474-44.273l27.161 49.655zM160.799 457.952c-5.382-8.522-10.541-16.372-15.25-24.445s-8.746-17.044-13.232-25.791l-33.64 5.382c17.347 18.348 37.938 33.414 60.886 44.325zM160.799 54.273c-24.27 11.823-45.022 26.84-62.77 44.828l34.288 5.632zM352.098 457.952c24.279-11.801 45.033-26.822 62.767-44.825l-34.286-5.635z"/></svg>