<svg xmlns="http://www.w3.org/2000/svg" width="1024" height="512" version="1.1" viewBox="0 0 1024 512"><path fill="#8d96b4" d="M488.106 327.68v0 0 0 0zM542.72 498.346c-3.413 0-6.827 0-6.827-3.413v0c3.413 3.413 3.413 3.413 6.827 3.413zM372.053 351.574v0c3.413 6.827 3.413 10.24 6.827 17.067v0c-3.413-3.413-6.827-10.24-6.827-17.067v0zM378.88 368.64c3.413 6.827 6.827 10.24 6.827 13.654-3.413-3.413-3.413-6.827-6.827-13.654v0 0zM389.12 385.707v0c0 0 0 0 0 0v0zM529.067 494.933c-6.827-3.413-13.654-3.413-20.48-6.827v0c3.413 0 10.24 3.413 20.48 6.827zM535.894 498.346v0c0 0-3.413 0-3.413 0h3.413zM764.587 0h-157.014c-13.654 0-27.307 0-40.96 3.413-3.413 0-6.827 0-6.827 0 47.787 27.306 88.746 68.266 112.64 116.053h98.986c75.094 0 136.534 58.026 136.534 133.12s-58.027 136.534-133.12 136.534c0 0-3.413 0-3.413 0h-170.667c-34.134 0-64.854-10.24-88.746-34.134v0c-3.413-3.413-10.24-6.827-13.654-10.24s-6.827-10.24-10.24-13.654v0c-34.134-44.373-34.134-105.814 0-153.6v-3.413c-17.067-17.066-40.96-23.893-64.853-23.893h-51.2c-27.307 64.853-27.307 139.946 0 204.8 3.413 6.827 6.827 10.24 6.827 17.067 3.413 3.413 3.413 10.24 6.827 13.654 0 0 0 0 0 0s0 0 0 3.413c30.72 44.373 71.68 81.92 122.88 102.4 6.827 3.413 13.654 3.413 20.48 6.827v0c0 0 3.413 0 3.413 0 3.413 0 6.827 0 6.827 3.413v0c20.48 6.827 44.374 6.827 64.854 6.827h157.014c139.947 0 256-116.053 256-256 3.413-136.534-109.226-252.587-252.587-252.587v0zM259.413 512h157.014c13.654 0 27.307 0 40.96-3.413 3.413 0 6.827 0 6.827 0-47.786-27.307-88.747-68.267-112.64-116.053h-98.987c-75.094 0-136.534-58.026-136.534-133.12s58.026-136.534 133.12-136.534c0 0 3.413 0 3.413 0h170.667c34.134 0 64.853 10.24 88.746 34.133v0c3.413 3.413 10.24 6.827 13.654 10.24s6.827 6.827 10.24 13.654v0 0c34.134 44.374 34.134 105.814 0 153.6 0 0 0 0 0 3.413 17.067 17.067 40.96 23.894 64.854 23.894h51.2c27.307-64.853 27.307-139.946 0-204.8 0-10.24-3.413-13.654-6.827-20.48-3.413-3.413-3.413-10.24-6.827-13.653v0-3.413c-30.72-44.373-71.68-81.92-122.88-102.4-6.827-3.413-13.654-3.413-20.48-6.826v0h-3.413c-3.413 0-6.827 0-6.827-3.413v0c-23.894-3.413-47.786-6.827-68.267-6.827h-157.013c-143.36 0-256 116.053-256 256s112.64 256 256 256zM542.72 498.346v0zM529.067 494.933v0 0zM488.106 327.68c3.413 3.413 6.827 10.24 10.24 13.654v0c-3.413-3.413-6.827-6.827-10.24-13.654 0 0 0 0 0 0v0zM385.707 385.707v0 0zM498.346 341.334v0c3.413 3.413 6.827 6.827 13.654 10.24v0c-3.413 0-6.827-6.827-13.654-10.24v0zM512 354.986v0 0zM512 354.986v0 0 0 0z"/></svg>