<svg xmlns="http://www.w3.org/2000/svg" width="603" height="512" version="1.1" viewBox="0 0 603 512"><path fill="#fff" d="M180.706 0h421.647v90.353h-421.647v-90.353z"/><path fill="#fff" d="M180.706 210.823h421.647v90.353h-421.647v-90.353z"/><path fill="#fff" d="M180.706 421.647h421.647v90.353h-421.647v-90.353z"/><path fill="#fff" d="M45.176 0c24.95 0 45.176 20.226 45.176 45.176s-20.226 45.176-45.176 45.176c-24.951 0-45.176-20.226-45.176-45.176s20.226-45.176 45.176-45.176z"/><path fill="#fff" d="M45.176 210.823c24.95 0 45.176 20.226 45.176 45.177s-20.226 45.176-45.176 45.176c-24.951 0-45.176-20.226-45.176-45.177s20.226-45.177 45.176-45.177z"/><path fill="#fff" d="M45.176 421.647c24.95 0 45.176 20.226 45.176 45.176s-20.226 45.176-45.176 45.176c-24.951 0-45.176-20.226-45.176-45.176s20.226-45.176 45.176-45.176z"/></svg>