<!-- Generated by IcoMoon.io -->
<svg version="1.1" xmlns="http://www.w3.org/2000/svg" width="1651" height="512" viewBox="0 0 1651 512">
<g id="icomoon-ignore">
</g>
<path fill="#000" d="M1604.394 352.447c8.452 0 16.407-2.697 22.406-7.596 2.774-2.094 5.579-3.11 8.452-3.11 3.179 0 7.879 1.307 12.273 7.543 5.319 7.573 3.889 16.139-3.653 21.817-10.584 7.366-24.935 11.546-39.477 11.546-38.736 0-65.803-25.638-65.803-62.341v-134.908h-29.489c-8.108 0-12.953-5.648-12.953-15.1s4.845-15.1 12.953-15.1h29.489v-59.422c0-8.933 6.244-14.275 16.697-14.275s16.697 5.341 16.697 14.275v59.422h60.707c6.266 0 12.96 3.974 12.96 15.1 0 9.453-4.845 15.1-12.96 15.1h-60.707v133.234c0 16.353 8.513 33.815 32.409 33.815zM1392.648 247.365c48.678 12.235 70.389 33.998 70.389 70.587 0 37.292-29.115 62.349-72.452 62.349-41.801 0-74.545-27.938-74.545-63.595v-1.673c0-8.941 6.244-14.275 16.697-14.275s16.705 5.334 16.705 14.275v1.673c0 18.096 18.837 33.387 41.143 33.387 24.094 0 39.065-12.311 39.065-32.142 0-20.434-14.29-32.699-47.792-41.014-44.292-11.119-65.819-32.982-65.819-66.835 0-35.060 30.438-61.501 70.793-61.501 41.327 0 73.713 27.564 73.713 62.755v2.919c0 8.941-6.244 14.275-16.697 14.275-10.461 0-16.713-5.334-16.713-14.275v-1.238c0-19.525-17.324-34.25-40.303-34.25-22.024 0-37.391 12.709-37.391 30.896 0 18.31 13.725 30.285 43.207 37.681zM1181.948 382.005c-36.895 0-76.617-23.56-76.617-75.302v-143.475c0-8.934 6.244-14.267 16.697-14.267s16.697 5.334 16.697 14.267v141.388c0 28.664 16.965 47.188 43.222 47.188 26.273 0 43.245-18.524 43.245-47.188v-141.388c0-8.934 6.236-14.267 16.689-14.267s16.689 5.334 16.689 14.267v143.475c0 51.743-39.722 75.302-76.624 75.302zM1028.371 132.829c-10.485 0-17.53-6.9-17.53-17.186v-16.72c0-10.278 7.045-17.178 17.53-17.178 10.477 0 17.523 6.9 17.523 17.178v16.72c0 10.286-7.045 17.186-17.523 17.186zM1010.864 162.227c0-8.925 6.236-14.267 16.689-14.267s16.689 5.341 16.689 14.267v214.879c0 42.198-21.374 74.966-57.183 87.644-2.040 0.787-4.356 1.223-6.602 1.223h-0.008c-6.893 0-12.265-3.935-14.749-10.798-4.203-11.080 1.413-18.118 8.085-20.992 23.246-9.346 37.078-31.286 37.078-58.75v-213.206zM868.627 381.379c-36.902 0-76.624-23.567-76.624-75.302v-81.103c0-49.435 36.665-75.302 72.88-75.302 18.050 0 35.282 6.572 46.981 17.569v-71.879c0-8.933 6.236-14.275 16.682-14.275 10.462 0 16.697 5.341 16.697 14.275v210.714c0 51.735-39.715 75.302-76.616 75.302zM911.865 227.060c0-28.665-16.972-47.196-43.237-47.196-26.257 0-43.23 18.531-43.23 47.196v76.923c0 28.664 16.972 47.188 43.23 47.188 26.265 0 43.237-18.524 43.237-47.188v-76.923zM659.097 380.875c-42.496 0-75.792-29.78-75.792-67.791 0-33.028 18.279-53.248 55.899-61.829l51.184-11.707c6.649-1.482 11.104-4.517 11.104-7.558v-10.447c0-24.439-17.828-42.183-42.397-42.183-23.774 0-42.397 17.79-42.397 40.509v2.086c0 8.925-6.236 14.252-16.689 14.252-10.462 0-16.705-5.327-16.705-14.252v-2.919c0-39.179 33.295-69.869 75.792-69.869 43.909 0 75.784 30.254 75.784 71.947v83.609c0 44.834-31.163 76.151-75.784 76.151zM701.494 266.103c-2.797 1.329-6.358 2.461-10.866 3.477l-43.681 10.026c-20.625 4.975-30.246 15.612-30.246 33.478 0 18.080 16.208 37.575 42.396 37.575 21.099 0 42.397-14.588 42.397-47.18v-37.376zM254.839 512.008c-140.518 0-254.839-114.849-254.839-256.007s114.321-256.007 254.839-256.007c140.51 0 254.831 114.849 254.831 256.007s-114.321 256.007-254.831 256.007zM254.839 32.791c-122.421 0-222.017 100.13-222.017 223.209s99.596 223.216 222.017 223.216c122.414 0 222.002-100.138 222.002-223.216s-99.588-223.209-222.001-223.209zM229.269 273.515c-16.713-11.409-33.708-21-50.291-28.397-30.185-14.917-57.703-22.726-62.41-16.827-4.975 6.251-1.528 23.567 20.38 57.421 3.76 5.808 7.963 11.853 12.494 17.958l6.793 8.941 20.274-44.666 17.24 39.355-16.422 37.529h-40.173c-7.535-9.637-18.134-23.82-27.984-39.042-26.808-41.426-33.846-72.383-21.519-94.62 4.073-7.344 14.267-19.67 36.727-19.67 17.508 0 40.555 7.268 70.473 22.192l5.571 2.781 50.13-115.803h41.77l111.387 250.009-27.724 27.854c-16.109-12.838-60.065-47.28-108.644-80.254-13.205-8.956-26.089-17.332-38.072-24.76zM350.697 314.765l-79.895-179.2-42.298 95.996 6.465 4.326c29.008 17.377 61.922 39.508 97.823 65.773l17.904 13.106z"></path>
</svg>
