<svg xmlns="http://www.w3.org/2000/svg" xmlns:svg="http://www.w3.org/2000/svg" id="svg247" width="879" height="512" version="1.1" viewBox="0 0 879 512"><metadata id="metadata253"/><g id="g74" transform="matrix(13.75,0,0,13.75,11352.188,-11450.75)"><path id="path64" d="m -808.4,853.5 c 0,0.4 0.2,0.6 0.6,0.6 0.7,0 1.1,-0.6 1.2,-1.5 -0.2,0 -0.2,0 -0.4,0 -0.9,0 -1.4,0.3 -1.4,0.9 z"/><path id="path66" d="m -782.8,853.5 c 0,0.4 0.2,0.6 0.6,0.6 0.7,0 1.1,-0.6 1.2,-1.5 -0.2,0 -0.2,0 -0.4,0 -1,0 -1.4,0.3 -1.4,0.9 z"/><path id="path68" d="m -795,850.5 c -0.5,0 -0.9,0.4 -1,1.1 h 1.8 c 0,-0.2 0.2,-1.1 -0.8,-1.1 z"/><path id="path70" d="m -773.3,850.7 c -0.7,0 -1.3,0.9 -1.3,2.1 0,0.8 0.3,1.2 0.8,1.2 0.8,0 1.3,-0.9 1.3,-2.1 0.1,-0.8 -0.2,-1.2 -0.8,-1.2 z"/><path id="path72" d="m -783.7,836.5 c -3.8,0 -7.3,1.4 -10,3.8 -2.6,-2.4 -6.1,-3.8 -9.9,-3.8 -8.2,0 -14.9,6.7 -14.9,14.9 0,8.2 6.7,14.9 14.9,14.9 3.8,0 7.3,-1.4 9.9,-3.8 2.6,2.4 6.1,3.8 10,3.8 8.2,0 14.9,-6.7 14.9,-14.9 0,-8.2 -6.7,-14.9 -14.9,-14.9 z m -28.5,18.9 0.9,-5.8 -2.1,5.8 h -1.1 l -0.1,-5.8 -1,5.8 h -1.5 l 1.3,-7.6 h 2.3 l 0.1,4.7 1.6,-4.7 h 2.5 l -1.3,7.6 z m 5.4,0 v -0.6 c -0.4,0.5 -1,0.7 -1.7,0.7 -0.9,0 -1.5,-0.7 -1.5,-1.7 0,-1.5 1,-2.4 2.8,-2.4 0.2,0 0.4,0 0.7,0 0.1,-0.2 0.1,-0.3 0.1,-0.4 0,-0.4 -0.3,-0.6 -1,-0.6 -0.8,0 -1.4,0.2 -1.7,0.3 0,-0.1 0.2,-1.4 0.2,-1.4 0.8,-0.2 1.3,-0.3 1.9,-0.3 1.4,0 2.1,0.6 2.1,1.8 0,0.3 0,0.7 -0.1,1.2 -0.1,0.9 -0.4,2.8 -0.5,3.3 -0.2,0.1 -1.3,0.1 -1.3,0.1 z m 4.8,-3.7 c 0.8,0.4 1.1,0.9 1.1,1.7 0,1.4 -0.8,2.1 -2.5,2.1 -1,0 -1.3,-0.1 -1.7,-0.2 0,-0.1 0.2,-1.4 0.2,-1.4 0.5,0.2 1,0.2 1.5,0.2 0.6,0 0.9,-0.2 0.9,-0.6 0,-0.3 -0.1,-0.4 -0.8,-0.7 -0.9,-0.4 -1.2,-0.9 -1.2,-1.7 0,-1.1 0.6,-2.1 2.4,-2.1 0.4,0 1,0.1 1.4,0.1 l -0.2,1.4 c -0.4,-0.1 -0.8,-0.1 -1.2,-0.1 -0.5,0 -0.8,0.2 -0.8,0.5 0.1,0.4 0.2,0.5 0.9,0.8 z m 3.5,2.3 c 0.2,0 0.3,0 0.4,-0.1 l -0.2,1.4 c -0.4,0.1 -0.8,0.2 -1.2,0.2 -0.8,0 -1.3,-0.5 -1.3,-1.4 0,-0.3 0.1,-1 0.2,-1.6 0.1,-0.6 0.7,-4.2 0.7,-4.2 h 1.6 l -0.2,0.9 h 0.8 l -0.2,1.5 h -0.8 c -0.2,1.2 -0.5,2.6 -0.5,2.8 0.2,0.3 0.4,0.5 0.7,0.5 z m 3.8,0.1 c 0.6,0 1.1,-0.1 1.7,-0.4 l -0.3,1.5 c -0.6,0.2 -1.1,0.2 -1.7,0.2 -1.8,0 -2.7,-0.9 -2.7,-2.7 0,-2.1 1.2,-3.7 2.8,-3.7 1.3,0 2.2,0.9 2.2,2.2 0,0.5 -0.1,0.9 -0.2,1.5 h -3.2 c -0.1,1 0.5,1.4 1.4,1.4 z m 3.6,1.3 h -1.6 l 0.1,-0.4 c 0.3,-1.9 0.6,-3.8 0.8,-5.7 h 1.5 c 0,0.3 -0.1,0.6 -0.1,0.9 0.5,-0.7 0.9,-1.1 1.6,-1 -0.2,0.3 -0.5,1 -0.6,1.8 -1,-0.1 -1.1,0.6 -1.7,4.4 z m 6.2,-0.1 c -0.6,0.2 -1,0.2 -1.4,0.2 -1.7,0 -2.8,-1.3 -2.8,-3.3 0,-2.7 1.5,-4.6 3.7,-4.6 0.7,0 1.5,0.3 1.8,0.4 l -0.3,1.6 c -0.6,-0.3 -1,-0.4 -1.4,-0.4 -1.2,0 -2.1,1.2 -2.1,2.8 0,1.1 0.6,1.8 1.5,1.8 0.4,0 0.8,-0.1 1.4,-0.4 z m 5,0.1 c -0.2,0 -1.3,0 -1.3,0 v -0.6 c -0.4,0.5 -1,0.7 -1.7,0.7 -0.9,0 -1.5,-0.7 -1.5,-1.7 0,-1.5 1,-2.4 2.8,-2.4 0.2,0 0.4,0 0.7,0 0.1,-0.2 0.1,-0.3 0.1,-0.4 0,-0.4 -0.3,-0.6 -1,-0.6 -0.8,0 -1.4,0.2 -1.7,0.3 0,-0.1 0.2,-1.4 0.2,-1.4 0.8,-0.2 1.3,-0.3 1.9,-0.3 1.4,0 2.1,0.6 2.1,1.8 0,0.3 0,0.7 -0.1,1.2 -0.2,1 -0.5,2.9 -0.5,3.4 z m 2.2,0 h -1.6 l 0.1,-0.4 c 0.3,-1.9 0.6,-3.8 0.8,-5.7 h 1.5 c 0,0.3 -0.1,0.6 -0.1,0.9 0.5,-0.7 0.9,-1.1 1.6,-1 -0.2,0.3 -0.5,1 -0.6,1.8 -1,-0.1 -1.2,0.6 -1.7,4.4 z m 4.8,0 0.1,-0.6 c -0.4,0.5 -0.9,0.7 -1.5,0.7 -1.2,0 -2,-1 -2,-2.6 0,-2 1.2,-3.8 2.6,-3.8 0.6,0 1.1,0.3 1.5,0.8 l 0.4,-2.2 h 1.6 l -1.2,7.6 h -1.5 z"/></g></svg>