<?xml version="1.0" encoding="UTF-8" standalone="no"?>
<!-- Generated by IcoMoon.io -->

<svg
   xmlns:dc="http://purl.org/dc/elements/1.1/"
   xmlns:cc="http://creativecommons.org/ns#"
   xmlns:rdf="http://www.w3.org/1999/02/22-rdf-syntax-ns#"
   xmlns:svg="http://www.w3.org/2000/svg"
   xmlns="http://www.w3.org/2000/svg"
   xmlns:sodipodi="http://sodipodi.sourceforge.net/DTD/sodipodi-0.dtd"
   xmlns:inkscape="http://www.inkscape.org/namespaces/inkscape"
   version="1.1"
   width="879"
   height="512"
   viewBox="0 0 879 512"
   id="svg247"
   sodipodi:docname="mastercard.svg"
   inkscape:version="0.92.1 r">
  <metadata
     id="metadata253">
    <rdf:RDF>
      <cc:Work
         rdf:about="">
        <dc:format>image/svg+xml</dc:format>
        <dc:type
           rdf:resource="http://purl.org/dc/dcmitype/StillImage" />
      </cc:Work>
    </rdf:RDF>
  </metadata>
  <defs
     id="defs251" />
  <sodipodi:namedview
     pagecolor="#ffffff"
     bordercolor="#666666"
     borderopacity="1"
     objecttolerance="10"
     gridtolerance="10"
     guidetolerance="10"
     inkscape:pageopacity="0"
     inkscape:pageshadow="2"
     inkscape:window-width="2151"
     inkscape:window-height="1191"
     id="namedview249"
     showgrid="false"
     inkscape:zoom="1.4142136"
     inkscape:cx="507.25466"
     inkscape:cy="230.33438"
     inkscape:window-x="1716"
     inkscape:window-y="138"
     inkscape:window-maximized="0"
     inkscape:current-layer="svg247" />
  <g
     id="icomoon-ignore" />
  <g
     transform="matrix(13.75,0,0,13.75,11352.188,-11450.75)"
     id="g74">
    <path
       inkscape:connector-curvature="0"
       d="m -808.4,853.5 c 0,0.4 0.2,0.6 0.6,0.6 0.7,0 1.1,-0.6 1.2,-1.5 -0.2,0 -0.2,0 -0.4,0 -0.9,0 -1.4,0.3 -1.4,0.9 z"
       id="path64" />
    <path
       inkscape:connector-curvature="0"
       d="m -782.8,853.5 c 0,0.4 0.2,0.6 0.6,0.6 0.7,0 1.1,-0.6 1.2,-1.5 -0.2,0 -0.2,0 -0.4,0 -1,0 -1.4,0.3 -1.4,0.9 z"
       id="path66" />
    <path
       inkscape:connector-curvature="0"
       d="m -795,850.5 c -0.5,0 -0.9,0.4 -1,1.1 h 1.8 c 0,-0.2 0.2,-1.1 -0.8,-1.1 z"
       id="path68" />
    <path
       inkscape:connector-curvature="0"
       d="m -773.3,850.7 c -0.7,0 -1.3,0.9 -1.3,2.1 0,0.8 0.3,1.2 0.8,1.2 0.8,0 1.3,-0.9 1.3,-2.1 0.1,-0.8 -0.2,-1.2 -0.8,-1.2 z"
       id="path70" />
    <path
       inkscape:connector-curvature="0"
       d="m -783.7,836.5 c -3.8,0 -7.3,1.4 -10,3.8 -2.6,-2.4 -6.1,-3.8 -9.9,-3.8 -8.2,0 -14.9,6.7 -14.9,14.9 0,8.2 6.7,14.9 14.9,14.9 3.8,0 7.3,-1.4 9.9,-3.8 2.6,2.4 6.1,3.8 10,3.8 8.2,0 14.9,-6.7 14.9,-14.9 0,-8.2 -6.7,-14.9 -14.9,-14.9 z m -28.5,18.9 0.9,-5.8 -2.1,5.8 h -1.1 l -0.1,-5.8 -1,5.8 h -1.5 l 1.3,-7.6 h 2.3 l 0.1,4.7 1.6,-4.7 h 2.5 l -1.3,7.6 z m 5.4,0 v -0.6 c -0.4,0.5 -1,0.7 -1.7,0.7 -0.9,0 -1.5,-0.7 -1.5,-1.7 0,-1.5 1,-2.4 2.8,-2.4 0.2,0 0.4,0 0.7,0 0.1,-0.2 0.1,-0.3 0.1,-0.4 0,-0.4 -0.3,-0.6 -1,-0.6 -0.8,0 -1.4,0.2 -1.7,0.3 0,-0.1 0.2,-1.4 0.2,-1.4 0.8,-0.2 1.3,-0.3 1.9,-0.3 1.4,0 2.1,0.6 2.1,1.8 0,0.3 0,0.7 -0.1,1.2 -0.1,0.9 -0.4,2.8 -0.5,3.3 -0.2,0.1 -1.3,0.1 -1.3,0.1 z m 4.8,-3.7 c 0.8,0.4 1.1,0.9 1.1,1.7 0,1.4 -0.8,2.1 -2.5,2.1 -1,0 -1.3,-0.1 -1.7,-0.2 0,-0.1 0.2,-1.4 0.2,-1.4 0.5,0.2 1,0.2 1.5,0.2 0.6,0 0.9,-0.2 0.9,-0.6 0,-0.3 -0.1,-0.4 -0.8,-0.7 -0.9,-0.4 -1.2,-0.9 -1.2,-1.7 0,-1.1 0.6,-2.1 2.4,-2.1 0.4,0 1,0.1 1.4,0.1 l -0.2,1.4 c -0.4,-0.1 -0.8,-0.1 -1.2,-0.1 -0.5,0 -0.8,0.2 -0.8,0.5 0.1,0.4 0.2,0.5 0.9,0.8 z m 3.5,2.3 c 0.2,0 0.3,0 0.4,-0.1 l -0.2,1.4 c -0.4,0.1 -0.8,0.2 -1.2,0.2 -0.8,0 -1.3,-0.5 -1.3,-1.4 0,-0.3 0.1,-1 0.2,-1.6 0.1,-0.6 0.7,-4.2 0.7,-4.2 h 1.6 l -0.2,0.9 h 0.8 l -0.2,1.5 h -0.8 c -0.2,1.2 -0.5,2.6 -0.5,2.8 0.2,0.3 0.4,0.5 0.7,0.5 z m 3.8,0.1 c 0.6,0 1.1,-0.1 1.7,-0.4 l -0.3,1.5 c -0.6,0.2 -1.1,0.2 -1.7,0.2 -1.8,0 -2.7,-0.9 -2.7,-2.7 0,-2.1 1.2,-3.7 2.8,-3.7 1.3,0 2.2,0.9 2.2,2.2 0,0.5 -0.1,0.9 -0.2,1.5 h -3.2 c -0.1,1 0.5,1.4 1.4,1.4 z m 3.6,1.3 h -1.6 l 0.1,-0.4 c 0.3,-1.9 0.6,-3.8 0.8,-5.7 h 1.5 c 0,0.3 -0.1,0.6 -0.1,0.9 0.5,-0.7 0.9,-1.1 1.6,-1 -0.2,0.3 -0.5,1 -0.6,1.8 -1,-0.1 -1.1,0.6 -1.7,4.4 z m 6.2,-0.1 c -0.6,0.2 -1,0.2 -1.4,0.2 -1.7,0 -2.8,-1.3 -2.8,-3.3 0,-2.7 1.5,-4.6 3.7,-4.6 0.7,0 1.5,0.3 1.8,0.4 l -0.3,1.6 c -0.6,-0.3 -1,-0.4 -1.4,-0.4 -1.2,0 -2.1,1.2 -2.1,2.8 0,1.1 0.6,1.8 1.5,1.8 0.4,0 0.8,-0.1 1.4,-0.4 z m 5,0.1 c -0.2,0 -1.3,0 -1.3,0 v -0.6 c -0.4,0.5 -1,0.7 -1.7,0.7 -0.9,0 -1.5,-0.7 -1.5,-1.7 0,-1.5 1,-2.4 2.8,-2.4 0.2,0 0.4,0 0.7,0 0.1,-0.2 0.1,-0.3 0.1,-0.4 0,-0.4 -0.3,-0.6 -1,-0.6 -0.8,0 -1.4,0.2 -1.7,0.3 0,-0.1 0.2,-1.4 0.2,-1.4 0.8,-0.2 1.3,-0.3 1.9,-0.3 1.4,0 2.1,0.6 2.1,1.8 0,0.3 0,0.7 -0.1,1.2 -0.2,1 -0.5,2.9 -0.5,3.4 z m 2.2,0 h -1.6 l 0.1,-0.4 c 0.3,-1.9 0.6,-3.8 0.8,-5.7 h 1.5 c 0,0.3 -0.1,0.6 -0.1,0.9 0.5,-0.7 0.9,-1.1 1.6,-1 -0.2,0.3 -0.5,1 -0.6,1.8 -1,-0.1 -1.2,0.6 -1.7,4.4 z m 4.8,0 0.1,-0.6 c -0.4,0.5 -0.9,0.7 -1.5,0.7 -1.2,0 -2,-1 -2,-2.6 0,-2 1.2,-3.8 2.6,-3.8 0.6,0 1.1,0.3 1.5,0.8 l 0.4,-2.2 h 1.6 l -1.2,7.6 h -1.5 z"
       id="path72" />
  </g>
</svg>
