<!-- Generated by IcoMoon.io -->
<svg version="1.1" xmlns="http://www.w3.org/2000/svg" width="425" height="512" viewBox="0 0 425 512">
<g id="icomoon-ignore">
</g>
<path fill="#fff" d="M219.234 365.39h-219.234c0 0 0-34.113 0-51.637s32.797-41.757 50.584-71.485c17.787-29.728 31.131-37.197 31.131-91.347s11.956-81.95 31.117-111.21c18.591-28.369 48.173-38.965 96.755-39.593 0.175 0 0.336-0.117 0.526-0.117 0.673 0 1.272 0.044 1.944 0.059 0.673-0.014 1.257-0.059 1.944-0.059 0.19 0 0.336 0.117 0.526 0.117 48.583 0.628 78.165 11.225 96.756 39.593 19.161 29.261 31.116 57.059 31.116 111.21s13.344 61.619 31.132 91.347c17.787 29.728 50.584 53.961 50.584 71.485s-0.263 51.637-0.263 51.637h-204.619z"></path>
<path fill="#fff" d="M221.5 511.547c-3.8 0 0.921 0.365-2.266 0-3.186 0.365-14.411 0-18.196 0-75.402 0-69.498-102.31-69.498-102.31h160.772c0 0 4.589 102.31-70.813 102.31z"></path>
</svg>
