<svg xmlns="http://www.w3.org/2000/svg" width="512" height="512" viewBox="0 0 512 512">
  <path fill="#8A95B3" fill-rule="evenodd" d="M256,512 C114.615104,512 0,397.384896 0,256 C0,114.615104 114.615104,0 256,0 C397.384896,0 512,114.615104 512,256 C512,397.384896 397.384896,512 256,512 Z M216.224914,291.264914 L229.125486,217.482057 L292.320914,217.482057 L279.493486,291.264914 L216.224914,291.264914 Z M142.926629,321.664914 L181.911771,321.664914 L173.354057,370.624914 L202.3552,370.624914 L210.912914,321.664914 L274.218057,321.664914 L265.696914,370.624914 L294.7072,370.624914 L303.2192,321.664914 L346.446629,321.664914 L346.446629,291.264914 L308.503771,291.264914 L321.322057,217.482057 L360.718629,217.482057 L360.718629,187.082057 L326.606629,187.082057 L336.005486,133.020343 L307.004343,133.020343 L297.596343,187.082057 L234.428343,187.082057 L243.882057,133.020343 L214.890057,133.020343 L205.4272,187.082057 L156.878629,187.082057 L156.878629,217.482057 L200.1152,217.482057 L187.223771,291.264914 L142.926629,291.264914 L142.926629,321.664914 Z"/>
</svg>
