<svg xmlns="http://www.w3.org/2000/svg" width="17" height="15" viewBox="0 0 17 15"><path fill="#FFF" fill-rule="evenodd" d="M8.35532242,4.41746075 L5.5510278,6.42052834 C5.02195984,5.56783436 4.07729233,5 3,5 C1.34314575,5 0,6.34314575 0,8 C0,9.65685425 1.34314575,11 3,11 C3.98197252,11 4.85375144,10.5282051 5.40102553,9.79892669 L11.0002434,12.0386138 C11.0209185,13.6776725 12.3560362,15 14,15 C15.6568542,15 17,13.6568542 17,12 C17,10.3431458 15.6568542,9 14,9 C12.6840388,9 11.5659767,9.84730684 11.1616076,11.0261266 L5.86082664,8.90581418 C5.95123502,8.62001352 6,8.3157016 6,8 C6,7.78576901 5.97754469,7.57678275 5.93485939,7.37526653 L8.96903192,5.20800044 C9.50334632,5.69972872 10.2166071,6 11,6 C12.6568542,6 14,4.65685425 14,3 C14,1.34314575 12.6568542,0 11,0 C9.34314575,0 8,1.34314575 8,3 C8,3.51269195 8.12860786,3.99534592 8.35532242,4.41746075 Z"/></svg>