<!-- Generated by IcoMoon.io -->
<svg version="1.1" xmlns="http://www.w3.org/2000/svg" width="270" height="512" viewBox="0 0 270 512">
<g id="icomoon-ignore">
</g>
<path fill="#8795ac" d="M107.79 377.263h53.894l-26.947 134.737zM211.456 97.9c-0.165 4.069-0.258 8.846-0.258 13.644 0 35.102 5.016 69.033 14.369 101.114 22.805 6.496 40.93 29.221 43.879 56.496 0.028 44.971-60.307 81.162-134.709 81.162s-134.737-36.19-134.737-80.842c2.072-26.034 19.746-49.314 44.227-59.59 9.18-29.733 14.185-63.686 14.185-98.809 0-4.557-0.084-9.094-0.252-13.611-35.147-9.076-58.16-25.217-58.16-43.569 0-29.642 60.335-53.895 134.737-53.895s134.737 24.253 134.737 53.895c0 18.324-23.040 34.331-58.017 44.005z"></path>
</svg>
