<svg xmlns="http://www.w3.org/2000/svg" width="14.657" height="14.09" viewBox="3.753 3.926 14.657 14.09"><g fill="none" fill-rule="evenodd"><g><path d="M12.5626228,0.398674255 C12.1830803,-0.096014167 11.4617054,-0.133913683 11.0376647,0.305007701 C10.676578,0.678782661 10.6893108,1.10051558 11.0475138,1.59316685 C12.2683498,3.2723743 12.3642669,5.0334498 11.3265696,6.80241927 C10.3182863,8.52113899 8.33255333,9.40819138 6.31811622,9.14225816 C3.21190087,8.73215399 1.2662295,5.76839484 2.22562259,2.91145886 C2.40188473,2.38663757 2.6952261,1.92543483 3.02614462,1.47912877 C3.35653076,1.0335442 3.26292061,0.501592874 2.8200692,0.181632681 C2.41417383,-0.111589892 1.78090785,-0.0374884863 1.46520652,0.355936503 C0.228310366,1.89733911 -0.247282416,3.63757625 0.121878735,5.54456276 C0.740238081,8.73877473 3.58935827,10.9808303 6.97999763,10.9998862 C9.81651816,11.0158439 12.4578327,9.35250922 13.4743235,6.85385736 C14.4099814,4.55395514 14.0909083,2.39079675 12.5626228,0.398674255" transform="matrix(1, 0, 0, 1, 4, 3.9999999999999996) translate(0 3)" style="fill:#000"/></g><g><path d="M 1.01 8 C 1.584 7.998 1.999 7.581 1.999 7.003 C 2 5.997 1.999 4.991 1.999 3.984 C 1.999 2.985 2.002 1.986 1.996 0.987 C 1.995 0.849 1.974 0.7 1.917 0.574 C 1.724 0.148 1.253 -0.074 0.793 0.022 C 0.319 0.122 0.001 0.504 0 0.98 C 0 2.986 0 4.991 0 6.997 C 0 7.581 0.425 8.002 1.01 8" transform="matrix(1, 0, 0, 1, 4, 3.9999999999999996) translate(6)" style="fill:#000"/></g></g></svg>