<svg xmlns="http://www.w3.org/2000/svg" width="490" height="512" version="1.1" viewBox="0 0 490 512"><path fill="#8595ad" d="M343.209 244.748c25.319 0 50.637 5.626 73.143 16.879l75.956-81.582-163.165-30.945-84.395-149.099-81.583 149.099-163.165 30.945 115.341 123.78-19.692 168.791 92.835-45.011c-14.066-84.395 42.198-165.978 126.593-180.044 8.44 0 16.879-2.813 28.132-2.813z"/><path fill="#fabb2c" d="M343.209 292.572c-59.077 0-109.714 47.824-109.714 109.714s47.824 109.714 109.714 109.714c59.077 0 109.714-47.824 109.714-109.714s-50.637-109.714-109.714-109.714v0zM286.945 421.978c-11.252 0-19.692-8.44-19.692-19.692s8.44-19.692 19.692-19.692c11.252 0 19.692 8.44 19.692 19.692 0 0 0 0 0 0 0 11.252-11.252 19.692-19.692 19.692-2.813 0-2.813 0 0 0v0zM343.209 421.978c-11.252 0-19.692-8.44-19.692-19.692s8.44-19.692 19.692-19.692c11.252 0 19.692 8.44 19.692 19.692 0 0 0 0 0 0 0 11.252-8.44 19.692-19.692 19.692v0zM399.473 421.978c-11.252 0-19.692-8.44-19.692-19.692s8.44-19.692 19.692-19.692c11.252 0 19.692 8.44 19.692 19.692 0 0 0 0 0 0 0 11.252-8.44 19.692-19.692 19.692v0z"/></svg>