<svg xmlns="http://www.w3.org/2000/svg" width="778" height="512" version="1.1" viewBox="0 0 778 512"><path fill="#4b577e" d="M462.222 510.578c0-135.111-100.978-246.044-224.711-250.311-1.422 0-4.267 0-5.689 0s-4.267 0-5.689 0c-125.156 4.267-226.133 115.2-226.133 250.311 0 0 0 1.422 0 1.422l462.222-1.422c0 1.422 0 0 0 0zM231.822 236.089c65.422 0 119.466-52.622 120.889-118.044-1.422-65.422-54.044-116.622-118.044-118.044-1.422 0-1.422 0-2.845 0s-2.845 0-4.267 0c-64 1.422-116.622 52.622-118.044 116.622 2.844 66.844 55.466 119.467 122.311 119.467z"/><path fill="#4b577e" d="M777.956 264.534c0 49.778-22.755 98.134-62.578 129.422 71.111-58.311 82.489-163.555 25.6-234.667-7.111-8.534-15.644-17.066-25.6-25.6 39.822 32.711 62.578 81.067 62.578 130.844zM702.578 405.334c-8.534 5.689-18.489 11.378-28.444 15.644 9.956-5.689 18.489-9.955 28.444-15.644v0zM672.711 109.511c9.956 4.266 19.911 9.956 28.444 15.644-8.534-5.689-17.067-11.378-28.444-15.644v0zM642.845 288.711c-4.266-2.844-7.111-4.267-11.378-5.689-2.845-1.422-5.689-1.422-8.534-2.844v66.844c2.845 0 5.689-1.422 8.534-2.844 4.266-1.422 8.534-4.267 11.378-7.111s5.689-7.111 8.534-11.378c4.266-8.534 4.266-19.911 0-28.445-2.845-2.844-5.689-5.689-8.534-8.534v0zM578.845 194.845c-2.845 2.845-5.689 5.689-7.111 8.534-1.422 4.267-2.845 7.111-2.845 11.378s0 8.534 2.845 12.8c1.422 2.845 4.266 5.689 7.111 8.534s7.111 4.267 9.956 5.689c2.845 1.422 4.266 1.422 7.111 2.845v-56.889c-2.845 0-4.266 1.422-7.111 1.422s-7.111 2.845-9.956 5.689v0zM607.289 96.711c-92.445 1.422-167.822 78.222-166.4 170.666s78.222 167.822 170.667 166.4c92.444-1.422 166.4-76.8 166.4-167.822-1.422-93.867-76.8-169.244-170.667-169.244 0 0 0 0 0 0v0zM676.978 341.334c-4.266 7.111-9.956 12.8-15.644 18.489-7.111 5.689-14.222 8.534-21.333 11.378-5.689 1.422-11.378 2.844-18.489 4.267v15.644c0 2.844-2.845 5.689-5.689 5.689h-12.8c-2.845 0-5.689-2.844-5.689-5.689 0 0 0 0 0 0v-15.644c-14.222-1.422-27.022-5.689-36.978-14.222-12.8-9.956-19.911-24.178-22.755-38.4 0-2.844-1.422-5.689-1.422-7.111v-7.111c0-1.422 0-2.844 1.422-4.267s2.845-1.422 4.266-1.422h18.489c2.845 0 5.689 2.844 5.689 5.689 0 0 0 0 0 0 0 5.689 1.422 11.378 2.845 15.644s4.266 8.534 7.111 12.8c2.845 4.267 7.111 7.111 11.378 8.534 2.845 1.422 5.689 2.844 8.534 2.844v-72.534c-5.689-1.422-12.8-2.844-18.489-5.689-7.111-2.844-14.222-5.689-19.911-11.378-5.689-4.267-9.956-9.956-14.222-17.066-2.845-7.111-5.689-15.644-5.689-24.178s1.422-17.066 5.689-24.178c2.845-7.111 8.534-12.8 14.222-18.489s12.8-8.534 19.911-11.378c5.689-1.422 11.378-2.845 17.067-2.845v-11.378c0-2.845 2.845-5.689 5.689-5.689 0 0 0 0 0 0h12.8c2.845 0 5.689 2.845 5.689 5.689 0 0 0 0 0 0v11.378c5.689 0 11.378 1.422 17.067 2.845 7.111 2.845 14.222 5.689 19.911 11.378 5.689 4.267 9.956 11.378 12.8 17.066 2.845 7.111 5.689 15.644 5.689 22.756 0 1.422 0 2.845-1.422 4.267s-2.845 1.422-4.266 1.422h-18.489c-2.845 0-5.689-2.845-5.689-5.689 0 0 0 0 0 0 0-4.267-1.422-7.111-2.845-11.378-1.422-2.845-4.266-5.689-7.111-8.534s-5.689-4.267-9.956-5.689c-1.422-1.422-4.266-1.422-5.689-1.422v64c7.111 1.422 14.222 4.267 21.333 5.689 7.111 2.844 14.222 7.111 21.333 11.378 5.689 5.689 11.378 11.378 14.222 18.489 4.266 8.534 5.689 18.489 4.266 28.445 2.845 8.534 1.422 17.067-2.845 25.6v0z"/></svg>