<?xml version="1.0" encoding="UTF-8"?>
<svg version="1.1" viewBox="0 0 36 22" xmlns="http://www.w3.org/2000/svg">
<g fill="none" fill-rule="evenodd">
<g fill="#fff" fill-rule="nonzero">
<path d="m18.001 7c7.2636 0 14.825 5.3005 17.397 10.56l0.21472 0.43914-0.21463 0.43919c-2.5703 5.2596-10.133 10.561-17.397 10.561-7.2693 0-14.835-5.3013-17.4-10.562l-0.21356-0.43809 0.21348-0.43813c2.5629-5.2598 10.13-10.562 17.4-10.562zm-4.8462 2.8267-0.27005 0.091249c-4.4622 1.5491-8.4742 4.8323-10.259 8.0821 1.8215 3.3166 5.9613 6.667 10.532 8.1746-2.7892-1.6549-4.6584-4.6965-4.6584-8.1747 0-3.4769 1.8678-6.5176 4.6548-8.1733zm9.6898 1.368e-4 0.094928 0.056712c2.7347 1.6679 4.5604 4.6789 4.5604 8.1164 0 3.4775-1.8685 6.5186-4.6563 8.1741 4.4542-1.4716 8.5008-4.6953 10.391-7.9305l0.13833-0.24382-0.1384-0.24385c-1.8906-3.2351-5.936-6.4578-10.39-7.9291zm-4.8447 0.67315c-4.1421 0-7.5 3.3579-7.5 7.5s3.3579 7.5 7.5 7.5c4.1421 0 7.5-3.3579 7.5-7.5s-3.3579-7.5-7.5-7.5zm0 2.5c2.7614 0 5 2.2386 5 5s-2.2386 5-5 5c-2.7614 0-5-2.2386-5-5s2.2386-5 5-5z"/>
</g>
</g>
</svg>
