<svg xmlns="http://www.w3.org/2000/svg" width="512" height="512" version="1.1" viewBox="0 0 512 512"><path fill="#000" d="M231.519 164.721h52.808v15.738l30.426-17.487-30.426-17.487v15.738h-52.809v3.498z"/><path fill="#000" d="M165.421 229.071v52.809h-15.738l17.487 30.426 17.487-30.426h-15.738v-52.809h-3.498z"/><path fill="#000" d="M351.825 229.071v52.809h-15.738l17.486 30.426 17.486-30.426h-15.738v-52.809h-3.498z"/><path fill="#000" d="M301.115 356.022h-52.809v-15.738l-30.426 17.486 30.426 17.486v-15.738h52.809v-3.498z"/><path fill="#000" d="M217.53 162.972c0 27.814-22.547 50.361-50.361 50.361s-50.361-22.547-50.361-50.361c0-27.814 22.547-50.361 50.361-50.361s50.361 22.547 50.361 50.361z"/><path fill="#000" d="M196.896 357.771c0 16.418-13.309 29.727-29.727 29.727s-29.727-13.309-29.727-29.727c0-16.418 13.309-29.727 29.727-29.727s29.727 13.309 29.727 29.727z"/><path fill="#000" d="M378.404 162.972c0 13.714-11.117 24.831-24.831 24.831s-24.831-11.117-24.831-24.831c0-13.714 11.117-24.831 24.831-24.831s24.831 11.117 24.831 24.831z"/><path fill="#000" d="M395.192 357.771c0 22.985-18.633 41.618-41.618 41.618s-41.618-18.633-41.618-41.618c0-22.985 18.633-41.618 41.618-41.618s41.618 18.633 41.618 41.618z"/></svg>