<!-- Generated by IcoMoon.io -->
<svg version="1.1" xmlns="http://www.w3.org/2000/svg" width="512" height="512" viewBox="0 0 512 512">
<g id="icomoon-ignore">
</g>
<path fill="#000" d="M208.088 312.306c0-1.399 0-2.448 0-3.847 0-48.262 0-96.524 0-144.437-0.7-9.093 6.295-17.137 15.388-17.487 8.393-0.7 16.088 5.246 17.487 13.639 0.35 2.099 0.35 4.196 0.35 6.295 0 38.12 0 76.24 0 114.71 0 2.099-1.049 5.945 2.448 5.945s2.448-3.498 2.448-5.945c0-12.24 0-24.481 0-36.721-0.7-7.694 4.197-15.038 11.89-17.487 8.743-2.798 18.186 1.749 20.983 10.492 0.7 1.749 0.7 3.148 0.7 4.896 0 17.487 0 34.972 0 52.809 0 1.049-0.349 2.099 0 2.798 0.7 1.049 1.748 2.099 2.798 3.147 0.7-1.049 2.099-2.099 2.099-3.147 0.349-3.847 0-7.694 0-11.192 0-7.694 0-15.388 0-23.082-0.349-9.093 6.645-17.137 16.087-17.487 9.093-0.35 17.137 6.645 17.486 16.088 0 0.349 0 1.049 0 1.399 0 15.738 0 31.125 0 46.863 0 1.049 0 2.099 0.349 3.147s1.399 1.748 2.448 1.748c0.7 0 1.748-0.7 2.099-1.399 0.349-1.049 0.349-2.448 0.349-3.498 0-9.093 0-18.186 0-27.279 0-8.043 5.945-14.688 13.989-16.087 8.394-1.399 16.437 3.847 18.536 11.89 0.349 1.748 0.7 3.498 0.7 4.896 0 19.584 0.349 38.82-0.349 58.055-1.049 38.47-32.524 73.442-70.645 79.388s-73.093-11.89-89.53-45.464c-5.946-12.24-10.492-25.53-15.738-38.12-8.043-19.935-16.437-40.219-24.481-60.153-3.847-8.394-0.35-18.536 8.393-22.382v0c9.093-4.197 18.536 0 22.732 9.793 6.295 14.688 12.24 29.377 18.535 44.065 0.35 1.049 1.049 2.448 1.749 3.498l0.7-0.349z"></path>
<path fill="#000" d="M259.147 215.781l-5.946-9.792c5.246-3.148 9.792-7.345 13.64-11.891 18.536-23.082 14.688-57.355-8.394-75.891-11.191-9.093-25.18-12.94-39.519-11.541-14.339 1.749-27.279 8.743-36.022 19.934-9.093 11.192-12.94 25.181-11.541 39.519 1.749 14.339 8.743 27.279 19.935 36.022l-7.345 9.093c-13.639-10.841-22.382-26.579-24.131-43.716s3.148-34.273 13.989-48.263c10.841-13.639 26.579-22.383 43.716-24.131 17.487-2.099 34.273 3.147 48.263 13.989 28.328 22.383 32.875 63.651 10.142 91.978-4.896 5.595-10.492 10.492-16.787 14.689z"></path>
</svg>
