<!-- Generated by IcoMoon.io -->
<svg version="1.1" xmlns="http://www.w3.org/2000/svg" width="512" height="512" viewBox="0 0 512 512">
<g id="icomoon-ignore">
</g>
<path fill="#000" d="M172.416 304.612l42.666 42.666-12.59 12.59 38.82 10.492-10.492-38.47-12.59 12.59-43.017-42.666-2.798 2.798z"></path>
<path fill="#000" d="M175.213 206.689l42.667-42.317 12.94 12.59 10.492-38.47-38.82 10.492 12.59 12.59-42.666 42.317 2.798 2.798z"></path>
<path fill="#000" d="M160.175 256.349h60.153v17.836l34.623-19.935-34.273-19.935v17.836h-60.502v4.197z"></path>
<path fill="#000" d="M152.131 256c0 16.031-12.996 29.027-29.028 29.027s-29.028-12.996-29.028-29.028c0-16.031 12.996-29.028 29.028-29.028s29.028 12.996 29.028 29.028z"></path>
<path fill="#000" d="M349.377 122.055c0 18.928-15.344 34.273-34.273 34.273s-34.273-15.345-34.273-34.273c0-18.928 15.344-34.273 34.273-34.273s34.273 15.344 34.273 34.273z"></path>
<path fill="#000" d="M349.377 256c0 18.928-15.344 34.273-34.273 34.273s-34.273-15.344-34.273-34.273c0-18.928 15.344-34.273 34.273-34.273s34.273 15.345 34.273 34.273z"></path>
<path fill="#000" d="M349.377 389.945c0 18.928-15.344 34.273-34.273 34.273s-34.273-15.344-34.273-34.273c0-18.928 15.344-34.273 34.273-34.273s34.273 15.344 34.273 34.273z"></path>
</svg>
