<svg width="17" height="17" viewBox="0 0 17 17"><path fill="#FFF" fill-rule="evenodd" d="M7.02181791,16 L0,16 L0.516815581,12.6051871 C0.516815581,10.6223089 2.8411806,9 5.68236121,9 L7.02181791,9 C6.37499648,10.0103005 6,11.2113577 6,12.5 C6,13.7886423 6.37499648,14.9896995 7.02181791,16 Z M6.5,8 C4.56644666,8 3,6.43258427 3,4.5 C3,2.56679151 4.56644666,1 6.5,1 C8.43355334,1 10,2.56679151 10,4.5 C10,6.43258427 8.43355334,8 6.5,8 Z M15.9530371,15.3793961 C15.8811658,15.4893026 15.7348377,15.5199743 15.6262551,15.4499408 L15.6236698,15.447896 L14.8723813,14.9597062 L14.7922369,15.0322957 C14.560594,15.2434186 14.3025809,15.4213139 14.0259537,15.5608697 L13.9292635,15.6094331 L14.1112686,16.4912418 C14.1381558,16.6180178 14.0559432,16.7437714 13.9292635,16.7713759 L13.5223371,16.8582787 L12.8873871,16.9947674 C12.7607074,17.0218607 12.6355788,16.9410921 12.6092087,16.8138049 L12.4272035,15.9325074 L12.319138,15.9273954 C12.0109701,15.9135932 11.7059045,15.8583843 11.4080779,15.759724 L11.306217,15.7259852 L10.8103563,16.4835739 C10.7757132,16.5367381 10.7234901,16.5730328 10.6614429,16.5863238 C10.5999128,16.5996149 10.5368314,16.5883686 10.4840913,16.5541186 L9.59578182,15.97647 C9.48719918,15.9059253 9.45720968,15.759724 9.52804693,15.6503286 L10.0233906,14.8927399 L9.95151925,14.8135049 C9.74210986,14.5824454 9.56579233,14.3258263 9.42928843,14.0497819 L9.38120183,13.9536775 L8.49909711,14.1433303 C8.43756695,14.1561101 8.3744856,14.1448638 8.32174546,14.1111251 C8.26952238,14.0763639 8.2328111,14.023711 8.22040166,13.9623678 L8.08700012,13.318264 L8.00478755,12.9215779 C7.99237811,12.8607459 8.00427049,12.7973579 8.03839646,12.7447049 C8.07355656,12.6915408 8.1262967,12.6552461 8.1873098,12.6419551 L8.53891075,12.5662984 L9.06941453,12.4523023 L9.07561925,12.3444405 C9.09113105,12.0361908 9.15059298,11.7284523 9.2503856,11.4319601 L9.28502863,11.3292102 L8.53115485,10.8394869 C8.4225722,10.7689422 8.39206565,10.6227409 8.46393702,10.5138567 L9.04718094,9.62029049 C9.11801819,9.51140628 9.26434623,9.47971229 9.37344593,9.55025699 L10.1268027,10.0399803 L10.2074641,9.96739085 C10.4396241,9.75575676 10.6976371,9.57786143 10.9742643,9.43932801 L11.0709546,9.39025343 L10.8879153,8.5094671 C10.8615452,8.38217992 10.9437578,8.25591514 11.0714717,8.22882188 L12.1117968,8.00543034 C12.173327,7.99213931 12.2369254,8.00338557 12.2891485,8.03763553 C12.3418886,8.07188549 12.3780828,8.12453842 12.3904923,8.18639283 L12.5735316,9.06717916 L12.6810801,9.0722911 C12.9897651,9.08609332 13.2958647,9.1428358 13.5921402,9.23996256 L13.6940011,9.27421252 L14.1893447,8.51560142 C14.2606991,8.40620602 14.4075442,8.3760456 14.5156097,8.44607911 L15.4039192,9.02321653 C15.5125018,9.09376122 15.5430084,9.23996256 15.4716541,9.34884676 L14.9757933,10.1074579 L15.0486988,10.1866928 C15.2575911,10.4172411 15.4333916,10.6743714 15.5709296,10.9499047 L15.6190162,11.0460091 L16.5011209,10.8568675 C16.5626511,10.8435765 16.6257325,10.8548227 16.6774385,10.8890727 C16.7306957,10.9233226 16.7663728,10.9759756 16.7792993,11.03783 L16.9949134,12.0775975 C17.00784,12.1394519 16.9959476,12.2023287 16.9613045,12.2554928 C16.9266615,12.3076345 16.8734043,12.3444405 16.8118741,12.3577315 L15.9297694,12.5473843 L15.9240818,12.6552461 C15.9080529,12.9634957 15.8496251,13.2712342 15.7493154,13.5677264 L15.7151894,13.6699651 L16.4690632,14.1596884 C16.5771288,14.2302331 16.6076354,14.3769457 16.536281,14.4863411 L15.9530371,15.3793961 Z M13.6015549,12.2631 C13.5405616,11.9697171 13.3689295,11.7179124 13.1178644,11.5553372 C12.8667993,11.3922948 12.5670341,11.3376359 12.2724699,11.4002367 C11.9779058,11.4633047 11.7254222,11.6375591 11.5604095,11.889831 C11.3953968,12.1421029 11.3377133,12.4424933 11.3987065,12.7363434 C11.4218745,12.8465955 11.4611182,12.9493729 11.5121823,13.0437413 C11.6563911,13.3072253 11.9008368,13.5006337 12.1854719,13.5819213 C12.3566311,13.6309742 12.5419749,13.6398504 12.7282643,13.5996738 C12.9845304,13.5445477 13.2020256,13.4057982 13.3590004,13.2175286 C13.5731859,12.9610522 13.6743685,12.6139448 13.6015549,12.2631 Z"/></svg>