<!-- Generated by IcoMoon.io -->
<svg version="1.1" xmlns="http://www.w3.org/2000/svg" width="512" height="512" viewBox="0 0 512 512">
<g id="icomoon-ignore">
</g>
<path d="M256 0c-141.385 0-256 114.615-256 256s114.615 256 256 256 256-114.615 256-256-114.615-256-256-256zM256 128c70.692 0 128 57.308 128 128s-57.308 128-128 128-128-57.308-128-128 57.308-128 128-128zM408.735 408.735c-40.797 40.797-95.040 63.265-152.735 63.265-57.696 0-111.938-22.468-152.735-63.265s-63.265-95.039-63.265-152.735c0-57.695 22.468-111.938 63.265-152.735l33.941 33.941c0 0 0 0 0 0-65.503 65.503-65.503 172.085 0 237.588 31.731 31.731 73.919 49.206 118.794 49.206s87.062-17.475 118.794-49.206c65.503-65.503 65.503-172.084 0-237.588l33.941-33.941c40.797 40.797 63.265 95.040 63.265 152.735 0 57.696-22.468 111.938-63.265 152.735z"></path>
</svg>
