<!-- Generated by IcoMoon.io -->
<svg version="1.1" xmlns="http://www.w3.org/2000/svg" width="546" height="512" viewBox="0 0 546 512">
<g id="icomoon-ignore">
</g>
<path fill="#000" d="M0 0h256v102.4h-256v-102.4z"></path>
<path fill="#000" d="M290.134 0h256v102.4h-256v-102.4z"></path>
<path fill="#000" d="M0 136.534v102.4h256v-102.4h-256zM34.133 170.667h187.733v34.133h-187.733v-34.133z"></path>
<path fill="#000" d="M290.134 136.534v102.4h256v-102.4h-256zM324.267 170.667h187.733v34.133h-187.733v-34.133z"></path>
<path fill="#000" d="M0 273.067v102.4h256v-102.4h-256zM34.133 307.2h187.733v34.133h-187.733v-34.134z"></path>
<path fill="#000" d="M290.134 273.067v102.4h256v-102.4h-256zM324.267 307.2h187.733v34.133h-187.733v-34.134z"></path>
<path fill="#000" d="M0 409.6v102.4h256v-102.4h-256zM34.133 443.733h187.733v34.133h-187.733v-34.134z"></path>
<path fill="#000" d="M290.134 409.6v102.4h256v-102.4h-256zM324.267 443.733h187.733v34.133h-187.733v-34.134z"></path>
</svg>
