<!-- Generated by IcoMoon.io -->
<svg version="1.1" xmlns="http://www.w3.org/2000/svg" width="640" height="512" viewBox="0 0 640 512">
<g id="icomoon-ignore">
</g>
<path d="M616 0h-192c-13.2 0-31.637 7.637-40.971 16.971l-238.058 238.058c-9.334 9.334-9.334 24.607 0 33.941l206.059 206.059c9.334 9.334 24.607 9.334 33.941 0l238.059-238.059c9.333-9.333 16.97-27.77 16.97-40.97v-192c0-13.2-10.8-24-24-24zM496 192c-26.51 0-48-21.49-48-48s21.49-48 48-48 48 21.49 48 48-21.49 48-48 48z"></path>
<path d="M64 272l272-272h-40c-13.2 0-31.637 7.637-40.971 16.971l-238.058 238.058c-9.334 9.334-9.334 24.607 0 33.941l206.059 206.059c9.334 9.334 24.607 9.334 33.941 0l15.029-15.029-208-208z"></path>
</svg>
