<svg xmlns="http://www.w3.org/2000/svg" width="512" height="512" viewBox="0 0 512 512"><path fill="#8A95B3" fill-rule="evenodd" d="M256,512 C114.615104,512 0,397.384896 0,256 C0,114.615104 114.615104,0 256,0 C397.384896,0 512,114.615104 512,256 C512,397.384896 397.384896,512 256,512 Z M169.142857,210.285714 C186.815969,210.285714 201.142857,195.958826 201.142857,178.285714 C201.142857,160.612602 186.815969,146.285714 169.142857,146.285714 C151.469745,146.285714 137.142857,160.612602 137.142857,178.285714 C137.142857,195.958826 151.469745,210.285714 169.142857,210.285714 Z M169.142857,292.571429 C186.815969,292.571429 201.142857,278.244541 201.142857,260.571429 C201.142857,242.898317 186.815969,228.571429 169.142857,228.571429 C151.469745,228.571429 137.142857,242.898317 137.142857,260.571429 C137.142857,278.244541 151.469745,292.571429 169.142857,292.571429 Z M169.142857,374.857143 C186.815969,374.857143 201.142857,360.530255 201.142857,342.857143 C201.142857,325.184031 186.815969,310.857143 169.142857,310.857143 C151.469745,310.857143 137.142857,325.184031 137.142857,342.857143 C137.142857,360.530255 151.469745,374.857143 169.142857,374.857143 Z M260.571429,374.857143 C278.244541,374.857143 292.571429,360.530255 292.571429,342.857143 C292.571429,325.184031 278.244541,310.857143 260.571429,310.857143 C242.898317,310.857143 228.571429,325.184031 228.571429,342.857143 C228.571429,360.530255 242.898317,374.857143 260.571429,374.857143 Z M260.571429,210.285714 C278.244541,210.285714 292.571429,195.958826 292.571429,178.285714 C292.571429,160.612602 278.244541,146.285714 260.571429,146.285714 C242.898317,146.285714 228.571429,160.612602 228.571429,178.285714 C228.571429,195.958826 242.898317,210.285714 260.571429,210.285714 Z M260.571429,292.571429 C278.244541,292.571429 292.571429,278.244541 292.571429,260.571429 C292.571429,242.898317 278.244541,228.571429 260.571429,228.571429 C242.898317,228.571429 228.571429,242.898317 228.571429,260.571429 C228.571429,278.244541 242.898317,292.571429 260.571429,292.571429 Z M352,210.285714 C369.673112,210.285714 384,195.958826 384,178.285714 C384,160.612602 369.673112,146.285714 352,146.285714 C334.326888,146.285714 320,160.612602 320,178.285714 C320,195.958826 334.326888,210.285714 352,210.285714 Z M352,292.571429 C369.673112,292.571429 384,278.244541 384,260.571429 C384,242.898317 369.673112,228.571429 352,228.571429 C334.326888,228.571429 320,242.898317 320,260.571429 C320,278.244541 334.326888,292.571429 352,292.571429 Z"/></svg>