<svg xmlns="http://www.w3.org/2000/svg" width="630" height="512" version="1.1" viewBox="0 0 630 512"><path fill="#636464" d="M630.154 60.653c-21.634 9.899-46.73 17.108-73.053 20.354 25.529-16.005 45.673-40.831 55.462-70.377-23.39 13.412-50.922 24.341-80.256 30.311-25.32-24.747-58.748-40.328-95.815-40.328-71.49 0-129.444 57.954-129.444 129.444 0 10.304 1.204 20.328 3.479 29.936-107.853-6.465-202.573-57.581-266.162-135.188-11.507 17.975-18 40.388-18 64.317 0 44.624 22.58 83.974 56.938 107.248-20.82-0.704-40.493-6.718-57.673-16.583 0.619 0.851 0.614 1.465 0.614 2.079 0 62.010 43.602 113.835 101.82 126.49-9.252 2.983-20.857 4.609-32.842 4.609-8.7 0-17.199-0.856-25.419-2.49 17.843 51.909 65.27 88.833 121.477 89.931-43.385 33.996-98.867 54.51-159.139 54.51-11.33 0-22.491-0.725-33.438-2.131 57.373 36.561 125.962 58.219 199.61 58.219 203.014 0 367.589-164.575 367.589-367.589 0-5.561-0.124-11.093-0.368-16.593 25.467-17.723 46.9-39.908 64.027-65.243z"/></svg>