<!-- Generated by IcoMoon.io -->
<svg version="1.1" xmlns="http://www.w3.org/2000/svg" width="483" height="512" viewBox="0 0 483 512">
<g id="icomoon-ignore">
</g>
<path fill="#fff" d="M341.313 346.642l-29.231-7.74c0.001-0.181 0.002-0.396 0.002-0.61 0-12.613-1.762-24.815-5.051-36.373l26.423-14.014c4.306-2.447 7.163-7.002 7.163-12.226 0-2.613-0.715-5.058-1.96-7.152l-20.207-34.614c-2.546-4.264-7.135-7.076-12.382-7.076-2.63 0-5.094 0.706-7.214 1.939l-26.187 14.912c-8.466-8.469-18.049-15.82-28.512-21.81l7.138-29.199c0.312-1.105 0.492-2.374 0.492-3.685 0-6.54-4.466-12.036-10.515-13.607l-39.212-10.387c-1.114-0.31-2.393-0.488-3.714-0.488-6.556 0-12.089 4.385-13.824 10.381l-7.825 28.952c-0.125-0-0.272-0-0.42-0-12.835 0-25.258 1.767-37.038 5.072l-14.159-26.188c-2.569-4.264-7.174-7.072-12.434-7.072-2.63 0-5.097 0.702-7.223 1.929l-34.996 19.984c-4.306 2.447-7.163 7.002-7.163 12.226 0 2.613 0.715 5.058 1.96 7.152l15.087 25.892c-8.566 8.355-16.002 17.805-22.102 28.139l-29.575-7.111c-1.118-0.315-2.402-0.495-3.729-0.495-6.54 0-12.053 4.394-13.75 10.39l-10.502 38.798c-0.312 1.106-0.491 2.375-0.491 3.686 0 6.541 4.466 12.039 10.515 13.611l29.27 7.761c-0.001 0.147-0.001 0.32-0.001 0.493 0 12.649 1.805 24.877 5.172 36.439l-26.544 14.065c-4.297 2.461-7.146 7.019-7.146 12.243 0 2.604 0.708 5.043 1.942 7.135l20.266 34.613c2.545 4.264 7.136 7.075 12.382 7.075 2.63 0 5.094-0.706 7.214-1.939l26.187-14.948c8.468 8.479 18.051 15.841 28.513 21.846l-7.199 29.2c-0.299 1.087-0.472 2.334-0.472 3.622 0 6.55 4.451 12.062 10.493 13.674l39.273 10.382c1.118 0.315 2.403 0.495 3.728 0.495 6.54 0 12.053-4.394 13.75-10.39l7.883-28.952c0.197 0.001 0.43 0.002 0.663 0.002 12.746 0 25.086-1.739 36.796-4.993l14.158 26.127c2.548 4.262 7.139 7.072 12.387 7.072 2.627 0 5.090-0.704 7.21-1.935l35.056-19.985c4.297-2.461 7.146-7.019 7.146-12.243 0-2.604-0.708-5.043-1.942-7.135l-15.086-25.832c8.565-8.372 16.003-17.841 22.101-28.195l29.517 7.108c1.12 0.313 2.406 0.494 3.735 0.494 6.553 0 12.081-4.389 13.803-10.389l10.503-38.799c0.301-1.090 0.474-2.341 0.474-3.634 0-6.552-4.452-12.063-10.497-13.675zM197.179 260.352c35.078 9.256 60.522 40.7 60.522 78.086 0 7.376-0.99 14.521-2.845 21.308-9.809 34.242-41.335 59.295-78.713 59.295-7.552 0-14.865-1.022-21.809-2.938-34.478-9.121-59.901-40.545-59.901-77.906 0-7.392 0.995-14.551 2.859-21.352 9.773-34.24 41.283-59.3 78.645-59.3 7.555 0 14.87 1.024 21.815 2.942z"></path>
<path fill="#fff" d="M471.040 97.28l-21.671 0.637c-2.732-9.047-6.399-16.93-11.007-24.154l15.115-15.223c1.726-1.806 2.788-4.258 2.788-6.959 0-2.907-1.231-5.526-3.199-7.365l-21.14-19.688c-1.834-1.709-4.303-2.757-7.016-2.757-2.928 0-5.571 1.221-7.447 3.182l-14.947 15.614c-7.1-3.934-15.324-7.123-23.997-9.142l-1.246-21.56c-0.201-5.474-4.687-9.835-10.192-9.835-0.122 0-0.243 0.002-0.363 0.006l-29.036 0.863c-5.521 0.135-9.945 4.643-9.945 10.184 0 0.089 0.001 0.178 0.003 0.266l0.595 21.419c-9.132 2.724-17.091 6.384-24.395 10.989l-15.434-14.971c-1.844-1.707-4.32-2.755-7.041-2.755-2.94 0-5.594 1.222-7.481 3.186l-19.947 20.9c-1.726 1.806-2.788 4.258-2.788 6.959 0 2.907 1.231 5.526 3.199 7.365l15.842 14.74c-4.003 7.007-7.257 15.119-9.334 23.689l-21.803 1.291c-5.52 0.132-9.946 4.638-9.946 10.178 0 0.089 0.001 0.177 0.004 0.266l0.833 28.689c0.201 5.474 4.687 9.835 10.192 9.835 0.121 0 0.243-0.002 0.363-0.006l21.653-0.643c2.721 9.032 6.41 16.904 11.058 24.099l-15.166 15.278c-1.726 1.805-2.788 4.258-2.788 6.959 0 2.907 1.231 5.526 3.199 7.365l21.14 19.688c1.844 1.709 4.322 2.757 7.045 2.757 2.938 0 5.591-1.221 7.478-3.183l14.887-15.649c7.099 3.935 15.32 7.137 23.988 9.18l1.255 21.564c0.201 5.474 4.687 9.835 10.192 9.835 0.122 0 0.243-0.002 0.363-0.006l29.036-0.857c5.556-0.152 10.003-4.693 10.003-10.272 0-0.058-0-0.115-0.002-0.173l-0.655-21.424c9.152-2.704 17.133-6.355 24.457-10.953l15.372 14.936c1.844 1.709 4.322 2.757 7.045 2.757 2.938 0 5.591-1.221 7.478-3.183l19.947-20.906c1.726-1.805 2.788-4.258 2.788-6.959 0-2.907-1.231-5.526-3.199-7.365l-15.783-14.704c3.956-7.016 7.187-15.138 9.271-23.709l21.806-1.302c5.521-0.135 9.945-4.643 9.945-10.184 0-0.089-0.001-0.178-0.003-0.266l-0.833-28.689c-0.171-5.472-4.648-9.843-10.146-9.843-0.137 0-0.275 0.002-0.411 0.008zM354.173 67.382c0.291-0.005 0.636-0.008 0.981-0.008 31.957 0 57.862 25.906 57.862 57.862s-25.906 57.862-57.862 57.862c-31.353 0-56.881-24.936-57.834-56.058-0.014-0.521-0.021-1.031-0.021-1.542 0-31.662 25.315-57.413 56.808-58.115z"></path>
</svg>
