<svg xmlns="http://www.w3.org/2000/svg" width="453" height="512" version="1.1" viewBox="0 0 453 512"><path fill="#95a0b8" d="M19.692 452.923v-413.538h315.077v98.462h19.692v-118.154c0-11.816-7.877-19.692-19.692-19.692h-315.077c-11.816 0-19.692 7.877-19.692 19.692v472.615c0 11.815 7.877 19.692 19.692 19.692h256v-59.077h-256zM196.923 492.308h-39.385v-19.692h39.385v19.692z"/><path fill="#95a0b8" d="M433.231 157.538h-118.154c-11.815 0-19.692 7.877-19.692 19.692v315.077c0 11.815 7.877 19.692 19.692 19.692h118.154c11.815 0 19.692-7.877 19.692-19.692v-315.077c0-11.815-7.877-19.692-19.692-19.692zM354.462 177.231h39.385v19.692h-39.385v-19.692zM393.846 492.308h-39.385v-19.692h39.385v19.692zM433.231 452.923h-118.154v-236.308h118.154v236.308z"/></svg>