<?xml version="1.0" encoding="UTF-8"?>
<svg version="1.1" viewBox="0 0 36 22" xmlns="http://www.w3.org/2000/svg">
<g fill="none" fill-rule="evenodd">
<g fill="#fff" fill-rule="nonzero">
<path d="m21.915 14.879c0.67921 0.85375 1.085 1.9347 1.085 3.1105 0 2.7614-2.2386 5-5 5-1.1761 0-2.2574-0.40608-3.1113-1.0857l-2.1679 2.1679-1.0238 1.0258-0.0012378-0.0018426-7.121 7.122-1.4142-1.4142 4.8365-4.8372c-3.3312-2.0106-6.0511-4.7802-7.3957-7.5385l-0.21356-0.43809 0.21348-0.43813c2.5629-5.2598 10.13-10.562 17.4-10.562 2.4795 0 4.9938 0.61766 7.3324 1.6405l4.861-4.8603 1.4142 1.4142-4.3822 4.3818-1.4781 1.4791-0.0014975-1.461e-4 -0.63963 0.64079c3.002e-4 3.382e-4 6.004e-4 6.764e-4 9.005e-4 0.0010146l-1.4183 1.4165zm7.0673-4.2394c2.8788 1.9386 5.2024 4.4289 6.4156 6.9102l0.21472 0.43914-0.21463 0.43919c-2.5703 5.2596-10.133 10.561-17.397 10.561-2.0807 0-4.1858-0.43435-6.1909-1.1778l1.5743-1.5747 1.4469-1.4479c0.96256 0.44932 2.0363 0.70028 3.1687 0.70028 4.1421 0 7.5-3.3579 7.5-7.5 0-1.1324-0.25095-2.2061-0.70028-3.1687l1.4847-1.4844c0.77407 1.3752 1.2156 2.9626 1.2156 4.6531 0 3.4758-1.8667 6.5157-4.6523 8.1718 4.4526-1.4712 8.4973-4.6938 10.387-7.9282l0.13833-0.24382-0.1384-0.24385c-1.1903-2.0368-3.2347-4.0686-5.6973-5.6616l1.4452-1.4442zm-15.824-0.82523-0.27304 0.093027c-4.4622 1.5491-8.4742 4.8323-10.259 8.0821 1.3113 2.3875 3.824 4.7926 6.834 6.5151l0.88578-0.88683c-1.1603-1.5753-1.846-3.5218-1.846-5.6284 0-3.4782 1.8692-6.5198 4.6578-8.1751zm4.8422 0.67506c-4.1421 0-7.5 3.3579-7.5 7.5 0 1.5533 0.47219 2.9963 1.2809 4.1933l1.8181-1.8183c-0.38207-0.70651-0.59898-1.5154-0.59898-2.375 0-2.7614 2.2386-5 5-5 0.85992 0 1.6691 0.21708 2.3758 0.59943l1.8175-1.8186c-1.197-0.80867-2.64-1.2809-4.1933-1.2809zm4.8486-0.67185 0.1861 0.11418c0.20305 0.12714 0.40094 0.26174 0.5933 0.40341l0.17399-0.17362c-0.31525-0.12328-0.63327-0.23815-0.9534-0.34398z"/>
</g>
</g>
</svg>
