<svg xmlns="http://www.w3.org/2000/svg" width="398" height="512" version="1.1" viewBox="0 0 398 512"><path fill="#636464" d="M117.148 252.397h160.22c31.507 0 89.495 0 93.517 232.118h-343.903c2.178-97.204 18.268-232.286 90.165-232.788zM117.148 225.079c-68.379 0-117.316 75.418-117.316 286.25h398.036c0-230.442-45.921-284.91-120.5-284.91v0h-159.717z"/><path fill="#636464" d="M197.761 26.648c0.174-0.002 0.381-0.003 0.587-0.003 40.172 0 72.738 32.566 72.738 72.738 0 39.966-32.233 72.403-72.12 72.735h-1.708c-19.090-0.23-36.273-8.209-48.584-20.93-12.957-13.414-20.93-31.678-20.93-51.805s7.973-38.392 20.932-51.808c12.698-12.913 30.385-20.928 49.943-20.928 0.111 0 0.221 0 0.332 0.001zM198.934 0c-54.796 0-99.216 44.42-99.216 99.216s44.42 99.216 99.216 99.216v0c54.796 0 99.215-44.421 99.215-99.216s-44.421-99.216-99.216-99.216z"/></svg>