<svg xmlns="http://www.w3.org/2000/svg" width="710" height="512" version="1.1" viewBox="0 0 710 512"><path fill="#4b577e" d="M521.956 190.578c52.622 0 96.711-42.667 98.134-95.289-1.422-52.622-42.667-93.867-95.289-95.289-1.422 0-1.422 0-2.845 0s-1.422 0-2.845 0c-52.622 1.422-93.866 42.666-95.289 95.289 1.422 52.622 45.511 95.289 98.134 95.289zM462.222 510.578c0-135.111-100.978-246.044-224.711-250.311-1.422 0-4.267 0-5.689 0s-4.267 0-5.689 0c-125.156 4.267-224.711 115.2-226.133 250.311 0 0 0 1.422 0 1.422l462.222-1.422c0 1.422 0 0 0 0v0zM709.689 413.866c0-109.511-81.067-199.111-182.044-201.956-1.422 0-2.845 0-4.266 0s-2.845 0-4.266 0c-49.778 1.422-96.711 24.178-129.422 61.155 46.933 35.555 82.489 85.334 99.555 142.222l220.445-1.422c0 0 0 0 0 0v0zM231.822 236.089c65.422 0 119.466-52.622 120.889-118.044-1.422-65.422-54.044-116.622-118.044-118.044-1.422 0-1.422 0-2.845 0s-1.422 0-2.845 0c-64 1.422-116.622 52.622-118.044 116.622 1.422 66.844 55.466 119.467 120.889 119.467z"/></svg>