<svg xmlns="http://www.w3.org/2000/svg" width="879" height="512" version="1.1" viewBox="0 0 879 512"><path fill="#757575" d="M315.531 373.353l37.615-233.618 60.308-0.155-37.459 233.773z"/><path fill="#757575" d="M594.691 145.175c-11.968-4.663-30.776-9.948-54.246-9.948-59.687 0-101.654 31.864-101.81 77.406-0.466 33.574 30.154 52.226 53.003 63.261 23.315 11.346 31.398 18.808 31.398 29.066-0.311 15.699-18.808 22.849-36.216 22.849-24.092 0-36.993-3.731-56.733-12.435l-7.927-3.731-8.394 52.382c14.144 6.373 40.257 12.124 67.303 12.435 63.417 0 104.607-31.397 105.074-79.893 0.155-26.579-16.010-46.941-50.827-63.572-21.139-10.725-34.040-17.875-34.040-28.756 0.311-9.948 10.881-20.207 34.817-20.207 19.585-0.466 34.040 4.196 45.076 8.859l5.44 2.487 8.082-50.205z"/><path fill="#757575" d="M675.206 290.195c4.974-13.368 24.092-65.438 24.092-65.438-0.311 0.466 4.974-13.678 7.927-22.382l4.197 20.051c0 0 11.502 55.957 13.989 67.614-9.481 0.156-38.392 0.156-50.205 0.156v0zM749.659 139.269h-46.785c-14.456 0-25.336 4.197-31.553 19.429l-89.53 214.344h63.417c0 0 10.414-28.911 12.59-35.128 6.995 0 68.547 0 77.562 0 1.71 8.238 7.306 34.973 7.306 34.973h55.957l-48.962-233.618z"/><path fill="#757575" d="M264.86 139.736l-59.065 159.32-6.528-32.33c-11.036-37.304-45.232-77.717-83.624-97.923l54.402 204.24h63.883l94.815-233.462-63.884 0.155z"/><path fill="#757575" d="M150.771 139.891h-97.147l-0.932 4.663c75.852 19.274 126.057 66.059 146.73 122.171l-21.294-107.405c-3.419-14.766-14.144-18.963-27.357-19.429v0z"/></svg>