<svg xmlns="http://www.w3.org/2000/svg" xmlns:xlink="http://www.w3.org/1999/xlink" width="21" height="20"><g><g><path d="M9.49666724,14.6666836 L6.54923991,14.6260694 C6.07264522,13.293262 5.81072535,11.8502162 5.78751726,10.3491501 L9.55551633,10.4013683 L9.49666724,14.6666836 Z M9.43450272,19.1143481 C8.3379205,18.0873901 7.47176145,16.8200627 6.85260279,15.3993961 L9.48589206,15.4366948 L9.43450272,19.1143481 Z M3.30756715,16.41475 C2.97768074,16.0774038 2.68675076,15.7135342 2.4165423,15.3380604 L6.01959815,15.3886209 C6.57493458,16.7620425 7.36318075,17.9987021 8.33626278,19.0571567 C6.43154174,18.7256126 4.68181758,17.821326 3.30756715,16.41475 L3.30756715,16.41475 Z M0.702459131,10.278697 L5.0365698,10.3383749 C5.05729131,11.8319812 5.30346283,13.2725405 5.75187627,14.6144654 L1.91425293,14.5614183 C1.16579206,13.263423 0.748875309,11.8029711 0.702459131,10.278697 L0.702459131,10.278697 Z M2.0236625,5.26077652 L5.86045697,5.31465244 C5.3813757,6.64414441 5.10122091,8.07724393 5.04402954,9.56919252 L0.710747734,9.50868572 C0.792804907,7.96203234 1.26111099,6.51649992 2.0236625,5.26077652 L2.0236625,5.26077652 Z M8.58492088,0.891024856 C7.57039583,1.93538887 6.74402208,3.16956191 6.14890037,4.54795664 L2.54170021,4.49822502 C3.97645744,2.59350398 6.12735,1.25738112 8.58492088,0.891024856 L8.58492088,0.891024856 Z M9.68813398,0.861185884 L9.63674464,4.5968594 L6.97527412,4.56038954 C7.63421808,3.13309205 8.54762216,1.87073777 9.68813398,0.861185884 L9.68813398,0.861185884 Z M10.4581452,0.871961068 C11.5704758,1.91300964 12.4482389,3.2010586 13.0682264,4.6449333 L10.4067559,4.60763458 L10.4581452,0.871961068 Z M16.5850808,3.57073031 C16.9323733,3.92631139 17.2373939,4.30924486 17.5192064,4.70626896 L13.8937713,4.65570848 C13.3367772,3.25990768 12.5435578,2.0016977 11.557214,0.929152431 C13.4611062,1.26069656 15.2108304,2.16498318 16.5850808,3.57073031 L16.5850808,3.57073031 Z M19.1926754,9.76563242 L14.8585647,9.70512562 C14.8428164,8.21234816 14.6024469,6.77261776 14.1606643,5.42986403 L18.0132071,5.48291109 C18.750064,6.78339295 19.1562055,8.24301599 19.1926754,9.76563242 L19.1926754,9.76563242 Z M12.6687157,18.7728576 C12.2269332,18.9096196 11.7760332,19.0248312 11.3093848,19.0944554 C11.6848585,18.70572 12.0255201,18.2796857 12.3487756,17.8362455 L12.0445839,16.9468783 C11.5165999,17.7566749 10.9065587,18.4951894 10.204514,19.1176635 L10.2559033,15.4466411 L11.5373214,15.4648761 L11.2729149,14.6915494 L10.2666785,14.6774587 L10.3056349,11.8618202 L9.54308342,9.63135705 L5.79580586,9.57913885 C5.85382609,8.07973051 6.15138695,6.64497327 6.65699175,5.32542763 L9.62596945,5.36687064 L9.57292239,9.18708791 L10.3379605,9.51614546 L10.3951518,5.37764583 L13.3641295,5.41908884 C13.8332645,6.75189626 14.0902112,8.19411323 14.1067884,9.69517929 L10.6413234,9.64710539 L11.6541907,10.0822571 L12.4764201,10.4419825 L14.0926978,10.4643617 C14.0827515,10.6864962 14.0570568,10.9053154 14.0363353,11.1249634 L14.7549572,11.4399303 C14.7582726,11.441588 14.7607592,11.4424169 14.7640746,11.4440746 C14.8005445,11.1233056 14.8295546,10.800879 14.8436452,10.4751369 L19.1785848,10.5356437 C19.12388,11.4449035 18.9224669,12.3118914 18.6199329,13.1324631 C18.874393,13.2435304 19.0874101,13.3371916 19.2697594,13.417591 C19.6502063,12.3898042 19.8756563,11.28742 19.8922335,10.1311598 C19.9676598,4.66399708 15.5763578,0.170745228 10.0835004,0.0936612174 C10.0362553,0.0928323571 9.98983914,0.0928323571 9.9425941,0.0928323571 C4.51438779,0.0936612174 0.0766695806,4.43523163 0.000414430166,9.85432048 C-0.07501186,15.3214832 4.31629017,19.8147351 9.80831873,19.8918191 C9.85639263,19.8926479 9.9028088,19.8926479 9.95005384,19.8926479 C10.9770118,19.8926479 11.966671,19.7368222 12.8999678,19.4483788 L12.6687157,18.7728576 Z" transform="translate(.569 -.026)"/></g><g><path d="M9.94632397,4.65114975 C8.87875187,5.01336171 7.8103509,5.37557368 6.7029935,5.75104741 C7.64126339,6.64953201 8.5563252,7.52480852 9.48464877,8.41334679 C9.13901401,8.77307217 8.80001013,9.1278244 8.44774449,9.49500952 C7.48626651,8.57580341 6.53639257,7.66903021 5.5599951,6.73656234 C5.03532651,7.80413445 4.51977539,8.85264277 3.98184503,9.9467384 C2.9167595,6.83271014 1.86576461,3.76095375 0.80150794,0.647754349 C1.01784049,0.740586706 1.19687432,0.816841856 1.37507929,0.894754727 C4.15341912,2.11235055 9.86758224,4.61053559 9.94632397,4.65114975" transform="translate(10.515 9.92)"/></g></g></svg>