<!-- Generated by IcoMoon.io -->
<svg version="1.1" xmlns="http://www.w3.org/2000/svg" width="431" height="512" viewBox="0 0 431 512">
<g id="icomoon-ignore">
</g>
<path fill="#000" d="M358.819 511.988l-358.819-72.797v-264.774l358.819-72.797 71.715 26.472v357.434l-71.715 26.461zM156.765 222.72l-79.616 11.416v61.672h79.616v-73.088zM156.765 305.978h-79.616v67.060l79.616 11.392v-78.452zM267.136 207.208l-100.375 14.918v73.681h100.375v-88.6zM267.136 305.978h-100.375v79.080l100.375 14.894v-93.976zM280.658 90.507c0-29.778 0.651-44.044-33.431-39.075-0.465-4.771-1.152-9.216-2.013-13.3 41.216-6.261 48.337 6.133 48.337 52.376v8.32l-12.893 2.688v-11.008zM169.624 124.043v-20.305c0-42.182 15.907-48.815 37.679-56.576 0.826 3.782 1.304 8.343 1.397 13.754-19.037 8.332-26.368 14.313-26.042 42.927v17.536l-13.032 2.665zM221.8 61.882c0-22.191-3.398-57.077-56.727-44.381-35.41 8.425-54.586 19.956-54.179 57.623v60.835l-13.032 2.63v-64.71c0-55.040 32.64-63.313 64.605-70.668 59.357-13.649 72.262 17.803 72.39 59.811v47.744l-13.056 2.677v-51.56z"></path>
</svg>
